M48
; DRILL file {KiCad 9.0.3+dfsg-1} date 2026-04-08T20:55:33-0700
; FORMAT={-:-/ absolute / inch / decimal}
; #@! TF.CreationDate,2026-04-08T20:55:33-07:00
; #@! TF.GenerationSoftware,Kicad,Pcbnew,9.0.3+dfsg-1
; #@! TF.FileFunction,MixedPlating,1,2
FMAT,2
INCH
; #@! TA.AperFunction,Plated,PTH,ComponentDrill
T1C0.0079
; #@! TA.AperFunction,Plated,PTH,ViaDrill
T2C0.0098
; #@! TA.AperFunction,Plated,PTH,ViaDrill
T3C0.0118
; #@! TA.AperFunction,Plated,PTH,ViaDrill
T4C0.0197
; #@! TA.AperFunction,Plated,PTH,ComponentDrill
T5C0.0315
; #@! TA.AperFunction,Plated,PTH,ComponentDrill
T6C0.0394
; #@! TA.AperFunction,Plated,PTH,ComponentDrill
T7C0.0433
; #@! TA.AperFunction,NonPlated,NPTH,ComponentDrill
T8C0.0630
%
G90
G05
T1
X1.8461Y-1.6933
X1.8461Y-1.7484
X1.853Y-5.4493
X1.853Y-5.5005
X1.8736Y-1.6657
X1.8736Y-1.7209
X1.8736Y-1.776
X1.9012Y-1.6933
X1.9012Y-1.7484
X1.9041Y-5.4493
X1.9041Y-5.5005
X1.9287Y-1.6657
X1.9287Y-1.7209
X1.9287Y-1.776
X1.9553Y-5.4493
X1.9553Y-5.5005
X1.9563Y-1.6933
X1.9563Y-1.7484
T2
X1.6142Y-5.8661
X1.6535Y-2.313
X1.6732Y-6.1614
X1.6732Y-6.437
X1.7126Y-6.4173
X1.7323Y-1.5138
X1.7323Y-2.0472
X1.7323Y-6.063
X1.752Y-6.1024
X1.7717Y-5.9646
X1.811Y-2.3307
X1.8465Y-5.8976
X1.8465Y-5.9646
X1.8504Y-2.9724
X1.8533Y-2.2638
X1.8681Y-5.8976
X1.8681Y-5.9646
X1.8701Y-2.0669
X1.8701Y-2.4016
X1.8898Y-2.7756
X1.8898Y-5.8976
X1.8898Y-5.9646
X1.8898Y-6.3976
X1.9094Y-2.0669
X1.9094Y-6.063
X1.9114Y-5.8976
X1.9114Y-5.9646
X1.9331Y-5.8976
X1.9331Y-5.9646
X1.9488Y-2.0669
X1.9488Y-5.8465
X1.9685Y-2.6378
X1.9685Y-2.7165
X1.9882Y-2.0669
X2.0079Y-5.8858
X2.0276Y-2.0669
X2.0276Y-5.2756
X2.0472Y-5.8465
X2.0866Y-5.9252
X2.1049Y-6.378
X2.1063Y-2.3622
X2.1063Y-6.2598
X2.1063Y-6.8898
X2.126Y-5.1772
X2.1457Y-2.0472
X2.1457Y-2.5197
X2.1457Y-3.878
X2.1457Y-6.8701
X2.185Y-2.0079
X2.185Y-2.7756
X2.2047Y-2.5591
X2.2244Y-2.6969
X2.2441Y-5.8268
X2.2638Y-3.1693
T3
X1.6142Y-2.1654
X1.6142Y-5.6496
X1.6339Y-2.5984
X1.6535Y-5.315
X1.6535Y-5.4528
X1.6732Y-1.4173
X1.6732Y-1.4764
X1.7323Y-2.3031
X1.7717Y-5.4134
X1.782Y-2.8637
X1.7913Y-5.5709
X1.811Y-2.185
X1.811Y-2.2638
X1.8307Y-3.0709
X1.8307Y-3.2874
X1.8504Y-2.9331
X1.8504Y-3.189
X1.8701Y-4.2126
X1.9043Y-5.315
X1.9094Y-5.6693
X1.9291Y-5.6299
X1.9488Y-2.815
X1.9488Y-3.2874
X2.0276Y-5.6496
X2.0669Y-2.0669
X2.0669Y-4.4685
X2.0669Y-5.4724
X2.0866Y-4.0551
X2.0866Y-4.1929
X2.1063Y-2.0079
X2.1063Y-2.3228
X2.126Y-5.5709
X2.1654Y-3.2118
X2.185Y-3.1102
X2.185Y-3.8386
X2.2047Y-3.3661
X2.2441Y-1.4173
X2.2441Y-3.7795
X2.2441Y-3.9838
X2.2638Y-6.122
X2.2835Y-2.1457
X2.2835Y-2.2441
X2.2835Y-2.2835
X2.3228Y-2.1457
T4
X1.6138Y-6.8701
X1.624Y-6.063
X1.624Y-6.5157
X1.6339Y-3.7992
X1.6339Y-3.8386
X1.6732Y-3.7992
X1.6732Y-3.8386
X1.7126Y-3.7992
X1.7126Y-3.8386
X1.7323Y-2.1654
X1.752Y-3.7992
X1.752Y-3.8386
X1.7913Y-4.252
X1.811Y-3.3465
X1.811Y-3.3858
X1.811Y-3.4252
X1.811Y-3.4646
X1.8307Y-5.2559
X1.8504Y-3.3465
X1.8504Y-3.3858
X1.8504Y-3.4252
X1.8504Y-3.4646
X2.0866Y-4.8031
X2.1654Y-4.1339
X2.185Y-2.9724
X2.185Y-6.7717
X2.1864Y-5.6876
X2.2835Y-6.4961
X2.313Y-6.1811
T5
X2.0079Y-3.6516
X2.0079Y-3.7894
T6
X1.9488Y-3.0118
X1.9488Y-3.1118
X1.9488Y-3.2118
T7
X1.8307Y-4.3307
X1.8307Y-4.5866
X2.0079Y-4.3307
X2.0079Y-4.5866
T8
X1.8307Y-7.2835
T6
G00X1.6535Y-7.1752
M15
G01X1.6535Y-7.2343
M16
G05
G00X1.8701Y-6.9291
M15
G01X1.7913Y-6.9291
M16
G05
G00X1.8563Y-7.1654
M15
G01X1.8051Y-7.1654
M16
G05
G00X2.0079Y-7.1752
M15
G01X2.0079Y-7.2343
M16
G05
M30
