%TF.GenerationSoftware,KiCad,Pcbnew,9.0.7*%
%TF.CreationDate,2026-04-06T16:16:28-07:00*%
%TF.ProjectId,PolySaber,506f6c79-5361-4626-9572-2e6b69636164,rev?*%
%TF.SameCoordinates,Original*%
%TF.FileFunction,Copper,L2,Bot*%
%TF.FilePolarity,Positive*%
%FSLAX46Y46*%
G04 Gerber Fmt 4.6, Leading zero omitted, Abs format (unit mm)*
G04 Created by KiCad (PCBNEW 9.0.7) date 2026-04-06 16:16:28*
%MOMM*%
%LPD*%
G01*
G04 APERTURE LIST*
G04 Aperture macros list*
%AMRoundRect*
0 Rectangle with rounded corners*
0 $1 Rounding radius*
0 $2 $3 $4 $5 $6 $7 $8 $9 X,Y pos of 4 corners*
0 Add a 4 corners polygon primitive as box body*
4,1,4,$2,$3,$4,$5,$6,$7,$8,$9,$2,$3,0*
0 Add four circle primitives for the rounded corners*
1,1,$1+$1,$2,$3*
1,1,$1+$1,$4,$5*
1,1,$1+$1,$6,$7*
1,1,$1+$1,$8,$9*
0 Add four rect primitives between the rounded corners*
20,1,$1+$1,$2,$3,$4,$5,0*
20,1,$1+$1,$4,$5,$6,$7,0*
20,1,$1+$1,$6,$7,$8,$9,0*
20,1,$1+$1,$8,$9,$2,$3,0*%
G04 Aperture macros list end*
%TA.AperFunction,HeatsinkPad*%
%ADD10C,0.600000*%
%TD*%
%TA.AperFunction,ComponentPad*%
%ADD11R,1.700000X1.700000*%
%TD*%
%TA.AperFunction,ComponentPad*%
%ADD12C,1.700000*%
%TD*%
%TA.AperFunction,ComponentPad*%
%ADD13RoundRect,0.250000X0.750000X-0.750000X0.750000X0.750000X-0.750000X0.750000X-0.750000X-0.750000X0*%
%TD*%
%TA.AperFunction,ComponentPad*%
%ADD14C,2.000000*%
%TD*%
%TA.AperFunction,ViaPad*%
%ADD15C,0.500000*%
%TD*%
%TA.AperFunction,ViaPad*%
%ADD16C,1.000000*%
%TD*%
%TA.AperFunction,ViaPad*%
%ADD17C,0.600000*%
%TD*%
%TA.AperFunction,ViaPad*%
%ADD18C,0.800000*%
%TD*%
%TA.AperFunction,Conductor*%
%ADD19C,0.250000*%
%TD*%
%TA.AperFunction,Conductor*%
%ADD20C,0.200000*%
%TD*%
%TA.AperFunction,Conductor*%
%ADD21C,0.500000*%
%TD*%
G04 APERTURE END LIST*
D10*
%TO.P,U1,39,GND*%
%TO.N,GND*%
X183100000Y-70200000D03*
X183100000Y-71600000D03*
X183800000Y-69500000D03*
X183800000Y-70900000D03*
X183800000Y-72300000D03*
X184500000Y-70200000D03*
X184500000Y-71600000D03*
X185200000Y-69500000D03*
X185200000Y-70900000D03*
X185200000Y-72300000D03*
X185900000Y-70200000D03*
X185900000Y-71600000D03*
%TD*%
D11*
%TO.P,J1,1,Pin_1*%
%TO.N,Net-(J1-Pin_1)*%
X207500000Y-64500000D03*
D12*
%TO.P,J1,2,Pin_2*%
%TO.N,Net-(J1-Pin_2)*%
X207500000Y-67040000D03*
%TO.P,J1,3,Pin_3*%
%TO.N,GND*%
X207500000Y-69580000D03*
%TD*%
D13*
%TO.P,C12,1*%
%TO.N,5V*%
X196500000Y-102367677D03*
D14*
%TO.P,C12,2*%
%TO.N,GND*%
X196500000Y-97367677D03*
%TD*%
D15*
%TO.N,GND*%
X184000000Y-89000000D03*
D16*
X204000000Y-92000000D03*
X182000000Y-104000000D03*
X203000000Y-93000000D03*
X204000000Y-91000000D03*
D15*
X191000000Y-87500000D03*
D16*
X203000000Y-94000000D03*
D15*
X192500000Y-84500000D03*
D17*
X202000000Y-68000000D03*
D16*
X190500000Y-97000000D03*
D15*
X178500000Y-84500000D03*
D18*
X170000000Y-96000000D03*
D16*
X180000000Y-104000000D03*
D15*
X179500000Y-82000000D03*
X188500000Y-85500000D03*
X168000000Y-90500000D03*
D18*
X175500000Y-63000000D03*
D16*
X203000000Y-92000000D03*
X204000000Y-94000000D03*
D17*
X200000000Y-65500000D03*
D16*
X183000000Y-103000000D03*
X178500000Y-97000000D03*
X181000000Y-103000000D03*
D18*
X162625000Y-69000000D03*
D16*
X183000000Y-104000000D03*
X203000000Y-91000000D03*
X181000000Y-104000000D03*
D15*
X193000000Y-93000000D03*
D16*
X204000000Y-93000000D03*
D15*
X183500000Y-83000000D03*
D16*
X180000000Y-103000000D03*
D15*
X193000000Y-89000000D03*
D16*
X182000000Y-103000000D03*
D15*
X176000000Y-86000000D03*
%TO.N,+3.3V*%
X188500000Y-88500000D03*
X179312500Y-90312500D03*
D18*
X174500000Y-73500000D03*
X170000000Y-83500000D03*
D15*
X189500000Y-85500000D03*
D18*
X175500000Y-64500000D03*
X178000000Y-85500000D03*
D15*
X201000000Y-80000000D03*
%TO.N,Net-(U3-OUTP)*%
X174500000Y-92500000D03*
X171500000Y-93500000D03*
D17*
%TO.N,Net-(J1-Pin_2)*%
X200500000Y-67000000D03*
X198500000Y-67000000D03*
D15*
%TO.N,Net-(U3-OUTN)*%
X174500000Y-93500000D03*
X172500000Y-94000000D03*
D17*
%TO.N,Net-(U1-IO21)*%
X196500000Y-79000000D03*
X196500000Y-80500000D03*
%TO.N,Net-(U1-IO22)*%
X195000000Y-83000000D03*
X197500000Y-66000000D03*
X182000000Y-86500000D03*
X197500000Y-83000000D03*
X197500000Y-69000000D03*
X197500000Y-80500000D03*
X189000000Y-83000000D03*
X197500000Y-79000000D03*
D15*
%TO.N,Net-(U1-IO13)*%
X191000000Y-91000000D03*
X177500000Y-91000000D03*
D17*
%TO.N,Net-(U1-IO27)*%
X171500000Y-80500000D03*
X175000000Y-80500000D03*
%TO.N,Net-(U1-IO25)*%
X174000000Y-79500000D03*
X174000000Y-77000000D03*
%TO.N,Net-(U1-EN)*%
X174000000Y-66500000D03*
X172000000Y-66500000D03*
%TD*%
D19*
%TO.N,GND*%
X202000000Y-67500000D02*
X200000000Y-65500000D01*
X202000000Y-68000000D02*
X202000000Y-67500000D01*
%TO.N,+3.3V*%
X189500000Y-85500000D02*
X200500000Y-85500000D01*
X188500000Y-90500000D02*
X188500000Y-88500000D01*
D20*
X188500000Y-88500000D02*
X189500000Y-87500000D01*
D19*
X179312500Y-90312500D02*
X179500000Y-90500000D01*
X179500000Y-90500000D02*
X188500000Y-90500000D01*
X200500000Y-85500000D02*
X201000000Y-85000000D01*
D20*
X189500000Y-87500000D02*
X189500000Y-85500000D01*
D21*
X174500000Y-73500000D02*
X174500000Y-68000000D01*
X176000000Y-83500000D02*
X178000000Y-85500000D01*
D19*
X201000000Y-85000000D02*
X201000000Y-80000000D01*
D21*
X174500000Y-68000000D02*
X175500000Y-67000000D01*
X175500000Y-67000000D02*
X175500000Y-64500000D01*
X170000000Y-83500000D02*
X176000000Y-83500000D01*
D19*
%TO.N,Net-(U3-OUTP)*%
X173000000Y-92500000D02*
X172000000Y-93500000D01*
X174500000Y-92500000D02*
X173000000Y-92500000D01*
X172000000Y-93500000D02*
X171500000Y-93500000D01*
%TO.N,Net-(J1-Pin_2)*%
X200500000Y-67000000D02*
X198500000Y-67000000D01*
%TO.N,Net-(U3-OUTN)*%
X174500000Y-93500000D02*
X173000000Y-93500000D01*
X173000000Y-93500000D02*
X172500000Y-94000000D01*
%TO.N,Net-(U1-IO21)*%
X196500000Y-79000000D02*
X196500000Y-80500000D01*
%TO.N,Net-(U1-IO22)*%
X182000000Y-86500000D02*
X182000000Y-85000000D01*
X195000000Y-83000000D02*
X197500000Y-83000000D01*
X197500000Y-80500000D02*
X197500000Y-79000000D01*
X197500000Y-69000000D02*
X197500000Y-66000000D01*
X187000000Y-85000000D02*
X189000000Y-83000000D01*
X182000000Y-85000000D02*
X187000000Y-85000000D01*
%TO.N,Net-(U1-IO13)*%
X191000000Y-91000000D02*
X189500000Y-92500000D01*
X189500000Y-92500000D02*
X179000000Y-92500000D01*
X179000000Y-92500000D02*
X177500000Y-91000000D01*
%TO.N,Net-(U1-IO27)*%
X171500000Y-80500000D02*
X175000000Y-80500000D01*
%TO.N,Net-(U1-IO25)*%
X174000000Y-79500000D02*
X174000000Y-77000000D01*
%TO.N,Net-(U1-EN)*%
X172000000Y-66500000D02*
X174000000Y-66500000D01*
%TD*%
%TA.AperFunction,Conductor*%
%TO.N,GND*%
G36*
X209000000Y-94500000D02*
G01*
X202500000Y-94500000D01*
X202500000Y-90500000D01*
X209000000Y-90500000D01*
X209000000Y-94500000D01*
G37*
%TD.AperFunction*%
%TD*%
%TA.AperFunction,Conductor*%
%TO.N,GND*%
G36*
X161943039Y-55520185D02*
G01*
X161988794Y-55572989D01*
X162000000Y-55624500D01*
X162000000Y-61880000D01*
X210000000Y-61880000D01*
X210000000Y-55624500D01*
X210019685Y-55557461D01*
X210072489Y-55511706D01*
X210124000Y-55500500D01*
X210375500Y-55500500D01*
X210442539Y-55520185D01*
X210488294Y-55572989D01*
X210499500Y-55624500D01*
X210499500Y-109375500D01*
X210479815Y-109442539D01*
X210427011Y-109488294D01*
X210375500Y-109499500D01*
X161624500Y-109499500D01*
X161557461Y-109479815D01*
X161511706Y-109427011D01*
X161500500Y-109375500D01*
X161500500Y-101567660D01*
X194999500Y-101567660D01*
X194999500Y-103167678D01*
X194999501Y-103167695D01*
X195010000Y-103270473D01*
X195010001Y-103270476D01*
X195065185Y-103437008D01*
X195065186Y-103437011D01*
X195157288Y-103586333D01*
X195281344Y-103710389D01*
X195430666Y-103802491D01*
X195597203Y-103857676D01*
X195699991Y-103868177D01*
X197300008Y-103868176D01*
X197402797Y-103857676D01*
X197569334Y-103802491D01*
X197718656Y-103710389D01*
X197842712Y-103586333D01*
X197934814Y-103437011D01*
X197989999Y-103270474D01*
X198000500Y-103167686D01*
X198000499Y-101567669D01*
X197989999Y-101464880D01*
X197934814Y-101298343D01*
X197842712Y-101149021D01*
X197718656Y-101024965D01*
X197569334Y-100932863D01*
X197402797Y-100877678D01*
X197402795Y-100877677D01*
X197300010Y-100867177D01*
X195699998Y-100867177D01*
X195699981Y-100867178D01*
X195597203Y-100877677D01*
X195597200Y-100877678D01*
X195430668Y-100932862D01*
X195430663Y-100932864D01*
X195281342Y-101024966D01*
X195157289Y-101149019D01*
X195065187Y-101298340D01*
X195065186Y-101298343D01*
X195010001Y-101464880D01*
X195010001Y-101464881D01*
X195010000Y-101464881D01*
X194999500Y-101567660D01*
X161500500Y-101567660D01*
X161500500Y-97249624D01*
X195000000Y-97249624D01*
X195000000Y-97485729D01*
X195036934Y-97718924D01*
X195109897Y-97943479D01*
X195217087Y-98153851D01*
X195277338Y-98236781D01*
X195277340Y-98236782D01*
X196017037Y-97497085D01*
X196034075Y-97560670D01*
X196099901Y-97674684D01*
X196192993Y-97767776D01*
X196307007Y-97833602D01*
X196370590Y-97850639D01*
X195630893Y-98590335D01*
X195713828Y-98650591D01*
X195924197Y-98757779D01*
X196148752Y-98830742D01*
X196148751Y-98830742D01*
X196381948Y-98867677D01*
X196618052Y-98867677D01*
X196851247Y-98830742D01*
X197075802Y-98757779D01*
X197286163Y-98650595D01*
X197286169Y-98650591D01*
X197369104Y-98590335D01*
X197369105Y-98590335D01*
X196629408Y-97850639D01*
X196692993Y-97833602D01*
X196807007Y-97767776D01*
X196900099Y-97674684D01*
X196965925Y-97560670D01*
X196982962Y-97497086D01*
X197722658Y-98236782D01*
X197722658Y-98236781D01*
X197782914Y-98153846D01*
X197782918Y-98153840D01*
X197890102Y-97943479D01*
X197963065Y-97718924D01*
X198000000Y-97485729D01*
X198000000Y-97249624D01*
X197963065Y-97016429D01*
X197890102Y-96791874D01*
X197782914Y-96581505D01*
X197722658Y-96498571D01*
X197722658Y-96498570D01*
X196982962Y-97238267D01*
X196965925Y-97174684D01*
X196900099Y-97060670D01*
X196807007Y-96967578D01*
X196692993Y-96901752D01*
X196629409Y-96884714D01*
X197369105Y-96145017D01*
X197369104Y-96145015D01*
X197286174Y-96084764D01*
X197075802Y-95977574D01*
X196851247Y-95904611D01*
X196851248Y-95904611D01*
X196618052Y-95867677D01*
X196381948Y-95867677D01*
X196148752Y-95904611D01*
X195924197Y-95977574D01*
X195713830Y-96084761D01*
X195630894Y-96145017D01*
X196370591Y-96884714D01*
X196307007Y-96901752D01*
X196192993Y-96967578D01*
X196099901Y-97060670D01*
X196034075Y-97174684D01*
X196017037Y-97238267D01*
X195277340Y-96498571D01*
X195217084Y-96581507D01*
X195109897Y-96791874D01*
X195036934Y-97016429D01*
X195000000Y-97249624D01*
X161500500Y-97249624D01*
X161500500Y-93573920D01*
X170749499Y-93573920D01*
X170778340Y-93718907D01*
X170778343Y-93718917D01*
X170834912Y-93855488D01*
X170834919Y-93855501D01*
X170917048Y-93978415D01*
X170917051Y-93978419D01*
X171021580Y-94082948D01*
X171021584Y-94082951D01*
X171144498Y-94165080D01*
X171144511Y-94165087D01*
X171261404Y-94213505D01*
X171281087Y-94221658D01*
X171281091Y-94221658D01*
X171281092Y-94221659D01*
X171426079Y-94250500D01*
X171426082Y-94250500D01*
X171573919Y-94250500D01*
X171602139Y-94244886D01*
X171675059Y-94230381D01*
X171744650Y-94236608D01*
X171799828Y-94279470D01*
X171813812Y-94304546D01*
X171834912Y-94355488D01*
X171834919Y-94355501D01*
X171917048Y-94478415D01*
X171917051Y-94478419D01*
X172021580Y-94582948D01*
X172021584Y-94582951D01*
X172144498Y-94665080D01*
X172144511Y-94665087D01*
X172281082Y-94721656D01*
X172281087Y-94721658D01*
X172281091Y-94721658D01*
X172281092Y-94721659D01*
X172426079Y-94750500D01*
X172426082Y-94750500D01*
X172573920Y-94750500D01*
X172671462Y-94731096D01*
X172718913Y-94721658D01*
X172855495Y-94665084D01*
X172978416Y-94582951D01*
X173061367Y-94500000D01*
X202500000Y-94500000D01*
X209000000Y-94500000D01*
X209000000Y-90500000D01*
X202500000Y-90500000D01*
X202500000Y-94500000D01*
X173061367Y-94500000D01*
X173082951Y-94478416D01*
X173165084Y-94355495D01*
X173221658Y-94218913D01*
X173221660Y-94218901D01*
X173223298Y-94213505D01*
X173261596Y-94155066D01*
X173325408Y-94126610D01*
X173341959Y-94125500D01*
X174047649Y-94125500D01*
X174114688Y-94145185D01*
X174116455Y-94146341D01*
X174144505Y-94165084D01*
X174281087Y-94221658D01*
X174281091Y-94221658D01*
X174281092Y-94221659D01*
X174426079Y-94250500D01*
X174426082Y-94250500D01*
X174573920Y-94250500D01*
X174675061Y-94230381D01*
X174718913Y-94221658D01*
X174855495Y-94165084D01*
X174978416Y-94082951D01*
X175082951Y-93978416D01*
X175165084Y-93855495D01*
X175221658Y-93718913D01*
X175250500Y-93573918D01*
X175250500Y-93426082D01*
X175250500Y-93426079D01*
X175221659Y-93281092D01*
X175221658Y-93281091D01*
X175221658Y-93281087D01*
X175221656Y-93281082D01*
X175165087Y-93144511D01*
X175165083Y-93144504D01*
X175152385Y-93125500D01*
X175114559Y-93068888D01*
X175093682Y-93002214D01*
X175112166Y-92934834D01*
X175114531Y-92931151D01*
X175165084Y-92855495D01*
X175221658Y-92718913D01*
X175250500Y-92573918D01*
X175250500Y-92426082D01*
X175250500Y-92426079D01*
X175221659Y-92281092D01*
X175221658Y-92281091D01*
X175221658Y-92281087D01*
X175221656Y-92281082D01*
X175165087Y-92144511D01*
X175165080Y-92144498D01*
X175082951Y-92021584D01*
X175082948Y-92021580D01*
X174978419Y-91917051D01*
X174978415Y-91917048D01*
X174855501Y-91834919D01*
X174855488Y-91834912D01*
X174718917Y-91778343D01*
X174718907Y-91778340D01*
X174573920Y-91749500D01*
X174573918Y-91749500D01*
X174426082Y-91749500D01*
X174426080Y-91749500D01*
X174281092Y-91778340D01*
X174281082Y-91778343D01*
X174144510Y-91834913D01*
X174144506Y-91834915D01*
X174144505Y-91834916D01*
X174116537Y-91853603D01*
X174049863Y-91874480D01*
X174047649Y-91874500D01*
X173067741Y-91874500D01*
X173067721Y-91874499D01*
X173061607Y-91874499D01*
X172938394Y-91874499D01*
X172837597Y-91894548D01*
X172837592Y-91894548D01*
X172817549Y-91898536D01*
X172817547Y-91898536D01*
X172770397Y-91918067D01*
X172703719Y-91945685D01*
X172703717Y-91945686D01*
X172601266Y-92014141D01*
X171861046Y-92754361D01*
X171799723Y-92787846D01*
X171730031Y-92782862D01*
X171725918Y-92781243D01*
X171718917Y-92778343D01*
X171718906Y-92778340D01*
X171573920Y-92749500D01*
X171573918Y-92749500D01*
X171426082Y-92749500D01*
X171426080Y-92749500D01*
X171281092Y-92778340D01*
X171281082Y-92778343D01*
X171144511Y-92834912D01*
X171144498Y-92834919D01*
X171021584Y-92917048D01*
X171021580Y-92917051D01*
X170917051Y-93021580D01*
X170917048Y-93021584D01*
X170834919Y-93144498D01*
X170834912Y-93144511D01*
X170778343Y-93281082D01*
X170778340Y-93281092D01*
X170749500Y-93426079D01*
X170749500Y-93426082D01*
X170749500Y-93573918D01*
X170749500Y-93573920D01*
X170749499Y-93573920D01*
X161500500Y-93573920D01*
X161500500Y-91073920D01*
X176749499Y-91073920D01*
X176778340Y-91218907D01*
X176778343Y-91218917D01*
X176834912Y-91355488D01*
X176834919Y-91355501D01*
X176917048Y-91478415D01*
X176917051Y-91478419D01*
X177021580Y-91582948D01*
X177021584Y-91582951D01*
X177144498Y-91665080D01*
X177144511Y-91665087D01*
X177281082Y-91721656D01*
X177281087Y-91721658D01*
X177314076Y-91728220D01*
X177375986Y-91760604D01*
X177377564Y-91762154D01*
X178514141Y-92898732D01*
X178514142Y-92898733D01*
X178593825Y-92978416D01*
X178601268Y-92985859D01*
X178703707Y-93054307D01*
X178703716Y-93054312D01*
X178724739Y-93063020D01*
X178817548Y-93101463D01*
X178877971Y-93113481D01*
X178938393Y-93125500D01*
X189561607Y-93125500D01*
X189622029Y-93113481D01*
X189682452Y-93101463D01*
X189727144Y-93082951D01*
X189796286Y-93054312D01*
X189847509Y-93020084D01*
X189898733Y-92985858D01*
X189985858Y-92898733D01*
X189985858Y-92898731D01*
X189996066Y-92888524D01*
X189996067Y-92888521D01*
X191122435Y-91762154D01*
X191183756Y-91728671D01*
X191185858Y-91728232D01*
X191218913Y-91721658D01*
X191355495Y-91665084D01*
X191478416Y-91582951D01*
X191582951Y-91478416D01*
X191665084Y-91355495D01*
X191721658Y-91218913D01*
X191731096Y-91171462D01*
X191750500Y-91073920D01*
X191750500Y-90926079D01*
X191721659Y-90781092D01*
X191721658Y-90781089D01*
X191721658Y-90781087D01*
X191680803Y-90682454D01*
X191665087Y-90644511D01*
X191665080Y-90644498D01*
X191582951Y-90521584D01*
X191582948Y-90521580D01*
X191478419Y-90417051D01*
X191478415Y-90417048D01*
X191355501Y-90334919D01*
X191355488Y-90334912D01*
X191218917Y-90278343D01*
X191218907Y-90278340D01*
X191073920Y-90249500D01*
X191073918Y-90249500D01*
X190926082Y-90249500D01*
X190926080Y-90249500D01*
X190781092Y-90278340D01*
X190781082Y-90278343D01*
X190644511Y-90334912D01*
X190644498Y-90334919D01*
X190521584Y-90417048D01*
X190521580Y-90417051D01*
X190417051Y-90521580D01*
X190417048Y-90521584D01*
X190334919Y-90644498D01*
X190334912Y-90644511D01*
X190278342Y-90781084D01*
X190278341Y-90781089D01*
X190271779Y-90814077D01*
X190239393Y-90875987D01*
X190237843Y-90877564D01*
X189277229Y-91838181D01*
X189215906Y-91871666D01*
X189189548Y-91874500D01*
X179310453Y-91874500D01*
X179243414Y-91854815D01*
X179222772Y-91838181D01*
X178262156Y-90877566D01*
X178228671Y-90816243D01*
X178228232Y-90814140D01*
X178221658Y-90781087D01*
X178180803Y-90682454D01*
X178165087Y-90644511D01*
X178165080Y-90644498D01*
X178082951Y-90521584D01*
X178082948Y-90521580D01*
X177978419Y-90417051D01*
X177978415Y-90417048D01*
X177932577Y-90386420D01*
X178561999Y-90386420D01*
X178590840Y-90531407D01*
X178590843Y-90531417D01*
X178647412Y-90667988D01*
X178647419Y-90668001D01*
X178729548Y-90790915D01*
X178729551Y-90790919D01*
X178834080Y-90895448D01*
X178834084Y-90895451D01*
X178956998Y-90977580D01*
X178957011Y-90977587D01*
X179093582Y-91034156D01*
X179093587Y-91034158D01*
X179191429Y-91053620D01*
X179199872Y-91055300D01*
X179223119Y-91062351D01*
X179223130Y-91062354D01*
X179284207Y-91087652D01*
X179284209Y-91087652D01*
X179317548Y-91101463D01*
X179377971Y-91113481D01*
X179438393Y-91125500D01*
X188561607Y-91125500D01*
X188561608Y-91125499D01*
X188682452Y-91101463D01*
X188796286Y-91054311D01*
X188898733Y-90985858D01*
X188985858Y-90898733D01*
X189054311Y-90796286D01*
X189101463Y-90682452D01*
X189125500Y-90561606D01*
X189125500Y-88952351D01*
X189145185Y-88885312D01*
X189146398Y-88883460D01*
X189165084Y-88855495D01*
X189221658Y-88718913D01*
X189236999Y-88641786D01*
X189269381Y-88579879D01*
X189270872Y-88578361D01*
X189980520Y-87868716D01*
X190059577Y-87731784D01*
X190100501Y-87579057D01*
X190100501Y-87420942D01*
X190100501Y-87413347D01*
X190100500Y-87413329D01*
X190100500Y-86249500D01*
X190120185Y-86182461D01*
X190172989Y-86136706D01*
X190224500Y-86125500D01*
X200561607Y-86125500D01*
X200622029Y-86113481D01*
X200682452Y-86101463D01*
X200727144Y-86082951D01*
X200796286Y-86054312D01*
X200847509Y-86020084D01*
X200898733Y-85985858D01*
X200985858Y-85898733D01*
X200985859Y-85898731D01*
X200992925Y-85891665D01*
X200992928Y-85891661D01*
X201398729Y-85485860D01*
X201398733Y-85485858D01*
X201485858Y-85398733D01*
X201537256Y-85321809D01*
X201554312Y-85296285D01*
X201601463Y-85182451D01*
X201625500Y-85061607D01*
X201625500Y-84938393D01*
X201625500Y-82143713D01*
X206399500Y-82143713D01*
X206399500Y-82356287D01*
X206432754Y-82566243D01*
X206497824Y-82766508D01*
X206498444Y-82768414D01*
X206594951Y-82957820D01*
X206719890Y-83129786D01*
X206870213Y-83280109D01*
X207042179Y-83405048D01*
X207042181Y-83405049D01*
X207042184Y-83405051D01*
X207231588Y-83501557D01*
X207433757Y-83567246D01*
X207643713Y-83600500D01*
X207643714Y-83600500D01*
X207856286Y-83600500D01*
X207856287Y-83600500D01*
X208066243Y-83567246D01*
X208268412Y-83501557D01*
X208457816Y-83405051D01*
X208595666Y-83304898D01*
X208629786Y-83280109D01*
X208629788Y-83280106D01*
X208629792Y-83280104D01*
X208780104Y-83129792D01*
X208780106Y-83129788D01*
X208780109Y-83129786D01*
X208905048Y-82957820D01*
X208905047Y-82957820D01*
X208905051Y-82957816D01*
X209001557Y-82768412D01*
X209067246Y-82566243D01*
X209100500Y-82356287D01*
X209100500Y-82143713D01*
X209067246Y-81933757D01*
X209001557Y-81731588D01*
X208905051Y-81542184D01*
X208905049Y-81542181D01*
X208905048Y-81542179D01*
X208780109Y-81370213D01*
X208629786Y-81219890D01*
X208457820Y-81094951D01*
X208268414Y-80998444D01*
X208268413Y-80998443D01*
X208268412Y-80998443D01*
X208066243Y-80932754D01*
X208066241Y-80932753D01*
X208066240Y-80932753D01*
X207904957Y-80907208D01*
X207856287Y-80899500D01*
X207643713Y-80899500D01*
X207595042Y-80907208D01*
X207433760Y-80932753D01*
X207231585Y-80998444D01*
X207042179Y-81094951D01*
X206870213Y-81219890D01*
X206719890Y-81370213D01*
X206594951Y-81542179D01*
X206498444Y-81731585D01*
X206432753Y-81933760D01*
X206399500Y-82143713D01*
X201625500Y-82143713D01*
X201625500Y-80452351D01*
X201645185Y-80385312D01*
X201646398Y-80383460D01*
X201665084Y-80355495D01*
X201721658Y-80218913D01*
X201741170Y-80120821D01*
X201750500Y-80073920D01*
X201750500Y-79926079D01*
X201721659Y-79781092D01*
X201721658Y-79781091D01*
X201721658Y-79781087D01*
X201701946Y-79733497D01*
X201665087Y-79644511D01*
X201665080Y-79644498D01*
X201582951Y-79521584D01*
X201582948Y-79521580D01*
X201478419Y-79417051D01*
X201478415Y-79417048D01*
X201355501Y-79334919D01*
X201355488Y-79334912D01*
X201218917Y-79278343D01*
X201218907Y-79278340D01*
X201073920Y-79249500D01*
X201073918Y-79249500D01*
X200926082Y-79249500D01*
X200926080Y-79249500D01*
X200781092Y-79278340D01*
X200781082Y-79278343D01*
X200644511Y-79334912D01*
X200644498Y-79334919D01*
X200521584Y-79417048D01*
X200521580Y-79417051D01*
X200417051Y-79521580D01*
X200417048Y-79521584D01*
X200334919Y-79644498D01*
X200334912Y-79644511D01*
X200278343Y-79781082D01*
X200278340Y-79781092D01*
X200249500Y-79926079D01*
X200249500Y-79926082D01*
X200249500Y-80073918D01*
X200249500Y-80073920D01*
X200249499Y-80073920D01*
X200278340Y-80218907D01*
X200278343Y-80218917D01*
X200334913Y-80355490D01*
X200334914Y-80355492D01*
X200353602Y-80383460D01*
X200374480Y-80450138D01*
X200374500Y-80452351D01*
X200374500Y-84689548D01*
X200365855Y-84718988D01*
X200359332Y-84748975D01*
X200355577Y-84753990D01*
X200354815Y-84756587D01*
X200338181Y-84777229D01*
X200277229Y-84838181D01*
X200215906Y-84871666D01*
X200189548Y-84874500D01*
X189952351Y-84874500D01*
X189885312Y-84854815D01*
X189883544Y-84853658D01*
X189855495Y-84834916D01*
X189855491Y-84834914D01*
X189855489Y-84834913D01*
X189718917Y-84778343D01*
X189718907Y-84778340D01*
X189573920Y-84749500D01*
X189573918Y-84749500D01*
X189426082Y-84749500D01*
X189426080Y-84749500D01*
X189281092Y-84778340D01*
X189281082Y-84778343D01*
X189144511Y-84834912D01*
X189144498Y-84834919D01*
X189021584Y-84917048D01*
X189021580Y-84917051D01*
X188917051Y-85021580D01*
X188917048Y-85021584D01*
X188834919Y-85144498D01*
X188834912Y-85144511D01*
X188778343Y-85281082D01*
X188778340Y-85281092D01*
X188749500Y-85426079D01*
X188749500Y-85426082D01*
X188749500Y-85573918D01*
X188749500Y-85573920D01*
X188749499Y-85573920D01*
X188778340Y-85718907D01*
X188778343Y-85718917D01*
X188834912Y-85855488D01*
X188834919Y-85855501D01*
X188878602Y-85920876D01*
X188899480Y-85987553D01*
X188899500Y-85989767D01*
X188899500Y-87199902D01*
X188879815Y-87266941D01*
X188863181Y-87287583D01*
X188421699Y-87729064D01*
X188360376Y-87762549D01*
X188358210Y-87763000D01*
X188281092Y-87778340D01*
X188281084Y-87778342D01*
X188144511Y-87834912D01*
X188144498Y-87834919D01*
X188021584Y-87917048D01*
X188021580Y-87917051D01*
X187917051Y-88021580D01*
X187917048Y-88021584D01*
X187834919Y-88144498D01*
X187834912Y-88144511D01*
X187778343Y-88281082D01*
X187778340Y-88281092D01*
X187749500Y-88426079D01*
X187749500Y-88426082D01*
X187749500Y-88573918D01*
X187749500Y-88573920D01*
X187749499Y-88573920D01*
X187778340Y-88718907D01*
X187778343Y-88718917D01*
X187834913Y-88855490D01*
X187834914Y-88855492D01*
X187853602Y-88883460D01*
X187874480Y-88950138D01*
X187874500Y-88952351D01*
X187874500Y-89750500D01*
X187854815Y-89817539D01*
X187802011Y-89863294D01*
X187750500Y-89874500D01*
X179987230Y-89874500D01*
X179920191Y-89854815D01*
X179899549Y-89838181D01*
X179790919Y-89729551D01*
X179790915Y-89729548D01*
X179668001Y-89647419D01*
X179667988Y-89647412D01*
X179531417Y-89590843D01*
X179531407Y-89590840D01*
X179386420Y-89562000D01*
X179386418Y-89562000D01*
X179238582Y-89562000D01*
X179238580Y-89562000D01*
X179093592Y-89590840D01*
X179093582Y-89590843D01*
X178957011Y-89647412D01*
X178956998Y-89647419D01*
X178834084Y-89729548D01*
X178834080Y-89729551D01*
X178729551Y-89834080D01*
X178729548Y-89834084D01*
X178647419Y-89956998D01*
X178647412Y-89957011D01*
X178590843Y-90093582D01*
X178590840Y-90093592D01*
X178562000Y-90238579D01*
X178562000Y-90238582D01*
X178562000Y-90386418D01*
X178562000Y-90386420D01*
X178561999Y-90386420D01*
X177932577Y-90386420D01*
X177856508Y-90335592D01*
X177856507Y-90335591D01*
X177855502Y-90334920D01*
X177855488Y-90334912D01*
X177718917Y-90278343D01*
X177718907Y-90278340D01*
X177573920Y-90249500D01*
X177573918Y-90249500D01*
X177426082Y-90249500D01*
X177426080Y-90249500D01*
X177281092Y-90278340D01*
X177281082Y-90278343D01*
X177144511Y-90334912D01*
X177144498Y-90334919D01*
X177021584Y-90417048D01*
X177021580Y-90417051D01*
X176917051Y-90521580D01*
X176917048Y-90521584D01*
X176834919Y-90644498D01*
X176834912Y-90644511D01*
X176778343Y-90781082D01*
X176778340Y-90781092D01*
X176749500Y-90926079D01*
X176749500Y-90926082D01*
X176749500Y-91073918D01*
X176749500Y-91073920D01*
X176749499Y-91073920D01*
X161500500Y-91073920D01*
X161500500Y-86421153D01*
X181199500Y-86421153D01*
X181199500Y-86578846D01*
X181230261Y-86733489D01*
X181230264Y-86733501D01*
X181290602Y-86879172D01*
X181290609Y-86879185D01*
X181378210Y-87010288D01*
X181378213Y-87010292D01*
X181489707Y-87121786D01*
X181489711Y-87121789D01*
X181620814Y-87209390D01*
X181620827Y-87209397D01*
X181759753Y-87266941D01*
X181766503Y-87269737D01*
X181921153Y-87300499D01*
X181921156Y-87300500D01*
X181921158Y-87300500D01*
X182078844Y-87300500D01*
X182078845Y-87300499D01*
X182233497Y-87269737D01*
X182379179Y-87209394D01*
X182510289Y-87121789D01*
X182621789Y-87010289D01*
X182709394Y-86879179D01*
X182769737Y-86733497D01*
X182800500Y-86578842D01*
X182800500Y-86421158D01*
X182800500Y-86421155D01*
X182800499Y-86421153D01*
X182796391Y-86400499D01*
X182769737Y-86266503D01*
X182709394Y-86120821D01*
X182646397Y-86026539D01*
X182640747Y-86008494D01*
X182630523Y-85992585D01*
X182626071Y-85961623D01*
X182625520Y-85959863D01*
X182625500Y-85957650D01*
X182625500Y-85749500D01*
X182645185Y-85682461D01*
X182697989Y-85636706D01*
X182749500Y-85625500D01*
X187061607Y-85625500D01*
X187122029Y-85613481D01*
X187182452Y-85601463D01*
X187215792Y-85587652D01*
X187296286Y-85554312D01*
X187347509Y-85520084D01*
X187398733Y-85485858D01*
X187485858Y-85398733D01*
X187485859Y-85398731D01*
X187492925Y-85391665D01*
X187492928Y-85391661D01*
X189058797Y-83825791D01*
X189120118Y-83792308D01*
X189122128Y-83791889D01*
X189233497Y-83769737D01*
X189379179Y-83709394D01*
X189510289Y-83621789D01*
X189621789Y-83510289D01*
X189709394Y-83379179D01*
X189769737Y-83233497D01*
X189800500Y-83078842D01*
X189800500Y-82921158D01*
X189800500Y-82921155D01*
X189800499Y-82921153D01*
X194199500Y-82921153D01*
X194199500Y-83078846D01*
X194230261Y-83233489D01*
X194230264Y-83233501D01*
X194290602Y-83379172D01*
X194290609Y-83379185D01*
X194378210Y-83510288D01*
X194378213Y-83510292D01*
X194489707Y-83621786D01*
X194489711Y-83621789D01*
X194620814Y-83709390D01*
X194620827Y-83709397D01*
X194749432Y-83762666D01*
X194766503Y-83769737D01*
X194921153Y-83800499D01*
X194921156Y-83800500D01*
X194921158Y-83800500D01*
X195078844Y-83800500D01*
X195078845Y-83800499D01*
X195233497Y-83769737D01*
X195379179Y-83709394D01*
X195473459Y-83646398D01*
X195540136Y-83625520D01*
X195542350Y-83625500D01*
X196957650Y-83625500D01*
X197024689Y-83645185D01*
X197026541Y-83646398D01*
X197120821Y-83709394D01*
X197120823Y-83709395D01*
X197120827Y-83709397D01*
X197249432Y-83762666D01*
X197266503Y-83769737D01*
X197421153Y-83800499D01*
X197421156Y-83800500D01*
X197421158Y-83800500D01*
X197578844Y-83800500D01*
X197578845Y-83800499D01*
X197733497Y-83769737D01*
X197879179Y-83709394D01*
X198010289Y-83621789D01*
X198121789Y-83510289D01*
X198209394Y-83379179D01*
X198269737Y-83233497D01*
X198300500Y-83078842D01*
X198300500Y-82921158D01*
X198300500Y-82921155D01*
X198300499Y-82921153D01*
X198283345Y-82834916D01*
X198269737Y-82766503D01*
X198262694Y-82749500D01*
X198209397Y-82620827D01*
X198209390Y-82620814D01*
X198121789Y-82489711D01*
X198121786Y-82489707D01*
X198010292Y-82378213D01*
X198010288Y-82378210D01*
X197879185Y-82290609D01*
X197879172Y-82290602D01*
X197733501Y-82230264D01*
X197733489Y-82230261D01*
X197578845Y-82199500D01*
X197578842Y-82199500D01*
X197421158Y-82199500D01*
X197421155Y-82199500D01*
X197266510Y-82230261D01*
X197266498Y-82230264D01*
X197120827Y-82290602D01*
X197120815Y-82290609D01*
X197026541Y-82353602D01*
X196959864Y-82374480D01*
X196957650Y-82374500D01*
X195542350Y-82374500D01*
X195475311Y-82354815D01*
X195473459Y-82353602D01*
X195379184Y-82290609D01*
X195379172Y-82290602D01*
X195233501Y-82230264D01*
X195233489Y-82230261D01*
X195078845Y-82199500D01*
X195078842Y-82199500D01*
X194921158Y-82199500D01*
X194921155Y-82199500D01*
X194766510Y-82230261D01*
X194766498Y-82230264D01*
X194620827Y-82290602D01*
X194620814Y-82290609D01*
X194489711Y-82378210D01*
X194489707Y-82378213D01*
X194378213Y-82489707D01*
X194378210Y-82489711D01*
X194290609Y-82620814D01*
X194290602Y-82620827D01*
X194230264Y-82766498D01*
X194230261Y-82766510D01*
X194199500Y-82921153D01*
X189800499Y-82921153D01*
X189783345Y-82834916D01*
X189769737Y-82766503D01*
X189762694Y-82749500D01*
X189709397Y-82620827D01*
X189709390Y-82620814D01*
X189621789Y-82489711D01*
X189621786Y-82489707D01*
X189510292Y-82378213D01*
X189510288Y-82378210D01*
X189379185Y-82290609D01*
X189379172Y-82290602D01*
X189233501Y-82230264D01*
X189233489Y-82230261D01*
X189078845Y-82199500D01*
X189078842Y-82199500D01*
X188921158Y-82199500D01*
X188921155Y-82199500D01*
X188766510Y-82230261D01*
X188766498Y-82230264D01*
X188620827Y-82290602D01*
X188620814Y-82290609D01*
X188489711Y-82378210D01*
X188489707Y-82378213D01*
X188378213Y-82489707D01*
X188378210Y-82489711D01*
X188290609Y-82620814D01*
X188290602Y-82620827D01*
X188230264Y-82766498D01*
X188230261Y-82766508D01*
X188208141Y-82877714D01*
X188175756Y-82939625D01*
X188174205Y-82941203D01*
X186777229Y-84338181D01*
X186715906Y-84371666D01*
X186689548Y-84374500D01*
X181938389Y-84374500D01*
X181817555Y-84398535D01*
X181817545Y-84398538D01*
X181703716Y-84445687D01*
X181703707Y-84445692D01*
X181601267Y-84514141D01*
X181601263Y-84514144D01*
X181514144Y-84601263D01*
X181514141Y-84601267D01*
X181445692Y-84703707D01*
X181445687Y-84703716D01*
X181398538Y-84817545D01*
X181398535Y-84817555D01*
X181374500Y-84938389D01*
X181374500Y-85957650D01*
X181354815Y-86024689D01*
X181353602Y-86026541D01*
X181290609Y-86120815D01*
X181290602Y-86120828D01*
X181230264Y-86266498D01*
X181230261Y-86266510D01*
X181199500Y-86421153D01*
X161500500Y-86421153D01*
X161500500Y-82143713D01*
X162899500Y-82143713D01*
X162899500Y-82356287D01*
X162932754Y-82566243D01*
X162997824Y-82766508D01*
X162998444Y-82768414D01*
X163094951Y-82957820D01*
X163219890Y-83129786D01*
X163370213Y-83280109D01*
X163542179Y-83405048D01*
X163542181Y-83405049D01*
X163542184Y-83405051D01*
X163731588Y-83501557D01*
X163933757Y-83567246D01*
X164143713Y-83600500D01*
X164143714Y-83600500D01*
X164356286Y-83600500D01*
X164356287Y-83600500D01*
X164566243Y-83567246D01*
X164768412Y-83501557D01*
X164945544Y-83411304D01*
X169099500Y-83411304D01*
X169099500Y-83588695D01*
X169134103Y-83762658D01*
X169134106Y-83762667D01*
X169201983Y-83926540D01*
X169201990Y-83926553D01*
X169300535Y-84074034D01*
X169300538Y-84074038D01*
X169425961Y-84199461D01*
X169425965Y-84199464D01*
X169573446Y-84298009D01*
X169573459Y-84298016D01*
X169670428Y-84338181D01*
X169737334Y-84365894D01*
X169737336Y-84365894D01*
X169737341Y-84365896D01*
X169911304Y-84400499D01*
X169911307Y-84400500D01*
X169911309Y-84400500D01*
X170088693Y-84400500D01*
X170088694Y-84400499D01*
X170146682Y-84388964D01*
X170262658Y-84365896D01*
X170262661Y-84365894D01*
X170262666Y-84365894D01*
X170426547Y-84298013D01*
X170426550Y-84298010D01*
X170426552Y-84298010D01*
X170466378Y-84271399D01*
X170533055Y-84250520D01*
X170535270Y-84250500D01*
X175637770Y-84250500D01*
X175704809Y-84270185D01*
X175725451Y-84286819D01*
X177090823Y-85652190D01*
X177124308Y-85713513D01*
X177124759Y-85715679D01*
X177134104Y-85762660D01*
X177134107Y-85762670D01*
X177201983Y-85926540D01*
X177201990Y-85926553D01*
X177300535Y-86074034D01*
X177300538Y-86074038D01*
X177425961Y-86199461D01*
X177425965Y-86199464D01*
X177573446Y-86298009D01*
X177573459Y-86298016D01*
X177696363Y-86348923D01*
X177737334Y-86365894D01*
X177737336Y-86365894D01*
X177737341Y-86365896D01*
X177911304Y-86400499D01*
X177911307Y-86400500D01*
X177911309Y-86400500D01*
X178088693Y-86400500D01*
X178088694Y-86400499D01*
X178146682Y-86388964D01*
X178262658Y-86365896D01*
X178262661Y-86365894D01*
X178262666Y-86365894D01*
X178345374Y-86331635D01*
X178420532Y-86300505D01*
X178426540Y-86298016D01*
X178426540Y-86298015D01*
X178426547Y-86298013D01*
X178574035Y-86199464D01*
X178699464Y-86074035D01*
X178798013Y-85926547D01*
X178865894Y-85762666D01*
X178874597Y-85718917D01*
X178900499Y-85588695D01*
X178900500Y-85588693D01*
X178900500Y-85411306D01*
X178900499Y-85411304D01*
X178865896Y-85237341D01*
X178865893Y-85237332D01*
X178798016Y-85073459D01*
X178798009Y-85073446D01*
X178699464Y-84925965D01*
X178699461Y-84925961D01*
X178574038Y-84800538D01*
X178574034Y-84800535D01*
X178426553Y-84701990D01*
X178426540Y-84701983D01*
X178262670Y-84634107D01*
X178262660Y-84634104D01*
X178215679Y-84624759D01*
X178153768Y-84592374D01*
X178152190Y-84590823D01*
X176478421Y-82917052D01*
X176478414Y-82917046D01*
X176404729Y-82867812D01*
X176404729Y-82867813D01*
X176355491Y-82834913D01*
X176218917Y-82778343D01*
X176218907Y-82778340D01*
X176073920Y-82749500D01*
X176073918Y-82749500D01*
X170535270Y-82749500D01*
X170468231Y-82729815D01*
X170466378Y-82728601D01*
X170426552Y-82701989D01*
X170426547Y-82701987D01*
X170262667Y-82634106D01*
X170262658Y-82634103D01*
X170088694Y-82599500D01*
X170088691Y-82599500D01*
X169911309Y-82599500D01*
X169911306Y-82599500D01*
X169737341Y-82634103D01*
X169737332Y-82634106D01*
X169573459Y-82701983D01*
X169573446Y-82701990D01*
X169425965Y-82800535D01*
X169425961Y-82800538D01*
X169300538Y-82925961D01*
X169300535Y-82925965D01*
X169201990Y-83073446D01*
X169201983Y-83073459D01*
X169134106Y-83237332D01*
X169134103Y-83237341D01*
X169099500Y-83411304D01*
X164945544Y-83411304D01*
X164957816Y-83405051D01*
X165095666Y-83304898D01*
X165095668Y-83304897D01*
X165129785Y-83280109D01*
X165129783Y-83280109D01*
X165129792Y-83280104D01*
X165280104Y-83129792D01*
X165280106Y-83129788D01*
X165280109Y-83129786D01*
X165405048Y-82957820D01*
X165405047Y-82957820D01*
X165405051Y-82957816D01*
X165501557Y-82768412D01*
X165567246Y-82566243D01*
X165600500Y-82356287D01*
X165600500Y-82143713D01*
X165567246Y-81933757D01*
X165501557Y-81731588D01*
X165405051Y-81542184D01*
X165405049Y-81542181D01*
X165405048Y-81542179D01*
X165280109Y-81370213D01*
X165129786Y-81219890D01*
X164957820Y-81094951D01*
X164768414Y-80998444D01*
X164768413Y-80998443D01*
X164768412Y-80998443D01*
X164566243Y-80932754D01*
X164566241Y-80932753D01*
X164566240Y-80932753D01*
X164404957Y-80907208D01*
X164356287Y-80899500D01*
X164143713Y-80899500D01*
X164095042Y-80907208D01*
X163933760Y-80932753D01*
X163731585Y-80998444D01*
X163542179Y-81094951D01*
X163370213Y-81219890D01*
X163219890Y-81370213D01*
X163094951Y-81542179D01*
X162998444Y-81731585D01*
X162932753Y-81933760D01*
X162899500Y-82143713D01*
X161500500Y-82143713D01*
X161500500Y-80421153D01*
X170699500Y-80421153D01*
X170699500Y-80578846D01*
X170730261Y-80733489D01*
X170730264Y-80733501D01*
X170790602Y-80879172D01*
X170790609Y-80879185D01*
X170878210Y-81010288D01*
X170878213Y-81010292D01*
X170989707Y-81121786D01*
X170989711Y-81121789D01*
X171120814Y-81209390D01*
X171120827Y-81209397D01*
X171266498Y-81269735D01*
X171266503Y-81269737D01*
X171421153Y-81300499D01*
X171421156Y-81300500D01*
X171421158Y-81300500D01*
X171578844Y-81300500D01*
X171578845Y-81300499D01*
X171733497Y-81269737D01*
X171879179Y-81209394D01*
X171973459Y-81146398D01*
X172040136Y-81125520D01*
X172042350Y-81125500D01*
X174457650Y-81125500D01*
X174524689Y-81145185D01*
X174526541Y-81146398D01*
X174620821Y-81209394D01*
X174620823Y-81209395D01*
X174620827Y-81209397D01*
X174766498Y-81269735D01*
X174766503Y-81269737D01*
X174921153Y-81300499D01*
X174921156Y-81300500D01*
X174921158Y-81300500D01*
X175078844Y-81300500D01*
X175078845Y-81300499D01*
X175233497Y-81269737D01*
X175379179Y-81209394D01*
X175510289Y-81121789D01*
X175621789Y-81010289D01*
X175709394Y-80879179D01*
X175769737Y-80733497D01*
X175800500Y-80578842D01*
X175800500Y-80421158D01*
X175800500Y-80421155D01*
X175800499Y-80421153D01*
X175769738Y-80266510D01*
X175769737Y-80266503D01*
X175769735Y-80266498D01*
X175709397Y-80120827D01*
X175709390Y-80120814D01*
X175621789Y-79989711D01*
X175621786Y-79989707D01*
X175510292Y-79878213D01*
X175510288Y-79878210D01*
X175379185Y-79790609D01*
X175379172Y-79790602D01*
X175233501Y-79730264D01*
X175233489Y-79730261D01*
X175078845Y-79699500D01*
X175078842Y-79699500D01*
X174924500Y-79699500D01*
X174857461Y-79679815D01*
X174811706Y-79627011D01*
X174800500Y-79575500D01*
X174800500Y-79421155D01*
X174800499Y-79421153D01*
X174772092Y-79278342D01*
X174769737Y-79266503D01*
X174709394Y-79120821D01*
X174646397Y-79026539D01*
X174640747Y-79008494D01*
X174630523Y-78992585D01*
X174626071Y-78961623D01*
X174625520Y-78959863D01*
X174625500Y-78957650D01*
X174625500Y-78921153D01*
X195699500Y-78921153D01*
X195699500Y-79078846D01*
X195730261Y-79233489D01*
X195730264Y-79233501D01*
X195790602Y-79379172D01*
X195790609Y-79379184D01*
X195853602Y-79473459D01*
X195874480Y-79540136D01*
X195874500Y-79542350D01*
X195874500Y-79957650D01*
X195854815Y-80024689D01*
X195853602Y-80026541D01*
X195790609Y-80120815D01*
X195790602Y-80120828D01*
X195730264Y-80266498D01*
X195730261Y-80266510D01*
X195699500Y-80421153D01*
X195699500Y-80578846D01*
X195730261Y-80733489D01*
X195730264Y-80733501D01*
X195790602Y-80879172D01*
X195790609Y-80879185D01*
X195878210Y-81010288D01*
X195878213Y-81010292D01*
X195989707Y-81121786D01*
X195989711Y-81121789D01*
X196120814Y-81209390D01*
X196120827Y-81209397D01*
X196266498Y-81269735D01*
X196266503Y-81269737D01*
X196421153Y-81300499D01*
X196421156Y-81300500D01*
X196421158Y-81300500D01*
X196578844Y-81300500D01*
X196578845Y-81300499D01*
X196733497Y-81269737D01*
X196879179Y-81209394D01*
X196931110Y-81174694D01*
X196997785Y-81153816D01*
X197065165Y-81172300D01*
X197068863Y-81174676D01*
X197120821Y-81209394D01*
X197120823Y-81209395D01*
X197120825Y-81209396D01*
X197146175Y-81219896D01*
X197266503Y-81269737D01*
X197421153Y-81300499D01*
X197421156Y-81300500D01*
X197421158Y-81300500D01*
X197578844Y-81300500D01*
X197578845Y-81300499D01*
X197733497Y-81269737D01*
X197879179Y-81209394D01*
X198010289Y-81121789D01*
X198121789Y-81010289D01*
X198209394Y-80879179D01*
X198269737Y-80733497D01*
X198300500Y-80578842D01*
X198300500Y-80421158D01*
X198300500Y-80421155D01*
X198300499Y-80421153D01*
X198269738Y-80266510D01*
X198269737Y-80266503D01*
X198209394Y-80120821D01*
X198146397Y-80026539D01*
X198125520Y-79959863D01*
X198125500Y-79957650D01*
X198125500Y-79542350D01*
X198145185Y-79475311D01*
X198146398Y-79473459D01*
X198181346Y-79421155D01*
X198209394Y-79379179D01*
X198269737Y-79233497D01*
X198300500Y-79078842D01*
X198300500Y-78921158D01*
X198300500Y-78921155D01*
X198300499Y-78921153D01*
X198269738Y-78766510D01*
X198269737Y-78766503D01*
X198269735Y-78766498D01*
X198209397Y-78620827D01*
X198209390Y-78620814D01*
X198121789Y-78489711D01*
X198121786Y-78489707D01*
X198010292Y-78378213D01*
X198010288Y-78378210D01*
X197879185Y-78290609D01*
X197879172Y-78290602D01*
X197733501Y-78230264D01*
X197733489Y-78230261D01*
X197578845Y-78199500D01*
X197578842Y-78199500D01*
X197421158Y-78199500D01*
X197421155Y-78199500D01*
X197266510Y-78230261D01*
X197266498Y-78230264D01*
X197120827Y-78290602D01*
X197120814Y-78290609D01*
X197068891Y-78325304D01*
X197002214Y-78346182D01*
X196934833Y-78327698D01*
X196931109Y-78325304D01*
X196879185Y-78290609D01*
X196879172Y-78290602D01*
X196733501Y-78230264D01*
X196733489Y-78230261D01*
X196578845Y-78199500D01*
X196578842Y-78199500D01*
X196421158Y-78199500D01*
X196421155Y-78199500D01*
X196266510Y-78230261D01*
X196266498Y-78230264D01*
X196120827Y-78290602D01*
X196120814Y-78290609D01*
X195989711Y-78378210D01*
X195989707Y-78378213D01*
X195878213Y-78489707D01*
X195878210Y-78489711D01*
X195790609Y-78620814D01*
X195790602Y-78620827D01*
X195730264Y-78766498D01*
X195730261Y-78766510D01*
X195699500Y-78921153D01*
X174625500Y-78921153D01*
X174625500Y-77542350D01*
X174645185Y-77475311D01*
X174646398Y-77473459D01*
X174646809Y-77472843D01*
X174709394Y-77379179D01*
X174769737Y-77233497D01*
X174800500Y-77078842D01*
X174800500Y-76921158D01*
X174800500Y-76921155D01*
X174800499Y-76921153D01*
X174769738Y-76766510D01*
X174769737Y-76766503D01*
X174769735Y-76766498D01*
X174709397Y-76620827D01*
X174709390Y-76620814D01*
X174621789Y-76489711D01*
X174621786Y-76489707D01*
X174510292Y-76378213D01*
X174510288Y-76378210D01*
X174379185Y-76290609D01*
X174379172Y-76290602D01*
X174233501Y-76230264D01*
X174233489Y-76230261D01*
X174078845Y-76199500D01*
X174078842Y-76199500D01*
X173921158Y-76199500D01*
X173921155Y-76199500D01*
X173766510Y-76230261D01*
X173766498Y-76230264D01*
X173620827Y-76290602D01*
X173620814Y-76290609D01*
X173489711Y-76378210D01*
X173489707Y-76378213D01*
X173378213Y-76489707D01*
X173378210Y-76489711D01*
X173290609Y-76620814D01*
X173290602Y-76620827D01*
X173230264Y-76766498D01*
X173230261Y-76766510D01*
X173199500Y-76921153D01*
X173199500Y-77078846D01*
X173230261Y-77233489D01*
X173230264Y-77233501D01*
X173290602Y-77379172D01*
X173290609Y-77379184D01*
X173353602Y-77473459D01*
X173374480Y-77540136D01*
X173374500Y-77542350D01*
X173374500Y-78957650D01*
X173354815Y-79024689D01*
X173353602Y-79026541D01*
X173290609Y-79120815D01*
X173290602Y-79120828D01*
X173230264Y-79266498D01*
X173230261Y-79266510D01*
X173199500Y-79421153D01*
X173199500Y-79421158D01*
X173199500Y-79578842D01*
X173199500Y-79578844D01*
X173199499Y-79578844D01*
X173228833Y-79726308D01*
X173222606Y-79795900D01*
X173179743Y-79851077D01*
X173113854Y-79874322D01*
X173107216Y-79874500D01*
X172042350Y-79874500D01*
X171975311Y-79854815D01*
X171973459Y-79853602D01*
X171879184Y-79790609D01*
X171879172Y-79790602D01*
X171733501Y-79730264D01*
X171733489Y-79730261D01*
X171578845Y-79699500D01*
X171578842Y-79699500D01*
X171421158Y-79699500D01*
X171421155Y-79699500D01*
X171266510Y-79730261D01*
X171266498Y-79730264D01*
X171120827Y-79790602D01*
X171120814Y-79790609D01*
X170989711Y-79878210D01*
X170989707Y-79878213D01*
X170878213Y-79989707D01*
X170878210Y-79989711D01*
X170790609Y-80120814D01*
X170790602Y-80120827D01*
X170730264Y-80266498D01*
X170730261Y-80266510D01*
X170699500Y-80421153D01*
X161500500Y-80421153D01*
X161500500Y-66421153D01*
X171199500Y-66421153D01*
X171199500Y-66578846D01*
X171230261Y-66733489D01*
X171230264Y-66733501D01*
X171290602Y-66879172D01*
X171290609Y-66879185D01*
X171378210Y-67010288D01*
X171378213Y-67010292D01*
X171489707Y-67121786D01*
X171489711Y-67121789D01*
X171620814Y-67209390D01*
X171620827Y-67209397D01*
X171756204Y-67265471D01*
X171766503Y-67269737D01*
X171921153Y-67300499D01*
X171921156Y-67300500D01*
X171921158Y-67300500D01*
X172078844Y-67300500D01*
X172078845Y-67300499D01*
X172233497Y-67269737D01*
X172379179Y-67209394D01*
X172473459Y-67146398D01*
X172540136Y-67125520D01*
X172542350Y-67125500D01*
X173457650Y-67125500D01*
X173524689Y-67145185D01*
X173526541Y-67146398D01*
X173620821Y-67209394D01*
X173620823Y-67209395D01*
X173620827Y-67209397D01*
X173756204Y-67265471D01*
X173766503Y-67269737D01*
X173818222Y-67280024D01*
X173874603Y-67291240D01*
X173877329Y-67292666D01*
X173880403Y-67292539D01*
X173908088Y-67308755D01*
X173936514Y-67323625D01*
X173938036Y-67326297D01*
X173940691Y-67327853D01*
X173955212Y-67356461D01*
X173971088Y-67384340D01*
X173970923Y-67387412D01*
X173972316Y-67390156D01*
X173969065Y-67422075D01*
X173967349Y-67454110D01*
X173965455Y-67457527D01*
X173965238Y-67459666D01*
X173959404Y-67468449D01*
X173947399Y-67490120D01*
X173943039Y-67495592D01*
X173917048Y-67521584D01*
X173892441Y-67558412D01*
X173889561Y-67562722D01*
X173889558Y-67562726D01*
X173834913Y-67644508D01*
X173778343Y-67781082D01*
X173778340Y-67781092D01*
X173749500Y-67926079D01*
X173749500Y-72964729D01*
X173729815Y-73031768D01*
X173728602Y-73033620D01*
X173701988Y-73073449D01*
X173701987Y-73073452D01*
X173634106Y-73237332D01*
X173634103Y-73237341D01*
X173599500Y-73411304D01*
X173599500Y-73588695D01*
X173634103Y-73762658D01*
X173634106Y-73762667D01*
X173701983Y-73926540D01*
X173701990Y-73926553D01*
X173800535Y-74074034D01*
X173800538Y-74074038D01*
X173925961Y-74199461D01*
X173925965Y-74199464D01*
X174073446Y-74298009D01*
X174073459Y-74298016D01*
X174196363Y-74348923D01*
X174237334Y-74365894D01*
X174237336Y-74365894D01*
X174237341Y-74365896D01*
X174411304Y-74400499D01*
X174411307Y-74400500D01*
X174411309Y-74400500D01*
X174588693Y-74400500D01*
X174588694Y-74400499D01*
X174646682Y-74388964D01*
X174762658Y-74365896D01*
X174762661Y-74365894D01*
X174762666Y-74365894D01*
X174926547Y-74298013D01*
X175074035Y-74199464D01*
X175199464Y-74074035D01*
X175298013Y-73926547D01*
X175365894Y-73762666D01*
X175400500Y-73588691D01*
X175400500Y-73411309D01*
X175400500Y-73411306D01*
X175400499Y-73411304D01*
X175365896Y-73237341D01*
X175365893Y-73237332D01*
X175298013Y-73073453D01*
X175298011Y-73073451D01*
X175298011Y-73073449D01*
X175271398Y-73033620D01*
X175250520Y-72966942D01*
X175250500Y-72964729D01*
X175250500Y-68362229D01*
X175270185Y-68295190D01*
X175286819Y-68274548D01*
X176082950Y-67478417D01*
X176082952Y-67478415D01*
X176136193Y-67398733D01*
X176165084Y-67355495D01*
X176200606Y-67269737D01*
X176221659Y-67218912D01*
X176245021Y-67101463D01*
X176250500Y-67073918D01*
X176250500Y-65921153D01*
X196699500Y-65921153D01*
X196699500Y-66078846D01*
X196730261Y-66233489D01*
X196730264Y-66233501D01*
X196790602Y-66379172D01*
X196790609Y-66379184D01*
X196853602Y-66473459D01*
X196874480Y-66540136D01*
X196874500Y-66542350D01*
X196874500Y-68457650D01*
X196854815Y-68524689D01*
X196853602Y-68526541D01*
X196790609Y-68620815D01*
X196790602Y-68620828D01*
X196730264Y-68766498D01*
X196730261Y-68766510D01*
X196699500Y-68921153D01*
X196699500Y-69078846D01*
X196730261Y-69233489D01*
X196730264Y-69233501D01*
X196790602Y-69379172D01*
X196790609Y-69379185D01*
X196878210Y-69510288D01*
X196878213Y-69510292D01*
X196989707Y-69621786D01*
X196989711Y-69621789D01*
X197120814Y-69709390D01*
X197120827Y-69709397D01*
X197266498Y-69769735D01*
X197266503Y-69769737D01*
X197421153Y-69800499D01*
X197421156Y-69800500D01*
X197421158Y-69800500D01*
X197578844Y-69800500D01*
X197578845Y-69800499D01*
X197733497Y-69769737D01*
X197879179Y-69709394D01*
X198010289Y-69621789D01*
X198121789Y-69510289D01*
X198209394Y-69379179D01*
X198269737Y-69233497D01*
X198300500Y-69078842D01*
X198300500Y-68921158D01*
X198300500Y-68921155D01*
X198300499Y-68921153D01*
X198290809Y-68872439D01*
X198269737Y-68766503D01*
X198209394Y-68620821D01*
X198146397Y-68526539D01*
X198125520Y-68459863D01*
X198125500Y-68457650D01*
X198125500Y-67892784D01*
X198145185Y-67825745D01*
X198197989Y-67779990D01*
X198267147Y-67770046D01*
X198273692Y-67771167D01*
X198421155Y-67800500D01*
X198421158Y-67800500D01*
X198578844Y-67800500D01*
X198578845Y-67800499D01*
X198733497Y-67769737D01*
X198879179Y-67709394D01*
X198973459Y-67646398D01*
X199040136Y-67625520D01*
X199042350Y-67625500D01*
X199957650Y-67625500D01*
X200024689Y-67645185D01*
X200026541Y-67646398D01*
X200120821Y-67709394D01*
X200120823Y-67709395D01*
X200120827Y-67709397D01*
X200213590Y-67747820D01*
X200266503Y-67769737D01*
X200421153Y-67800499D01*
X200421156Y-67800500D01*
X200421158Y-67800500D01*
X200578844Y-67800500D01*
X200578845Y-67800499D01*
X200733497Y-67769737D01*
X200879179Y-67709394D01*
X201010289Y-67621789D01*
X201121789Y-67510289D01*
X201209394Y-67379179D01*
X201269737Y-67233497D01*
X201300500Y-67078842D01*
X201300500Y-66921158D01*
X201300500Y-66921155D01*
X201300499Y-66921153D01*
X201269738Y-66766510D01*
X201269737Y-66766503D01*
X201256062Y-66733489D01*
X201209397Y-66620827D01*
X201209390Y-66620814D01*
X201121789Y-66489711D01*
X201121786Y-66489707D01*
X201010292Y-66378213D01*
X201010288Y-66378210D01*
X200879185Y-66290609D01*
X200879172Y-66290602D01*
X200733501Y-66230264D01*
X200733489Y-66230261D01*
X200578845Y-66199500D01*
X200578842Y-66199500D01*
X200421158Y-66199500D01*
X200421155Y-66199500D01*
X200266510Y-66230261D01*
X200266498Y-66230264D01*
X200120827Y-66290602D01*
X200120815Y-66290609D01*
X200026541Y-66353602D01*
X199959864Y-66374480D01*
X199957650Y-66374500D01*
X199042350Y-66374500D01*
X198975311Y-66354815D01*
X198973459Y-66353602D01*
X198879184Y-66290609D01*
X198879172Y-66290602D01*
X198733501Y-66230264D01*
X198733489Y-66230261D01*
X198578845Y-66199500D01*
X198578842Y-66199500D01*
X198424500Y-66199500D01*
X198357461Y-66179815D01*
X198311706Y-66127011D01*
X198300500Y-66075500D01*
X198300500Y-65921155D01*
X198300499Y-65921153D01*
X198293327Y-65885098D01*
X198269737Y-65766503D01*
X198269735Y-65766498D01*
X198209397Y-65620827D01*
X198209390Y-65620814D01*
X198121789Y-65489711D01*
X198121786Y-65489707D01*
X198010292Y-65378213D01*
X198010288Y-65378210D01*
X197879185Y-65290609D01*
X197879172Y-65290602D01*
X197733501Y-65230264D01*
X197733489Y-65230261D01*
X197578845Y-65199500D01*
X197578842Y-65199500D01*
X197421158Y-65199500D01*
X197421155Y-65199500D01*
X197266510Y-65230261D01*
X197266498Y-65230264D01*
X197120827Y-65290602D01*
X197120814Y-65290609D01*
X196989711Y-65378210D01*
X196989707Y-65378213D01*
X196878213Y-65489707D01*
X196878210Y-65489711D01*
X196790609Y-65620814D01*
X196790602Y-65620827D01*
X196730264Y-65766498D01*
X196730261Y-65766510D01*
X196699500Y-65921153D01*
X176250500Y-65921153D01*
X176250500Y-65035269D01*
X176270185Y-64968230D01*
X176271398Y-64966378D01*
X176298013Y-64926547D01*
X176365894Y-64762666D01*
X176400500Y-64588691D01*
X176400500Y-64411309D01*
X176400500Y-64411306D01*
X176400499Y-64411304D01*
X176365896Y-64237341D01*
X176365893Y-64237332D01*
X176298016Y-64073459D01*
X176298009Y-64073446D01*
X176199464Y-63925965D01*
X176199461Y-63925961D01*
X176074038Y-63800538D01*
X176074034Y-63800535D01*
X175926554Y-63701991D01*
X175926540Y-63701983D01*
X175762667Y-63634106D01*
X175762658Y-63634103D01*
X175601941Y-63602135D01*
X206149500Y-63602135D01*
X206149500Y-65397870D01*
X206149501Y-65397876D01*
X206155908Y-65457483D01*
X206206202Y-65592328D01*
X206206206Y-65592335D01*
X206292452Y-65707544D01*
X206292455Y-65707547D01*
X206407664Y-65793793D01*
X206407671Y-65793797D01*
X206539082Y-65842810D01*
X206595016Y-65884681D01*
X206619433Y-65950145D01*
X206604582Y-66018418D01*
X206583431Y-66046673D01*
X206469889Y-66160215D01*
X206344951Y-66332179D01*
X206248444Y-66521585D01*
X206182753Y-66723760D01*
X206149500Y-66933713D01*
X206149500Y-67146286D01*
X206182635Y-67355495D01*
X206182754Y-67356243D01*
X206232807Y-67510289D01*
X206248443Y-67558412D01*
X206344951Y-67747820D01*
X206469890Y-67919786D01*
X206620213Y-68070109D01*
X206792179Y-68195048D01*
X206792181Y-68195049D01*
X206792184Y-68195051D01*
X206801493Y-68199794D01*
X206852290Y-68247766D01*
X206869087Y-68315587D01*
X206846552Y-68381722D01*
X206801505Y-68420760D01*
X206792446Y-68425376D01*
X206792440Y-68425380D01*
X206738282Y-68464727D01*
X206738282Y-68464728D01*
X207370591Y-69097037D01*
X207307007Y-69114075D01*
X207192993Y-69179901D01*
X207099901Y-69272993D01*
X207034075Y-69387007D01*
X207017037Y-69450591D01*
X206384728Y-68818282D01*
X206384727Y-68818282D01*
X206345380Y-68872439D01*
X206248904Y-69061782D01*
X206183242Y-69263869D01*
X206183242Y-69263872D01*
X206150000Y-69473753D01*
X206150000Y-69686246D01*
X206183242Y-69896127D01*
X206183242Y-69896130D01*
X206248904Y-70098217D01*
X206345375Y-70287550D01*
X206384728Y-70341716D01*
X207017037Y-69709408D01*
X207034075Y-69772993D01*
X207099901Y-69887007D01*
X207192993Y-69980099D01*
X207307007Y-70045925D01*
X207370590Y-70062962D01*
X206738282Y-70695269D01*
X206738282Y-70695270D01*
X206792449Y-70734624D01*
X206981782Y-70831095D01*
X207183870Y-70896757D01*
X207393754Y-70930000D01*
X207606246Y-70930000D01*
X207816127Y-70896757D01*
X207816130Y-70896757D01*
X208018217Y-70831095D01*
X208207554Y-70734622D01*
X208261716Y-70695270D01*
X208261717Y-70695270D01*
X207629408Y-70062962D01*
X207692993Y-70045925D01*
X207807007Y-69980099D01*
X207900099Y-69887007D01*
X207965925Y-69772993D01*
X207982962Y-69709409D01*
X208615270Y-70341717D01*
X208615270Y-70341716D01*
X208654622Y-70287554D01*
X208751095Y-70098217D01*
X208816757Y-69896130D01*
X208816757Y-69896127D01*
X208850000Y-69686246D01*
X208850000Y-69473753D01*
X208816757Y-69263872D01*
X208816757Y-69263869D01*
X208751095Y-69061782D01*
X208654624Y-68872449D01*
X208615270Y-68818282D01*
X208615269Y-68818282D01*
X207982962Y-69450590D01*
X207965925Y-69387007D01*
X207900099Y-69272993D01*
X207807007Y-69179901D01*
X207692993Y-69114075D01*
X207629409Y-69097037D01*
X208261716Y-68464728D01*
X208207547Y-68425373D01*
X208207547Y-68425372D01*
X208198500Y-68420763D01*
X208147706Y-68372788D01*
X208130912Y-68304966D01*
X208153451Y-68238832D01*
X208198508Y-68199793D01*
X208207816Y-68195051D01*
X208287007Y-68137515D01*
X208379786Y-68070109D01*
X208379788Y-68070106D01*
X208379792Y-68070104D01*
X208530104Y-67919792D01*
X208530106Y-67919788D01*
X208530109Y-67919786D01*
X208655048Y-67747820D01*
X208655047Y-67747820D01*
X208655051Y-67747816D01*
X208751557Y-67558412D01*
X208817246Y-67356243D01*
X208850500Y-67146287D01*
X208850500Y-66933713D01*
X208817246Y-66723757D01*
X208751557Y-66521588D01*
X208655051Y-66332184D01*
X208655049Y-66332181D01*
X208655048Y-66332179D01*
X208530109Y-66160213D01*
X208416569Y-66046673D01*
X208383084Y-65985350D01*
X208388068Y-65915658D01*
X208429940Y-65859725D01*
X208460915Y-65842810D01*
X208592331Y-65793796D01*
X208707546Y-65707546D01*
X208793796Y-65592331D01*
X208844091Y-65457483D01*
X208850500Y-65397873D01*
X208850499Y-63602128D01*
X208844091Y-63542517D01*
X208793796Y-63407669D01*
X208793795Y-63407668D01*
X208793793Y-63407664D01*
X208707547Y-63292455D01*
X208707544Y-63292452D01*
X208592335Y-63206206D01*
X208592328Y-63206202D01*
X208457482Y-63155908D01*
X208457483Y-63155908D01*
X208397883Y-63149501D01*
X208397881Y-63149500D01*
X208397873Y-63149500D01*
X208397864Y-63149500D01*
X206602129Y-63149500D01*
X206602123Y-63149501D01*
X206542516Y-63155908D01*
X206407671Y-63206202D01*
X206407664Y-63206206D01*
X206292455Y-63292452D01*
X206292452Y-63292455D01*
X206206206Y-63407664D01*
X206206202Y-63407671D01*
X206155908Y-63542517D01*
X206149782Y-63599500D01*
X206149501Y-63602123D01*
X206149500Y-63602135D01*
X175601941Y-63602135D01*
X175588694Y-63599500D01*
X175588691Y-63599500D01*
X175411309Y-63599500D01*
X175411306Y-63599500D01*
X175237341Y-63634103D01*
X175237332Y-63634106D01*
X175073459Y-63701983D01*
X175073446Y-63701990D01*
X174925965Y-63800535D01*
X174925961Y-63800538D01*
X174800538Y-63925961D01*
X174800535Y-63925965D01*
X174701990Y-64073446D01*
X174701983Y-64073459D01*
X174634106Y-64237332D01*
X174634103Y-64237341D01*
X174599500Y-64411304D01*
X174599500Y-64588695D01*
X174634103Y-64762658D01*
X174634106Y-64762667D01*
X174701984Y-64926542D01*
X174701985Y-64926543D01*
X174701987Y-64926547D01*
X174728602Y-64966378D01*
X174749480Y-65033055D01*
X174749500Y-65035269D01*
X174749500Y-65818059D01*
X174729815Y-65885098D01*
X174677011Y-65930853D01*
X174607853Y-65940797D01*
X174544297Y-65911772D01*
X174537819Y-65905740D01*
X174510292Y-65878213D01*
X174510288Y-65878210D01*
X174379185Y-65790609D01*
X174379172Y-65790602D01*
X174233501Y-65730264D01*
X174233489Y-65730261D01*
X174078845Y-65699500D01*
X174078842Y-65699500D01*
X173921158Y-65699500D01*
X173921155Y-65699500D01*
X173766510Y-65730261D01*
X173766498Y-65730264D01*
X173620827Y-65790602D01*
X173620815Y-65790609D01*
X173526541Y-65853602D01*
X173459864Y-65874480D01*
X173457650Y-65874500D01*
X172542350Y-65874500D01*
X172475311Y-65854815D01*
X172473459Y-65853602D01*
X172379184Y-65790609D01*
X172379172Y-65790602D01*
X172233501Y-65730264D01*
X172233489Y-65730261D01*
X172078845Y-65699500D01*
X172078842Y-65699500D01*
X171921158Y-65699500D01*
X171921155Y-65699500D01*
X171766510Y-65730261D01*
X171766498Y-65730264D01*
X171620827Y-65790602D01*
X171620814Y-65790609D01*
X171489711Y-65878210D01*
X171489707Y-65878213D01*
X171378213Y-65989707D01*
X171378210Y-65989711D01*
X171290609Y-66120814D01*
X171290602Y-66120827D01*
X171230264Y-66266498D01*
X171230261Y-66266510D01*
X171199500Y-66421153D01*
X161500500Y-66421153D01*
X161500500Y-55624500D01*
X161520185Y-55557461D01*
X161572989Y-55511706D01*
X161624500Y-55500500D01*
X161876000Y-55500500D01*
X161943039Y-55520185D01*
G37*
%TD.AperFunction*%
%TD*%
M02*
