M48
; DRILL file {KiCad 9.0.7} date 2026-04-06T16:16:31-0700
; FORMAT={-:-/ absolute / metric / decimal}
; #@! TF.CreationDate,2026-04-06T16:16:31-07:00
; #@! TF.GenerationSoftware,Kicad,Pcbnew,9.0.7
; #@! TF.FileFunction,Plated,1,2,PTH
FMAT,2
METRIC
; #@! TA.AperFunction,Plated,PTH,ComponentDrill
T1C0.200
; #@! TA.AperFunction,Plated,PTH,ViaDrill
T2C0.250
; #@! TA.AperFunction,Plated,PTH,ViaDrill
T3C0.300
; #@! TA.AperFunction,Plated,PTH,ViaDrill
T4C0.400
; #@! TA.AperFunction,Plated,PTH,ViaDrill
T5C0.500
; #@! TA.AperFunction,Plated,PTH,ComponentDrill
T6C1.000
%
G90
G05
T1
X183.1Y-70.2
X183.1Y-71.6
X183.8Y-69.5
X183.8Y-70.9
X183.8Y-72.3
X184.5Y-70.2
X184.5Y-71.6
X185.2Y-69.5
X185.2Y-70.9
X185.2Y-72.3
X185.9Y-70.2
X185.9Y-71.6
T2
X168.0Y-90.5
X171.5Y-93.5
X172.5Y-94.0
X174.5Y-92.5
X174.5Y-93.5
X176.0Y-86.0
X177.5Y-91.0
X178.5Y-84.5
X179.312Y-90.312
X179.5Y-82.0
X183.5Y-83.0
X184.0Y-89.0
X188.5Y-85.5
X188.5Y-88.5
X189.5Y-85.5
X191.0Y-87.5
X191.0Y-91.0
X192.5Y-84.5
X193.0Y-89.0
X193.0Y-93.0
X201.0Y-80.0
T3
X171.5Y-80.5
X172.0Y-66.5
X174.0Y-66.5
X174.0Y-77.0
X174.0Y-79.5
X175.0Y-80.5
X182.0Y-86.5
X189.0Y-83.0
X195.0Y-83.0
X196.5Y-79.0
X196.5Y-80.5
X197.5Y-66.0
X197.5Y-69.0
X197.5Y-79.0
X197.5Y-80.5
X197.5Y-83.0
X198.5Y-67.0
X200.0Y-65.5
X200.5Y-67.0
X202.0Y-68.0
T4
X162.625Y-69.0
X170.0Y-83.5
X170.0Y-96.0
X174.5Y-73.5
X175.5Y-63.0
X175.5Y-64.5
X178.0Y-85.5
T5
X178.5Y-97.0
X180.0Y-103.0
X180.0Y-104.0
X181.0Y-103.0
X181.0Y-104.0
X182.0Y-103.0
X182.0Y-104.0
X183.0Y-103.0
X183.0Y-104.0
X190.5Y-97.0
X203.0Y-91.0
X203.0Y-92.0
X203.0Y-93.0
X203.0Y-94.0
X204.0Y-91.0
X204.0Y-92.0
X204.0Y-93.0
X204.0Y-94.0
T6
X196.5Y-97.368
X196.5Y-102.368
X207.5Y-64.5
X207.5Y-67.04
X207.5Y-69.58
M30
