%TF.GenerationSoftware,KiCad,Pcbnew,9.0.7*%
%TF.CreationDate,2026-04-06T16:16:28-07:00*%
%TF.ProjectId,PolySaber,506f6c79-5361-4626-9572-2e6b69636164,rev?*%
%TF.SameCoordinates,Original*%
%TF.FileFunction,Soldermask,Top*%
%TF.FilePolarity,Negative*%
%FSLAX46Y46*%
G04 Gerber Fmt 4.6, Leading zero omitted, Abs format (unit mm)*
G04 Created by KiCad (PCBNEW 9.0.7) date 2026-04-06 16:16:28*
%MOMM*%
%LPD*%
G01*
G04 APERTURE LIST*
G04 Aperture macros list*
%AMRoundRect*
0 Rectangle with rounded corners*
0 $1 Rounding radius*
0 $2 $3 $4 $5 $6 $7 $8 $9 X,Y pos of 4 corners*
0 Add a 4 corners polygon primitive as box body*
4,1,4,$2,$3,$4,$5,$6,$7,$8,$9,$2,$3,0*
0 Add four circle primitives for the rounded corners*
1,1,$1+$1,$2,$3*
1,1,$1+$1,$4,$5*
1,1,$1+$1,$6,$7*
1,1,$1+$1,$8,$9*
0 Add four rect primitives between the rounded corners*
20,1,$1+$1,$2,$3,$4,$5,0*
20,1,$1+$1,$4,$5,$6,$7,0*
20,1,$1+$1,$6,$7,$8,$9,0*
20,1,$1+$1,$8,$9,$2,$3,0*%
G04 Aperture macros list end*
%ADD10R,1.500000X0.900000*%
%ADD11R,0.900000X1.500000*%
%ADD12R,0.900000X0.900000*%
%ADD13C,0.600000*%
%ADD14RoundRect,0.237500X-0.237500X0.250000X-0.237500X-0.250000X0.237500X-0.250000X0.237500X0.250000X0*%
%ADD15R,1.250000X1.000000*%
%ADD16C,2.200000*%
%ADD17R,4.000000X4.000000*%
%ADD18R,1.700000X1.700000*%
%ADD19C,1.700000*%
%ADD20RoundRect,0.237500X0.237500X-0.300000X0.237500X0.300000X-0.237500X0.300000X-0.237500X-0.300000X0*%
%ADD21RoundRect,0.237500X0.250000X0.237500X-0.250000X0.237500X-0.250000X-0.237500X0.250000X-0.237500X0*%
%ADD22RoundRect,0.198500X-0.508500X-0.198500X0.508500X-0.198500X0.508500X0.198500X-0.508500X0.198500X0*%
%ADD23RoundRect,0.237500X-0.300000X-0.237500X0.300000X-0.237500X0.300000X0.237500X-0.300000X0.237500X0*%
%ADD24RoundRect,0.100000X-0.100000X0.217500X-0.100000X-0.217500X0.100000X-0.217500X0.100000X0.217500X0*%
%ADD25RoundRect,0.062500X-0.350000X-0.062500X0.350000X-0.062500X0.350000X0.062500X-0.350000X0.062500X0*%
%ADD26RoundRect,0.062500X-0.062500X-0.350000X0.062500X-0.350000X0.062500X0.350000X-0.062500X0.350000X0*%
%ADD27R,1.230000X1.230000*%
%ADD28RoundRect,0.237500X-0.250000X-0.237500X0.250000X-0.237500X0.250000X0.237500X-0.250000X0.237500X0*%
%ADD29RoundRect,0.237500X0.287500X0.237500X-0.287500X0.237500X-0.287500X-0.237500X0.287500X-0.237500X0*%
%ADD30RoundRect,0.237500X0.300000X0.237500X-0.300000X0.237500X-0.300000X-0.237500X0.300000X-0.237500X0*%
%ADD31RoundRect,0.375000X-0.375000X0.625000X-0.375000X-0.625000X0.375000X-0.625000X0.375000X0.625000X0*%
%ADD32RoundRect,0.500000X-1.400000X0.500000X-1.400000X-0.500000X1.400000X-0.500000X1.400000X0.500000X0*%
%ADD33RoundRect,0.250000X0.750000X-0.750000X0.750000X0.750000X-0.750000X0.750000X-0.750000X-0.750000X0*%
%ADD34C,2.000000*%
%ADD35RoundRect,0.075000X0.075000X-0.350000X0.075000X0.350000X-0.075000X0.350000X-0.075000X-0.350000X0*%
%ADD36RoundRect,0.075000X0.350000X0.075000X-0.350000X0.075000X-0.350000X-0.075000X0.350000X-0.075000X0*%
G04 APERTURE END LIST*
D10*
%TO.C,U1*%
X177250000Y-63180000D03*
X177250000Y-64450000D03*
X177250000Y-65720000D03*
X177250000Y-66990000D03*
X177250000Y-68260000D03*
X177250000Y-69530000D03*
X177250000Y-70800000D03*
X177250000Y-72070000D03*
X177250000Y-73340000D03*
X177250000Y-74610000D03*
X177250000Y-75880000D03*
X177250000Y-77150000D03*
X177250000Y-78420000D03*
X177250000Y-79690000D03*
D11*
X180285000Y-80940000D03*
X181555000Y-80940000D03*
X182825000Y-80940000D03*
X184095000Y-80940000D03*
X185365000Y-80940000D03*
X186635000Y-80940000D03*
X187905000Y-80940000D03*
X189175000Y-80940000D03*
X190445000Y-80940000D03*
X191715000Y-80940000D03*
D10*
X194750000Y-79690000D03*
X194750000Y-78420000D03*
X194750000Y-77150000D03*
X194750000Y-75880000D03*
X194750000Y-74610000D03*
X194750000Y-73340000D03*
X194750000Y-72070000D03*
X194750000Y-70800000D03*
X194750000Y-69530000D03*
X194750000Y-68260000D03*
X194750000Y-66990000D03*
X194750000Y-65720000D03*
X194750000Y-64450000D03*
X194750000Y-63180000D03*
D12*
X183100000Y-69500000D03*
D13*
X183100000Y-70200000D03*
D12*
X183100000Y-70900000D03*
D13*
X183100000Y-71600000D03*
D12*
X183100000Y-72300000D03*
D13*
X183800000Y-69500000D03*
X183800000Y-70900000D03*
X183800000Y-72300000D03*
D12*
X184500000Y-69500000D03*
D13*
X184500000Y-70200000D03*
D12*
X184500000Y-70900000D03*
D13*
X184500000Y-71600000D03*
D12*
X184500000Y-72300000D03*
D13*
X185200000Y-69500000D03*
X185200000Y-70900000D03*
X185200000Y-72300000D03*
D12*
X185900000Y-69500000D03*
D13*
X185900000Y-70200000D03*
D12*
X185900000Y-70900000D03*
D13*
X185900000Y-71600000D03*
D12*
X185900000Y-72300000D03*
%TD*%
D14*
%TO.C,R7*%
X201000000Y-76587500D03*
X201000000Y-78412500D03*
%TD*%
D15*
%TO.C,SW1*%
X162625000Y-65000000D03*
X170375000Y-65000000D03*
%TD*%
D16*
%TO.C,REF\u002A\u002A*%
X164250000Y-82250000D03*
%TD*%
D14*
%TO.C,R1*%
X203500000Y-98587500D03*
X203500000Y-100412500D03*
%TD*%
D17*
%TO.C,PWR1*%
X187500000Y-107000000D03*
%TD*%
%TO.C,LED+1*%
X207000000Y-106500000D03*
%TD*%
D18*
%TO.C,J1*%
X207500000Y-64500000D03*
D19*
X207500000Y-67040000D03*
X207500000Y-69580000D03*
%TD*%
D20*
%TO.C,C8*%
X171500000Y-92362500D03*
X171500000Y-90637500D03*
%TD*%
D21*
%TO.C,R2*%
X181412500Y-88500000D03*
X179587500Y-88500000D03*
%TD*%
D22*
%TO.C,U4*%
X193245000Y-90050000D03*
X193245000Y-91000000D03*
X193245000Y-91950000D03*
X195755000Y-91950000D03*
X195755000Y-90050000D03*
%TD*%
D17*
%TO.C,LED_Din1*%
X207000000Y-99500000D03*
%TD*%
D20*
%TO.C,C7*%
X169500000Y-92362500D03*
X169500000Y-90637500D03*
%TD*%
D23*
%TO.C,C6*%
X190637500Y-85500000D03*
X192362500Y-85500000D03*
%TD*%
D17*
%TO.C,SPK-1*%
X164000000Y-100550000D03*
%TD*%
D24*
%TO.C,C10*%
X167000000Y-100092500D03*
X167000000Y-100907500D03*
%TD*%
D25*
%TO.C,U3*%
X172252500Y-86940000D03*
X172252500Y-87440000D03*
X172252500Y-87940000D03*
X172252500Y-88440000D03*
D26*
X172940000Y-89127500D03*
X173440000Y-89127500D03*
X173940000Y-89127500D03*
X174440000Y-89127500D03*
D25*
X175127500Y-88440000D03*
X175127500Y-87940000D03*
X175127500Y-87440000D03*
X175127500Y-86940000D03*
D26*
X174440000Y-86252500D03*
X173940000Y-86252500D03*
X173440000Y-86252500D03*
X172940000Y-86252500D03*
D27*
X173690000Y-87690000D03*
%TD*%
D28*
%TO.C,R5*%
X198087500Y-92000000D03*
X199912500Y-92000000D03*
%TD*%
D17*
%TO.C,GND1*%
X181500000Y-107000000D03*
%TD*%
D29*
%TO.C,D1*%
X176875000Y-94500000D03*
X175125000Y-94500000D03*
%TD*%
D23*
%TO.C,C11*%
X198137500Y-90000000D03*
X199862500Y-90000000D03*
%TD*%
D24*
%TO.C,C3*%
X190000000Y-87025000D03*
X190000000Y-87840000D03*
%TD*%
D15*
%TO.C,SW3*%
X201625000Y-74500000D03*
X209375000Y-74500000D03*
%TD*%
D30*
%TO.C,C4*%
X181362500Y-84500000D03*
X179637500Y-84500000D03*
%TD*%
D14*
%TO.C,R4*%
X169500000Y-86587500D03*
X169500000Y-88412500D03*
%TD*%
%TO.C,R6*%
X171500000Y-75000000D03*
X171500000Y-76825000D03*
%TD*%
D31*
%TO.C,U5*%
X176800000Y-98350000D03*
X174500000Y-98350000D03*
D32*
X174500000Y-104650000D03*
D31*
X172200000Y-98350000D03*
%TD*%
D17*
%TO.C,SPK+1*%
X164000000Y-94500000D03*
%TD*%
D30*
%TO.C,C5*%
X186362500Y-83000000D03*
X184637500Y-83000000D03*
%TD*%
D15*
%TO.C,SW2*%
X170375000Y-73000000D03*
X162625000Y-73000000D03*
%TD*%
D33*
%TO.C,C12*%
X196500000Y-102367677D03*
D34*
X196500000Y-97367677D03*
%TD*%
D24*
%TO.C,C9*%
X167000000Y-94092500D03*
X167000000Y-94907500D03*
%TD*%
D17*
%TO.C,LED-1*%
X207000000Y-92500000D03*
%TD*%
D30*
%TO.C,C1*%
X173362500Y-96000000D03*
X171637500Y-96000000D03*
%TD*%
D35*
%TO.C,U2*%
X184250000Y-88450000D03*
X184750000Y-88450000D03*
X185250000Y-88450000D03*
X185750000Y-88450000D03*
X186250000Y-88450000D03*
X186750000Y-88450000D03*
D36*
X187450000Y-87750000D03*
X187450000Y-87250000D03*
X187450000Y-86750000D03*
X187450000Y-86250000D03*
X187450000Y-85750000D03*
X187450000Y-85250000D03*
D35*
X186750000Y-84550000D03*
X186250000Y-84550000D03*
X185750000Y-84550000D03*
X185250000Y-84550000D03*
X184750000Y-84550000D03*
X184250000Y-84550000D03*
D36*
X183550000Y-85250000D03*
X183550000Y-85750000D03*
X183550000Y-86250000D03*
X183550000Y-86750000D03*
X183550000Y-87250000D03*
X183550000Y-87750000D03*
%TD*%
D21*
%TO.C,R3*%
X180325000Y-86500000D03*
X178500000Y-86500000D03*
%TD*%
D23*
%TO.C,C13*%
X175137500Y-96000000D03*
X176862500Y-96000000D03*
%TD*%
D16*
%TO.C,REF\u002A\u002A*%
X207750000Y-82250000D03*
%TD*%
M02*
