%TF.GenerationSoftware,KiCad,Pcbnew,9.0.7*%
%TF.CreationDate,2026-04-06T16:16:28-07:00*%
%TF.ProjectId,PolySaber,506f6c79-5361-4626-9572-2e6b69636164,rev?*%
%TF.SameCoordinates,Original*%
%TF.FileFunction,Copper,L1,Top*%
%TF.FilePolarity,Positive*%
%FSLAX46Y46*%
G04 Gerber Fmt 4.6, Leading zero omitted, Abs format (unit mm)*
G04 Created by KiCad (PCBNEW 9.0.7) date 2026-04-06 16:16:28*
%MOMM*%
%LPD*%
G01*
G04 APERTURE LIST*
G04 Aperture macros list*
%AMRoundRect*
0 Rectangle with rounded corners*
0 $1 Rounding radius*
0 $2 $3 $4 $5 $6 $7 $8 $9 X,Y pos of 4 corners*
0 Add a 4 corners polygon primitive as box body*
4,1,4,$2,$3,$4,$5,$6,$7,$8,$9,$2,$3,0*
0 Add four circle primitives for the rounded corners*
1,1,$1+$1,$2,$3*
1,1,$1+$1,$4,$5*
1,1,$1+$1,$6,$7*
1,1,$1+$1,$8,$9*
0 Add four rect primitives between the rounded corners*
20,1,$1+$1,$2,$3,$4,$5,0*
20,1,$1+$1,$4,$5,$6,$7,0*
20,1,$1+$1,$6,$7,$8,$9,0*
20,1,$1+$1,$8,$9,$2,$3,0*%
G04 Aperture macros list end*
%TA.AperFunction,SMDPad,CuDef*%
%ADD10R,1.500000X0.900000*%
%TD*%
%TA.AperFunction,SMDPad,CuDef*%
%ADD11R,0.900000X1.500000*%
%TD*%
%TA.AperFunction,HeatsinkPad*%
%ADD12R,0.900000X0.900000*%
%TD*%
%TA.AperFunction,HeatsinkPad*%
%ADD13C,0.600000*%
%TD*%
%TA.AperFunction,SMDPad,CuDef*%
%ADD14RoundRect,0.237500X-0.237500X0.250000X-0.237500X-0.250000X0.237500X-0.250000X0.237500X0.250000X0*%
%TD*%
%TA.AperFunction,SMDPad,CuDef*%
%ADD15R,1.250000X1.000000*%
%TD*%
%TA.AperFunction,SMDPad,CuDef*%
%ADD16R,4.000000X4.000000*%
%TD*%
%TA.AperFunction,ComponentPad*%
%ADD17R,1.700000X1.700000*%
%TD*%
%TA.AperFunction,ComponentPad*%
%ADD18C,1.700000*%
%TD*%
%TA.AperFunction,SMDPad,CuDef*%
%ADD19RoundRect,0.237500X0.237500X-0.300000X0.237500X0.300000X-0.237500X0.300000X-0.237500X-0.300000X0*%
%TD*%
%TA.AperFunction,SMDPad,CuDef*%
%ADD20RoundRect,0.237500X0.250000X0.237500X-0.250000X0.237500X-0.250000X-0.237500X0.250000X-0.237500X0*%
%TD*%
%TA.AperFunction,SMDPad,CuDef*%
%ADD21RoundRect,0.147500X-0.457500X-0.147500X0.457500X-0.147500X0.457500X0.147500X-0.457500X0.147500X0*%
%TD*%
%TA.AperFunction,SMDPad,CuDef*%
%ADD22RoundRect,0.237500X-0.300000X-0.237500X0.300000X-0.237500X0.300000X0.237500X-0.300000X0.237500X0*%
%TD*%
%TA.AperFunction,SMDPad,CuDef*%
%ADD23RoundRect,0.100000X-0.100000X0.217500X-0.100000X-0.217500X0.100000X-0.217500X0.100000X0.217500X0*%
%TD*%
%TA.AperFunction,SMDPad,CuDef*%
%ADD24RoundRect,0.062500X-0.350000X-0.062500X0.350000X-0.062500X0.350000X0.062500X-0.350000X0.062500X0*%
%TD*%
%TA.AperFunction,SMDPad,CuDef*%
%ADD25RoundRect,0.062500X-0.062500X-0.350000X0.062500X-0.350000X0.062500X0.350000X-0.062500X0.350000X0*%
%TD*%
%TA.AperFunction,HeatsinkPad*%
%ADD26R,1.230000X1.230000*%
%TD*%
%TA.AperFunction,SMDPad,CuDef*%
%ADD27RoundRect,0.237500X-0.250000X-0.237500X0.250000X-0.237500X0.250000X0.237500X-0.250000X0.237500X0*%
%TD*%
%TA.AperFunction,SMDPad,CuDef*%
%ADD28RoundRect,0.237500X0.287500X0.237500X-0.287500X0.237500X-0.287500X-0.237500X0.287500X-0.237500X0*%
%TD*%
%TA.AperFunction,SMDPad,CuDef*%
%ADD29RoundRect,0.237500X0.300000X0.237500X-0.300000X0.237500X-0.300000X-0.237500X0.300000X-0.237500X0*%
%TD*%
%TA.AperFunction,SMDPad,CuDef*%
%ADD30RoundRect,0.375000X-0.375000X0.625000X-0.375000X-0.625000X0.375000X-0.625000X0.375000X0.625000X0*%
%TD*%
%TA.AperFunction,SMDPad,CuDef*%
%ADD31RoundRect,0.500000X-1.400000X0.500000X-1.400000X-0.500000X1.400000X-0.500000X1.400000X0.500000X0*%
%TD*%
%TA.AperFunction,ComponentPad*%
%ADD32RoundRect,0.250000X0.750000X-0.750000X0.750000X0.750000X-0.750000X0.750000X-0.750000X-0.750000X0*%
%TD*%
%TA.AperFunction,ComponentPad*%
%ADD33C,2.000000*%
%TD*%
%TA.AperFunction,SMDPad,CuDef*%
%ADD34RoundRect,0.075000X0.075000X-0.350000X0.075000X0.350000X-0.075000X0.350000X-0.075000X-0.350000X0*%
%TD*%
%TA.AperFunction,SMDPad,CuDef*%
%ADD35RoundRect,0.075000X0.350000X0.075000X-0.350000X0.075000X-0.350000X-0.075000X0.350000X-0.075000X0*%
%TD*%
%TA.AperFunction,ViaPad*%
%ADD36C,0.500000*%
%TD*%
%TA.AperFunction,ViaPad*%
%ADD37C,1.000000*%
%TD*%
%TA.AperFunction,ViaPad*%
%ADD38C,0.600000*%
%TD*%
%TA.AperFunction,ViaPad*%
%ADD39C,0.800000*%
%TD*%
%TA.AperFunction,Conductor*%
%ADD40C,0.250000*%
%TD*%
%TA.AperFunction,Conductor*%
%ADD41C,0.200000*%
%TD*%
%TA.AperFunction,Conductor*%
%ADD42C,0.500000*%
%TD*%
%TA.AperFunction,Conductor*%
%ADD43C,1.500000*%
%TD*%
%TA.AperFunction,Conductor*%
%ADD44C,4.000000*%
%TD*%
G04 APERTURE END LIST*
D10*
%TO.P,U1,1,GND*%
%TO.N,GND*%
X177250000Y-63180000D03*
%TO.P,U1,2,VDD*%
%TO.N,+3.3V*%
X177250000Y-64450000D03*
%TO.P,U1,3,EN*%
%TO.N,Net-(U1-EN)*%
X177250000Y-65720000D03*
%TO.P,U1,4,SENSOR_VP*%
%TO.N,unconnected-(U1-SENSOR_VP-Pad4)*%
X177250000Y-66990000D03*
%TO.P,U1,5,SENSOR_VN*%
%TO.N,unconnected-(U1-SENSOR_VN-Pad5)*%
X177250000Y-68260000D03*
%TO.P,U1,6,IO34*%
%TO.N,unconnected-(U1-IO34-Pad6)*%
X177250000Y-69530000D03*
%TO.P,U1,7,IO35*%
%TO.N,unconnected-(U1-IO35-Pad7)*%
X177250000Y-70800000D03*
%TO.P,U1,8,IO32*%
%TO.N,unconnected-(U1-IO32-Pad8)*%
X177250000Y-72070000D03*
%TO.P,U1,9,IO33*%
%TO.N,Net-(U1-IO33)*%
X177250000Y-73340000D03*
%TO.P,U1,10,IO25*%
%TO.N,Net-(U1-IO25)*%
X177250000Y-74610000D03*
%TO.P,U1,11,IO26*%
%TO.N,Net-(U1-IO26)*%
X177250000Y-75880000D03*
%TO.P,U1,12,IO27*%
%TO.N,Net-(U1-IO27)*%
X177250000Y-77150000D03*
%TO.P,U1,13,IO14*%
%TO.N,unconnected-(U1-IO14-Pad13)*%
X177250000Y-78420000D03*
%TO.P,U1,14,IO12*%
%TO.N,unconnected-(U1-IO12-Pad14)*%
X177250000Y-79690000D03*
D11*
%TO.P,U1,15,GND*%
%TO.N,GND*%
X180285000Y-80940000D03*
%TO.P,U1,16,IO13*%
%TO.N,Net-(U1-IO13)*%
X181555000Y-80940000D03*
%TO.P,U1,17,NC*%
%TO.N,unconnected-(U1-NC-Pad17)*%
X182825000Y-80940000D03*
%TO.P,U1,18,NC*%
%TO.N,unconnected-(U1-NC-Pad18)*%
X184095000Y-80940000D03*
%TO.P,U1,19,NC*%
%TO.N,unconnected-(U1-NC-Pad19)*%
X185365000Y-80940000D03*
%TO.P,U1,20,NC*%
%TO.N,unconnected-(U1-NC-Pad20)*%
X186635000Y-80940000D03*
%TO.P,U1,21,NC*%
%TO.N,unconnected-(U1-NC-Pad21)*%
X187905000Y-80940000D03*
%TO.P,U1,22,NC*%
%TO.N,unconnected-(U1-NC-Pad22)*%
X189175000Y-80940000D03*
%TO.P,U1,23,IO15*%
%TO.N,unconnected-(U1-IO15-Pad23)*%
X190445000Y-80940000D03*
%TO.P,U1,24,IO2*%
%TO.N,unconnected-(U1-IO2-Pad24)*%
X191715000Y-80940000D03*
D10*
%TO.P,U1,25,IO0*%
%TO.N,Net-(U1-IO0)*%
X194750000Y-79690000D03*
%TO.P,U1,26,IO4*%
%TO.N,unconnected-(U1-IO4-Pad26)*%
X194750000Y-78420000D03*
%TO.P,U1,27,IO16*%
%TO.N,unconnected-(U1-IO16-Pad27)*%
X194750000Y-77150000D03*
%TO.P,U1,28,IO17*%
%TO.N,unconnected-(U1-IO17-Pad28)*%
X194750000Y-75880000D03*
%TO.P,U1,29,IO5*%
%TO.N,unconnected-(U1-IO5-Pad29)*%
X194750000Y-74610000D03*
%TO.P,U1,30,IO18*%
%TO.N,unconnected-(U1-IO18-Pad30)*%
X194750000Y-73340000D03*
%TO.P,U1,31,IO19*%
%TO.N,unconnected-(U1-IO19-Pad31)*%
X194750000Y-72070000D03*
%TO.P,U1,32,NC*%
%TO.N,unconnected-(U1-NC-Pad32)*%
X194750000Y-70800000D03*
%TO.P,U1,33,IO21*%
%TO.N,Net-(U1-IO21)*%
X194750000Y-69530000D03*
%TO.P,U1,34,RXD0/IO3*%
%TO.N,Net-(J1-Pin_1)*%
X194750000Y-68260000D03*
%TO.P,U1,35,TXD0/IO1*%
%TO.N,Net-(J1-Pin_2)*%
X194750000Y-66990000D03*
%TO.P,U1,36,IO22*%
%TO.N,Net-(U1-IO22)*%
X194750000Y-65720000D03*
%TO.P,U1,37,IO23*%
%TO.N,unconnected-(U1-IO23-Pad37)*%
X194750000Y-64450000D03*
%TO.P,U1,38,GND*%
%TO.N,GND*%
X194750000Y-63180000D03*
D12*
%TO.P,U1,39,GND*%
X183100000Y-69500000D03*
D13*
X183100000Y-70200000D03*
D12*
X183100000Y-70900000D03*
D13*
X183100000Y-71600000D03*
D12*
X183100000Y-72300000D03*
D13*
X183800000Y-69500000D03*
X183800000Y-70900000D03*
X183800000Y-72300000D03*
D12*
X184500000Y-69500000D03*
D13*
X184500000Y-70200000D03*
D12*
X184500000Y-70900000D03*
D13*
X184500000Y-71600000D03*
D12*
X184500000Y-72300000D03*
D13*
X185200000Y-69500000D03*
X185200000Y-70900000D03*
X185200000Y-72300000D03*
D12*
X185900000Y-69500000D03*
D13*
X185900000Y-70200000D03*
D12*
X185900000Y-70900000D03*
D13*
X185900000Y-71600000D03*
D12*
X185900000Y-72300000D03*
%TD*%
D14*
%TO.P,R7,1*%
%TO.N,Net-(U1-IO0)*%
X201000000Y-76587500D03*
%TO.P,R7,2*%
%TO.N,+3.3V*%
X201000000Y-78412500D03*
%TD*%
D15*
%TO.P,SW1,1,1*%
%TO.N,GND*%
X162625000Y-65000000D03*
%TO.P,SW1,2,2*%
%TO.N,Net-(U1-IO33)*%
X170375000Y-65000000D03*
%TD*%
D14*
%TO.P,R1,1*%
%TO.N,Net-(U4-Y)*%
X203500000Y-98587500D03*
%TO.P,R1,2*%
%TO.N,Net-(LED_Din1-Pin_1)*%
X203500000Y-100412500D03*
%TD*%
D16*
%TO.P,PWR1,1,Pin_1*%
%TO.N,5V*%
X187500000Y-107000000D03*
%TD*%
%TO.P,LED+1,1,Pin_1*%
%TO.N,5V*%
X207000000Y-106500000D03*
%TD*%
D17*
%TO.P,J1,1,Pin_1*%
%TO.N,Net-(J1-Pin_1)*%
X207500000Y-64500000D03*
D18*
%TO.P,J1,2,Pin_2*%
%TO.N,Net-(J1-Pin_2)*%
X207500000Y-67040000D03*
%TO.P,J1,3,Pin_3*%
%TO.N,GND*%
X207500000Y-69580000D03*
%TD*%
D19*
%TO.P,C8,1*%
%TO.N,5V*%
X171500000Y-92362500D03*
%TO.P,C8,2*%
%TO.N,GND*%
X171500000Y-90637500D03*
%TD*%
D20*
%TO.P,R2,1*%
%TO.N,Net-(U1-IO21)*%
X181412500Y-88500000D03*
%TO.P,R2,2*%
%TO.N,+3.3V*%
X179587500Y-88500000D03*
%TD*%
D21*
%TO.P,U4,1,~{OE}*%
%TO.N,GND*%
X193245000Y-90050000D03*
%TO.P,U4,2,A*%
%TO.N,Net-(U1-IO13)*%
X193245000Y-91000000D03*
%TO.P,U4,3,GND*%
%TO.N,GND*%
X193245000Y-91950000D03*
%TO.P,U4,4,Y*%
%TO.N,Net-(U4-Y)*%
X195755000Y-91950000D03*
%TO.P,U4,5,VCC*%
%TO.N,5V*%
X195755000Y-90050000D03*
%TD*%
D16*
%TO.P,LED_Din1,1,Pin_1*%
%TO.N,Net-(LED_Din1-Pin_1)*%
X207000000Y-99500000D03*
%TD*%
D19*
%TO.P,C7,1*%
%TO.N,5V*%
X169500000Y-92362500D03*
%TO.P,C7,2*%
%TO.N,GND*%
X169500000Y-90637500D03*
%TD*%
D22*
%TO.P,C6,1*%
%TO.N,+3.3V*%
X190637500Y-85500000D03*
%TO.P,C6,2*%
%TO.N,GND*%
X192362500Y-85500000D03*
%TD*%
D16*
%TO.P,SPK-1,1,Pin_1*%
%TO.N,Net-(SPK-1-Pin_1)*%
X164000000Y-100550000D03*
%TD*%
D23*
%TO.P,C10,1*%
%TO.N,Net-(U3-OUTN)*%
X167000000Y-100092500D03*
%TO.P,C10,2*%
%TO.N,Net-(SPK-1-Pin_1)*%
X167000000Y-100907500D03*
%TD*%
D24*
%TO.P,U3,1,DIN*%
%TO.N,Net-(U1-IO27)*%
X172252500Y-86940000D03*
%TO.P,U3,2,GAIN_SLOT*%
%TO.N,unconnected-(U3-GAIN_SLOT-Pad2)*%
X172252500Y-87440000D03*
%TO.P,U3,3,GND*%
%TO.N,GND*%
X172252500Y-87940000D03*
%TO.P,U3,4,~{SD_MODE}*%
%TO.N,Net-(U3-~{SD_MODE})*%
X172252500Y-88440000D03*
D25*
%TO.P,U3,5,NC*%
%TO.N,unconnected-(U3-NC-Pad5)*%
X172940000Y-89127500D03*
%TO.P,U3,6,NC*%
%TO.N,unconnected-(U3-NC-Pad6)*%
X173440000Y-89127500D03*
%TO.P,U3,7,VDD*%
%TO.N,5V*%
X173940000Y-89127500D03*
%TO.P,U3,8,VDD*%
X174440000Y-89127500D03*
D24*
%TO.P,U3,9,OUTP*%
%TO.N,Net-(U3-OUTP)*%
X175127500Y-88440000D03*
%TO.P,U3,10,OUTN*%
%TO.N,Net-(U3-OUTN)*%
X175127500Y-87940000D03*
%TO.P,U3,11,GND*%
%TO.N,GND*%
X175127500Y-87440000D03*
%TO.P,U3,12,NC*%
%TO.N,unconnected-(U3-NC-Pad12)*%
X175127500Y-86940000D03*
D25*
%TO.P,U3,13,NC*%
%TO.N,unconnected-(U3-NC-Pad13)*%
X174440000Y-86252500D03*
%TO.P,U3,14,LRCLK*%
%TO.N,Net-(U1-IO25)*%
X173940000Y-86252500D03*
%TO.P,U3,15,GND*%
%TO.N,GND*%
X173440000Y-86252500D03*
%TO.P,U3,16,BCLK*%
%TO.N,Net-(U1-IO26)*%
X172940000Y-86252500D03*
D26*
%TO.P,U3,17,PAD*%
%TO.N,GND*%
X173690000Y-87690000D03*
%TD*%
D27*
%TO.P,R5,1*%
%TO.N,Net-(U1-IO13)*%
X198087500Y-92000000D03*
%TO.P,R5,2*%
%TO.N,GND*%
X199912500Y-92000000D03*
%TD*%
D16*
%TO.P,GND1,1,Pin_1*%
%TO.N,GND*%
X181500000Y-107000000D03*
%TD*%
D28*
%TO.P,D1,1,K*%
%TO.N,GND*%
X176875000Y-94500000D03*
%TO.P,D1,2,A*%
%TO.N,+3.3V*%
X175125000Y-94500000D03*
%TD*%
D22*
%TO.P,C11,1*%
%TO.N,5V*%
X198137500Y-90000000D03*
%TO.P,C11,2*%
%TO.N,GND*%
X199862500Y-90000000D03*
%TD*%
D23*
%TO.P,C3,1*%
%TO.N,Net-(U2-REGOUT)*%
X190000000Y-87025000D03*
%TO.P,C3,2*%
%TO.N,GND*%
X190000000Y-87840000D03*
%TD*%
D15*
%TO.P,SW3,1,1*%
%TO.N,Net-(U1-IO0)*%
X201625000Y-74500000D03*
%TO.P,SW3,2,2*%
%TO.N,GND*%
X209375000Y-74500000D03*
%TD*%
D29*
%TO.P,C4,1*%
%TO.N,Net-(U2-CPOUT)*%
X181362500Y-84500000D03*
%TO.P,C4,2*%
%TO.N,GND*%
X179637500Y-84500000D03*
%TD*%
D14*
%TO.P,R4,1*%
%TO.N,Net-(U3-~{SD_MODE})*%
X169500000Y-86587500D03*
%TO.P,R4,2*%
%TO.N,5V*%
X169500000Y-88412500D03*
%TD*%
%TO.P,R6,1*%
%TO.N,Net-(U1-EN)*%
X171500000Y-75000000D03*
%TO.P,R6,2*%
%TO.N,+3.3V*%
X171500000Y-76825000D03*
%TD*%
D30*
%TO.P,U5,1,GND*%
%TO.N,GND*%
X176800000Y-98350000D03*
%TO.P,U5,2,VO*%
%TO.N,+3.3V*%
X174500000Y-98350000D03*
D31*
X174500000Y-104650000D03*
D30*
%TO.P,U5,3,VI*%
%TO.N,5V*%
X172200000Y-98350000D03*
%TD*%
D16*
%TO.P,SPK+1,1,Pin_1*%
%TO.N,Net-(SPK+1-Pin_1)*%
X164000000Y-94500000D03*
%TD*%
D29*
%TO.P,C5,1*%
%TO.N,+3.3V*%
X186362500Y-83000000D03*
%TO.P,C5,2*%
%TO.N,GND*%
X184637500Y-83000000D03*
%TD*%
D15*
%TO.P,SW2,1,1*%
%TO.N,Net-(U1-EN)*%
X170375000Y-73000000D03*
%TO.P,SW2,2,2*%
%TO.N,GND*%
X162625000Y-73000000D03*
%TD*%
D32*
%TO.P,C12,1*%
%TO.N,5V*%
X196500000Y-102367677D03*
D33*
%TO.P,C12,2*%
%TO.N,GND*%
X196500000Y-97367677D03*
%TD*%
D23*
%TO.P,C9,1*%
%TO.N,Net-(U3-OUTP)*%
X167000000Y-94092500D03*
%TO.P,C9,2*%
%TO.N,Net-(SPK+1-Pin_1)*%
X167000000Y-94907500D03*
%TD*%
D16*
%TO.P,LED-1,1,Pin_1*%
%TO.N,GND*%
X207000000Y-92500000D03*
%TD*%
D29*
%TO.P,C1,1*%
%TO.N,5V*%
X173362500Y-96000000D03*
%TO.P,C1,2*%
%TO.N,GND*%
X171637500Y-96000000D03*
%TD*%
D34*
%TO.P,U2,1,CLKIN*%
%TO.N,GND*%
X184250000Y-88450000D03*
%TO.P,U2,2,NC*%
%TO.N,unconnected-(U2-NC-Pad2)*%
X184750000Y-88450000D03*
%TO.P,U2,3,NC*%
%TO.N,unconnected-(U2-NC-Pad3)*%
X185250000Y-88450000D03*
%TO.P,U2,4,NC*%
%TO.N,unconnected-(U2-NC-Pad4)*%
X185750000Y-88450000D03*
%TO.P,U2,5,NC*%
%TO.N,unconnected-(U2-NC-Pad5)*%
X186250000Y-88450000D03*
%TO.P,U2,6,AUX_DA*%
%TO.N,unconnected-(U2-AUX_DA-Pad6)*%
X186750000Y-88450000D03*
D35*
%TO.P,U2,7,AUX_CL*%
%TO.N,unconnected-(U2-AUX_CL-Pad7)*%
X187450000Y-87750000D03*
%TO.P,U2,8,VLOGIC*%
%TO.N,+3.3V*%
X187450000Y-87250000D03*
%TO.P,U2,9,AD0*%
%TO.N,GND*%
X187450000Y-86750000D03*
%TO.P,U2,10,REGOUT*%
%TO.N,Net-(U2-REGOUT)*%
X187450000Y-86250000D03*
%TO.P,U2,11,FSYNC*%
%TO.N,GND*%
X187450000Y-85750000D03*
%TO.P,U2,12,INT*%
%TO.N,unconnected-(U2-INT-Pad12)*%
X187450000Y-85250000D03*
D34*
%TO.P,U2,13,VDD*%
%TO.N,+3.3V*%
X186750000Y-84550000D03*
%TO.P,U2,14,NC*%
%TO.N,unconnected-(U2-NC-Pad14)*%
X186250000Y-84550000D03*
%TO.P,U2,15,NC*%
%TO.N,unconnected-(U2-NC-Pad15)*%
X185750000Y-84550000D03*
%TO.P,U2,16,NC*%
%TO.N,unconnected-(U2-NC-Pad16)*%
X185250000Y-84550000D03*
%TO.P,U2,17,NC*%
%TO.N,unconnected-(U2-NC-Pad17)*%
X184750000Y-84550000D03*
%TO.P,U2,18,GND*%
%TO.N,GND*%
X184250000Y-84550000D03*
D35*
%TO.P,U2,19,RESV*%
%TO.N,unconnected-(U2-RESV-Pad19)*%
X183550000Y-85250000D03*
%TO.P,U2,20,CPOUT*%
%TO.N,Net-(U2-CPOUT)*%
X183550000Y-85750000D03*
%TO.P,U2,21,RESV*%
%TO.N,unconnected-(U2-RESV-Pad21)*%
X183550000Y-86250000D03*
%TO.P,U2,22,RESV*%
%TO.N,unconnected-(U2-RESV-Pad22)*%
X183550000Y-86750000D03*
%TO.P,U2,23,SCL*%
%TO.N,Net-(U1-IO22)*%
X183550000Y-87250000D03*
%TO.P,U2,24,SDA*%
%TO.N,Net-(U1-IO21)*%
X183550000Y-87750000D03*
%TD*%
D20*
%TO.P,R3,1*%
%TO.N,Net-(U1-IO22)*%
X180325000Y-86500000D03*
%TO.P,R3,2*%
%TO.N,+3.3V*%
X178500000Y-86500000D03*
%TD*%
D22*
%TO.P,C13,1*%
%TO.N,+3.3V*%
X175137500Y-96000000D03*
%TO.P,C13,2*%
%TO.N,GND*%
X176862500Y-96000000D03*
%TD*%
D36*
%TO.N,GND*%
X184000000Y-89000000D03*
D37*
X204000000Y-92000000D03*
X182000000Y-104000000D03*
X203000000Y-93000000D03*
X204000000Y-91000000D03*
D36*
X191000000Y-87500000D03*
D37*
X203000000Y-94000000D03*
D36*
X192500000Y-84500000D03*
D38*
X202000000Y-68000000D03*
D37*
X190500000Y-97000000D03*
D36*
X178500000Y-84500000D03*
D39*
X170000000Y-96000000D03*
D37*
X180000000Y-104000000D03*
D36*
X179500000Y-82000000D03*
X188500000Y-85500000D03*
X168000000Y-90500000D03*
D39*
X175500000Y-63000000D03*
D37*
X203000000Y-92000000D03*
X204000000Y-94000000D03*
D38*
X200000000Y-65500000D03*
D37*
X183000000Y-103000000D03*
X178500000Y-97000000D03*
X181000000Y-103000000D03*
D39*
X162625000Y-69000000D03*
D37*
X183000000Y-104000000D03*
X203000000Y-91000000D03*
X181000000Y-104000000D03*
D36*
X193000000Y-93000000D03*
D37*
X204000000Y-93000000D03*
D36*
X183500000Y-83000000D03*
D37*
X180000000Y-103000000D03*
D36*
X193000000Y-89000000D03*
D37*
X182000000Y-103000000D03*
D36*
X176000000Y-86000000D03*
%TO.N,+3.3V*%
X188500000Y-88500000D03*
X179312500Y-90312500D03*
D39*
X174500000Y-73500000D03*
X170000000Y-83500000D03*
D36*
X189500000Y-85500000D03*
D39*
X175500000Y-64500000D03*
X178000000Y-85500000D03*
D36*
X201000000Y-80000000D03*
%TO.N,Net-(U3-OUTP)*%
X174500000Y-92500000D03*
X171500000Y-93500000D03*
D38*
%TO.N,Net-(J1-Pin_2)*%
X200500000Y-67000000D03*
X198500000Y-67000000D03*
D36*
%TO.N,Net-(U3-OUTN)*%
X174500000Y-93500000D03*
X172500000Y-94000000D03*
D38*
%TO.N,Net-(U1-IO21)*%
X196500000Y-79000000D03*
X196500000Y-80500000D03*
%TO.N,Net-(U1-IO22)*%
X195000000Y-83000000D03*
X197500000Y-66000000D03*
X182000000Y-86500000D03*
X197500000Y-83000000D03*
X197500000Y-69000000D03*
X197500000Y-80500000D03*
X189000000Y-83000000D03*
X197500000Y-79000000D03*
D36*
%TO.N,Net-(U1-IO13)*%
X191000000Y-91000000D03*
X177500000Y-91000000D03*
D38*
%TO.N,Net-(U1-IO27)*%
X171500000Y-80500000D03*
X175000000Y-80500000D03*
%TO.N,Net-(U1-IO25)*%
X174000000Y-79500000D03*
X174000000Y-77000000D03*
%TO.N,Net-(U1-EN)*%
X174000000Y-66500000D03*
X172000000Y-66500000D03*
%TD*%
D40*
%TO.N,Net-(U1-IO33)*%
X173000000Y-65000000D02*
X173000000Y-70500000D01*
X173000000Y-70500000D02*
X175840000Y-73340000D01*
X170375000Y-65000000D02*
X173000000Y-65000000D01*
X175840000Y-73340000D02*
X177250000Y-73340000D01*
%TO.N,Net-(SPK+1-Pin_1)*%
X167000000Y-94907500D02*
X164407500Y-94907500D01*
X164407500Y-94907500D02*
X164000000Y-94500000D01*
%TO.N,Net-(SPK-1-Pin_1)*%
X167000000Y-100907500D02*
X164357500Y-100907500D01*
X164357500Y-100907500D02*
X164000000Y-100550000D01*
D41*
%TO.N,Net-(U2-REGOUT)*%
X187450000Y-86250000D02*
X189225000Y-86250000D01*
X189225000Y-86250000D02*
X190000000Y-87025000D01*
%TO.N,GND*%
X184250000Y-88450000D02*
X184250000Y-88750000D01*
X189000000Y-88000000D02*
X189840000Y-88000000D01*
X173440000Y-87940000D02*
X172252500Y-87940000D01*
X176000000Y-87465000D02*
X176000000Y-86000000D01*
D42*
X193245000Y-92755000D02*
X193000000Y-93000000D01*
D43*
X190867677Y-97367677D02*
X190500000Y-97000000D01*
X177150000Y-98350000D02*
X178500000Y-97000000D01*
D41*
X173690000Y-87690000D02*
X173440000Y-87940000D01*
X184250000Y-83387500D02*
X184637500Y-83000000D01*
D42*
X202000000Y-90000000D02*
X203000000Y-91000000D01*
D41*
X175975000Y-87440000D02*
X176000000Y-87465000D01*
X175127500Y-87440000D02*
X175975000Y-87440000D01*
D40*
X197680000Y-63180000D02*
X194750000Y-63180000D01*
X190660000Y-87840000D02*
X191000000Y-87500000D01*
X190000000Y-87840000D02*
X190660000Y-87840000D01*
D41*
X173940000Y-87440000D02*
X175127500Y-87440000D01*
D42*
X177250000Y-63180000D02*
X175680000Y-63180000D01*
D41*
X173440000Y-87440000D02*
X173440000Y-86252500D01*
D42*
X199862500Y-90000000D02*
X202000000Y-90000000D01*
X193245000Y-90050000D02*
X193000000Y-89805000D01*
X180290000Y-81210000D02*
X179500000Y-82000000D01*
D41*
X184250000Y-84550000D02*
X184250000Y-83387500D01*
D40*
X207500000Y-69580000D02*
X203580000Y-69580000D01*
D42*
X171637500Y-96000000D02*
X170000000Y-96000000D01*
X199912500Y-92000000D02*
X203000000Y-92000000D01*
X179637500Y-84500000D02*
X178500000Y-84500000D01*
X180290000Y-80940000D02*
X180290000Y-81210000D01*
X193245000Y-91950000D02*
X193245000Y-92755000D01*
D40*
X200000000Y-65500000D02*
X197680000Y-63180000D01*
D41*
X173690000Y-87690000D02*
X173940000Y-87440000D01*
D42*
X209375000Y-74500000D02*
X209375000Y-71455000D01*
X193000000Y-89805000D02*
X193000000Y-89000000D01*
D40*
X192362500Y-84637500D02*
X192500000Y-84500000D01*
D42*
X169500000Y-90637500D02*
X171500000Y-90637500D01*
D41*
X187450000Y-85750000D02*
X188250000Y-85750000D01*
X188750000Y-86750000D02*
X189000000Y-87000000D01*
D40*
X203580000Y-69580000D02*
X202000000Y-68000000D01*
D43*
X176800000Y-98350000D02*
X177150000Y-98350000D01*
D41*
X189840000Y-88000000D02*
X190000000Y-87840000D01*
D42*
X175680000Y-63180000D02*
X175500000Y-63000000D01*
D41*
X173690000Y-87690000D02*
X173440000Y-87440000D01*
D40*
X184637500Y-83000000D02*
X183500000Y-83000000D01*
D41*
X189000000Y-87000000D02*
X189000000Y-88000000D01*
D42*
X209375000Y-71455000D02*
X207500000Y-69580000D01*
D41*
X184250000Y-88750000D02*
X184000000Y-89000000D01*
D40*
X192362500Y-85500000D02*
X192362500Y-84637500D01*
D42*
X162625000Y-69000000D02*
X162625000Y-73000000D01*
D41*
X188250000Y-85750000D02*
X188500000Y-85500000D01*
D43*
X176800000Y-98350000D02*
X176950000Y-98500000D01*
D42*
X176800000Y-98350000D02*
X176800000Y-94575000D01*
X169500000Y-90637500D02*
X168137500Y-90637500D01*
X176800000Y-94575000D02*
X176875000Y-94500000D01*
X162625000Y-65000000D02*
X162625000Y-69000000D01*
D41*
X187450000Y-86750000D02*
X188750000Y-86750000D01*
D42*
X168137500Y-90637500D02*
X168000000Y-90500000D01*
D43*
X196500000Y-97367677D02*
X190867677Y-97367677D01*
D40*
%TO.N,Net-(U2-CPOUT)*%
X183550000Y-85750000D02*
X182612500Y-85750000D01*
X182612500Y-85750000D02*
X181362500Y-84500000D01*
%TO.N,+3.3V*%
X186362500Y-83000000D02*
X187000000Y-83000000D01*
X188000000Y-84000000D02*
X189137500Y-84000000D01*
D42*
X175137500Y-96000000D02*
X175137500Y-97712500D01*
X175500000Y-64500000D02*
X177200000Y-64500000D01*
X178000000Y-86000000D02*
X178500000Y-86500000D01*
X171500000Y-76825000D02*
X171500000Y-76500000D01*
X170000000Y-78325000D02*
X170000000Y-83500000D01*
X175137500Y-97712500D02*
X174500000Y-98350000D01*
X178500000Y-87412500D02*
X179587500Y-88500000D01*
D40*
X189137500Y-84000000D02*
X190637500Y-85500000D01*
D42*
X178500000Y-86500000D02*
X178500000Y-87412500D01*
X179587500Y-90037500D02*
X179312500Y-90312500D01*
D40*
X201000000Y-80000000D02*
X201000000Y-78412500D01*
D42*
X178000000Y-85500000D02*
X178000000Y-86000000D01*
D41*
X189500000Y-85500000D02*
X190637500Y-85500000D01*
D42*
X171500000Y-76500000D02*
X174500000Y-73500000D01*
D41*
X188500000Y-87500000D02*
X188500000Y-88500000D01*
D43*
X174500000Y-98350000D02*
X174500000Y-104650000D01*
D42*
X171500000Y-76825000D02*
X170000000Y-78325000D01*
X177200000Y-64500000D02*
X177250000Y-64450000D01*
X179312500Y-90312500D02*
X175125000Y-94500000D01*
D40*
X187000000Y-83000000D02*
X188000000Y-84000000D01*
X186750000Y-84550000D02*
X186750000Y-83387500D01*
D41*
X188250000Y-87250000D02*
X188500000Y-87500000D01*
D42*
X175125000Y-94500000D02*
X175125000Y-95987500D01*
X175125000Y-95987500D02*
X175137500Y-96000000D01*
D41*
X187450000Y-87250000D02*
X188250000Y-87250000D01*
D42*
X179587500Y-88500000D02*
X179587500Y-90037500D01*
D40*
X186750000Y-83387500D02*
X186362500Y-83000000D01*
D42*
%TO.N,5V*%
X195500000Y-88000000D02*
X192500000Y-88000000D01*
X167000000Y-92500000D02*
X169362500Y-92500000D01*
D43*
X178000000Y-101500000D02*
X178500000Y-101000000D01*
X178500000Y-101000000D02*
X182500000Y-101000000D01*
D44*
X196500000Y-106500000D02*
X197000000Y-107000000D01*
X197000000Y-107000000D02*
X206500000Y-107000000D01*
D42*
X195755000Y-90050000D02*
X195755000Y-88255000D01*
X169362500Y-92500000D02*
X169500000Y-92362500D01*
D43*
X170150000Y-98350000D02*
X170000000Y-98500000D01*
D40*
X173940000Y-90922500D02*
X172500000Y-92362500D01*
D42*
X172500000Y-92362500D02*
X173362500Y-92362500D01*
X173500000Y-95862500D02*
X173362500Y-96000000D01*
D43*
X170000000Y-98500000D02*
X170000000Y-107000000D01*
D42*
X173362500Y-92362500D02*
X173500000Y-92500000D01*
X198137500Y-90000000D02*
X195805000Y-90000000D01*
D43*
X170000000Y-107000000D02*
X178000000Y-107000000D01*
X185500000Y-101000000D02*
X187500000Y-103000000D01*
D42*
X185500000Y-95000000D02*
X185500000Y-101000000D01*
X195805000Y-90000000D02*
X195755000Y-90050000D01*
X171500000Y-92362500D02*
X172500000Y-92362500D01*
X168087500Y-88412500D02*
X167000000Y-89500000D01*
X173500000Y-92500000D02*
X173500000Y-95862500D01*
D43*
X182500000Y-101000000D02*
X185500000Y-101000000D01*
D44*
X187500000Y-107000000D02*
X197000000Y-107000000D01*
X206500000Y-107000000D02*
X207000000Y-106500000D01*
D42*
X195755000Y-88255000D02*
X195500000Y-88000000D01*
D44*
X196500000Y-102367677D02*
X196500000Y-106500000D01*
D42*
X169500000Y-92362500D02*
X171500000Y-92362500D01*
D40*
X173940000Y-89127500D02*
X173940000Y-90922500D01*
D42*
X192500000Y-88000000D02*
X185500000Y-95000000D01*
X172200000Y-97162500D02*
X172200000Y-98350000D01*
X173362500Y-96000000D02*
X172200000Y-97162500D01*
D40*
X174440000Y-89127500D02*
X173940000Y-89127500D01*
D42*
X167000000Y-89500000D02*
X167000000Y-92500000D01*
X169500000Y-88412500D02*
X168087500Y-88412500D01*
D43*
X187500000Y-103000000D02*
X187500000Y-107000000D01*
X172200000Y-98350000D02*
X170150000Y-98350000D01*
X178000000Y-107000000D02*
X178000000Y-101500000D01*
D40*
%TO.N,Net-(U3-OUTP)*%
X171500000Y-93500000D02*
X170000000Y-93500000D01*
X176000000Y-91363604D02*
X175931802Y-91431802D01*
X174863604Y-92500000D02*
X174500000Y-92500000D01*
X175940000Y-88440000D02*
X176000000Y-88500000D01*
X175931802Y-91431802D02*
X174863604Y-92500000D01*
X170000000Y-93500000D02*
X169500000Y-94000000D01*
X167092500Y-94000000D02*
X167000000Y-94092500D01*
X176000000Y-88500000D02*
X176000000Y-91363604D01*
X175127500Y-88440000D02*
X175940000Y-88440000D01*
X169500000Y-94000000D02*
X167092500Y-94000000D01*
%TO.N,Net-(J1-Pin_2)*%
X198500000Y-67000000D02*
X194760000Y-67000000D01*
X200540000Y-67040000D02*
X200500000Y-67000000D01*
X194760000Y-67000000D02*
X194750000Y-66990000D01*
X207500000Y-67040000D02*
X200540000Y-67040000D01*
%TO.N,Net-(J1-Pin_1)*%
X202000000Y-64500000D02*
X198240000Y-68260000D01*
X207500000Y-64500000D02*
X202000000Y-64500000D01*
X198240000Y-68260000D02*
X194750000Y-68260000D01*
%TO.N,Net-(U3-OUTN)*%
X168500000Y-97500000D02*
X168500000Y-99000000D01*
X167407500Y-100092500D02*
X167000000Y-100092500D01*
X176500000Y-88000000D02*
X176500000Y-91500000D01*
X169000000Y-95000000D02*
X169000000Y-97000000D01*
X171500000Y-95000000D02*
X169000000Y-95000000D01*
X172500000Y-94000000D02*
X171500000Y-95000000D01*
X175127500Y-87940000D02*
X176440000Y-87940000D01*
X169000000Y-97000000D02*
X168500000Y-97500000D01*
X176500000Y-91500000D02*
X174500000Y-93500000D01*
X176440000Y-87940000D02*
X176500000Y-88000000D01*
X168500000Y-99000000D02*
X167407500Y-100092500D01*
%TO.N,Net-(LED_Din1-Pin_1)*%
X203500000Y-100412500D02*
X203500000Y-100500000D01*
X206000000Y-100500000D02*
X207000000Y-99500000D01*
X203500000Y-100500000D02*
X206000000Y-100500000D01*
%TO.N,Net-(U4-Y)*%
X196000000Y-92195000D02*
X195755000Y-91950000D01*
X202500000Y-97000000D02*
X201000000Y-95500000D01*
X197000000Y-94500000D02*
X196000000Y-93500000D01*
X203500000Y-97000000D02*
X202500000Y-97000000D01*
X201000000Y-95500000D02*
X201000000Y-94500000D01*
X203500000Y-98587500D02*
X203500000Y-97000000D01*
X201000000Y-94500000D02*
X197000000Y-94500000D01*
X196000000Y-93500000D02*
X196000000Y-92195000D01*
%TO.N,Net-(U1-IO21)*%
X194780000Y-69500000D02*
X196500000Y-69500000D01*
X182162500Y-87750000D02*
X181412500Y-88500000D01*
X196500000Y-69500000D02*
X196500000Y-79000000D01*
X183550000Y-87750000D02*
X182162500Y-87750000D01*
X196500000Y-83000000D02*
X189500000Y-90000000D01*
X189500000Y-90000000D02*
X181500000Y-90000000D01*
X181500000Y-88587500D02*
X181412500Y-88500000D01*
X181500000Y-90000000D02*
X181500000Y-88587500D01*
X194750000Y-69530000D02*
X194780000Y-69500000D01*
X196500000Y-80500000D02*
X196500000Y-83000000D01*
%TO.N,Net-(U1-IO22)*%
X195030000Y-66000000D02*
X194750000Y-65720000D01*
X197500000Y-66000000D02*
X195030000Y-66000000D01*
X197500000Y-83000000D02*
X197500000Y-80500000D01*
X181075000Y-87250000D02*
X180325000Y-86500000D01*
X197500000Y-79000000D02*
X197500000Y-69000000D01*
X183550000Y-87250000D02*
X181075000Y-87250000D01*
X180325000Y-86500000D02*
X182000000Y-86500000D01*
X189000000Y-83000000D02*
X195000000Y-83000000D01*
%TO.N,Net-(U3-~{SD_MODE})*%
X170087500Y-86587500D02*
X170500000Y-87000000D01*
X169500000Y-86587500D02*
X170087500Y-86587500D01*
X170500000Y-87000000D02*
X170500000Y-88500000D01*
X170500000Y-88500000D02*
X172192500Y-88500000D01*
X172192500Y-88500000D02*
X172252500Y-88440000D01*
%TO.N,Net-(U1-IO13)*%
X193245000Y-91000000D02*
X197087500Y-91000000D01*
X177500000Y-83000000D02*
X180500000Y-83000000D01*
X177000000Y-83500000D02*
X177500000Y-83000000D01*
X181560000Y-81940000D02*
X181560000Y-80940000D01*
X197087500Y-91000000D02*
X198087500Y-92000000D01*
X177000000Y-91000000D02*
X177000000Y-83500000D01*
X180500000Y-83000000D02*
X181560000Y-81940000D01*
X193245000Y-91000000D02*
X191000000Y-91000000D01*
X177500000Y-91000000D02*
X177000000Y-91000000D01*
X181560000Y-80940000D02*
X181500000Y-81000000D01*
%TO.N,Net-(U1-IO27)*%
X175000000Y-80500000D02*
X175000000Y-78000000D01*
X175850000Y-77150000D02*
X177250000Y-77150000D01*
X172252500Y-86940000D02*
X171500000Y-86187500D01*
X175000000Y-78000000D02*
X175850000Y-77150000D01*
X171500000Y-86187500D02*
X171500000Y-80500000D01*
%TO.N,Net-(U1-IO26)*%
X172940000Y-86252500D02*
X172940000Y-79190000D01*
X172940000Y-79190000D02*
X176250000Y-75880000D01*
X176250000Y-75880000D02*
X177250000Y-75880000D01*
%TO.N,Net-(U1-IO25)*%
X173940000Y-86252500D02*
X173940000Y-79560000D01*
X173940000Y-79560000D02*
X174000000Y-79500000D01*
X174000000Y-77000000D02*
X176390000Y-74610000D01*
X176390000Y-74610000D02*
X177250000Y-74610000D01*
%TO.N,Net-(U1-EN)*%
X174780000Y-65720000D02*
X177250000Y-65720000D01*
X170375000Y-68125000D02*
X172000000Y-66500000D01*
X170375000Y-73000000D02*
X170375000Y-68125000D01*
X171500000Y-75000000D02*
X170375000Y-73875000D01*
X174000000Y-66500000D02*
X174780000Y-65720000D01*
X170375000Y-73875000D02*
X170375000Y-73000000D01*
%TO.N,Net-(U1-IO0)*%
X198500000Y-79087500D02*
X198500000Y-79500000D01*
X201625000Y-74500000D02*
X201000000Y-75125000D01*
X198310000Y-79690000D02*
X194750000Y-79690000D01*
X201000000Y-76587500D02*
X198500000Y-79087500D01*
X201000000Y-75125000D02*
X201000000Y-76587500D01*
X198500000Y-79500000D02*
X198310000Y-79690000D01*
%TD*%
%TA.AperFunction,Conductor*%
%TO.N,GND*%
G36*
X204443039Y-90519685D02*
G01*
X204488794Y-90572489D01*
X204500000Y-90624000D01*
X204500000Y-92250000D01*
X206876000Y-92250000D01*
X206943039Y-92269685D01*
X206988794Y-92322489D01*
X207000000Y-92374000D01*
X207000000Y-92626000D01*
X206980315Y-92693039D01*
X206927511Y-92738794D01*
X206876000Y-92750000D01*
X204500000Y-92750000D01*
X204500000Y-94376000D01*
X204480315Y-94443039D01*
X204427511Y-94488794D01*
X204376000Y-94500000D01*
X202624000Y-94500000D01*
X202556961Y-94480315D01*
X202511206Y-94427511D01*
X202500000Y-94376000D01*
X202500000Y-90624000D01*
X202519685Y-90556961D01*
X202572489Y-90511206D01*
X202624000Y-90500000D01*
X204376000Y-90500000D01*
X204443039Y-90519685D01*
G37*
%TD.AperFunction*%
%TD*%
%TA.AperFunction,Conductor*%
%TO.N,GND*%
G36*
X183443039Y-102519685D02*
G01*
X183488794Y-102572489D01*
X183500000Y-102624000D01*
X183500000Y-104376000D01*
X183480315Y-104443039D01*
X183427511Y-104488794D01*
X183376000Y-104500000D01*
X181750000Y-104500000D01*
X181750000Y-106876000D01*
X181730315Y-106943039D01*
X181677511Y-106988794D01*
X181626000Y-107000000D01*
X181374000Y-107000000D01*
X181306961Y-106980315D01*
X181261206Y-106927511D01*
X181250000Y-106876000D01*
X181250000Y-104500000D01*
X179624000Y-104500000D01*
X179556961Y-104480315D01*
X179511206Y-104427511D01*
X179500000Y-104376000D01*
X179500000Y-102624000D01*
X179519685Y-102556961D01*
X179572489Y-102511206D01*
X179624000Y-102500000D01*
X183376000Y-102500000D01*
X183443039Y-102519685D01*
G37*
%TD.AperFunction*%
%TD*%
M02*
