%TF.GenerationSoftware,KiCad,Pcbnew,9.0.7*%
%TF.CreationDate,2026-04-06T16:16:28-07:00*%
%TF.ProjectId,PolySaber,506f6c79-5361-4626-9572-2e6b69636164,rev?*%
%TF.SameCoordinates,Original*%
%TF.FileFunction,Legend,Top*%
%TF.FilePolarity,Positive*%
%FSLAX46Y46*%
G04 Gerber Fmt 4.6, Leading zero omitted, Abs format (unit mm)*
G04 Created by KiCad (PCBNEW 9.0.7) date 2026-04-06 16:16:28*
%MOMM*%
%LPD*%
G01*
G04 APERTURE LIST*
%ADD10C,0.100000*%
%ADD11C,0.150000*%
%ADD12C,0.120000*%
%ADD13C,0.127000*%
%ADD14C,0.200000*%
G04 APERTURE END LIST*
D10*
X162006265Y-91824800D02*
X162149122Y-91872419D01*
X162149122Y-91872419D02*
X162387217Y-91872419D01*
X162387217Y-91872419D02*
X162482455Y-91824800D01*
X162482455Y-91824800D02*
X162530074Y-91777180D01*
X162530074Y-91777180D02*
X162577693Y-91681942D01*
X162577693Y-91681942D02*
X162577693Y-91586704D01*
X162577693Y-91586704D02*
X162530074Y-91491466D01*
X162530074Y-91491466D02*
X162482455Y-91443847D01*
X162482455Y-91443847D02*
X162387217Y-91396228D01*
X162387217Y-91396228D02*
X162196741Y-91348609D01*
X162196741Y-91348609D02*
X162101503Y-91300990D01*
X162101503Y-91300990D02*
X162053884Y-91253371D01*
X162053884Y-91253371D02*
X162006265Y-91158133D01*
X162006265Y-91158133D02*
X162006265Y-91062895D01*
X162006265Y-91062895D02*
X162053884Y-90967657D01*
X162053884Y-90967657D02*
X162101503Y-90920038D01*
X162101503Y-90920038D02*
X162196741Y-90872419D01*
X162196741Y-90872419D02*
X162434836Y-90872419D01*
X162434836Y-90872419D02*
X162577693Y-90920038D01*
X163006265Y-91872419D02*
X163006265Y-90872419D01*
X163006265Y-90872419D02*
X163387217Y-90872419D01*
X163387217Y-90872419D02*
X163482455Y-90920038D01*
X163482455Y-90920038D02*
X163530074Y-90967657D01*
X163530074Y-90967657D02*
X163577693Y-91062895D01*
X163577693Y-91062895D02*
X163577693Y-91205752D01*
X163577693Y-91205752D02*
X163530074Y-91300990D01*
X163530074Y-91300990D02*
X163482455Y-91348609D01*
X163482455Y-91348609D02*
X163387217Y-91396228D01*
X163387217Y-91396228D02*
X163006265Y-91396228D01*
X164006265Y-91872419D02*
X164006265Y-90872419D01*
X164577693Y-91872419D02*
X164149122Y-91300990D01*
X164577693Y-90872419D02*
X164006265Y-91443847D01*
X165006265Y-91491466D02*
X165768170Y-91491466D01*
X165387217Y-91872419D02*
X165387217Y-91110514D01*
X209122419Y-67588972D02*
X209122419Y-67017544D01*
X210122419Y-67303258D02*
X209122419Y-67303258D01*
X209122419Y-66779448D02*
X210122419Y-66112782D01*
X209122419Y-66112782D02*
X210122419Y-66779448D01*
X191280074Y-108072419D02*
X190803884Y-108072419D01*
X190803884Y-108072419D02*
X190756265Y-108548609D01*
X190756265Y-108548609D02*
X190803884Y-108500990D01*
X190803884Y-108500990D02*
X190899122Y-108453371D01*
X190899122Y-108453371D02*
X191137217Y-108453371D01*
X191137217Y-108453371D02*
X191232455Y-108500990D01*
X191232455Y-108500990D02*
X191280074Y-108548609D01*
X191280074Y-108548609D02*
X191327693Y-108643847D01*
X191327693Y-108643847D02*
X191327693Y-108881942D01*
X191327693Y-108881942D02*
X191280074Y-108977180D01*
X191280074Y-108977180D02*
X191232455Y-109024800D01*
X191232455Y-109024800D02*
X191137217Y-109072419D01*
X191137217Y-109072419D02*
X190899122Y-109072419D01*
X190899122Y-109072419D02*
X190803884Y-109024800D01*
X190803884Y-109024800D02*
X190756265Y-108977180D01*
X191613408Y-108072419D02*
X191946741Y-109072419D01*
X191946741Y-109072419D02*
X192280074Y-108072419D01*
X210622419Y-100196115D02*
X209622419Y-100196115D01*
X209622419Y-100196115D02*
X209622419Y-99958020D01*
X209622419Y-99958020D02*
X209670038Y-99815163D01*
X209670038Y-99815163D02*
X209765276Y-99719925D01*
X209765276Y-99719925D02*
X209860514Y-99672306D01*
X209860514Y-99672306D02*
X210050990Y-99624687D01*
X210050990Y-99624687D02*
X210193847Y-99624687D01*
X210193847Y-99624687D02*
X210384323Y-99672306D01*
X210384323Y-99672306D02*
X210479561Y-99719925D01*
X210479561Y-99719925D02*
X210574800Y-99815163D01*
X210574800Y-99815163D02*
X210622419Y-99958020D01*
X210622419Y-99958020D02*
X210622419Y-100196115D01*
X210622419Y-99196115D02*
X209955752Y-99196115D01*
X209622419Y-99196115D02*
X209670038Y-99243734D01*
X209670038Y-99243734D02*
X209717657Y-99196115D01*
X209717657Y-99196115D02*
X209670038Y-99148496D01*
X209670038Y-99148496D02*
X209622419Y-99196115D01*
X209622419Y-99196115D02*
X209717657Y-99196115D01*
X209955752Y-98719925D02*
X210622419Y-98719925D01*
X210050990Y-98719925D02*
X210003371Y-98672306D01*
X210003371Y-98672306D02*
X209955752Y-98577068D01*
X209955752Y-98577068D02*
X209955752Y-98434211D01*
X209955752Y-98434211D02*
X210003371Y-98338973D01*
X210003371Y-98338973D02*
X210098609Y-98291354D01*
X210098609Y-98291354D02*
X210622419Y-98291354D01*
X162256265Y-104324800D02*
X162399122Y-104372419D01*
X162399122Y-104372419D02*
X162637217Y-104372419D01*
X162637217Y-104372419D02*
X162732455Y-104324800D01*
X162732455Y-104324800D02*
X162780074Y-104277180D01*
X162780074Y-104277180D02*
X162827693Y-104181942D01*
X162827693Y-104181942D02*
X162827693Y-104086704D01*
X162827693Y-104086704D02*
X162780074Y-103991466D01*
X162780074Y-103991466D02*
X162732455Y-103943847D01*
X162732455Y-103943847D02*
X162637217Y-103896228D01*
X162637217Y-103896228D02*
X162446741Y-103848609D01*
X162446741Y-103848609D02*
X162351503Y-103800990D01*
X162351503Y-103800990D02*
X162303884Y-103753371D01*
X162303884Y-103753371D02*
X162256265Y-103658133D01*
X162256265Y-103658133D02*
X162256265Y-103562895D01*
X162256265Y-103562895D02*
X162303884Y-103467657D01*
X162303884Y-103467657D02*
X162351503Y-103420038D01*
X162351503Y-103420038D02*
X162446741Y-103372419D01*
X162446741Y-103372419D02*
X162684836Y-103372419D01*
X162684836Y-103372419D02*
X162827693Y-103420038D01*
X163256265Y-104372419D02*
X163256265Y-103372419D01*
X163256265Y-103372419D02*
X163637217Y-103372419D01*
X163637217Y-103372419D02*
X163732455Y-103420038D01*
X163732455Y-103420038D02*
X163780074Y-103467657D01*
X163780074Y-103467657D02*
X163827693Y-103562895D01*
X163827693Y-103562895D02*
X163827693Y-103705752D01*
X163827693Y-103705752D02*
X163780074Y-103800990D01*
X163780074Y-103800990D02*
X163732455Y-103848609D01*
X163732455Y-103848609D02*
X163637217Y-103896228D01*
X163637217Y-103896228D02*
X163256265Y-103896228D01*
X164256265Y-104372419D02*
X164256265Y-103372419D01*
X164827693Y-104372419D02*
X164399122Y-103800990D01*
X164827693Y-103372419D02*
X164256265Y-103943847D01*
X165256265Y-103991466D02*
X166018170Y-103991466D01*
X165625312Y-68277180D02*
X165577693Y-68324800D01*
X165577693Y-68324800D02*
X165434836Y-68372419D01*
X165434836Y-68372419D02*
X165339598Y-68372419D01*
X165339598Y-68372419D02*
X165196741Y-68324800D01*
X165196741Y-68324800D02*
X165101503Y-68229561D01*
X165101503Y-68229561D02*
X165053884Y-68134323D01*
X165053884Y-68134323D02*
X165006265Y-67943847D01*
X165006265Y-67943847D02*
X165006265Y-67800990D01*
X165006265Y-67800990D02*
X165053884Y-67610514D01*
X165053884Y-67610514D02*
X165101503Y-67515276D01*
X165101503Y-67515276D02*
X165196741Y-67420038D01*
X165196741Y-67420038D02*
X165339598Y-67372419D01*
X165339598Y-67372419D02*
X165434836Y-67372419D01*
X165434836Y-67372419D02*
X165577693Y-67420038D01*
X165577693Y-67420038D02*
X165625312Y-67467657D01*
X165911027Y-67372419D02*
X166482455Y-67372419D01*
X166196741Y-68372419D02*
X166196741Y-67372419D01*
X167387217Y-68372419D02*
X167053884Y-67896228D01*
X166815789Y-68372419D02*
X166815789Y-67372419D01*
X166815789Y-67372419D02*
X167196741Y-67372419D01*
X167196741Y-67372419D02*
X167291979Y-67420038D01*
X167291979Y-67420038D02*
X167339598Y-67467657D01*
X167339598Y-67467657D02*
X167387217Y-67562895D01*
X167387217Y-67562895D02*
X167387217Y-67705752D01*
X167387217Y-67705752D02*
X167339598Y-67800990D01*
X167339598Y-67800990D02*
X167291979Y-67848609D01*
X167291979Y-67848609D02*
X167196741Y-67896228D01*
X167196741Y-67896228D02*
X166815789Y-67896228D01*
X168291979Y-68372419D02*
X167815789Y-68372419D01*
X167815789Y-68372419D02*
X167815789Y-67372419D01*
X209622419Y-106719925D02*
X209622419Y-107196115D01*
X209622419Y-107196115D02*
X210098609Y-107243734D01*
X210098609Y-107243734D02*
X210050990Y-107196115D01*
X210050990Y-107196115D02*
X210003371Y-107100877D01*
X210003371Y-107100877D02*
X210003371Y-106862782D01*
X210003371Y-106862782D02*
X210050990Y-106767544D01*
X210050990Y-106767544D02*
X210098609Y-106719925D01*
X210098609Y-106719925D02*
X210193847Y-106672306D01*
X210193847Y-106672306D02*
X210431942Y-106672306D01*
X210431942Y-106672306D02*
X210527180Y-106719925D01*
X210527180Y-106719925D02*
X210574800Y-106767544D01*
X210574800Y-106767544D02*
X210622419Y-106862782D01*
X210622419Y-106862782D02*
X210622419Y-107100877D01*
X210622419Y-107100877D02*
X210574800Y-107196115D01*
X210574800Y-107196115D02*
X210527180Y-107243734D01*
X209622419Y-106386591D02*
X210622419Y-106053258D01*
X210622419Y-106053258D02*
X209622419Y-105719925D01*
X209170038Y-70422306D02*
X209122419Y-70517544D01*
X209122419Y-70517544D02*
X209122419Y-70660401D01*
X209122419Y-70660401D02*
X209170038Y-70803258D01*
X209170038Y-70803258D02*
X209265276Y-70898496D01*
X209265276Y-70898496D02*
X209360514Y-70946115D01*
X209360514Y-70946115D02*
X209550990Y-70993734D01*
X209550990Y-70993734D02*
X209693847Y-70993734D01*
X209693847Y-70993734D02*
X209884323Y-70946115D01*
X209884323Y-70946115D02*
X209979561Y-70898496D01*
X209979561Y-70898496D02*
X210074800Y-70803258D01*
X210074800Y-70803258D02*
X210122419Y-70660401D01*
X210122419Y-70660401D02*
X210122419Y-70565163D01*
X210122419Y-70565163D02*
X210074800Y-70422306D01*
X210074800Y-70422306D02*
X210027180Y-70374687D01*
X210027180Y-70374687D02*
X209693847Y-70374687D01*
X209693847Y-70374687D02*
X209693847Y-70565163D01*
X210122419Y-69946115D02*
X209122419Y-69946115D01*
X209122419Y-69946115D02*
X210122419Y-69374687D01*
X210122419Y-69374687D02*
X209122419Y-69374687D01*
X210122419Y-68898496D02*
X209122419Y-68898496D01*
X209122419Y-68898496D02*
X209122419Y-68660401D01*
X209122419Y-68660401D02*
X209170038Y-68517544D01*
X209170038Y-68517544D02*
X209265276Y-68422306D01*
X209265276Y-68422306D02*
X209360514Y-68374687D01*
X209360514Y-68374687D02*
X209550990Y-68327068D01*
X209550990Y-68327068D02*
X209693847Y-68327068D01*
X209693847Y-68327068D02*
X209884323Y-68374687D01*
X209884323Y-68374687D02*
X209979561Y-68422306D01*
X209979561Y-68422306D02*
X210074800Y-68517544D01*
X210074800Y-68517544D02*
X210122419Y-68660401D01*
X210122419Y-68660401D02*
X210122419Y-68898496D01*
X204137217Y-77848609D02*
X204280074Y-77896228D01*
X204280074Y-77896228D02*
X204327693Y-77943847D01*
X204327693Y-77943847D02*
X204375312Y-78039085D01*
X204375312Y-78039085D02*
X204375312Y-78181942D01*
X204375312Y-78181942D02*
X204327693Y-78277180D01*
X204327693Y-78277180D02*
X204280074Y-78324800D01*
X204280074Y-78324800D02*
X204184836Y-78372419D01*
X204184836Y-78372419D02*
X203803884Y-78372419D01*
X203803884Y-78372419D02*
X203803884Y-77372419D01*
X203803884Y-77372419D02*
X204137217Y-77372419D01*
X204137217Y-77372419D02*
X204232455Y-77420038D01*
X204232455Y-77420038D02*
X204280074Y-77467657D01*
X204280074Y-77467657D02*
X204327693Y-77562895D01*
X204327693Y-77562895D02*
X204327693Y-77658133D01*
X204327693Y-77658133D02*
X204280074Y-77753371D01*
X204280074Y-77753371D02*
X204232455Y-77800990D01*
X204232455Y-77800990D02*
X204137217Y-77848609D01*
X204137217Y-77848609D02*
X203803884Y-77848609D01*
X204994360Y-77372419D02*
X205184836Y-77372419D01*
X205184836Y-77372419D02*
X205280074Y-77420038D01*
X205280074Y-77420038D02*
X205375312Y-77515276D01*
X205375312Y-77515276D02*
X205422931Y-77705752D01*
X205422931Y-77705752D02*
X205422931Y-78039085D01*
X205422931Y-78039085D02*
X205375312Y-78229561D01*
X205375312Y-78229561D02*
X205280074Y-78324800D01*
X205280074Y-78324800D02*
X205184836Y-78372419D01*
X205184836Y-78372419D02*
X204994360Y-78372419D01*
X204994360Y-78372419D02*
X204899122Y-78324800D01*
X204899122Y-78324800D02*
X204803884Y-78229561D01*
X204803884Y-78229561D02*
X204756265Y-78039085D01*
X204756265Y-78039085D02*
X204756265Y-77705752D01*
X204756265Y-77705752D02*
X204803884Y-77515276D01*
X204803884Y-77515276D02*
X204899122Y-77420038D01*
X204899122Y-77420038D02*
X204994360Y-77372419D01*
X206041979Y-77372419D02*
X206232455Y-77372419D01*
X206232455Y-77372419D02*
X206327693Y-77420038D01*
X206327693Y-77420038D02*
X206422931Y-77515276D01*
X206422931Y-77515276D02*
X206470550Y-77705752D01*
X206470550Y-77705752D02*
X206470550Y-78039085D01*
X206470550Y-78039085D02*
X206422931Y-78229561D01*
X206422931Y-78229561D02*
X206327693Y-78324800D01*
X206327693Y-78324800D02*
X206232455Y-78372419D01*
X206232455Y-78372419D02*
X206041979Y-78372419D01*
X206041979Y-78372419D02*
X205946741Y-78324800D01*
X205946741Y-78324800D02*
X205851503Y-78229561D01*
X205851503Y-78229561D02*
X205803884Y-78039085D01*
X205803884Y-78039085D02*
X205803884Y-77705752D01*
X205803884Y-77705752D02*
X205851503Y-77515276D01*
X205851503Y-77515276D02*
X205946741Y-77420038D01*
X205946741Y-77420038D02*
X206041979Y-77372419D01*
X206756265Y-77372419D02*
X207327693Y-77372419D01*
X207041979Y-78372419D02*
X207041979Y-77372419D01*
X165553884Y-75848609D02*
X165887217Y-75848609D01*
X166030074Y-76372419D02*
X165553884Y-76372419D01*
X165553884Y-76372419D02*
X165553884Y-75372419D01*
X165553884Y-75372419D02*
X166030074Y-75372419D01*
X166458646Y-76372419D02*
X166458646Y-75372419D01*
X166458646Y-75372419D02*
X167030074Y-76372419D01*
X167030074Y-76372419D02*
X167030074Y-75372419D01*
X176327693Y-107920038D02*
X176232455Y-107872419D01*
X176232455Y-107872419D02*
X176089598Y-107872419D01*
X176089598Y-107872419D02*
X175946741Y-107920038D01*
X175946741Y-107920038D02*
X175851503Y-108015276D01*
X175851503Y-108015276D02*
X175803884Y-108110514D01*
X175803884Y-108110514D02*
X175756265Y-108300990D01*
X175756265Y-108300990D02*
X175756265Y-108443847D01*
X175756265Y-108443847D02*
X175803884Y-108634323D01*
X175803884Y-108634323D02*
X175851503Y-108729561D01*
X175851503Y-108729561D02*
X175946741Y-108824800D01*
X175946741Y-108824800D02*
X176089598Y-108872419D01*
X176089598Y-108872419D02*
X176184836Y-108872419D01*
X176184836Y-108872419D02*
X176327693Y-108824800D01*
X176327693Y-108824800D02*
X176375312Y-108777180D01*
X176375312Y-108777180D02*
X176375312Y-108443847D01*
X176375312Y-108443847D02*
X176184836Y-108443847D01*
X176803884Y-108872419D02*
X176803884Y-107872419D01*
X176803884Y-107872419D02*
X177375312Y-108872419D01*
X177375312Y-108872419D02*
X177375312Y-107872419D01*
X177851503Y-108872419D02*
X177851503Y-107872419D01*
X177851503Y-107872419D02*
X178089598Y-107872419D01*
X178089598Y-107872419D02*
X178232455Y-107920038D01*
X178232455Y-107920038D02*
X178327693Y-108015276D01*
X178327693Y-108015276D02*
X178375312Y-108110514D01*
X178375312Y-108110514D02*
X178422931Y-108300990D01*
X178422931Y-108300990D02*
X178422931Y-108443847D01*
X178422931Y-108443847D02*
X178375312Y-108634323D01*
X178375312Y-108634323D02*
X178327693Y-108729561D01*
X178327693Y-108729561D02*
X178232455Y-108824800D01*
X178232455Y-108824800D02*
X178089598Y-108872419D01*
X178089598Y-108872419D02*
X177851503Y-108872419D01*
X210122419Y-64624687D02*
X209646228Y-64958020D01*
X210122419Y-65196115D02*
X209122419Y-65196115D01*
X209122419Y-65196115D02*
X209122419Y-64815163D01*
X209122419Y-64815163D02*
X209170038Y-64719925D01*
X209170038Y-64719925D02*
X209217657Y-64672306D01*
X209217657Y-64672306D02*
X209312895Y-64624687D01*
X209312895Y-64624687D02*
X209455752Y-64624687D01*
X209455752Y-64624687D02*
X209550990Y-64672306D01*
X209550990Y-64672306D02*
X209598609Y-64719925D01*
X209598609Y-64719925D02*
X209646228Y-64815163D01*
X209646228Y-64815163D02*
X209646228Y-65196115D01*
X209122419Y-64291353D02*
X210122419Y-63624687D01*
X209122419Y-63624687D02*
X210122419Y-64291353D01*
X209670038Y-93172306D02*
X209622419Y-93267544D01*
X209622419Y-93267544D02*
X209622419Y-93410401D01*
X209622419Y-93410401D02*
X209670038Y-93553258D01*
X209670038Y-93553258D02*
X209765276Y-93648496D01*
X209765276Y-93648496D02*
X209860514Y-93696115D01*
X209860514Y-93696115D02*
X210050990Y-93743734D01*
X210050990Y-93743734D02*
X210193847Y-93743734D01*
X210193847Y-93743734D02*
X210384323Y-93696115D01*
X210384323Y-93696115D02*
X210479561Y-93648496D01*
X210479561Y-93648496D02*
X210574800Y-93553258D01*
X210574800Y-93553258D02*
X210622419Y-93410401D01*
X210622419Y-93410401D02*
X210622419Y-93315163D01*
X210622419Y-93315163D02*
X210574800Y-93172306D01*
X210574800Y-93172306D02*
X210527180Y-93124687D01*
X210527180Y-93124687D02*
X210193847Y-93124687D01*
X210193847Y-93124687D02*
X210193847Y-93315163D01*
X210622419Y-92696115D02*
X209622419Y-92696115D01*
X209622419Y-92696115D02*
X210622419Y-92124687D01*
X210622419Y-92124687D02*
X209622419Y-92124687D01*
X210622419Y-91648496D02*
X209622419Y-91648496D01*
X209622419Y-91648496D02*
X209622419Y-91410401D01*
X209622419Y-91410401D02*
X209670038Y-91267544D01*
X209670038Y-91267544D02*
X209765276Y-91172306D01*
X209765276Y-91172306D02*
X209860514Y-91124687D01*
X209860514Y-91124687D02*
X210050990Y-91077068D01*
X210050990Y-91077068D02*
X210193847Y-91077068D01*
X210193847Y-91077068D02*
X210384323Y-91124687D01*
X210384323Y-91124687D02*
X210479561Y-91172306D01*
X210479561Y-91172306D02*
X210574800Y-91267544D01*
X210574800Y-91267544D02*
X210622419Y-91410401D01*
X210622419Y-91410401D02*
X210622419Y-91648496D01*
D11*
X174954819Y-81603220D02*
X175764342Y-81603220D01*
X175764342Y-81603220D02*
X175859580Y-81555601D01*
X175859580Y-81555601D02*
X175907200Y-81507982D01*
X175907200Y-81507982D02*
X175954819Y-81412744D01*
X175954819Y-81412744D02*
X175954819Y-81222268D01*
X175954819Y-81222268D02*
X175907200Y-81127030D01*
X175907200Y-81127030D02*
X175859580Y-81079411D01*
X175859580Y-81079411D02*
X175764342Y-81031792D01*
X175764342Y-81031792D02*
X174954819Y-81031792D01*
X175954819Y-80031792D02*
X175954819Y-80603220D01*
X175954819Y-80317506D02*
X174954819Y-80317506D01*
X174954819Y-80317506D02*
X175097676Y-80412744D01*
X175097676Y-80412744D02*
X175192914Y-80507982D01*
X175192914Y-80507982D02*
X175240533Y-80603220D01*
X202884819Y-77666666D02*
X202408628Y-77999999D01*
X202884819Y-78238094D02*
X201884819Y-78238094D01*
X201884819Y-78238094D02*
X201884819Y-77857142D01*
X201884819Y-77857142D02*
X201932438Y-77761904D01*
X201932438Y-77761904D02*
X201980057Y-77714285D01*
X201980057Y-77714285D02*
X202075295Y-77666666D01*
X202075295Y-77666666D02*
X202218152Y-77666666D01*
X202218152Y-77666666D02*
X202313390Y-77714285D01*
X202313390Y-77714285D02*
X202361009Y-77761904D01*
X202361009Y-77761904D02*
X202408628Y-77857142D01*
X202408628Y-77857142D02*
X202408628Y-78238094D01*
X201884819Y-77333332D02*
X201884819Y-76666666D01*
X201884819Y-76666666D02*
X202884819Y-77095237D01*
X165166667Y-62657200D02*
X165309524Y-62704819D01*
X165309524Y-62704819D02*
X165547619Y-62704819D01*
X165547619Y-62704819D02*
X165642857Y-62657200D01*
X165642857Y-62657200D02*
X165690476Y-62609580D01*
X165690476Y-62609580D02*
X165738095Y-62514342D01*
X165738095Y-62514342D02*
X165738095Y-62419104D01*
X165738095Y-62419104D02*
X165690476Y-62323866D01*
X165690476Y-62323866D02*
X165642857Y-62276247D01*
X165642857Y-62276247D02*
X165547619Y-62228628D01*
X165547619Y-62228628D02*
X165357143Y-62181009D01*
X165357143Y-62181009D02*
X165261905Y-62133390D01*
X165261905Y-62133390D02*
X165214286Y-62085771D01*
X165214286Y-62085771D02*
X165166667Y-61990533D01*
X165166667Y-61990533D02*
X165166667Y-61895295D01*
X165166667Y-61895295D02*
X165214286Y-61800057D01*
X165214286Y-61800057D02*
X165261905Y-61752438D01*
X165261905Y-61752438D02*
X165357143Y-61704819D01*
X165357143Y-61704819D02*
X165595238Y-61704819D01*
X165595238Y-61704819D02*
X165738095Y-61752438D01*
X166071429Y-61704819D02*
X166309524Y-62704819D01*
X166309524Y-62704819D02*
X166500000Y-61990533D01*
X166500000Y-61990533D02*
X166690476Y-62704819D01*
X166690476Y-62704819D02*
X166928572Y-61704819D01*
X167833333Y-62704819D02*
X167261905Y-62704819D01*
X167547619Y-62704819D02*
X167547619Y-61704819D01*
X167547619Y-61704819D02*
X167452381Y-61847676D01*
X167452381Y-61847676D02*
X167357143Y-61942914D01*
X167357143Y-61942914D02*
X167261905Y-61990533D01*
X202954819Y-101916666D02*
X202478628Y-102249999D01*
X202954819Y-102488094D02*
X201954819Y-102488094D01*
X201954819Y-102488094D02*
X201954819Y-102107142D01*
X201954819Y-102107142D02*
X202002438Y-102011904D01*
X202002438Y-102011904D02*
X202050057Y-101964285D01*
X202050057Y-101964285D02*
X202145295Y-101916666D01*
X202145295Y-101916666D02*
X202288152Y-101916666D01*
X202288152Y-101916666D02*
X202383390Y-101964285D01*
X202383390Y-101964285D02*
X202431009Y-102011904D01*
X202431009Y-102011904D02*
X202478628Y-102107142D01*
X202478628Y-102107142D02*
X202478628Y-102488094D01*
X202954819Y-100964285D02*
X202954819Y-101535713D01*
X202954819Y-101249999D02*
X201954819Y-101249999D01*
X201954819Y-101249999D02*
X202097676Y-101345237D01*
X202097676Y-101345237D02*
X202192914Y-101440475D01*
X202192914Y-101440475D02*
X202240533Y-101535713D01*
X190852819Y-108809523D02*
X189852819Y-108809523D01*
X189852819Y-108809523D02*
X189852819Y-108428571D01*
X189852819Y-108428571D02*
X189900438Y-108333333D01*
X189900438Y-108333333D02*
X189948057Y-108285714D01*
X189948057Y-108285714D02*
X190043295Y-108238095D01*
X190043295Y-108238095D02*
X190186152Y-108238095D01*
X190186152Y-108238095D02*
X190281390Y-108285714D01*
X190281390Y-108285714D02*
X190329009Y-108333333D01*
X190329009Y-108333333D02*
X190376628Y-108428571D01*
X190376628Y-108428571D02*
X190376628Y-108809523D01*
X189852819Y-107904761D02*
X190852819Y-107666666D01*
X190852819Y-107666666D02*
X190138533Y-107476190D01*
X190138533Y-107476190D02*
X190852819Y-107285714D01*
X190852819Y-107285714D02*
X189852819Y-107047619D01*
X190852819Y-106095238D02*
X190376628Y-106428571D01*
X190852819Y-106666666D02*
X189852819Y-106666666D01*
X189852819Y-106666666D02*
X189852819Y-106285714D01*
X189852819Y-106285714D02*
X189900438Y-106190476D01*
X189900438Y-106190476D02*
X189948057Y-106142857D01*
X189948057Y-106142857D02*
X190043295Y-106095238D01*
X190043295Y-106095238D02*
X190186152Y-106095238D01*
X190186152Y-106095238D02*
X190281390Y-106142857D01*
X190281390Y-106142857D02*
X190329009Y-106190476D01*
X190329009Y-106190476D02*
X190376628Y-106285714D01*
X190376628Y-106285714D02*
X190376628Y-106666666D01*
X190852819Y-105142857D02*
X190852819Y-105714285D01*
X190852819Y-105428571D02*
X189852819Y-105428571D01*
X189852819Y-105428571D02*
X189995676Y-105523809D01*
X189995676Y-105523809D02*
X190090914Y-105619047D01*
X190090914Y-105619047D02*
X190138533Y-105714285D01*
X205261904Y-103704819D02*
X204785714Y-103704819D01*
X204785714Y-103704819D02*
X204785714Y-102704819D01*
X205595238Y-103181009D02*
X205928571Y-103181009D01*
X206071428Y-103704819D02*
X205595238Y-103704819D01*
X205595238Y-103704819D02*
X205595238Y-102704819D01*
X205595238Y-102704819D02*
X206071428Y-102704819D01*
X206500000Y-103704819D02*
X206500000Y-102704819D01*
X206500000Y-102704819D02*
X206738095Y-102704819D01*
X206738095Y-102704819D02*
X206880952Y-102752438D01*
X206880952Y-102752438D02*
X206976190Y-102847676D01*
X206976190Y-102847676D02*
X207023809Y-102942914D01*
X207023809Y-102942914D02*
X207071428Y-103133390D01*
X207071428Y-103133390D02*
X207071428Y-103276247D01*
X207071428Y-103276247D02*
X207023809Y-103466723D01*
X207023809Y-103466723D02*
X206976190Y-103561961D01*
X206976190Y-103561961D02*
X206880952Y-103657200D01*
X206880952Y-103657200D02*
X206738095Y-103704819D01*
X206738095Y-103704819D02*
X206500000Y-103704819D01*
X207500000Y-103323866D02*
X208261905Y-103323866D01*
X207880952Y-103704819D02*
X207880952Y-102942914D01*
X209261904Y-103704819D02*
X208690476Y-103704819D01*
X208976190Y-103704819D02*
X208976190Y-102704819D01*
X208976190Y-102704819D02*
X208880952Y-102847676D01*
X208880952Y-102847676D02*
X208785714Y-102942914D01*
X208785714Y-102942914D02*
X208690476Y-102990533D01*
X207166666Y-61574819D02*
X207166666Y-62289104D01*
X207166666Y-62289104D02*
X207119047Y-62431961D01*
X207119047Y-62431961D02*
X207023809Y-62527200D01*
X207023809Y-62527200D02*
X206880952Y-62574819D01*
X206880952Y-62574819D02*
X206785714Y-62574819D01*
X208166666Y-62574819D02*
X207595238Y-62574819D01*
X207880952Y-62574819D02*
X207880952Y-61574819D01*
X207880952Y-61574819D02*
X207785714Y-61717676D01*
X207785714Y-61717676D02*
X207690476Y-61812914D01*
X207690476Y-61812914D02*
X207595238Y-61860533D01*
X173109580Y-90666666D02*
X173157200Y-90714285D01*
X173157200Y-90714285D02*
X173204819Y-90857142D01*
X173204819Y-90857142D02*
X173204819Y-90952380D01*
X173204819Y-90952380D02*
X173157200Y-91095237D01*
X173157200Y-91095237D02*
X173061961Y-91190475D01*
X173061961Y-91190475D02*
X172966723Y-91238094D01*
X172966723Y-91238094D02*
X172776247Y-91285713D01*
X172776247Y-91285713D02*
X172633390Y-91285713D01*
X172633390Y-91285713D02*
X172442914Y-91238094D01*
X172442914Y-91238094D02*
X172347676Y-91190475D01*
X172347676Y-91190475D02*
X172252438Y-91095237D01*
X172252438Y-91095237D02*
X172204819Y-90952380D01*
X172204819Y-90952380D02*
X172204819Y-90857142D01*
X172204819Y-90857142D02*
X172252438Y-90714285D01*
X172252438Y-90714285D02*
X172300057Y-90666666D01*
X172633390Y-90095237D02*
X172585771Y-90190475D01*
X172585771Y-90190475D02*
X172538152Y-90238094D01*
X172538152Y-90238094D02*
X172442914Y-90285713D01*
X172442914Y-90285713D02*
X172395295Y-90285713D01*
X172395295Y-90285713D02*
X172300057Y-90238094D01*
X172300057Y-90238094D02*
X172252438Y-90190475D01*
X172252438Y-90190475D02*
X172204819Y-90095237D01*
X172204819Y-90095237D02*
X172204819Y-89904761D01*
X172204819Y-89904761D02*
X172252438Y-89809523D01*
X172252438Y-89809523D02*
X172300057Y-89761904D01*
X172300057Y-89761904D02*
X172395295Y-89714285D01*
X172395295Y-89714285D02*
X172442914Y-89714285D01*
X172442914Y-89714285D02*
X172538152Y-89761904D01*
X172538152Y-89761904D02*
X172585771Y-89809523D01*
X172585771Y-89809523D02*
X172633390Y-89904761D01*
X172633390Y-89904761D02*
X172633390Y-90095237D01*
X172633390Y-90095237D02*
X172681009Y-90190475D01*
X172681009Y-90190475D02*
X172728628Y-90238094D01*
X172728628Y-90238094D02*
X172823866Y-90285713D01*
X172823866Y-90285713D02*
X173014342Y-90285713D01*
X173014342Y-90285713D02*
X173109580Y-90238094D01*
X173109580Y-90238094D02*
X173157200Y-90190475D01*
X173157200Y-90190475D02*
X173204819Y-90095237D01*
X173204819Y-90095237D02*
X173204819Y-89904761D01*
X173204819Y-89904761D02*
X173157200Y-89809523D01*
X173157200Y-89809523D02*
X173109580Y-89761904D01*
X173109580Y-89761904D02*
X173014342Y-89714285D01*
X173014342Y-89714285D02*
X172823866Y-89714285D01*
X172823866Y-89714285D02*
X172728628Y-89761904D01*
X172728628Y-89761904D02*
X172681009Y-89809523D01*
X172681009Y-89809523D02*
X172633390Y-89904761D01*
X180333333Y-90384819D02*
X180000000Y-89908628D01*
X179761905Y-90384819D02*
X179761905Y-89384819D01*
X179761905Y-89384819D02*
X180142857Y-89384819D01*
X180142857Y-89384819D02*
X180238095Y-89432438D01*
X180238095Y-89432438D02*
X180285714Y-89480057D01*
X180285714Y-89480057D02*
X180333333Y-89575295D01*
X180333333Y-89575295D02*
X180333333Y-89718152D01*
X180333333Y-89718152D02*
X180285714Y-89813390D01*
X180285714Y-89813390D02*
X180238095Y-89861009D01*
X180238095Y-89861009D02*
X180142857Y-89908628D01*
X180142857Y-89908628D02*
X179761905Y-89908628D01*
X180714286Y-89480057D02*
X180761905Y-89432438D01*
X180761905Y-89432438D02*
X180857143Y-89384819D01*
X180857143Y-89384819D02*
X181095238Y-89384819D01*
X181095238Y-89384819D02*
X181190476Y-89432438D01*
X181190476Y-89432438D02*
X181238095Y-89480057D01*
X181238095Y-89480057D02*
X181285714Y-89575295D01*
X181285714Y-89575295D02*
X181285714Y-89670533D01*
X181285714Y-89670533D02*
X181238095Y-89813390D01*
X181238095Y-89813390D02*
X180666667Y-90384819D01*
X180666667Y-90384819D02*
X181285714Y-90384819D01*
X193830476Y-88054295D02*
X193830476Y-88701914D01*
X193830476Y-88701914D02*
X193868571Y-88778104D01*
X193868571Y-88778104D02*
X193906666Y-88816200D01*
X193906666Y-88816200D02*
X193982857Y-88854295D01*
X193982857Y-88854295D02*
X194135238Y-88854295D01*
X194135238Y-88854295D02*
X194211428Y-88816200D01*
X194211428Y-88816200D02*
X194249523Y-88778104D01*
X194249523Y-88778104D02*
X194287619Y-88701914D01*
X194287619Y-88701914D02*
X194287619Y-88054295D01*
X195011428Y-88320961D02*
X195011428Y-88854295D01*
X194820952Y-88016200D02*
X194630475Y-88587628D01*
X194630475Y-88587628D02*
X195125714Y-88587628D01*
X204309523Y-96704819D02*
X203833333Y-96704819D01*
X203833333Y-96704819D02*
X203833333Y-95704819D01*
X204642857Y-96181009D02*
X204976190Y-96181009D01*
X205119047Y-96704819D02*
X204642857Y-96704819D01*
X204642857Y-96704819D02*
X204642857Y-95704819D01*
X204642857Y-95704819D02*
X205119047Y-95704819D01*
X205547619Y-96704819D02*
X205547619Y-95704819D01*
X205547619Y-95704819D02*
X205785714Y-95704819D01*
X205785714Y-95704819D02*
X205928571Y-95752438D01*
X205928571Y-95752438D02*
X206023809Y-95847676D01*
X206023809Y-95847676D02*
X206071428Y-95942914D01*
X206071428Y-95942914D02*
X206119047Y-96133390D01*
X206119047Y-96133390D02*
X206119047Y-96276247D01*
X206119047Y-96276247D02*
X206071428Y-96466723D01*
X206071428Y-96466723D02*
X206023809Y-96561961D01*
X206023809Y-96561961D02*
X205928571Y-96657200D01*
X205928571Y-96657200D02*
X205785714Y-96704819D01*
X205785714Y-96704819D02*
X205547619Y-96704819D01*
X206309524Y-96800057D02*
X207071428Y-96800057D01*
X207309524Y-96704819D02*
X207309524Y-95704819D01*
X207309524Y-95704819D02*
X207547619Y-95704819D01*
X207547619Y-95704819D02*
X207690476Y-95752438D01*
X207690476Y-95752438D02*
X207785714Y-95847676D01*
X207785714Y-95847676D02*
X207833333Y-95942914D01*
X207833333Y-95942914D02*
X207880952Y-96133390D01*
X207880952Y-96133390D02*
X207880952Y-96276247D01*
X207880952Y-96276247D02*
X207833333Y-96466723D01*
X207833333Y-96466723D02*
X207785714Y-96561961D01*
X207785714Y-96561961D02*
X207690476Y-96657200D01*
X207690476Y-96657200D02*
X207547619Y-96704819D01*
X207547619Y-96704819D02*
X207309524Y-96704819D01*
X208309524Y-96704819D02*
X208309524Y-96038152D01*
X208309524Y-95704819D02*
X208261905Y-95752438D01*
X208261905Y-95752438D02*
X208309524Y-95800057D01*
X208309524Y-95800057D02*
X208357143Y-95752438D01*
X208357143Y-95752438D02*
X208309524Y-95704819D01*
X208309524Y-95704819D02*
X208309524Y-95800057D01*
X208785714Y-96038152D02*
X208785714Y-96704819D01*
X208785714Y-96133390D02*
X208833333Y-96085771D01*
X208833333Y-96085771D02*
X208928571Y-96038152D01*
X208928571Y-96038152D02*
X209071428Y-96038152D01*
X209071428Y-96038152D02*
X209166666Y-96085771D01*
X209166666Y-96085771D02*
X209214285Y-96181009D01*
X209214285Y-96181009D02*
X209214285Y-96704819D01*
X210214285Y-96704819D02*
X209642857Y-96704819D01*
X209928571Y-96704819D02*
X209928571Y-95704819D01*
X209928571Y-95704819D02*
X209833333Y-95847676D01*
X209833333Y-95847676D02*
X209738095Y-95942914D01*
X209738095Y-95942914D02*
X209642857Y-95990533D01*
X168609580Y-91416666D02*
X168657200Y-91464285D01*
X168657200Y-91464285D02*
X168704819Y-91607142D01*
X168704819Y-91607142D02*
X168704819Y-91702380D01*
X168704819Y-91702380D02*
X168657200Y-91845237D01*
X168657200Y-91845237D02*
X168561961Y-91940475D01*
X168561961Y-91940475D02*
X168466723Y-91988094D01*
X168466723Y-91988094D02*
X168276247Y-92035713D01*
X168276247Y-92035713D02*
X168133390Y-92035713D01*
X168133390Y-92035713D02*
X167942914Y-91988094D01*
X167942914Y-91988094D02*
X167847676Y-91940475D01*
X167847676Y-91940475D02*
X167752438Y-91845237D01*
X167752438Y-91845237D02*
X167704819Y-91702380D01*
X167704819Y-91702380D02*
X167704819Y-91607142D01*
X167704819Y-91607142D02*
X167752438Y-91464285D01*
X167752438Y-91464285D02*
X167800057Y-91416666D01*
X167704819Y-91083332D02*
X167704819Y-90416666D01*
X167704819Y-90416666D02*
X168704819Y-90845237D01*
X191333333Y-84429580D02*
X191285714Y-84477200D01*
X191285714Y-84477200D02*
X191142857Y-84524819D01*
X191142857Y-84524819D02*
X191047619Y-84524819D01*
X191047619Y-84524819D02*
X190904762Y-84477200D01*
X190904762Y-84477200D02*
X190809524Y-84381961D01*
X190809524Y-84381961D02*
X190761905Y-84286723D01*
X190761905Y-84286723D02*
X190714286Y-84096247D01*
X190714286Y-84096247D02*
X190714286Y-83953390D01*
X190714286Y-83953390D02*
X190761905Y-83762914D01*
X190761905Y-83762914D02*
X190809524Y-83667676D01*
X190809524Y-83667676D02*
X190904762Y-83572438D01*
X190904762Y-83572438D02*
X191047619Y-83524819D01*
X191047619Y-83524819D02*
X191142857Y-83524819D01*
X191142857Y-83524819D02*
X191285714Y-83572438D01*
X191285714Y-83572438D02*
X191333333Y-83620057D01*
X192190476Y-83524819D02*
X192000000Y-83524819D01*
X192000000Y-83524819D02*
X191904762Y-83572438D01*
X191904762Y-83572438D02*
X191857143Y-83620057D01*
X191857143Y-83620057D02*
X191761905Y-83762914D01*
X191761905Y-83762914D02*
X191714286Y-83953390D01*
X191714286Y-83953390D02*
X191714286Y-84334342D01*
X191714286Y-84334342D02*
X191761905Y-84429580D01*
X191761905Y-84429580D02*
X191809524Y-84477200D01*
X191809524Y-84477200D02*
X191904762Y-84524819D01*
X191904762Y-84524819D02*
X192095238Y-84524819D01*
X192095238Y-84524819D02*
X192190476Y-84477200D01*
X192190476Y-84477200D02*
X192238095Y-84429580D01*
X192238095Y-84429580D02*
X192285714Y-84334342D01*
X192285714Y-84334342D02*
X192285714Y-84096247D01*
X192285714Y-84096247D02*
X192238095Y-84001009D01*
X192238095Y-84001009D02*
X192190476Y-83953390D01*
X192190476Y-83953390D02*
X192095238Y-83905771D01*
X192095238Y-83905771D02*
X191904762Y-83905771D01*
X191904762Y-83905771D02*
X191809524Y-83953390D01*
X191809524Y-83953390D02*
X191761905Y-84001009D01*
X191761905Y-84001009D02*
X191714286Y-84096247D01*
X168409580Y-101142857D02*
X168457200Y-101190476D01*
X168457200Y-101190476D02*
X168504819Y-101333333D01*
X168504819Y-101333333D02*
X168504819Y-101428571D01*
X168504819Y-101428571D02*
X168457200Y-101571428D01*
X168457200Y-101571428D02*
X168361961Y-101666666D01*
X168361961Y-101666666D02*
X168266723Y-101714285D01*
X168266723Y-101714285D02*
X168076247Y-101761904D01*
X168076247Y-101761904D02*
X167933390Y-101761904D01*
X167933390Y-101761904D02*
X167742914Y-101714285D01*
X167742914Y-101714285D02*
X167647676Y-101666666D01*
X167647676Y-101666666D02*
X167552438Y-101571428D01*
X167552438Y-101571428D02*
X167504819Y-101428571D01*
X167504819Y-101428571D02*
X167504819Y-101333333D01*
X167504819Y-101333333D02*
X167552438Y-101190476D01*
X167552438Y-101190476D02*
X167600057Y-101142857D01*
X168504819Y-100190476D02*
X168504819Y-100761904D01*
X168504819Y-100476190D02*
X167504819Y-100476190D01*
X167504819Y-100476190D02*
X167647676Y-100571428D01*
X167647676Y-100571428D02*
X167742914Y-100666666D01*
X167742914Y-100666666D02*
X167790533Y-100761904D01*
X167504819Y-99571428D02*
X167504819Y-99476190D01*
X167504819Y-99476190D02*
X167552438Y-99380952D01*
X167552438Y-99380952D02*
X167600057Y-99333333D01*
X167600057Y-99333333D02*
X167695295Y-99285714D01*
X167695295Y-99285714D02*
X167885771Y-99238095D01*
X167885771Y-99238095D02*
X168123866Y-99238095D01*
X168123866Y-99238095D02*
X168314342Y-99285714D01*
X168314342Y-99285714D02*
X168409580Y-99333333D01*
X168409580Y-99333333D02*
X168457200Y-99380952D01*
X168457200Y-99380952D02*
X168504819Y-99476190D01*
X168504819Y-99476190D02*
X168504819Y-99571428D01*
X168504819Y-99571428D02*
X168457200Y-99666666D01*
X168457200Y-99666666D02*
X168409580Y-99714285D01*
X168409580Y-99714285D02*
X168314342Y-99761904D01*
X168314342Y-99761904D02*
X168123866Y-99809523D01*
X168123866Y-99809523D02*
X167885771Y-99809523D01*
X167885771Y-99809523D02*
X167695295Y-99761904D01*
X167695295Y-99761904D02*
X167600057Y-99714285D01*
X167600057Y-99714285D02*
X167552438Y-99666666D01*
X167552438Y-99666666D02*
X167504819Y-99571428D01*
X172928095Y-84344819D02*
X172928095Y-85154342D01*
X172928095Y-85154342D02*
X172975714Y-85249580D01*
X172975714Y-85249580D02*
X173023333Y-85297200D01*
X173023333Y-85297200D02*
X173118571Y-85344819D01*
X173118571Y-85344819D02*
X173309047Y-85344819D01*
X173309047Y-85344819D02*
X173404285Y-85297200D01*
X173404285Y-85297200D02*
X173451904Y-85249580D01*
X173451904Y-85249580D02*
X173499523Y-85154342D01*
X173499523Y-85154342D02*
X173499523Y-84344819D01*
X173880476Y-84344819D02*
X174499523Y-84344819D01*
X174499523Y-84344819D02*
X174166190Y-84725771D01*
X174166190Y-84725771D02*
X174309047Y-84725771D01*
X174309047Y-84725771D02*
X174404285Y-84773390D01*
X174404285Y-84773390D02*
X174451904Y-84821009D01*
X174451904Y-84821009D02*
X174499523Y-84916247D01*
X174499523Y-84916247D02*
X174499523Y-85154342D01*
X174499523Y-85154342D02*
X174451904Y-85249580D01*
X174451904Y-85249580D02*
X174404285Y-85297200D01*
X174404285Y-85297200D02*
X174309047Y-85344819D01*
X174309047Y-85344819D02*
X174023333Y-85344819D01*
X174023333Y-85344819D02*
X173928095Y-85297200D01*
X173928095Y-85297200D02*
X173880476Y-85249580D01*
X198833333Y-93954819D02*
X198500000Y-93478628D01*
X198261905Y-93954819D02*
X198261905Y-92954819D01*
X198261905Y-92954819D02*
X198642857Y-92954819D01*
X198642857Y-92954819D02*
X198738095Y-93002438D01*
X198738095Y-93002438D02*
X198785714Y-93050057D01*
X198785714Y-93050057D02*
X198833333Y-93145295D01*
X198833333Y-93145295D02*
X198833333Y-93288152D01*
X198833333Y-93288152D02*
X198785714Y-93383390D01*
X198785714Y-93383390D02*
X198738095Y-93431009D01*
X198738095Y-93431009D02*
X198642857Y-93478628D01*
X198642857Y-93478628D02*
X198261905Y-93478628D01*
X199738095Y-92954819D02*
X199261905Y-92954819D01*
X199261905Y-92954819D02*
X199214286Y-93431009D01*
X199214286Y-93431009D02*
X199261905Y-93383390D01*
X199261905Y-93383390D02*
X199357143Y-93335771D01*
X199357143Y-93335771D02*
X199595238Y-93335771D01*
X199595238Y-93335771D02*
X199690476Y-93383390D01*
X199690476Y-93383390D02*
X199738095Y-93431009D01*
X199738095Y-93431009D02*
X199785714Y-93526247D01*
X199785714Y-93526247D02*
X199785714Y-93764342D01*
X199785714Y-93764342D02*
X199738095Y-93859580D01*
X199738095Y-93859580D02*
X199690476Y-93907200D01*
X199690476Y-93907200D02*
X199595238Y-93954819D01*
X199595238Y-93954819D02*
X199357143Y-93954819D01*
X199357143Y-93954819D02*
X199261905Y-93907200D01*
X199261905Y-93907200D02*
X199214286Y-93859580D01*
X183900438Y-108238095D02*
X183852819Y-108333333D01*
X183852819Y-108333333D02*
X183852819Y-108476190D01*
X183852819Y-108476190D02*
X183900438Y-108619047D01*
X183900438Y-108619047D02*
X183995676Y-108714285D01*
X183995676Y-108714285D02*
X184090914Y-108761904D01*
X184090914Y-108761904D02*
X184281390Y-108809523D01*
X184281390Y-108809523D02*
X184424247Y-108809523D01*
X184424247Y-108809523D02*
X184614723Y-108761904D01*
X184614723Y-108761904D02*
X184709961Y-108714285D01*
X184709961Y-108714285D02*
X184805200Y-108619047D01*
X184805200Y-108619047D02*
X184852819Y-108476190D01*
X184852819Y-108476190D02*
X184852819Y-108380952D01*
X184852819Y-108380952D02*
X184805200Y-108238095D01*
X184805200Y-108238095D02*
X184757580Y-108190476D01*
X184757580Y-108190476D02*
X184424247Y-108190476D01*
X184424247Y-108190476D02*
X184424247Y-108380952D01*
X184852819Y-107761904D02*
X183852819Y-107761904D01*
X183852819Y-107761904D02*
X184852819Y-107190476D01*
X184852819Y-107190476D02*
X183852819Y-107190476D01*
X184852819Y-106714285D02*
X183852819Y-106714285D01*
X183852819Y-106714285D02*
X183852819Y-106476190D01*
X183852819Y-106476190D02*
X183900438Y-106333333D01*
X183900438Y-106333333D02*
X183995676Y-106238095D01*
X183995676Y-106238095D02*
X184090914Y-106190476D01*
X184090914Y-106190476D02*
X184281390Y-106142857D01*
X184281390Y-106142857D02*
X184424247Y-106142857D01*
X184424247Y-106142857D02*
X184614723Y-106190476D01*
X184614723Y-106190476D02*
X184709961Y-106238095D01*
X184709961Y-106238095D02*
X184805200Y-106333333D01*
X184805200Y-106333333D02*
X184852819Y-106476190D01*
X184852819Y-106476190D02*
X184852819Y-106714285D01*
X184852819Y-105190476D02*
X184852819Y-105761904D01*
X184852819Y-105476190D02*
X183852819Y-105476190D01*
X183852819Y-105476190D02*
X183995676Y-105571428D01*
X183995676Y-105571428D02*
X184090914Y-105666666D01*
X184090914Y-105666666D02*
X184138533Y-105761904D01*
X178011905Y-94954819D02*
X178011905Y-93954819D01*
X178011905Y-93954819D02*
X178250000Y-93954819D01*
X178250000Y-93954819D02*
X178392857Y-94002438D01*
X178392857Y-94002438D02*
X178488095Y-94097676D01*
X178488095Y-94097676D02*
X178535714Y-94192914D01*
X178535714Y-94192914D02*
X178583333Y-94383390D01*
X178583333Y-94383390D02*
X178583333Y-94526247D01*
X178583333Y-94526247D02*
X178535714Y-94716723D01*
X178535714Y-94716723D02*
X178488095Y-94811961D01*
X178488095Y-94811961D02*
X178392857Y-94907200D01*
X178392857Y-94907200D02*
X178250000Y-94954819D01*
X178250000Y-94954819D02*
X178011905Y-94954819D01*
X179535714Y-94954819D02*
X178964286Y-94954819D01*
X179250000Y-94954819D02*
X179250000Y-93954819D01*
X179250000Y-93954819D02*
X179154762Y-94097676D01*
X179154762Y-94097676D02*
X179059524Y-94192914D01*
X179059524Y-94192914D02*
X178964286Y-94240533D01*
X198357142Y-88929580D02*
X198309523Y-88977200D01*
X198309523Y-88977200D02*
X198166666Y-89024819D01*
X198166666Y-89024819D02*
X198071428Y-89024819D01*
X198071428Y-89024819D02*
X197928571Y-88977200D01*
X197928571Y-88977200D02*
X197833333Y-88881961D01*
X197833333Y-88881961D02*
X197785714Y-88786723D01*
X197785714Y-88786723D02*
X197738095Y-88596247D01*
X197738095Y-88596247D02*
X197738095Y-88453390D01*
X197738095Y-88453390D02*
X197785714Y-88262914D01*
X197785714Y-88262914D02*
X197833333Y-88167676D01*
X197833333Y-88167676D02*
X197928571Y-88072438D01*
X197928571Y-88072438D02*
X198071428Y-88024819D01*
X198071428Y-88024819D02*
X198166666Y-88024819D01*
X198166666Y-88024819D02*
X198309523Y-88072438D01*
X198309523Y-88072438D02*
X198357142Y-88120057D01*
X199309523Y-89024819D02*
X198738095Y-89024819D01*
X199023809Y-89024819D02*
X199023809Y-88024819D01*
X199023809Y-88024819D02*
X198928571Y-88167676D01*
X198928571Y-88167676D02*
X198833333Y-88262914D01*
X198833333Y-88262914D02*
X198738095Y-88310533D01*
X200261904Y-89024819D02*
X199690476Y-89024819D01*
X199976190Y-89024819D02*
X199976190Y-88024819D01*
X199976190Y-88024819D02*
X199880952Y-88167676D01*
X199880952Y-88167676D02*
X199785714Y-88262914D01*
X199785714Y-88262914D02*
X199690476Y-88310533D01*
X191409580Y-87599166D02*
X191457200Y-87646785D01*
X191457200Y-87646785D02*
X191504819Y-87789642D01*
X191504819Y-87789642D02*
X191504819Y-87884880D01*
X191504819Y-87884880D02*
X191457200Y-88027737D01*
X191457200Y-88027737D02*
X191361961Y-88122975D01*
X191361961Y-88122975D02*
X191266723Y-88170594D01*
X191266723Y-88170594D02*
X191076247Y-88218213D01*
X191076247Y-88218213D02*
X190933390Y-88218213D01*
X190933390Y-88218213D02*
X190742914Y-88170594D01*
X190742914Y-88170594D02*
X190647676Y-88122975D01*
X190647676Y-88122975D02*
X190552438Y-88027737D01*
X190552438Y-88027737D02*
X190504819Y-87884880D01*
X190504819Y-87884880D02*
X190504819Y-87789642D01*
X190504819Y-87789642D02*
X190552438Y-87646785D01*
X190552438Y-87646785D02*
X190600057Y-87599166D01*
X190504819Y-87265832D02*
X190504819Y-86646785D01*
X190504819Y-86646785D02*
X190885771Y-86980118D01*
X190885771Y-86980118D02*
X190885771Y-86837261D01*
X190885771Y-86837261D02*
X190933390Y-86742023D01*
X190933390Y-86742023D02*
X190981009Y-86694404D01*
X190981009Y-86694404D02*
X191076247Y-86646785D01*
X191076247Y-86646785D02*
X191314342Y-86646785D01*
X191314342Y-86646785D02*
X191409580Y-86694404D01*
X191409580Y-86694404D02*
X191457200Y-86742023D01*
X191457200Y-86742023D02*
X191504819Y-86837261D01*
X191504819Y-86837261D02*
X191504819Y-87122975D01*
X191504819Y-87122975D02*
X191457200Y-87218213D01*
X191457200Y-87218213D02*
X191409580Y-87265832D01*
X202916667Y-71907200D02*
X203059524Y-71954819D01*
X203059524Y-71954819D02*
X203297619Y-71954819D01*
X203297619Y-71954819D02*
X203392857Y-71907200D01*
X203392857Y-71907200D02*
X203440476Y-71859580D01*
X203440476Y-71859580D02*
X203488095Y-71764342D01*
X203488095Y-71764342D02*
X203488095Y-71669104D01*
X203488095Y-71669104D02*
X203440476Y-71573866D01*
X203440476Y-71573866D02*
X203392857Y-71526247D01*
X203392857Y-71526247D02*
X203297619Y-71478628D01*
X203297619Y-71478628D02*
X203107143Y-71431009D01*
X203107143Y-71431009D02*
X203011905Y-71383390D01*
X203011905Y-71383390D02*
X202964286Y-71335771D01*
X202964286Y-71335771D02*
X202916667Y-71240533D01*
X202916667Y-71240533D02*
X202916667Y-71145295D01*
X202916667Y-71145295D02*
X202964286Y-71050057D01*
X202964286Y-71050057D02*
X203011905Y-71002438D01*
X203011905Y-71002438D02*
X203107143Y-70954819D01*
X203107143Y-70954819D02*
X203345238Y-70954819D01*
X203345238Y-70954819D02*
X203488095Y-71002438D01*
X203821429Y-70954819D02*
X204059524Y-71954819D01*
X204059524Y-71954819D02*
X204250000Y-71240533D01*
X204250000Y-71240533D02*
X204440476Y-71954819D01*
X204440476Y-71954819D02*
X204678572Y-70954819D01*
X204964286Y-70954819D02*
X205583333Y-70954819D01*
X205583333Y-70954819D02*
X205250000Y-71335771D01*
X205250000Y-71335771D02*
X205392857Y-71335771D01*
X205392857Y-71335771D02*
X205488095Y-71383390D01*
X205488095Y-71383390D02*
X205535714Y-71431009D01*
X205535714Y-71431009D02*
X205583333Y-71526247D01*
X205583333Y-71526247D02*
X205583333Y-71764342D01*
X205583333Y-71764342D02*
X205535714Y-71859580D01*
X205535714Y-71859580D02*
X205488095Y-71907200D01*
X205488095Y-71907200D02*
X205392857Y-71954819D01*
X205392857Y-71954819D02*
X205107143Y-71954819D01*
X205107143Y-71954819D02*
X205011905Y-71907200D01*
X205011905Y-71907200D02*
X204964286Y-71859580D01*
X181583333Y-83609580D02*
X181535714Y-83657200D01*
X181535714Y-83657200D02*
X181392857Y-83704819D01*
X181392857Y-83704819D02*
X181297619Y-83704819D01*
X181297619Y-83704819D02*
X181154762Y-83657200D01*
X181154762Y-83657200D02*
X181059524Y-83561961D01*
X181059524Y-83561961D02*
X181011905Y-83466723D01*
X181011905Y-83466723D02*
X180964286Y-83276247D01*
X180964286Y-83276247D02*
X180964286Y-83133390D01*
X180964286Y-83133390D02*
X181011905Y-82942914D01*
X181011905Y-82942914D02*
X181059524Y-82847676D01*
X181059524Y-82847676D02*
X181154762Y-82752438D01*
X181154762Y-82752438D02*
X181297619Y-82704819D01*
X181297619Y-82704819D02*
X181392857Y-82704819D01*
X181392857Y-82704819D02*
X181535714Y-82752438D01*
X181535714Y-82752438D02*
X181583333Y-82800057D01*
X182440476Y-83038152D02*
X182440476Y-83704819D01*
X182202381Y-82657200D02*
X181964286Y-83371485D01*
X181964286Y-83371485D02*
X182583333Y-83371485D01*
X168454819Y-87416666D02*
X167978628Y-87749999D01*
X168454819Y-87988094D02*
X167454819Y-87988094D01*
X167454819Y-87988094D02*
X167454819Y-87607142D01*
X167454819Y-87607142D02*
X167502438Y-87511904D01*
X167502438Y-87511904D02*
X167550057Y-87464285D01*
X167550057Y-87464285D02*
X167645295Y-87416666D01*
X167645295Y-87416666D02*
X167788152Y-87416666D01*
X167788152Y-87416666D02*
X167883390Y-87464285D01*
X167883390Y-87464285D02*
X167931009Y-87511904D01*
X167931009Y-87511904D02*
X167978628Y-87607142D01*
X167978628Y-87607142D02*
X167978628Y-87988094D01*
X167788152Y-86559523D02*
X168454819Y-86559523D01*
X167407200Y-86797618D02*
X168121485Y-87035713D01*
X168121485Y-87035713D02*
X168121485Y-86416666D01*
X173384819Y-76079166D02*
X172908628Y-76412499D01*
X173384819Y-76650594D02*
X172384819Y-76650594D01*
X172384819Y-76650594D02*
X172384819Y-76269642D01*
X172384819Y-76269642D02*
X172432438Y-76174404D01*
X172432438Y-76174404D02*
X172480057Y-76126785D01*
X172480057Y-76126785D02*
X172575295Y-76079166D01*
X172575295Y-76079166D02*
X172718152Y-76079166D01*
X172718152Y-76079166D02*
X172813390Y-76126785D01*
X172813390Y-76126785D02*
X172861009Y-76174404D01*
X172861009Y-76174404D02*
X172908628Y-76269642D01*
X172908628Y-76269642D02*
X172908628Y-76650594D01*
X172384819Y-75222023D02*
X172384819Y-75412499D01*
X172384819Y-75412499D02*
X172432438Y-75507737D01*
X172432438Y-75507737D02*
X172480057Y-75555356D01*
X172480057Y-75555356D02*
X172622914Y-75650594D01*
X172622914Y-75650594D02*
X172813390Y-75698213D01*
X172813390Y-75698213D02*
X173194342Y-75698213D01*
X173194342Y-75698213D02*
X173289580Y-75650594D01*
X173289580Y-75650594D02*
X173337200Y-75602975D01*
X173337200Y-75602975D02*
X173384819Y-75507737D01*
X173384819Y-75507737D02*
X173384819Y-75317261D01*
X173384819Y-75317261D02*
X173337200Y-75222023D01*
X173337200Y-75222023D02*
X173289580Y-75174404D01*
X173289580Y-75174404D02*
X173194342Y-75126785D01*
X173194342Y-75126785D02*
X172956247Y-75126785D01*
X172956247Y-75126785D02*
X172861009Y-75174404D01*
X172861009Y-75174404D02*
X172813390Y-75222023D01*
X172813390Y-75222023D02*
X172765771Y-75317261D01*
X172765771Y-75317261D02*
X172765771Y-75507737D01*
X172765771Y-75507737D02*
X172813390Y-75602975D01*
X172813390Y-75602975D02*
X172861009Y-75650594D01*
X172861009Y-75650594D02*
X172956247Y-75698213D01*
X178454819Y-102261904D02*
X179264342Y-102261904D01*
X179264342Y-102261904D02*
X179359580Y-102214285D01*
X179359580Y-102214285D02*
X179407200Y-102166666D01*
X179407200Y-102166666D02*
X179454819Y-102071428D01*
X179454819Y-102071428D02*
X179454819Y-101880952D01*
X179454819Y-101880952D02*
X179407200Y-101785714D01*
X179407200Y-101785714D02*
X179359580Y-101738095D01*
X179359580Y-101738095D02*
X179264342Y-101690476D01*
X179264342Y-101690476D02*
X178454819Y-101690476D01*
X178454819Y-100738095D02*
X178454819Y-101214285D01*
X178454819Y-101214285D02*
X178931009Y-101261904D01*
X178931009Y-101261904D02*
X178883390Y-101214285D01*
X178883390Y-101214285D02*
X178835771Y-101119047D01*
X178835771Y-101119047D02*
X178835771Y-100880952D01*
X178835771Y-100880952D02*
X178883390Y-100785714D01*
X178883390Y-100785714D02*
X178931009Y-100738095D01*
X178931009Y-100738095D02*
X179026247Y-100690476D01*
X179026247Y-100690476D02*
X179264342Y-100690476D01*
X179264342Y-100690476D02*
X179359580Y-100738095D01*
X179359580Y-100738095D02*
X179407200Y-100785714D01*
X179407200Y-100785714D02*
X179454819Y-100880952D01*
X179454819Y-100880952D02*
X179454819Y-101119047D01*
X179454819Y-101119047D02*
X179407200Y-101214285D01*
X179407200Y-101214285D02*
X179359580Y-101261904D01*
X187833333Y-82859580D02*
X187785714Y-82907200D01*
X187785714Y-82907200D02*
X187642857Y-82954819D01*
X187642857Y-82954819D02*
X187547619Y-82954819D01*
X187547619Y-82954819D02*
X187404762Y-82907200D01*
X187404762Y-82907200D02*
X187309524Y-82811961D01*
X187309524Y-82811961D02*
X187261905Y-82716723D01*
X187261905Y-82716723D02*
X187214286Y-82526247D01*
X187214286Y-82526247D02*
X187214286Y-82383390D01*
X187214286Y-82383390D02*
X187261905Y-82192914D01*
X187261905Y-82192914D02*
X187309524Y-82097676D01*
X187309524Y-82097676D02*
X187404762Y-82002438D01*
X187404762Y-82002438D02*
X187547619Y-81954819D01*
X187547619Y-81954819D02*
X187642857Y-81954819D01*
X187642857Y-81954819D02*
X187785714Y-82002438D01*
X187785714Y-82002438D02*
X187833333Y-82050057D01*
X188738095Y-81954819D02*
X188261905Y-81954819D01*
X188261905Y-81954819D02*
X188214286Y-82431009D01*
X188214286Y-82431009D02*
X188261905Y-82383390D01*
X188261905Y-82383390D02*
X188357143Y-82335771D01*
X188357143Y-82335771D02*
X188595238Y-82335771D01*
X188595238Y-82335771D02*
X188690476Y-82383390D01*
X188690476Y-82383390D02*
X188738095Y-82431009D01*
X188738095Y-82431009D02*
X188785714Y-82526247D01*
X188785714Y-82526247D02*
X188785714Y-82764342D01*
X188785714Y-82764342D02*
X188738095Y-82859580D01*
X188738095Y-82859580D02*
X188690476Y-82907200D01*
X188690476Y-82907200D02*
X188595238Y-82954819D01*
X188595238Y-82954819D02*
X188357143Y-82954819D01*
X188357143Y-82954819D02*
X188261905Y-82907200D01*
X188261905Y-82907200D02*
X188214286Y-82859580D01*
X165166667Y-70657200D02*
X165309524Y-70704819D01*
X165309524Y-70704819D02*
X165547619Y-70704819D01*
X165547619Y-70704819D02*
X165642857Y-70657200D01*
X165642857Y-70657200D02*
X165690476Y-70609580D01*
X165690476Y-70609580D02*
X165738095Y-70514342D01*
X165738095Y-70514342D02*
X165738095Y-70419104D01*
X165738095Y-70419104D02*
X165690476Y-70323866D01*
X165690476Y-70323866D02*
X165642857Y-70276247D01*
X165642857Y-70276247D02*
X165547619Y-70228628D01*
X165547619Y-70228628D02*
X165357143Y-70181009D01*
X165357143Y-70181009D02*
X165261905Y-70133390D01*
X165261905Y-70133390D02*
X165214286Y-70085771D01*
X165214286Y-70085771D02*
X165166667Y-69990533D01*
X165166667Y-69990533D02*
X165166667Y-69895295D01*
X165166667Y-69895295D02*
X165214286Y-69800057D01*
X165214286Y-69800057D02*
X165261905Y-69752438D01*
X165261905Y-69752438D02*
X165357143Y-69704819D01*
X165357143Y-69704819D02*
X165595238Y-69704819D01*
X165595238Y-69704819D02*
X165738095Y-69752438D01*
X166071429Y-69704819D02*
X166309524Y-70704819D01*
X166309524Y-70704819D02*
X166500000Y-69990533D01*
X166500000Y-69990533D02*
X166690476Y-70704819D01*
X166690476Y-70704819D02*
X166928572Y-69704819D01*
X167261905Y-69800057D02*
X167309524Y-69752438D01*
X167309524Y-69752438D02*
X167404762Y-69704819D01*
X167404762Y-69704819D02*
X167642857Y-69704819D01*
X167642857Y-69704819D02*
X167738095Y-69752438D01*
X167738095Y-69752438D02*
X167785714Y-69800057D01*
X167785714Y-69800057D02*
X167833333Y-69895295D01*
X167833333Y-69895295D02*
X167833333Y-69990533D01*
X167833333Y-69990533D02*
X167785714Y-70133390D01*
X167785714Y-70133390D02*
X167214286Y-70704819D01*
X167214286Y-70704819D02*
X167833333Y-70704819D01*
X190609580Y-100510534D02*
X190657200Y-100558153D01*
X190657200Y-100558153D02*
X190704819Y-100701010D01*
X190704819Y-100701010D02*
X190704819Y-100796248D01*
X190704819Y-100796248D02*
X190657200Y-100939105D01*
X190657200Y-100939105D02*
X190561961Y-101034343D01*
X190561961Y-101034343D02*
X190466723Y-101081962D01*
X190466723Y-101081962D02*
X190276247Y-101129581D01*
X190276247Y-101129581D02*
X190133390Y-101129581D01*
X190133390Y-101129581D02*
X189942914Y-101081962D01*
X189942914Y-101081962D02*
X189847676Y-101034343D01*
X189847676Y-101034343D02*
X189752438Y-100939105D01*
X189752438Y-100939105D02*
X189704819Y-100796248D01*
X189704819Y-100796248D02*
X189704819Y-100701010D01*
X189704819Y-100701010D02*
X189752438Y-100558153D01*
X189752438Y-100558153D02*
X189800057Y-100510534D01*
X190704819Y-99558153D02*
X190704819Y-100129581D01*
X190704819Y-99843867D02*
X189704819Y-99843867D01*
X189704819Y-99843867D02*
X189847676Y-99939105D01*
X189847676Y-99939105D02*
X189942914Y-100034343D01*
X189942914Y-100034343D02*
X189990533Y-100129581D01*
X189800057Y-99177200D02*
X189752438Y-99129581D01*
X189752438Y-99129581D02*
X189704819Y-99034343D01*
X189704819Y-99034343D02*
X189704819Y-98796248D01*
X189704819Y-98796248D02*
X189752438Y-98701010D01*
X189752438Y-98701010D02*
X189800057Y-98653391D01*
X189800057Y-98653391D02*
X189895295Y-98605772D01*
X189895295Y-98605772D02*
X189990533Y-98605772D01*
X189990533Y-98605772D02*
X190133390Y-98653391D01*
X190133390Y-98653391D02*
X190704819Y-99224819D01*
X190704819Y-99224819D02*
X190704819Y-98605772D01*
X168409580Y-94666666D02*
X168457200Y-94714285D01*
X168457200Y-94714285D02*
X168504819Y-94857142D01*
X168504819Y-94857142D02*
X168504819Y-94952380D01*
X168504819Y-94952380D02*
X168457200Y-95095237D01*
X168457200Y-95095237D02*
X168361961Y-95190475D01*
X168361961Y-95190475D02*
X168266723Y-95238094D01*
X168266723Y-95238094D02*
X168076247Y-95285713D01*
X168076247Y-95285713D02*
X167933390Y-95285713D01*
X167933390Y-95285713D02*
X167742914Y-95238094D01*
X167742914Y-95238094D02*
X167647676Y-95190475D01*
X167647676Y-95190475D02*
X167552438Y-95095237D01*
X167552438Y-95095237D02*
X167504819Y-94952380D01*
X167504819Y-94952380D02*
X167504819Y-94857142D01*
X167504819Y-94857142D02*
X167552438Y-94714285D01*
X167552438Y-94714285D02*
X167600057Y-94666666D01*
X168504819Y-94190475D02*
X168504819Y-93999999D01*
X168504819Y-93999999D02*
X168457200Y-93904761D01*
X168457200Y-93904761D02*
X168409580Y-93857142D01*
X168409580Y-93857142D02*
X168266723Y-93761904D01*
X168266723Y-93761904D02*
X168076247Y-93714285D01*
X168076247Y-93714285D02*
X167695295Y-93714285D01*
X167695295Y-93714285D02*
X167600057Y-93761904D01*
X167600057Y-93761904D02*
X167552438Y-93809523D01*
X167552438Y-93809523D02*
X167504819Y-93904761D01*
X167504819Y-93904761D02*
X167504819Y-94095237D01*
X167504819Y-94095237D02*
X167552438Y-94190475D01*
X167552438Y-94190475D02*
X167600057Y-94238094D01*
X167600057Y-94238094D02*
X167695295Y-94285713D01*
X167695295Y-94285713D02*
X167933390Y-94285713D01*
X167933390Y-94285713D02*
X168028628Y-94238094D01*
X168028628Y-94238094D02*
X168076247Y-94190475D01*
X168076247Y-94190475D02*
X168123866Y-94095237D01*
X168123866Y-94095237D02*
X168123866Y-93904761D01*
X168123866Y-93904761D02*
X168076247Y-93809523D01*
X168076247Y-93809523D02*
X168028628Y-93761904D01*
X168028628Y-93761904D02*
X167933390Y-93714285D01*
X205261904Y-89704819D02*
X204785714Y-89704819D01*
X204785714Y-89704819D02*
X204785714Y-88704819D01*
X205595238Y-89181009D02*
X205928571Y-89181009D01*
X206071428Y-89704819D02*
X205595238Y-89704819D01*
X205595238Y-89704819D02*
X205595238Y-88704819D01*
X205595238Y-88704819D02*
X206071428Y-88704819D01*
X206500000Y-89704819D02*
X206500000Y-88704819D01*
X206500000Y-88704819D02*
X206738095Y-88704819D01*
X206738095Y-88704819D02*
X206880952Y-88752438D01*
X206880952Y-88752438D02*
X206976190Y-88847676D01*
X206976190Y-88847676D02*
X207023809Y-88942914D01*
X207023809Y-88942914D02*
X207071428Y-89133390D01*
X207071428Y-89133390D02*
X207071428Y-89276247D01*
X207071428Y-89276247D02*
X207023809Y-89466723D01*
X207023809Y-89466723D02*
X206976190Y-89561961D01*
X206976190Y-89561961D02*
X206880952Y-89657200D01*
X206880952Y-89657200D02*
X206738095Y-89704819D01*
X206738095Y-89704819D02*
X206500000Y-89704819D01*
X207500000Y-89323866D02*
X208261905Y-89323866D01*
X209261904Y-89704819D02*
X208690476Y-89704819D01*
X208976190Y-89704819D02*
X208976190Y-88704819D01*
X208976190Y-88704819D02*
X208880952Y-88847676D01*
X208880952Y-88847676D02*
X208785714Y-88942914D01*
X208785714Y-88942914D02*
X208690476Y-88990533D01*
X170083333Y-97359580D02*
X170035714Y-97407200D01*
X170035714Y-97407200D02*
X169892857Y-97454819D01*
X169892857Y-97454819D02*
X169797619Y-97454819D01*
X169797619Y-97454819D02*
X169654762Y-97407200D01*
X169654762Y-97407200D02*
X169559524Y-97311961D01*
X169559524Y-97311961D02*
X169511905Y-97216723D01*
X169511905Y-97216723D02*
X169464286Y-97026247D01*
X169464286Y-97026247D02*
X169464286Y-96883390D01*
X169464286Y-96883390D02*
X169511905Y-96692914D01*
X169511905Y-96692914D02*
X169559524Y-96597676D01*
X169559524Y-96597676D02*
X169654762Y-96502438D01*
X169654762Y-96502438D02*
X169797619Y-96454819D01*
X169797619Y-96454819D02*
X169892857Y-96454819D01*
X169892857Y-96454819D02*
X170035714Y-96502438D01*
X170035714Y-96502438D02*
X170083333Y-96550057D01*
X171035714Y-97454819D02*
X170464286Y-97454819D01*
X170750000Y-97454819D02*
X170750000Y-96454819D01*
X170750000Y-96454819D02*
X170654762Y-96597676D01*
X170654762Y-96597676D02*
X170559524Y-96692914D01*
X170559524Y-96692914D02*
X170464286Y-96740533D01*
X181579819Y-87261904D02*
X182389342Y-87261904D01*
X182389342Y-87261904D02*
X182484580Y-87214285D01*
X182484580Y-87214285D02*
X182532200Y-87166666D01*
X182532200Y-87166666D02*
X182579819Y-87071428D01*
X182579819Y-87071428D02*
X182579819Y-86880952D01*
X182579819Y-86880952D02*
X182532200Y-86785714D01*
X182532200Y-86785714D02*
X182484580Y-86738095D01*
X182484580Y-86738095D02*
X182389342Y-86690476D01*
X182389342Y-86690476D02*
X181579819Y-86690476D01*
X181675057Y-86261904D02*
X181627438Y-86214285D01*
X181627438Y-86214285D02*
X181579819Y-86119047D01*
X181579819Y-86119047D02*
X181579819Y-85880952D01*
X181579819Y-85880952D02*
X181627438Y-85785714D01*
X181627438Y-85785714D02*
X181675057Y-85738095D01*
X181675057Y-85738095D02*
X181770295Y-85690476D01*
X181770295Y-85690476D02*
X181865533Y-85690476D01*
X181865533Y-85690476D02*
X182008390Y-85738095D01*
X182008390Y-85738095D02*
X182579819Y-86309523D01*
X182579819Y-86309523D02*
X182579819Y-85690476D01*
X177833333Y-88954819D02*
X177500000Y-88478628D01*
X177261905Y-88954819D02*
X177261905Y-87954819D01*
X177261905Y-87954819D02*
X177642857Y-87954819D01*
X177642857Y-87954819D02*
X177738095Y-88002438D01*
X177738095Y-88002438D02*
X177785714Y-88050057D01*
X177785714Y-88050057D02*
X177833333Y-88145295D01*
X177833333Y-88145295D02*
X177833333Y-88288152D01*
X177833333Y-88288152D02*
X177785714Y-88383390D01*
X177785714Y-88383390D02*
X177738095Y-88431009D01*
X177738095Y-88431009D02*
X177642857Y-88478628D01*
X177642857Y-88478628D02*
X177261905Y-88478628D01*
X178166667Y-87954819D02*
X178785714Y-87954819D01*
X178785714Y-87954819D02*
X178452381Y-88335771D01*
X178452381Y-88335771D02*
X178595238Y-88335771D01*
X178595238Y-88335771D02*
X178690476Y-88383390D01*
X178690476Y-88383390D02*
X178738095Y-88431009D01*
X178738095Y-88431009D02*
X178785714Y-88526247D01*
X178785714Y-88526247D02*
X178785714Y-88764342D01*
X178785714Y-88764342D02*
X178738095Y-88859580D01*
X178738095Y-88859580D02*
X178690476Y-88907200D01*
X178690476Y-88907200D02*
X178595238Y-88954819D01*
X178595238Y-88954819D02*
X178309524Y-88954819D01*
X178309524Y-88954819D02*
X178214286Y-88907200D01*
X178214286Y-88907200D02*
X178166667Y-88859580D01*
X178607142Y-96109580D02*
X178559523Y-96157200D01*
X178559523Y-96157200D02*
X178416666Y-96204819D01*
X178416666Y-96204819D02*
X178321428Y-96204819D01*
X178321428Y-96204819D02*
X178178571Y-96157200D01*
X178178571Y-96157200D02*
X178083333Y-96061961D01*
X178083333Y-96061961D02*
X178035714Y-95966723D01*
X178035714Y-95966723D02*
X177988095Y-95776247D01*
X177988095Y-95776247D02*
X177988095Y-95633390D01*
X177988095Y-95633390D02*
X178035714Y-95442914D01*
X178035714Y-95442914D02*
X178083333Y-95347676D01*
X178083333Y-95347676D02*
X178178571Y-95252438D01*
X178178571Y-95252438D02*
X178321428Y-95204819D01*
X178321428Y-95204819D02*
X178416666Y-95204819D01*
X178416666Y-95204819D02*
X178559523Y-95252438D01*
X178559523Y-95252438D02*
X178607142Y-95300057D01*
X179559523Y-96204819D02*
X178988095Y-96204819D01*
X179273809Y-96204819D02*
X179273809Y-95204819D01*
X179273809Y-95204819D02*
X179178571Y-95347676D01*
X179178571Y-95347676D02*
X179083333Y-95442914D01*
X179083333Y-95442914D02*
X178988095Y-95490533D01*
X179892857Y-95204819D02*
X180511904Y-95204819D01*
X180511904Y-95204819D02*
X180178571Y-95585771D01*
X180178571Y-95585771D02*
X180321428Y-95585771D01*
X180321428Y-95585771D02*
X180416666Y-95633390D01*
X180416666Y-95633390D02*
X180464285Y-95681009D01*
X180464285Y-95681009D02*
X180511904Y-95776247D01*
X180511904Y-95776247D02*
X180511904Y-96014342D01*
X180511904Y-96014342D02*
X180464285Y-96109580D01*
X180464285Y-96109580D02*
X180416666Y-96157200D01*
X180416666Y-96157200D02*
X180321428Y-96204819D01*
X180321428Y-96204819D02*
X180035714Y-96204819D01*
X180035714Y-96204819D02*
X179940476Y-96157200D01*
X179940476Y-96157200D02*
X179892857Y-96109580D01*
D12*
%TO.C,U1*%
X176800000Y-81390000D02*
X176800000Y-80440000D01*
X178200000Y-81390000D02*
X176800000Y-81390000D01*
X193800000Y-81390000D02*
X195200000Y-81390000D01*
X195200000Y-81390000D02*
X195200000Y-80440000D01*
X176800000Y-62440000D02*
X176300000Y-62440000D01*
X176800000Y-61940000D01*
X176800000Y-62440000D01*
G36*
X176800000Y-62440000D02*
G01*
X176300000Y-62440000D01*
X176800000Y-61940000D01*
X176800000Y-62440000D01*
G37*
%TO.C,R7*%
X200477500Y-77245276D02*
X200477500Y-77754724D01*
X201522500Y-77245276D02*
X201522500Y-77754724D01*
%TO.C,SW1*%
X163300000Y-63000000D02*
X163300000Y-64200000D01*
X163300000Y-65800000D02*
X163300000Y-67000000D01*
X163300000Y-67000000D02*
X169700000Y-67000000D01*
X169700000Y-63000000D02*
X163300000Y-63000000D01*
X169700000Y-64200000D02*
X169700000Y-63000000D01*
X169700000Y-67000000D02*
X169700000Y-65800000D01*
%TO.C,R1*%
X202977500Y-99245276D02*
X202977500Y-99754724D01*
X204022500Y-99245276D02*
X204022500Y-99754724D01*
%TO.C,PWR1*%
X185300000Y-104800000D02*
X189700000Y-104800000D01*
X185300000Y-109200000D02*
X185300000Y-104800000D01*
X189700000Y-104800000D02*
X189700000Y-109200000D01*
X189700000Y-109200000D02*
X185300000Y-109200000D01*
%TO.C,LED+1*%
X204800000Y-104300000D02*
X209200000Y-104300000D01*
X204800000Y-108700000D02*
X204800000Y-104300000D01*
X209200000Y-104300000D02*
X209200000Y-108700000D01*
X209200000Y-108700000D02*
X204800000Y-108700000D01*
%TO.C,J1*%
X206120000Y-63120000D02*
X207500000Y-63120000D01*
X206120000Y-64500000D02*
X206120000Y-63120000D01*
X206120000Y-65770000D02*
X206120000Y-70960000D01*
X206120000Y-65770000D02*
X208880000Y-65770000D01*
X206120000Y-70960000D02*
X208880000Y-70960000D01*
X208880000Y-65770000D02*
X208880000Y-70960000D01*
%TO.C,C8*%
X170990000Y-91646267D02*
X170990000Y-91353733D01*
X172010000Y-91646267D02*
X172010000Y-91353733D01*
%TO.C,R2*%
X180754724Y-87977500D02*
X180245276Y-87977500D01*
X180754724Y-89022500D02*
X180245276Y-89022500D01*
D13*
%TO.C,U4*%
X194170000Y-89550000D02*
X194830000Y-89550000D01*
X194830000Y-92450000D02*
X194170000Y-92450000D01*
X195300000Y-90665000D02*
X195300000Y-91335000D01*
D14*
X192190000Y-89950000D02*
G75*
G02*
X191990000Y-89950000I-100000J0D01*
G01*
X191990000Y-89950000D02*
G75*
G02*
X192190000Y-89950000I100000J0D01*
G01*
D12*
%TO.C,LED_Din1*%
X204800000Y-97300000D02*
X209200000Y-97300000D01*
X204800000Y-101700000D02*
X204800000Y-97300000D01*
X209200000Y-97300000D02*
X209200000Y-101700000D01*
X209200000Y-101700000D02*
X204800000Y-101700000D01*
%TO.C,C7*%
X168990000Y-91646267D02*
X168990000Y-91353733D01*
X170010000Y-91646267D02*
X170010000Y-91353733D01*
%TO.C,C6*%
X191353733Y-84990000D02*
X191646267Y-84990000D01*
X191353733Y-86010000D02*
X191646267Y-86010000D01*
%TO.C,SPK-1*%
X161800000Y-98350000D02*
X166200000Y-98350000D01*
X161800000Y-102750000D02*
X161800000Y-98350000D01*
X166200000Y-98350000D02*
X166200000Y-102750000D01*
X166200000Y-102750000D02*
X161800000Y-102750000D01*
%TO.C,U3*%
X172080000Y-86080000D02*
X172555000Y-86080000D01*
X172080000Y-86555000D02*
X172080000Y-86080000D01*
X172080000Y-89300000D02*
X172080000Y-88825000D01*
X172555000Y-89300000D02*
X172080000Y-89300000D01*
X174825000Y-86080000D02*
X175300000Y-86080000D01*
X175300000Y-86080000D02*
X175300000Y-86555000D01*
X175300000Y-88825000D02*
X175300000Y-89300000D01*
X175300000Y-89300000D02*
X174825000Y-89300000D01*
X171570000Y-86940000D02*
X171240000Y-87180000D01*
X171240000Y-86700000D01*
X171570000Y-86940000D01*
G36*
X171570000Y-86940000D02*
G01*
X171240000Y-87180000D01*
X171240000Y-86700000D01*
X171570000Y-86940000D01*
G37*
%TO.C,R5*%
X198745276Y-91477500D02*
X199254724Y-91477500D01*
X198745276Y-92522500D02*
X199254724Y-92522500D01*
%TO.C,GND1*%
X179300000Y-104800000D02*
X183700000Y-104800000D01*
X179300000Y-109200000D02*
X179300000Y-104800000D01*
X183700000Y-104800000D02*
X183700000Y-109200000D01*
X183700000Y-109200000D02*
X179300000Y-109200000D01*
%TO.C,D1*%
X175200000Y-95235000D02*
X177660000Y-95235000D01*
X177660000Y-93765000D02*
X175200000Y-93765000D01*
X177660000Y-95235000D02*
X177660000Y-93765000D01*
%TO.C,C11*%
X198853733Y-89490000D02*
X199146267Y-89490000D01*
X198853733Y-90510000D02*
X199146267Y-90510000D01*
%TO.C,SW3*%
X202300000Y-72500000D02*
X202300000Y-73700000D01*
X202300000Y-75300000D02*
X202300000Y-76500000D01*
X202300000Y-76500000D02*
X208700000Y-76500000D01*
X208700000Y-72500000D02*
X202300000Y-72500000D01*
X208700000Y-73700000D02*
X208700000Y-72500000D01*
X208700000Y-76500000D02*
X208700000Y-75300000D01*
%TO.C,C4*%
X180646267Y-83990000D02*
X180353733Y-83990000D01*
X180646267Y-85010000D02*
X180353733Y-85010000D01*
%TO.C,R4*%
X168977500Y-87245276D02*
X168977500Y-87754724D01*
X170022500Y-87245276D02*
X170022500Y-87754724D01*
%TO.C,R6*%
X170977500Y-75657776D02*
X170977500Y-76167224D01*
X172022500Y-75657776D02*
X172022500Y-76167224D01*
%TO.C,U5*%
X171090000Y-99650000D02*
X171090000Y-103410000D01*
X171090000Y-103410000D02*
X172350000Y-103410000D01*
X177910000Y-99650000D02*
X177910000Y-103410000D01*
X177910000Y-103410000D02*
X176650000Y-103410000D01*
X178140000Y-98610000D02*
X177810000Y-98370000D01*
X178140000Y-98130000D01*
X178140000Y-98610000D01*
G36*
X178140000Y-98610000D02*
G01*
X177810000Y-98370000D01*
X178140000Y-98130000D01*
X178140000Y-98610000D01*
G37*
%TO.C,SPK+1*%
X161800000Y-92300000D02*
X166200000Y-92300000D01*
X161800000Y-96700000D02*
X161800000Y-92300000D01*
X166200000Y-92300000D02*
X166200000Y-96700000D01*
X166200000Y-96700000D02*
X161800000Y-96700000D01*
%TO.C,C5*%
X185646267Y-82490000D02*
X185353733Y-82490000D01*
X185646267Y-83510000D02*
X185353733Y-83510000D01*
%TO.C,SW2*%
X163300000Y-71000000D02*
X163300000Y-72200000D01*
X163300000Y-73800000D02*
X163300000Y-75000000D01*
X163300000Y-75000000D02*
X169700000Y-75000000D01*
X169700000Y-71000000D02*
X163300000Y-71000000D01*
X169700000Y-72200000D02*
X169700000Y-71000000D01*
X169700000Y-75000000D02*
X169700000Y-73800000D01*
%TO.C,C12*%
X191420000Y-99827677D02*
X201580000Y-99827677D01*
X191420000Y-99867677D02*
X201580000Y-99867677D01*
X191421000Y-99747677D02*
X201579000Y-99747677D01*
X191421000Y-99787677D02*
X201579000Y-99787677D01*
X191423000Y-99707677D02*
X201577000Y-99707677D01*
X191424000Y-99667677D02*
X201576000Y-99667677D01*
X191426000Y-99627677D02*
X201574000Y-99627677D01*
X191428000Y-99587677D02*
X201572000Y-99587677D01*
X191430000Y-99547677D02*
X201570000Y-99547677D01*
X191433000Y-99507677D02*
X201567000Y-99507677D01*
X191436000Y-99467677D02*
X201564000Y-99467677D01*
X191439000Y-99427677D02*
X201561000Y-99427677D01*
X191443000Y-99387677D02*
X201557000Y-99387677D01*
X191446000Y-99347677D02*
X201554000Y-99347677D01*
X191451000Y-99307677D02*
X201549000Y-99307677D01*
X191455000Y-99267677D02*
X201545000Y-99267677D01*
X191460000Y-99227677D02*
X201540000Y-99227677D01*
X191465000Y-99187677D02*
X201535000Y-99187677D01*
X191471000Y-99147677D02*
X201529000Y-99147677D01*
X191477000Y-99107677D02*
X201523000Y-99107677D01*
X191483000Y-99067677D02*
X201517000Y-99067677D01*
X191489000Y-99027677D02*
X201511000Y-99027677D01*
X191496000Y-98987677D02*
X201504000Y-98987677D01*
X191503000Y-98947677D02*
X201497000Y-98947677D01*
X191511000Y-98907677D02*
X201489000Y-98907677D01*
X191519000Y-98867677D02*
X201481000Y-98867677D01*
X191527000Y-98827677D02*
X201473000Y-98827677D01*
X191535000Y-98787677D02*
X201465000Y-98787677D01*
X191544000Y-98747677D02*
X201456000Y-98747677D01*
X191553000Y-98707677D02*
X201447000Y-98707677D01*
X191563000Y-98667677D02*
X201437000Y-98667677D01*
X191572000Y-98627677D02*
X201428000Y-98627677D01*
X191583000Y-98587677D02*
X195260000Y-98587677D01*
X191593000Y-98547677D02*
X195260000Y-98547677D01*
X191604000Y-98507677D02*
X195260000Y-98507677D01*
X191615000Y-98467677D02*
X195260000Y-98467677D01*
X191627000Y-98427677D02*
X195260000Y-98427677D01*
X191639000Y-98387677D02*
X195260000Y-98387677D01*
X191651000Y-98347677D02*
X195260000Y-98347677D01*
X191663000Y-98307677D02*
X195260000Y-98307677D01*
X191676000Y-98267677D02*
X195260000Y-98267677D01*
X191690000Y-98227677D02*
X195260000Y-98227677D01*
X191703000Y-98187677D02*
X195260000Y-98187677D01*
X191718000Y-98147677D02*
X195260000Y-98147677D01*
X191732000Y-98107677D02*
X195260000Y-98107677D01*
X191747000Y-98067677D02*
X195260000Y-98067677D01*
X191762000Y-98027677D02*
X195260000Y-98027677D01*
X191778000Y-97987677D02*
X195260000Y-97987677D01*
X191794000Y-97947677D02*
X195260000Y-97947677D01*
X191810000Y-97907677D02*
X195260000Y-97907677D01*
X191827000Y-97867677D02*
X195260000Y-97867677D01*
X191844000Y-97827677D02*
X195260000Y-97827677D01*
X191862000Y-97787677D02*
X195260000Y-97787677D01*
X191880000Y-97747677D02*
X195260000Y-97747677D01*
X191898000Y-97707677D02*
X195260000Y-97707677D01*
X191917000Y-97667677D02*
X195260000Y-97667677D01*
X191936000Y-97627677D02*
X195260000Y-97627677D01*
X191956000Y-97587677D02*
X195260000Y-97587677D01*
X191976000Y-97547677D02*
X195260000Y-97547677D01*
X191996000Y-97507677D02*
X195260000Y-97507677D01*
X192017000Y-97467677D02*
X195260000Y-97467677D01*
X192039000Y-97427677D02*
X195260000Y-97427677D01*
X192061000Y-97387677D02*
X195260000Y-97387677D01*
X192083000Y-97347677D02*
X195260000Y-97347677D01*
X192106000Y-97307677D02*
X195260000Y-97307677D01*
X192129000Y-97267677D02*
X195260000Y-97267677D01*
X192153000Y-97227677D02*
X195260000Y-97227677D01*
X192177000Y-97187677D02*
X195260000Y-97187677D01*
X192202000Y-97147677D02*
X195260000Y-97147677D01*
X192228000Y-97107677D02*
X195260000Y-97107677D01*
X192253000Y-97067677D02*
X195260000Y-97067677D01*
X192280000Y-97027677D02*
X195260000Y-97027677D01*
X192307000Y-96987677D02*
X195260000Y-96987677D01*
X192334000Y-96947677D02*
X195260000Y-96947677D01*
X192362000Y-96907677D02*
X195260000Y-96907677D01*
X192391000Y-96867677D02*
X195260000Y-96867677D01*
X192420000Y-96827677D02*
X195260000Y-96827677D01*
X192450000Y-96787677D02*
X195260000Y-96787677D01*
X192480000Y-96747677D02*
X195260000Y-96747677D01*
X192512000Y-96707677D02*
X195260000Y-96707677D01*
X192543000Y-96667677D02*
X195260000Y-96667677D01*
X192576000Y-96627677D02*
X195260000Y-96627677D01*
X192609000Y-96587677D02*
X195260000Y-96587677D01*
X192642000Y-96547677D02*
X195260000Y-96547677D01*
X192677000Y-96507677D02*
X195260000Y-96507677D01*
X192712000Y-96467677D02*
X195260000Y-96467677D01*
X192748000Y-96427677D02*
X195260000Y-96427677D01*
X192784000Y-96387677D02*
X195260000Y-96387677D01*
X192822000Y-96347677D02*
X195260000Y-96347677D01*
X192860000Y-96307677D02*
X195260000Y-96307677D01*
X192899000Y-96267677D02*
X195260000Y-96267677D01*
X192939000Y-96227677D02*
X195260000Y-96227677D01*
X192980000Y-96187677D02*
X195260000Y-96187677D01*
X193022000Y-96147677D02*
X195260000Y-96147677D01*
X193065000Y-96107677D02*
X199935000Y-96107677D01*
X193109000Y-96067677D02*
X199891000Y-96067677D01*
X193125000Y-104847323D02*
X194125000Y-104847323D01*
X193153000Y-96027677D02*
X199847000Y-96027677D01*
X193199000Y-95987677D02*
X199801000Y-95987677D01*
X193246000Y-95947677D02*
X199754000Y-95947677D01*
X193295000Y-95907677D02*
X199705000Y-95907677D01*
X193344000Y-95867677D02*
X199656000Y-95867677D01*
X193395000Y-95827677D02*
X199605000Y-95827677D01*
X193447000Y-95787677D02*
X199553000Y-95787677D01*
X193500000Y-95747677D02*
X199500000Y-95747677D01*
X193555000Y-95707677D02*
X199445000Y-95707677D01*
X193612000Y-95667677D02*
X199388000Y-95667677D01*
X193625000Y-105347323D02*
X193625000Y-104347323D01*
X193670000Y-95627677D02*
X199330000Y-95627677D01*
X193730000Y-95587677D02*
X199270000Y-95587677D01*
X193792000Y-95547677D02*
X199208000Y-95547677D01*
X193856000Y-95507677D02*
X199144000Y-95507677D01*
X193922000Y-95467677D02*
X199078000Y-95467677D01*
X193990000Y-95427677D02*
X199010000Y-95427677D01*
X194061000Y-95387677D02*
X198939000Y-95387677D01*
X194135000Y-95347677D02*
X198865000Y-95347677D01*
X194212000Y-95307677D02*
X198788000Y-95307677D01*
X194292000Y-95267677D02*
X198708000Y-95267677D01*
X194376000Y-95227677D02*
X198624000Y-95227677D01*
X194463000Y-95187677D02*
X198537000Y-95187677D01*
X194556000Y-95147677D02*
X198444000Y-95147677D01*
X194654000Y-95107677D02*
X198346000Y-95107677D01*
X194758000Y-95067677D02*
X198242000Y-95067677D01*
X194870000Y-95027677D02*
X198130000Y-95027677D01*
X194991000Y-94987677D02*
X198009000Y-94987677D01*
X195123000Y-94947677D02*
X197877000Y-94947677D01*
X195270000Y-94907677D02*
X197730000Y-94907677D01*
X195438000Y-94867677D02*
X197562000Y-94867677D01*
X195638000Y-94827677D02*
X197362000Y-94827677D01*
X195901000Y-94787677D02*
X197099000Y-94787677D01*
X197740000Y-96147677D02*
X199978000Y-96147677D01*
X197740000Y-96187677D02*
X200020000Y-96187677D01*
X197740000Y-96227677D02*
X200061000Y-96227677D01*
X197740000Y-96267677D02*
X200101000Y-96267677D01*
X197740000Y-96307677D02*
X200140000Y-96307677D01*
X197740000Y-96347677D02*
X200178000Y-96347677D01*
X197740000Y-96387677D02*
X200216000Y-96387677D01*
X197740000Y-96427677D02*
X200252000Y-96427677D01*
X197740000Y-96467677D02*
X200288000Y-96467677D01*
X197740000Y-96507677D02*
X200323000Y-96507677D01*
X197740000Y-96547677D02*
X200358000Y-96547677D01*
X197740000Y-96587677D02*
X200391000Y-96587677D01*
X197740000Y-96627677D02*
X200424000Y-96627677D01*
X197740000Y-96667677D02*
X200457000Y-96667677D01*
X197740000Y-96707677D02*
X200488000Y-96707677D01*
X197740000Y-96747677D02*
X200520000Y-96747677D01*
X197740000Y-96787677D02*
X200550000Y-96787677D01*
X197740000Y-96827677D02*
X200580000Y-96827677D01*
X197740000Y-96867677D02*
X200609000Y-96867677D01*
X197740000Y-96907677D02*
X200638000Y-96907677D01*
X197740000Y-96947677D02*
X200666000Y-96947677D01*
X197740000Y-96987677D02*
X200693000Y-96987677D01*
X197740000Y-97027677D02*
X200720000Y-97027677D01*
X197740000Y-97067677D02*
X200747000Y-97067677D01*
X197740000Y-97107677D02*
X200772000Y-97107677D01*
X197740000Y-97147677D02*
X200798000Y-97147677D01*
X197740000Y-97187677D02*
X200823000Y-97187677D01*
X197740000Y-97227677D02*
X200847000Y-97227677D01*
X197740000Y-97267677D02*
X200871000Y-97267677D01*
X197740000Y-97307677D02*
X200894000Y-97307677D01*
X197740000Y-97347677D02*
X200917000Y-97347677D01*
X197740000Y-97387677D02*
X200939000Y-97387677D01*
X197740000Y-97427677D02*
X200961000Y-97427677D01*
X197740000Y-97467677D02*
X200983000Y-97467677D01*
X197740000Y-97507677D02*
X201004000Y-97507677D01*
X197740000Y-97547677D02*
X201024000Y-97547677D01*
X197740000Y-97587677D02*
X201044000Y-97587677D01*
X197740000Y-97627677D02*
X201064000Y-97627677D01*
X197740000Y-97667677D02*
X201083000Y-97667677D01*
X197740000Y-97707677D02*
X201102000Y-97707677D01*
X197740000Y-97747677D02*
X201120000Y-97747677D01*
X197740000Y-97787677D02*
X201138000Y-97787677D01*
X197740000Y-97827677D02*
X201156000Y-97827677D01*
X197740000Y-97867677D02*
X201173000Y-97867677D01*
X197740000Y-97907677D02*
X201190000Y-97907677D01*
X197740000Y-97947677D02*
X201206000Y-97947677D01*
X197740000Y-97987677D02*
X201222000Y-97987677D01*
X197740000Y-98027677D02*
X201238000Y-98027677D01*
X197740000Y-98067677D02*
X201253000Y-98067677D01*
X197740000Y-98107677D02*
X201268000Y-98107677D01*
X197740000Y-98147677D02*
X201282000Y-98147677D01*
X197740000Y-98187677D02*
X201297000Y-98187677D01*
X197740000Y-98227677D02*
X201310000Y-98227677D01*
X197740000Y-98267677D02*
X201324000Y-98267677D01*
X197740000Y-98307677D02*
X201337000Y-98307677D01*
X197740000Y-98347677D02*
X201349000Y-98347677D01*
X197740000Y-98387677D02*
X201361000Y-98387677D01*
X197740000Y-98427677D02*
X201373000Y-98427677D01*
X197740000Y-98467677D02*
X201385000Y-98467677D01*
X197740000Y-98507677D02*
X201396000Y-98507677D01*
X197740000Y-98547677D02*
X201407000Y-98547677D01*
X197740000Y-98587677D02*
X201417000Y-98587677D01*
X201620000Y-99867677D02*
G75*
G02*
X191380000Y-99867677I-5120000J0D01*
G01*
X191380000Y-99867677D02*
G75*
G02*
X201620000Y-99867677I5120000J0D01*
G01*
%TO.C,LED-1*%
X204800000Y-90300000D02*
X209200000Y-90300000D01*
X204800000Y-94700000D02*
X204800000Y-90300000D01*
X209200000Y-90300000D02*
X209200000Y-94700000D01*
X209200000Y-94700000D02*
X204800000Y-94700000D01*
%TO.C,C1*%
X172646267Y-95490000D02*
X172353733Y-95490000D01*
X172646267Y-96510000D02*
X172353733Y-96510000D01*
%TO.C,U2*%
X183350000Y-84350000D02*
X183350000Y-84875000D01*
X183350000Y-84350000D02*
X183875000Y-84350000D01*
X183350000Y-88125000D02*
X183350000Y-88350000D01*
X183815000Y-88650000D02*
X183590000Y-88650000D01*
X187650000Y-84350000D02*
X187125000Y-84350000D01*
X187650000Y-84350000D02*
X187650000Y-84875000D01*
X187650000Y-88650000D02*
X187125000Y-88650000D01*
X187650000Y-88650000D02*
X187650000Y-88125000D01*
X183350000Y-88650000D02*
X183020000Y-88890000D01*
X183020000Y-88410000D01*
X183350000Y-88650000D01*
G36*
X183350000Y-88650000D02*
G01*
X183020000Y-88890000D01*
X183020000Y-88410000D01*
X183350000Y-88650000D01*
G37*
%TO.C,R3*%
X179667224Y-85977500D02*
X179157776Y-85977500D01*
X179667224Y-87022500D02*
X179157776Y-87022500D01*
%TO.C,C13*%
X175853733Y-95490000D02*
X176146267Y-95490000D01*
X175853733Y-96510000D02*
X176146267Y-96510000D01*
%TD*%
M02*
