G04 #@! TF.GenerationSoftware,KiCad,Pcbnew,9.0.3+dfsg-1*
G04 #@! TF.CreationDate,2026-04-08T20:55:00-07:00*
G04 #@! TF.ProjectId,NeoPixel_Saber_Core,4e656f50-6978-4656-9c5f-53616265725f,rev?*
G04 #@! TF.SameCoordinates,Original*
G04 #@! TF.FileFunction,Copper,L1,Top*
G04 #@! TF.FilePolarity,Positive*
%FSLAX46Y46*%
G04 Gerber Fmt 4.6, Leading zero omitted, Abs format (unit mm)*
G04 Created by KiCad (PCBNEW 9.0.3+dfsg-1) date 2026-04-08 20:55:00*
%MOMM*%
%LPD*%
G01*
G04 APERTURE LIST*
G04 Aperture macros list*
%AMRoundRect*
0 Rectangle with rounded corners*
0 $1 Rounding radius*
0 $2 $3 $4 $5 $6 $7 $8 $9 X,Y pos of 4 corners*
0 Add a 4 corners polygon primitive as box body*
4,1,4,$2,$3,$4,$5,$6,$7,$8,$9,$2,$3,0*
0 Add four circle primitives for the rounded corners*
1,1,$1+$1,$2,$3*
1,1,$1+$1,$4,$5*
1,1,$1+$1,$6,$7*
1,1,$1+$1,$8,$9*
0 Add four rect primitives between the rounded corners*
20,1,$1+$1,$2,$3,$4,$5,0*
20,1,$1+$1,$4,$5,$6,$7,0*
20,1,$1+$1,$6,$7,$8,$9,0*
20,1,$1+$1,$8,$9,$2,$3,0*%
G04 Aperture macros list end*
G04 #@! TA.AperFunction,SMDPad,CuDef*
%ADD10R,1.500000X0.900000*%
G04 #@! TD*
G04 #@! TA.AperFunction,SMDPad,CuDef*
%ADD11R,0.900000X1.500000*%
G04 #@! TD*
G04 #@! TA.AperFunction,HeatsinkPad*
%ADD12R,0.900000X0.900000*%
G04 #@! TD*
G04 #@! TA.AperFunction,HeatsinkPad*
%ADD13C,0.600000*%
G04 #@! TD*
G04 #@! TA.AperFunction,ComponentPad*
%ADD14C,1.600000*%
G04 #@! TD*
G04 #@! TA.AperFunction,ComponentPad*
%ADD15RoundRect,0.250000X0.550000X-0.550000X0.550000X0.550000X-0.550000X0.550000X-0.550000X-0.550000X0*%
G04 #@! TD*
G04 #@! TA.AperFunction,SMDPad,CuDef*
%ADD16R,3.302000X2.260600*%
G04 #@! TD*
G04 #@! TA.AperFunction,ComponentPad*
%ADD17O,2.000000X4.000000*%
G04 #@! TD*
G04 #@! TA.AperFunction,ComponentPad*
%ADD18O,4.000000X2.000000*%
G04 #@! TD*
G04 #@! TA.AperFunction,ComponentPad*
%ADD19O,4.500000X2.250000*%
G04 #@! TD*
G04 #@! TA.AperFunction,SMDPad,CuDef*
%ADD20RoundRect,0.250000X0.312500X0.625000X-0.312500X0.625000X-0.312500X-0.625000X0.312500X-0.625000X0*%
G04 #@! TD*
G04 #@! TA.AperFunction,SMDPad,CuDef*
%ADD21RoundRect,0.250000X-0.312500X-0.625000X0.312500X-0.625000X0.312500X0.625000X-0.312500X0.625000X0*%
G04 #@! TD*
G04 #@! TA.AperFunction,HeatsinkPad*
%ADD22C,0.500000*%
G04 #@! TD*
G04 #@! TA.AperFunction,HeatsinkPad*
%ADD23R,4.900000X2.950000*%
G04 #@! TD*
G04 #@! TA.AperFunction,SMDPad,CuDef*
%ADD24RoundRect,0.150000X-0.150000X0.737500X-0.150000X-0.737500X0.150000X-0.737500X0.150000X0.737500X0*%
G04 #@! TD*
G04 #@! TA.AperFunction,HeatsinkPad*
%ADD25R,2.700000X2.700000*%
G04 #@! TD*
G04 #@! TA.AperFunction,SMDPad,CuDef*
%ADD26RoundRect,0.075000X-0.075000X-0.337500X0.075000X-0.337500X0.075000X0.337500X-0.075000X0.337500X0*%
G04 #@! TD*
G04 #@! TA.AperFunction,SMDPad,CuDef*
%ADD27RoundRect,0.075000X-0.337500X-0.075000X0.337500X-0.075000X0.337500X0.075000X-0.337500X0.075000X0*%
G04 #@! TD*
G04 #@! TA.AperFunction,HeatsinkPad*
%ADD28R,1.230000X1.230000*%
G04 #@! TD*
G04 #@! TA.AperFunction,SMDPad,CuDef*
%ADD29RoundRect,0.062500X-0.350000X0.062500X-0.350000X-0.062500X0.350000X-0.062500X0.350000X0.062500X0*%
G04 #@! TD*
G04 #@! TA.AperFunction,SMDPad,CuDef*
%ADD30RoundRect,0.062500X-0.062500X0.350000X-0.062500X-0.350000X0.062500X-0.350000X0.062500X0.350000X0*%
G04 #@! TD*
G04 #@! TA.AperFunction,ComponentPad*
%ADD31C,2.000000*%
G04 #@! TD*
G04 #@! TA.AperFunction,SMDPad,CuDef*
%ADD32RoundRect,0.250000X-0.475000X0.337500X-0.475000X-0.337500X0.475000X-0.337500X0.475000X0.337500X0*%
G04 #@! TD*
G04 #@! TA.AperFunction,SMDPad,CuDef*
%ADD33R,4.000000X4.000000*%
G04 #@! TD*
G04 #@! TA.AperFunction,SMDPad,CuDef*
%ADD34RoundRect,0.250000X0.337500X0.475000X-0.337500X0.475000X-0.337500X-0.475000X0.337500X-0.475000X0*%
G04 #@! TD*
G04 #@! TA.AperFunction,SMDPad,CuDef*
%ADD35RoundRect,0.250000X-0.450000X0.350000X-0.450000X-0.350000X0.450000X-0.350000X0.450000X0.350000X0*%
G04 #@! TD*
G04 #@! TA.AperFunction,SMDPad,CuDef*
%ADD36RoundRect,0.250000X0.350000X0.450000X-0.350000X0.450000X-0.350000X-0.450000X0.350000X-0.450000X0*%
G04 #@! TD*
G04 #@! TA.AperFunction,SMDPad,CuDef*
%ADD37RoundRect,0.250000X0.450000X-0.350000X0.450000X0.350000X-0.450000X0.350000X-0.450000X-0.350000X0*%
G04 #@! TD*
G04 #@! TA.AperFunction,SMDPad,CuDef*
%ADD38RoundRect,0.250000X-0.337500X-0.475000X0.337500X-0.475000X0.337500X0.475000X-0.337500X0.475000X0*%
G04 #@! TD*
G04 #@! TA.AperFunction,SMDPad,CuDef*
%ADD39RoundRect,0.250000X1.100000X-0.325000X1.100000X0.325000X-1.100000X0.325000X-1.100000X-0.325000X0*%
G04 #@! TD*
G04 #@! TA.AperFunction,SMDPad,CuDef*
%ADD40RoundRect,0.250000X0.625000X-0.312500X0.625000X0.312500X-0.625000X0.312500X-0.625000X-0.312500X0*%
G04 #@! TD*
G04 #@! TA.AperFunction,SMDPad,CuDef*
%ADD41RoundRect,0.250000X-1.100000X0.325000X-1.100000X-0.325000X1.100000X-0.325000X1.100000X0.325000X0*%
G04 #@! TD*
G04 #@! TA.AperFunction,SMDPad,CuDef*
%ADD42RoundRect,0.375000X0.375000X-0.625000X0.375000X0.625000X-0.375000X0.625000X-0.375000X-0.625000X0*%
G04 #@! TD*
G04 #@! TA.AperFunction,SMDPad,CuDef*
%ADD43RoundRect,0.500000X1.400000X-0.500000X1.400000X0.500000X-1.400000X0.500000X-1.400000X-0.500000X0*%
G04 #@! TD*
G04 #@! TA.AperFunction,SMDPad,CuDef*
%ADD44RoundRect,0.150000X-0.150000X0.512500X-0.150000X-0.512500X0.150000X-0.512500X0.150000X0.512500X0*%
G04 #@! TD*
G04 #@! TA.AperFunction,SMDPad,CuDef*
%ADD45RoundRect,0.250000X-0.625000X0.312500X-0.625000X-0.312500X0.625000X-0.312500X0.625000X0.312500X0*%
G04 #@! TD*
G04 #@! TA.AperFunction,SMDPad,CuDef*
%ADD46RoundRect,0.250000X-0.350000X-0.450000X0.350000X-0.450000X0.350000X0.450000X-0.350000X0.450000X0*%
G04 #@! TD*
G04 #@! TA.AperFunction,SMDPad,CuDef*
%ADD47RoundRect,0.243750X0.243750X0.456250X-0.243750X0.456250X-0.243750X-0.456250X0.243750X-0.456250X0*%
G04 #@! TD*
G04 #@! TA.AperFunction,SMDPad,CuDef*
%ADD48R,1.250000X1.000000*%
G04 #@! TD*
G04 #@! TA.AperFunction,SMDPad,CuDef*
%ADD49RoundRect,0.250000X0.475000X-0.337500X0.475000X0.337500X-0.475000X0.337500X-0.475000X-0.337500X0*%
G04 #@! TD*
G04 #@! TA.AperFunction,SMDPad,CuDef*
%ADD50RoundRect,0.162500X-0.162500X0.617500X-0.162500X-0.617500X0.162500X-0.617500X0.162500X0.617500X0*%
G04 #@! TD*
G04 #@! TA.AperFunction,SMDPad,CuDef*
%ADD51R,0.500000X0.400000*%
G04 #@! TD*
G04 #@! TA.AperFunction,ComponentPad*
%ADD52R,1.700000X1.700000*%
G04 #@! TD*
G04 #@! TA.AperFunction,ComponentPad*
%ADD53C,1.700000*%
G04 #@! TD*
G04 #@! TA.AperFunction,SMDPad,CuDef*
%ADD54R,1.500000X2.200000*%
G04 #@! TD*
G04 #@! TA.AperFunction,SMDPad,CuDef*
%ADD55RoundRect,0.250000X0.650000X-0.325000X0.650000X0.325000X-0.650000X0.325000X-0.650000X-0.325000X0*%
G04 #@! TD*
G04 #@! TA.AperFunction,SMDPad,CuDef*
%ADD56RoundRect,0.150000X0.512500X0.150000X-0.512500X0.150000X-0.512500X-0.150000X0.512500X-0.150000X0*%
G04 #@! TD*
G04 #@! TA.AperFunction,SMDPad,CuDef*
%ADD57RoundRect,0.075000X-0.075000X0.350000X-0.075000X-0.350000X0.075000X-0.350000X0.075000X0.350000X0*%
G04 #@! TD*
G04 #@! TA.AperFunction,SMDPad,CuDef*
%ADD58RoundRect,0.075000X-0.350000X-0.075000X0.350000X-0.075000X0.350000X0.075000X-0.350000X0.075000X0*%
G04 #@! TD*
G04 #@! TA.AperFunction,SMDPad,CuDef*
%ADD59RoundRect,0.250000X-1.000000X-0.650000X1.000000X-0.650000X1.000000X0.650000X-1.000000X0.650000X0*%
G04 #@! TD*
G04 #@! TA.AperFunction,ViaPad*
%ADD60C,1.000000*%
G04 #@! TD*
G04 #@! TA.AperFunction,ViaPad*
%ADD61C,0.500000*%
G04 #@! TD*
G04 #@! TA.AperFunction,ViaPad*
%ADD62C,0.600000*%
G04 #@! TD*
G04 #@! TA.AperFunction,Conductor*
%ADD63C,0.250000*%
G04 #@! TD*
G04 #@! TA.AperFunction,Conductor*
%ADD64C,1.500000*%
G04 #@! TD*
G04 #@! TA.AperFunction,Conductor*
%ADD65C,0.500000*%
G04 #@! TD*
G04 #@! TA.AperFunction,Conductor*
%ADD66C,4.000000*%
G04 #@! TD*
G04 #@! TA.AperFunction,Conductor*
%ADD67C,0.200000*%
G04 #@! TD*
G04 #@! TA.AperFunction,Conductor*
%ADD68C,0.300000*%
G04 #@! TD*
G04 #@! TA.AperFunction,Conductor*
%ADD69C,0.400000*%
G04 #@! TD*
G04 #@! TA.AperFunction,Conductor*
%ADD70C,0.600000*%
G04 #@! TD*
G04 APERTURE END LIST*
D10*
G04 #@! TO.P,U6,1,GND*
G04 #@! TO.N,P-*
X41040000Y-35990000D03*
G04 #@! TO.P,U6,2,VDD*
G04 #@! TO.N,+3.3V*
X41040000Y-37260000D03*
G04 #@! TO.P,U6,3,EN*
G04 #@! TO.N,Net-(U6-EN)*
X41040000Y-38530000D03*
G04 #@! TO.P,U6,4,SENSOR_VP*
G04 #@! TO.N,unconnected-(U6-SENSOR_VP-Pad4)*
X41040000Y-39800000D03*
G04 #@! TO.P,U6,5,SENSOR_VN*
G04 #@! TO.N,unconnected-(U6-SENSOR_VN-Pad5)*
X41040000Y-41070000D03*
G04 #@! TO.P,U6,6,IO34*
G04 #@! TO.N,Net-(U6-IO34)*
X41040000Y-42340000D03*
G04 #@! TO.P,U6,7,IO35*
G04 #@! TO.N,Net-(U6-IO35)*
X41040000Y-43610000D03*
G04 #@! TO.P,U6,8,IO32*
G04 #@! TO.N,unconnected-(U6-IO32-Pad8)*
X41040000Y-44880000D03*
G04 #@! TO.P,U6,9,IO33*
G04 #@! TO.N,BUTTON*
X41040000Y-46150000D03*
G04 #@! TO.P,U6,10,IO25*
G04 #@! TO.N,I2S_BLCK*
X41040000Y-47420000D03*
G04 #@! TO.P,U6,11,IO26*
G04 #@! TO.N,I2S_LRC*
X41040000Y-48690000D03*
G04 #@! TO.P,U6,12,IO27*
G04 #@! TO.N,I2S_DIN*
X41040000Y-49960000D03*
G04 #@! TO.P,U6,13,IO14*
G04 #@! TO.N,unconnected-(U6-IO14-Pad13)*
X41040000Y-51230000D03*
G04 #@! TO.P,U6,14,IO12*
G04 #@! TO.N,unconnected-(U6-IO12-Pad14)*
X41040000Y-52500000D03*
D11*
G04 #@! TO.P,U6,15,GND*
G04 #@! TO.N,P-*
X44075000Y-53750000D03*
G04 #@! TO.P,U6,16,IO13*
G04 #@! TO.N,Net-(U6-IO13)*
X45345000Y-53750000D03*
G04 #@! TO.P,U6,17,NC*
G04 #@! TO.N,unconnected-(U6-NC-Pad17)*
X46615000Y-53750000D03*
G04 #@! TO.P,U6,18,NC*
G04 #@! TO.N,unconnected-(U6-NC-Pad18)*
X47885000Y-53750000D03*
G04 #@! TO.P,U6,19,NC*
G04 #@! TO.N,unconnected-(U6-NC-Pad19)*
X49155000Y-53750000D03*
G04 #@! TO.P,U6,20,NC*
G04 #@! TO.N,unconnected-(U6-NC-Pad20)*
X50425000Y-53750000D03*
G04 #@! TO.P,U6,21,NC*
G04 #@! TO.N,unconnected-(U6-NC-Pad21)*
X51695000Y-53750000D03*
G04 #@! TO.P,U6,22,NC*
G04 #@! TO.N,unconnected-(U6-NC-Pad22)*
X52965000Y-53750000D03*
G04 #@! TO.P,U6,23,IO15*
G04 #@! TO.N,unconnected-(U6-IO15-Pad23)*
X54235000Y-53750000D03*
G04 #@! TO.P,U6,24,IO2*
G04 #@! TO.N,Net-(U6-IO2)*
X55505000Y-53750000D03*
D10*
G04 #@! TO.P,U6,25,IO0*
G04 #@! TO.N,Net-(U6-IO0)*
X58540000Y-52500000D03*
G04 #@! TO.P,U6,26,IO4*
G04 #@! TO.N,Net-(U6-IO4)*
X58540000Y-51230000D03*
G04 #@! TO.P,U6,27,IO16*
G04 #@! TO.N,unconnected-(U6-IO16-Pad27)*
X58540000Y-49960000D03*
G04 #@! TO.P,U6,28,IO17*
G04 #@! TO.N,unconnected-(U6-IO17-Pad28)*
X58540000Y-48690000D03*
G04 #@! TO.P,U6,29,IO5*
G04 #@! TO.N,unconnected-(U6-IO5-Pad29)*
X58540000Y-47420000D03*
G04 #@! TO.P,U6,30,IO18*
G04 #@! TO.N,unconnected-(U6-IO18-Pad30)*
X58540000Y-46150000D03*
G04 #@! TO.P,U6,31,IO19*
G04 #@! TO.N,unconnected-(U6-IO19-Pad31)*
X58540000Y-44880000D03*
G04 #@! TO.P,U6,32,NC*
G04 #@! TO.N,unconnected-(U6-NC-Pad32)*
X58540000Y-43610000D03*
G04 #@! TO.P,U6,33,IO21*
G04 #@! TO.N,I2C_SCL*
X58540000Y-42340000D03*
G04 #@! TO.P,U6,34,RXD0/IO3*
G04 #@! TO.N,Net-(J2-Pin_3)*
X58540000Y-41070000D03*
G04 #@! TO.P,U6,35,TXD0/IO1*
G04 #@! TO.N,Net-(J2-Pin_2)*
X58540000Y-39800000D03*
G04 #@! TO.P,U6,36,IO22*
G04 #@! TO.N,I2C_SDA*
X58540000Y-38530000D03*
G04 #@! TO.P,U6,37,IO23*
G04 #@! TO.N,unconnected-(U6-IO23-Pad37)*
X58540000Y-37260000D03*
G04 #@! TO.P,U6,38,GND*
G04 #@! TO.N,P-*
X58540000Y-35990000D03*
D12*
G04 #@! TO.P,U6,39,GND*
X46890000Y-42310000D03*
D13*
X46890000Y-43010000D03*
D12*
X46890000Y-43710000D03*
D13*
X46890000Y-44410000D03*
D12*
X46890000Y-45110000D03*
D13*
X47590000Y-42310000D03*
X47590000Y-43710000D03*
X47590000Y-45110000D03*
D12*
X48290000Y-42310000D03*
D13*
X48290000Y-43010000D03*
D12*
X48290000Y-43710000D03*
D13*
X48290000Y-44410000D03*
D12*
X48290000Y-45110000D03*
D13*
X48990000Y-42310000D03*
X48990000Y-43710000D03*
X48990000Y-45110000D03*
D12*
X49690000Y-42310000D03*
D13*
X49690000Y-43010000D03*
D12*
X49690000Y-43710000D03*
D13*
X49690000Y-44410000D03*
D12*
X49690000Y-45110000D03*
G04 #@! TD*
D14*
G04 #@! TO.P,C18,2*
G04 #@! TO.N,P-*
X51000000Y-92750000D03*
D15*
G04 #@! TO.P,C18,1*
G04 #@! TO.N,+5V*
X51000000Y-96250000D03*
G04 #@! TD*
D16*
G04 #@! TO.P,D3,1*
G04 #@! TO.N,Net-(U1-SW)*
X56100000Y-131858000D03*
G04 #@! TO.P,D3,2*
G04 #@! TO.N,P-*
X56100000Y-125000000D03*
G04 #@! TD*
G04 #@! TO.P,D4,2*
G04 #@! TO.N,+12VDC*
X43700000Y-165471000D03*
G04 #@! TO.P,D4,1*
G04 #@! TO.N,V_REG_IN*
X43700000Y-172329000D03*
G04 #@! TD*
G04 #@! TO.P,D5,2*
G04 #@! TO.N,P+*
X51250000Y-165471000D03*
G04 #@! TO.P,D5,1*
G04 #@! TO.N,V_REG_IN*
X51250000Y-172329000D03*
G04 #@! TD*
D17*
G04 #@! TO.P,J1,S2,SHIELD*
G04 #@! TO.N,P-*
X42000000Y-183000000D03*
G04 #@! TO.P,J1,S1,SHIELD*
X51000000Y-183000000D03*
D18*
G04 #@! TO.P,J1,2*
X46500000Y-182000000D03*
D19*
G04 #@! TO.P,J1,1*
G04 #@! TO.N,+12VDC*
X46500000Y-176000000D03*
G04 #@! TD*
D20*
G04 #@! TO.P,R16,2*
G04 #@! TO.N,V_REG_IN*
X41112500Y-136310000D03*
G04 #@! TO.P,R16,1*
G04 #@! TO.N,Net-(U1-EN)*
X44037500Y-136310000D03*
G04 #@! TD*
D21*
G04 #@! TO.P,R17,2*
G04 #@! TO.N,P-*
X44000000Y-138810000D03*
G04 #@! TO.P,R17,1*
G04 #@! TO.N,Net-(U1-RT{slash}CLK)*
X41075000Y-138810000D03*
G04 #@! TD*
D22*
G04 #@! TO.P,U1,9,GND*
G04 #@! TO.N,P-*
X47065000Y-139712500D03*
X48365000Y-139712500D03*
X49665000Y-139712500D03*
D23*
X48365000Y-139062500D03*
D22*
X47065000Y-138412500D03*
X48365000Y-138412500D03*
X49665000Y-138412500D03*
D24*
G04 #@! TO.P,U1,8,SW*
G04 #@! TO.N,Net-(U1-SW)*
X50270000Y-141625000D03*
G04 #@! TO.P,U1,7,GND*
G04 #@! TO.N,P-*
X49000000Y-141625000D03*
G04 #@! TO.P,U1,6,COMP*
G04 #@! TO.N,Net-(U1-COMP)*
X47730000Y-141625000D03*
G04 #@! TO.P,U1,5,FB*
G04 #@! TO.N,Net-(U1-FB)*
X46460000Y-141625000D03*
G04 #@! TO.P,U1,4,RT/CLK*
G04 #@! TO.N,Net-(U1-RT{slash}CLK)*
X46460000Y-136500000D03*
G04 #@! TO.P,U1,3,EN*
G04 #@! TO.N,Net-(U1-EN)*
X47730000Y-136500000D03*
G04 #@! TO.P,U1,2,VIN*
G04 #@! TO.N,V_REG_IN*
X49000000Y-136500000D03*
G04 #@! TO.P,U1,1,BOOT*
G04 #@! TO.N,Net-(U1-BOOT)*
X50270000Y-136500000D03*
G04 #@! TD*
D25*
G04 #@! TO.P,U4,17,EXP*
G04 #@! TO.N,P-*
X47975000Y-150825000D03*
D26*
G04 #@! TO.P,U4,16,VIN*
G04 #@! TO.N,+12VDC*
X47000000Y-148862500D03*
G04 #@! TO.P,U4,15,~{CHRG}*
G04 #@! TO.N,Net-(D2-K)*
X47650000Y-148862500D03*
G04 #@! TO.P,U4,14,~{STDBY}*
G04 #@! TO.N,Net-(D1-K)*
X48300000Y-148862500D03*
G04 #@! TO.P,U4,13,CS*
G04 #@! TO.N,Net-(U4-CS)*
X48950000Y-148862500D03*
D27*
G04 #@! TO.P,U4,12,RTRICK*
G04 #@! TO.N,P-*
X49937500Y-149850000D03*
G04 #@! TO.P,U4,11,TS*
X49937500Y-150500000D03*
G04 #@! TO.P,U4,10,VREG*
G04 #@! TO.N,Net-(U4-CS)*
X49937500Y-151150000D03*
G04 #@! TO.P,U4,9,BAT*
G04 #@! TO.N,P+*
X49937500Y-151800000D03*
D26*
G04 #@! TO.P,U4,8,VS*
G04 #@! TO.N,Net-(U4-VS)*
X48950000Y-152787500D03*
G04 #@! TO.P,U4,7,GND*
G04 #@! TO.N,P-*
X48300000Y-152787500D03*
G04 #@! TO.P,U4,6,PWR_ON-*
G04 #@! TO.N,+12VDC*
X47650000Y-152787500D03*
G04 #@! TO.P,U4,5,VIN*
X47000000Y-152787500D03*
D27*
G04 #@! TO.P,U4,4,VIN*
X46012500Y-151800000D03*
G04 #@! TO.P,U4,3,LX*
G04 #@! TO.N,Net-(D6-K)*
X46012500Y-151150000D03*
G04 #@! TO.P,U4,2,LX*
X46012500Y-150500000D03*
G04 #@! TO.P,U4,1,VIN*
G04 #@! TO.N,+12VDC*
X46012500Y-149850000D03*
G04 #@! TD*
D28*
G04 #@! TO.P,U8,17,PAD*
G04 #@! TO.N,P-*
X54750000Y-100937500D03*
D29*
G04 #@! TO.P,U8,16,BCLK*
G04 #@! TO.N,I2S_BLCK*
X56187500Y-100187500D03*
G04 #@! TO.P,U8,15,GND*
G04 #@! TO.N,P-*
X56187500Y-100687500D03*
G04 #@! TO.P,U8,14,LRCLK*
G04 #@! TO.N,I2S_LRC*
X56187500Y-101187500D03*
G04 #@! TO.P,U8,13,NC*
G04 #@! TO.N,unconnected-(U8-NC-Pad13)*
X56187500Y-101687500D03*
D30*
G04 #@! TO.P,U8,12,NC*
G04 #@! TO.N,unconnected-(U8-NC-Pad12)*
X55500000Y-102375000D03*
G04 #@! TO.P,U8,11,GND*
G04 #@! TO.N,P-*
X55000000Y-102375000D03*
G04 #@! TO.P,U8,10,OUTN*
G04 #@! TO.N,Net-(SPK-1-Pin_1)*
X54500000Y-102375000D03*
G04 #@! TO.P,U8,9,OUTP*
G04 #@! TO.N,Net-(SPK+1-Pin_1)*
X54000000Y-102375000D03*
D29*
G04 #@! TO.P,U8,8,VDD*
G04 #@! TO.N,+5V*
X53312500Y-101687500D03*
G04 #@! TO.P,U8,7,VDD*
X53312500Y-101187500D03*
G04 #@! TO.P,U8,6,NC*
G04 #@! TO.N,unconnected-(U8-NC-Pad6)*
X53312500Y-100687500D03*
G04 #@! TO.P,U8,5,NC*
G04 #@! TO.N,unconnected-(U8-NC-Pad5)*
X53312500Y-100187500D03*
D30*
G04 #@! TO.P,U8,4,~{SD_MODE}*
G04 #@! TO.N,unconnected-(U8-~{SD_MODE}-Pad4)*
X54000000Y-99500000D03*
G04 #@! TO.P,U8,3,GND*
G04 #@! TO.N,P-*
X54500000Y-99500000D03*
G04 #@! TO.P,U8,2,GAIN_SLOT*
X55000000Y-99500000D03*
G04 #@! TO.P,U8,1,DIN*
G04 #@! TO.N,I2S_DIN*
X55500000Y-99500000D03*
G04 #@! TD*
D31*
G04 #@! TO.P,SW2,1,1*
G04 #@! TO.N,P-*
X46500000Y-116500000D03*
X46500000Y-110000000D03*
G04 #@! TO.P,SW2,2,2*
G04 #@! TO.N,BUTTON*
X51000000Y-116500000D03*
X51000000Y-110000000D03*
G04 #@! TD*
D32*
G04 #@! TO.P,C6,1*
G04 #@! TO.N,Net-(U3-VC)*
X41000000Y-159925000D03*
G04 #@! TO.P,C6,2*
G04 #@! TO.N,Net-(B-1-Pin_1)*
X41000000Y-162000000D03*
G04 #@! TD*
D33*
G04 #@! TO.P,+5V1,1,Pin_1*
G04 #@! TO.N,+5V*
X48000000Y-102000000D03*
G04 #@! TD*
D34*
G04 #@! TO.P,C15,1*
G04 #@! TO.N,Net-(U6-IO35)*
X57037500Y-159037500D03*
G04 #@! TO.P,C15,2*
G04 #@! TO.N,P-*
X54962500Y-159037500D03*
G04 #@! TD*
D33*
G04 #@! TO.P,B-1,1,Pin_1*
G04 #@! TO.N,Net-(B-1-Pin_1)*
X57500000Y-185500000D03*
G04 #@! TD*
D35*
G04 #@! TO.P,R8,1*
G04 #@! TO.N,P+*
X59000000Y-159000000D03*
G04 #@! TO.P,R8,2*
G04 #@! TO.N,Net-(U6-IO35)*
X59000000Y-161000000D03*
G04 #@! TD*
D36*
G04 #@! TO.P,R9,1*
G04 #@! TO.N,Net-(U6-IO35)*
X57000000Y-157000000D03*
G04 #@! TO.P,R9,2*
G04 #@! TO.N,P-*
X55000000Y-157000000D03*
G04 #@! TD*
D37*
G04 #@! TO.P,R5,1*
G04 #@! TO.N,P+*
X49425000Y-162075000D03*
G04 #@! TO.P,R5,2*
G04 #@! TO.N,Net-(U3-VDD)*
X49425000Y-160075000D03*
G04 #@! TD*
D38*
G04 #@! TO.P,C4,1*
G04 #@! TO.N,Net-(C4-Pad1)*
X49425000Y-145000000D03*
G04 #@! TO.P,C4,2*
G04 #@! TO.N,P-*
X51500000Y-145000000D03*
G04 #@! TD*
D33*
G04 #@! TO.P,P-_1,1,Pin_1*
G04 #@! TO.N,P-*
X43000000Y-93500000D03*
G04 #@! TD*
D39*
G04 #@! TO.P,C2,1*
G04 #@! TO.N,V_REG_IN*
X57500000Y-142975000D03*
G04 #@! TO.P,C2,2*
G04 #@! TO.N,P-*
X57500000Y-140025000D03*
G04 #@! TD*
D40*
G04 #@! TO.P,R19,1*
G04 #@! TO.N,Net-(U1-FB)*
X53500000Y-138000000D03*
G04 #@! TO.P,R19,2*
G04 #@! TO.N,P-*
X53500000Y-135075000D03*
G04 #@! TD*
D35*
G04 #@! TO.P,R7,1*
G04 #@! TO.N,+3.3V*
X44000000Y-70700000D03*
G04 #@! TO.P,R7,2*
G04 #@! TO.N,Net-(C14-Pad1)*
X44000000Y-72700000D03*
G04 #@! TD*
D41*
G04 #@! TO.P,C11,1*
G04 #@! TO.N,+5V*
X50500000Y-128600000D03*
G04 #@! TO.P,C11,2*
G04 #@! TO.N,P-*
X50500000Y-131550000D03*
G04 #@! TD*
D42*
G04 #@! TO.P,U5,1,GND*
G04 #@! TO.N,P-*
X41400000Y-68500000D03*
G04 #@! TO.P,U5,2,VO*
G04 #@! TO.N,+3.3V*
X43700000Y-68500000D03*
D43*
X43700000Y-62200000D03*
D42*
G04 #@! TO.P,U5,3,VI*
G04 #@! TO.N,+5V*
X46000000Y-68500000D03*
G04 #@! TD*
D44*
G04 #@! TO.P,U3,1,OD*
G04 #@! TO.N,Net-(U3-OD)*
X46900000Y-160225000D03*
G04 #@! TO.P,U3,2,OC*
G04 #@! TO.N,Net-(U3-OC)*
X45950000Y-160225000D03*
G04 #@! TO.P,U3,3,CS*
G04 #@! TO.N,Net-(U3-CS)*
X45000000Y-160225000D03*
G04 #@! TO.P,U3,4,VC*
G04 #@! TO.N,Net-(U3-VC)*
X45000000Y-162500000D03*
G04 #@! TO.P,U3,5,VDD*
G04 #@! TO.N,Net-(U3-VDD)*
X45950000Y-162500000D03*
G04 #@! TO.P,U3,6,GND*
G04 #@! TO.N,P-*
X46900000Y-162500000D03*
G04 #@! TD*
D45*
G04 #@! TO.P,R18,1*
G04 #@! TO.N,+5V*
X56000000Y-135000000D03*
G04 #@! TO.P,R18,2*
G04 #@! TO.N,Net-(U1-FB)*
X56000000Y-137925000D03*
G04 #@! TD*
D33*
G04 #@! TO.P,DOUT1,1,Pin_1*
G04 #@! TO.N,DATA_OUT*
X43000000Y-81000000D03*
G04 #@! TD*
D46*
G04 #@! TO.P,R2,1*
G04 #@! TO.N,+12VDC*
X41000000Y-147000000D03*
G04 #@! TO.P,R2,2*
G04 #@! TO.N,Net-(D2-A)*
X43000000Y-147000000D03*
G04 #@! TD*
D33*
G04 #@! TO.P,SPK-1,1,Pin_1*
G04 #@! TO.N,Net-(SPK-1-Pin_1)*
X56000000Y-109462500D03*
G04 #@! TD*
D47*
G04 #@! TO.P,D2,1,K*
G04 #@! TO.N,Net-(D2-K)*
X46875000Y-146500000D03*
G04 #@! TO.P,D2,2,A*
G04 #@! TO.N,Net-(D2-A)*
X45000000Y-146500000D03*
G04 #@! TD*
D20*
G04 #@! TO.P,R15,1*
G04 #@! TO.N,Net-(U1-COMP)*
X44000000Y-141500000D03*
G04 #@! TO.P,R15,2*
G04 #@! TO.N,Net-(C4-Pad1)*
X41075000Y-141500000D03*
G04 #@! TD*
D35*
G04 #@! TO.P,R13,1*
G04 #@! TO.N,+3.3V*
X49500000Y-84540000D03*
G04 #@! TO.P,R13,2*
G04 #@! TO.N,Net-(U6-IO0)*
X49500000Y-86540000D03*
G04 #@! TD*
D46*
G04 #@! TO.P,R1,1*
G04 #@! TO.N,+12VDC*
X41000000Y-145000000D03*
G04 #@! TO.P,R1,2*
G04 #@! TO.N,Net-(D1-A)*
X43000000Y-145000000D03*
G04 #@! TD*
D33*
G04 #@! TO.P,+5V_1,1,Pin_1*
G04 #@! TO.N,+5V*
X42500000Y-102000000D03*
G04 #@! TD*
D48*
G04 #@! TO.P,SW3,1,1*
G04 #@! TO.N,Net-(U6-IO0)*
X51385000Y-85540000D03*
G04 #@! TO.P,SW3,2,2*
G04 #@! TO.N,P-*
X59135000Y-85540000D03*
G04 #@! TD*
D46*
G04 #@! TO.P,R6,1*
G04 #@! TO.N,+3.3V*
X41000000Y-56500000D03*
G04 #@! TO.P,R6,2*
G04 #@! TO.N,Net-(U6-EN)*
X43000000Y-56500000D03*
G04 #@! TD*
D49*
G04 #@! TO.P,C20,1*
G04 #@! TO.N,+3.3V*
X56000000Y-63075000D03*
G04 #@! TO.P,C20,2*
G04 #@! TO.N,P-*
X56000000Y-61000000D03*
G04 #@! TD*
D50*
G04 #@! TO.P,U2,1*
G04 #@! TO.N,Net-(B-1-Pin_1)*
X46900000Y-155000000D03*
G04 #@! TO.P,U2,2*
G04 #@! TO.N,unconnected-(U2-Pad2)*
X45950000Y-155000000D03*
G04 #@! TO.P,U2,3*
G04 #@! TO.N,P-*
X45000000Y-155000000D03*
G04 #@! TO.P,U2,4*
G04 #@! TO.N,Net-(U3-OC)*
X45000000Y-157700000D03*
G04 #@! TO.P,U2,5*
G04 #@! TO.N,unconnected-(U2-Pad2)_1*
X45950000Y-157700000D03*
G04 #@! TO.P,U2,6*
G04 #@! TO.N,Net-(U3-OD)*
X46900000Y-157700000D03*
G04 #@! TD*
D51*
G04 #@! TO.P,D7,1*
G04 #@! TO.N,Net-(D7-Pad1)*
X43200000Y-60200000D03*
G04 #@! TO.P,D7,2*
G04 #@! TO.N,P-*
X42000000Y-60200000D03*
G04 #@! TO.P,D7,3*
G04 #@! TO.N,Net-(D7-Pad3)*
X43200000Y-59500000D03*
G04 #@! TO.P,D7,4*
G04 #@! TO.N,P-*
X42000000Y-59500000D03*
G04 #@! TD*
D52*
G04 #@! TO.P,J2,1,Pin_1*
G04 #@! TO.N,P-*
X49500000Y-76500000D03*
D53*
G04 #@! TO.P,J2,2,Pin_2*
G04 #@! TO.N,Net-(J2-Pin_2)*
X49500000Y-79040000D03*
G04 #@! TO.P,J2,3,Pin_3*
G04 #@! TO.N,Net-(J2-Pin_3)*
X49500000Y-81580000D03*
G04 #@! TD*
D45*
G04 #@! TO.P,R20,1*
G04 #@! TO.N,Net-(U4-VS)*
X50000000Y-155000000D03*
G04 #@! TO.P,R20,2*
G04 #@! TO.N,P+*
X50000000Y-157925000D03*
G04 #@! TD*
D54*
G04 #@! TO.P,L1,1,1*
G04 #@! TO.N,Net-(U1-SW)*
X47500000Y-128500000D03*
G04 #@! TO.P,L1,2,2*
G04 #@! TO.N,+5V*
X41100000Y-128500000D03*
G04 #@! TD*
D55*
G04 #@! TO.P,C3,1*
G04 #@! TO.N,+12VDC*
X43500000Y-152375000D03*
G04 #@! TO.P,C3,2*
G04 #@! TO.N,P-*
X43500000Y-149425000D03*
G04 #@! TD*
D35*
G04 #@! TO.P,R21,1*
G04 #@! TO.N,Net-(U6-IO4)*
X51500000Y-56000000D03*
G04 #@! TO.P,R21,2*
G04 #@! TO.N,Net-(D7-Pad3)*
X51500000Y-58000000D03*
G04 #@! TD*
D46*
G04 #@! TO.P,R10,1*
G04 #@! TO.N,+3.3V*
X54500000Y-56700000D03*
G04 #@! TO.P,R10,2*
G04 #@! TO.N,I2C_SCL*
X56500000Y-56700000D03*
G04 #@! TD*
D38*
G04 #@! TO.P,C7,1*
G04 #@! TO.N,Net-(U4-CS)*
X49425000Y-147000000D03*
G04 #@! TO.P,C7,2*
G04 #@! TO.N,P-*
X51500000Y-147000000D03*
G04 #@! TD*
D46*
G04 #@! TO.P,R11,1*
G04 #@! TO.N,+3.3V*
X49500000Y-107000000D03*
G04 #@! TO.P,R11,2*
G04 #@! TO.N,BUTTON*
X51500000Y-107000000D03*
G04 #@! TD*
D38*
G04 #@! TO.P,C13,1*
G04 #@! TO.N,Net-(U6-EN)*
X45000000Y-56500000D03*
G04 #@! TO.P,C13,2*
G04 #@! TO.N,P-*
X47075000Y-56500000D03*
G04 #@! TD*
D46*
G04 #@! TO.P,R4,1*
G04 #@! TO.N,P-*
X41000000Y-158000000D03*
G04 #@! TO.P,R4,2*
G04 #@! TO.N,Net-(U3-CS)*
X43000000Y-158000000D03*
G04 #@! TD*
D56*
G04 #@! TO.P,U7,1,VCCA*
G04 #@! TO.N,+3.3V*
X45975000Y-76600000D03*
G04 #@! TO.P,U7,2,GND*
G04 #@! TO.N,P-*
X45975000Y-75650000D03*
G04 #@! TO.P,U7,3,A*
G04 #@! TO.N,Net-(U6-IO13)*
X45975000Y-74700000D03*
G04 #@! TO.P,U7,4,B*
G04 #@! TO.N,Net-(U7-B)*
X43700000Y-74700000D03*
G04 #@! TO.P,U7,5,DIR*
G04 #@! TO.N,+3.3V*
X43700000Y-75650000D03*
G04 #@! TO.P,U7,6,VCCB*
G04 #@! TO.N,+5V*
X43700000Y-76600000D03*
G04 #@! TD*
D35*
G04 #@! TO.P,R14,1*
G04 #@! TO.N,Net-(U7-B)*
X41200000Y-74700000D03*
G04 #@! TO.P,R14,2*
G04 #@! TO.N,DATA_OUT*
X41200000Y-76700000D03*
G04 #@! TD*
G04 #@! TO.P,R22,1*
G04 #@! TO.N,Net-(U6-IO2)*
X49400000Y-56000000D03*
G04 #@! TO.P,R22,2*
G04 #@! TO.N,Net-(D7-Pad1)*
X49400000Y-58000000D03*
G04 #@! TD*
D46*
G04 #@! TO.P,R12,1*
G04 #@! TO.N,+3.3V*
X55500000Y-59000000D03*
G04 #@! TO.P,R12,2*
G04 #@! TO.N,I2C_SDA*
X57500000Y-59000000D03*
G04 #@! TD*
D49*
G04 #@! TO.P,C19,1*
G04 #@! TO.N,Net-(U9-CPOUT)*
X53500000Y-63075000D03*
G04 #@! TO.P,C19,2*
G04 #@! TO.N,P-*
X53500000Y-61000000D03*
G04 #@! TD*
D33*
G04 #@! TO.P,P-1,1,Pin_1*
G04 #@! TO.N,P-*
X42950000Y-86550000D03*
G04 #@! TD*
D38*
G04 #@! TO.P,C16,1*
G04 #@! TO.N,+5V*
X51425000Y-104500000D03*
G04 #@! TO.P,C16,2*
G04 #@! TO.N,P-*
X53500000Y-104500000D03*
G04 #@! TD*
D57*
G04 #@! TO.P,U9,1,CLKIN*
G04 #@! TO.N,P-*
X55000000Y-65800000D03*
G04 #@! TO.P,U9,2,NC*
G04 #@! TO.N,unconnected-(U9-NC-Pad2)*
X54500000Y-65800000D03*
G04 #@! TO.P,U9,3,NC*
G04 #@! TO.N,unconnected-(U9-NC-Pad3)*
X54000000Y-65800000D03*
G04 #@! TO.P,U9,4,NC*
G04 #@! TO.N,unconnected-(U9-NC-Pad4)*
X53500000Y-65800000D03*
G04 #@! TO.P,U9,5,NC*
G04 #@! TO.N,unconnected-(U9-NC-Pad5)*
X53000000Y-65800000D03*
G04 #@! TO.P,U9,6,AUX_DA*
G04 #@! TO.N,unconnected-(U9-AUX_DA-Pad6)*
X52500000Y-65800000D03*
D58*
G04 #@! TO.P,U9,7,AUX_CL*
G04 #@! TO.N,unconnected-(U9-AUX_CL-Pad7)*
X51800000Y-66500000D03*
G04 #@! TO.P,U9,8,VLOGIC*
G04 #@! TO.N,+3.3V*
X51800000Y-67000000D03*
G04 #@! TO.P,U9,9,AD0*
G04 #@! TO.N,P-*
X51800000Y-67500000D03*
G04 #@! TO.P,U9,10,REGOUT*
G04 #@! TO.N,Net-(U9-REGOUT)*
X51800000Y-68000000D03*
G04 #@! TO.P,U9,11,FSYNC*
G04 #@! TO.N,P-*
X51800000Y-68500000D03*
G04 #@! TO.P,U9,12,INT*
G04 #@! TO.N,Net-(U6-IO34)*
X51800000Y-69000000D03*
D57*
G04 #@! TO.P,U9,13,VDD*
G04 #@! TO.N,+3.3V*
X52500000Y-69700000D03*
G04 #@! TO.P,U9,14,NC*
G04 #@! TO.N,unconnected-(U9-NC-Pad14)*
X53000000Y-69700000D03*
G04 #@! TO.P,U9,15,NC*
G04 #@! TO.N,unconnected-(U9-NC-Pad15)*
X53500000Y-69700000D03*
G04 #@! TO.P,U9,16,NC*
G04 #@! TO.N,unconnected-(U9-NC-Pad16)*
X54000000Y-69700000D03*
G04 #@! TO.P,U9,17,NC*
G04 #@! TO.N,unconnected-(U9-NC-Pad17)*
X54500000Y-69700000D03*
G04 #@! TO.P,U9,18,GND*
G04 #@! TO.N,P-*
X55000000Y-69700000D03*
D58*
G04 #@! TO.P,U9,19,RESV*
G04 #@! TO.N,unconnected-(U9-RESV-Pad19)*
X55700000Y-69000000D03*
G04 #@! TO.P,U9,20,CPOUT*
G04 #@! TO.N,Net-(U9-CPOUT)*
X55700000Y-68500000D03*
G04 #@! TO.P,U9,21,RESV*
G04 #@! TO.N,unconnected-(U9-RESV-Pad21)*
X55700000Y-68000000D03*
G04 #@! TO.P,U9,22,RESV*
G04 #@! TO.N,unconnected-(U9-RESV-Pad22)*
X55700000Y-67500000D03*
G04 #@! TO.P,U9,23,SCL*
G04 #@! TO.N,I2C_SCL*
X55700000Y-67000000D03*
G04 #@! TO.P,U9,24,SDA*
G04 #@! TO.N,I2C_SDA*
X55700000Y-66500000D03*
G04 #@! TD*
D49*
G04 #@! TO.P,C17,1*
G04 #@! TO.N,Net-(U9-REGOUT)*
X50500000Y-63075000D03*
G04 #@! TO.P,C17,2*
G04 #@! TO.N,P-*
X50500000Y-61000000D03*
G04 #@! TD*
D33*
G04 #@! TO.P,SPK+1,1,Pin_1*
G04 #@! TO.N,Net-(SPK+1-Pin_1)*
X56000000Y-114912500D03*
G04 #@! TD*
G04 #@! TO.P,BM1,1,Pin_1*
G04 #@! TO.N,Net-(BM1-Pin_1)*
X57500000Y-180500000D03*
G04 #@! TD*
G04 #@! TO.P,B+1,1,Pin_1*
G04 #@! TO.N,P+*
X57500000Y-175500000D03*
G04 #@! TD*
D47*
G04 #@! TO.P,D1,1,K*
G04 #@! TO.N,Net-(D1-K)*
X46875000Y-144300000D03*
G04 #@! TO.P,D1,2,A*
G04 #@! TO.N,Net-(D1-A)*
X45000000Y-144300000D03*
G04 #@! TD*
D49*
G04 #@! TO.P,C5,1*
G04 #@! TO.N,+12VDC*
X41000000Y-152500000D03*
G04 #@! TO.P,C5,2*
G04 #@! TO.N,P-*
X41000000Y-150425000D03*
G04 #@! TD*
D54*
G04 #@! TO.P,L2,1,1*
G04 #@! TO.N,Net-(D6-K)*
X52600000Y-152000000D03*
G04 #@! TO.P,L2,2,2*
G04 #@! TO.N,P+*
X59000000Y-152000000D03*
G04 #@! TD*
D39*
G04 #@! TO.P,C1,1*
G04 #@! TO.N,V_REG_IN*
X54025000Y-143000000D03*
G04 #@! TO.P,C1,2*
G04 #@! TO.N,P-*
X54025000Y-140050000D03*
G04 #@! TD*
D32*
G04 #@! TO.P,C9,1*
G04 #@! TO.N,Net-(U3-VDD)*
X51425000Y-160000000D03*
G04 #@! TO.P,C9,2*
G04 #@! TO.N,P-*
X51425000Y-162075000D03*
G04 #@! TD*
D39*
G04 #@! TO.P,C10,1*
G04 #@! TO.N,+5V*
X50500000Y-126550000D03*
G04 #@! TO.P,C10,2*
G04 #@! TO.N,P-*
X50500000Y-123600000D03*
G04 #@! TD*
D59*
G04 #@! TO.P,D6,1,K*
G04 #@! TO.N,Net-(D6-K)*
X54000000Y-146000000D03*
G04 #@! TO.P,D6,2,A*
G04 #@! TO.N,P-*
X58000000Y-146000000D03*
G04 #@! TD*
D49*
G04 #@! TO.P,C14,1*
G04 #@! TO.N,Net-(C14-Pad1)*
X41500000Y-72700000D03*
G04 #@! TO.P,C14,2*
G04 #@! TO.N,P-*
X41500000Y-70625000D03*
G04 #@! TD*
D48*
G04 #@! TO.P,SW1,1,1*
G04 #@! TO.N,P-*
X58500000Y-72540000D03*
G04 #@! TO.P,SW1,2,2*
G04 #@! TO.N,Net-(U6-EN)*
X50750000Y-72540000D03*
G04 #@! TD*
D32*
G04 #@! TO.P,C12,1*
G04 #@! TO.N,+5V*
X46400000Y-70662500D03*
G04 #@! TO.P,C12,2*
G04 #@! TO.N,P-*
X46400000Y-72737500D03*
G04 #@! TD*
D38*
G04 #@! TO.P,C8,1*
G04 #@! TO.N,Net-(U1-SW)*
X47925000Y-133500000D03*
G04 #@! TO.P,C8,2*
G04 #@! TO.N,Net-(U1-BOOT)*
X50000000Y-133500000D03*
G04 #@! TD*
D37*
G04 #@! TO.P,R3,1*
G04 #@! TO.N,Net-(BM1-Pin_1)*
X43000000Y-162000000D03*
G04 #@! TO.P,R3,2*
G04 #@! TO.N,Net-(U3-VC)*
X43000000Y-160000000D03*
G04 #@! TD*
D60*
G04 #@! TO.N,+12VDC*
X40990000Y-174500000D03*
D61*
G04 #@! TO.N,P-*
X50000000Y-69000000D03*
D60*
X46000000Y-87000000D03*
X55000000Y-105000000D03*
X42500000Y-96500000D03*
D61*
X47075000Y-57500000D03*
D60*
X47000000Y-88000000D03*
D61*
X53465000Y-162000000D03*
X54500000Y-98500000D03*
D60*
X53000000Y-122000000D03*
D61*
X48000000Y-162500000D03*
X49100000Y-149800000D03*
D60*
X46000000Y-85000000D03*
X44500000Y-96500000D03*
X45500000Y-108000000D03*
D61*
X47450000Y-151500000D03*
X50000000Y-67000000D03*
D62*
X49000000Y-143000000D03*
D61*
X42000000Y-58750000D03*
D60*
X44500000Y-97500000D03*
D61*
X48000000Y-151500000D03*
D60*
X43500000Y-97500000D03*
D61*
X48550000Y-149800000D03*
X55500000Y-70500000D03*
X53500000Y-60000000D03*
D60*
X42500000Y-97500000D03*
X46000000Y-86000000D03*
D61*
X52000000Y-148500000D03*
D60*
X44000000Y-55000000D03*
X46000000Y-88000000D03*
D61*
X57500000Y-80500000D03*
X57000000Y-148000000D03*
X49100000Y-151500000D03*
X48500000Y-154000000D03*
X48550000Y-151500000D03*
D60*
X47000000Y-86000000D03*
D62*
X42500000Y-36000000D03*
D61*
X48000000Y-149800000D03*
X46900000Y-149800000D03*
X42500000Y-156500000D03*
D60*
X43500000Y-96500000D03*
X47000000Y-85000000D03*
X41500000Y-96500000D03*
D62*
X41500000Y-66000000D03*
D61*
X44500000Y-155000000D03*
D60*
X47000000Y-87000000D03*
D62*
X57000000Y-36000000D03*
X51500000Y-143500000D03*
D60*
X41500000Y-97500000D03*
D61*
X41000000Y-149000000D03*
X53500000Y-159000000D03*
X47000000Y-75500000D03*
X47450000Y-149800000D03*
D62*
X45262500Y-72737500D03*
D61*
X46900000Y-151500000D03*
X56000000Y-65000000D03*
D60*
X55500000Y-75500000D03*
D61*
G04 #@! TO.N,Net-(BM1-Pin_1)*
X43500000Y-163000000D03*
X54500000Y-174500000D03*
D62*
G04 #@! TO.N,Net-(C4-Pad1)*
X48500000Y-144000000D03*
X41000000Y-143500000D03*
D61*
G04 #@! TO.N,Net-(U1-SW)*
X54000000Y-131500000D03*
D60*
X46500000Y-133500000D03*
D61*
X51500000Y-134000000D03*
D62*
G04 #@! TO.N,Net-(U6-EN)*
X44000000Y-58500000D03*
D61*
X44000000Y-52000000D03*
D62*
X49500000Y-71500000D03*
D61*
X44000000Y-38451661D03*
D62*
G04 #@! TO.N,Net-(U6-IO35)*
X57500000Y-155500000D03*
D61*
X51500000Y-52500000D03*
D62*
G04 #@! TO.N,+3.3V*
X49500000Y-83500000D03*
D61*
X47500000Y-61000000D03*
D62*
X46500000Y-78000000D03*
X47000000Y-81000000D03*
X46500000Y-83500000D03*
X42500000Y-37500000D03*
X47500000Y-107000000D03*
D61*
X48000000Y-70500000D03*
D62*
X41000000Y-55000000D03*
G04 #@! TO.N,V_REG_IN*
X48370000Y-135000000D03*
X54000000Y-141500000D03*
D60*
X55535571Y-144464429D03*
X55500000Y-172000000D03*
D62*
X42000000Y-135000000D03*
D61*
G04 #@! TO.N,Net-(D6-K)*
X53000000Y-150500000D03*
X45000000Y-151500000D03*
G04 #@! TO.N,Net-(U4-CS)*
X49500000Y-148500000D03*
X51000000Y-149500000D03*
G04 #@! TO.N,Net-(U9-CPOUT)*
X54500000Y-64000000D03*
X56500000Y-68500000D03*
D62*
G04 #@! TO.N,Net-(J2-Pin_2)*
X55500000Y-79000000D03*
D61*
X54500000Y-52000000D03*
G04 #@! TO.N,Net-(J2-Pin_3)*
X55500000Y-51000000D03*
D62*
X55000000Y-81580000D03*
G04 #@! TO.N,Net-(U6-IO0)*
X56000000Y-85500000D03*
X59000000Y-54500000D03*
G04 #@! TO.N,Net-(SPK+1-Pin_1)*
X53000000Y-106500000D03*
X53000000Y-103000000D03*
G04 #@! TO.N,Net-(U1-RT{slash}CLK)*
X45000000Y-137500000D03*
X42000000Y-138500000D03*
G04 #@! TO.N,Net-(U1-FB)*
X45500000Y-141500000D03*
X52500000Y-139000000D03*
G04 #@! TO.N,Net-(U6-IO13)*
X46000000Y-55500000D03*
X47000000Y-74500000D03*
D61*
X46000000Y-59200000D03*
D62*
X46000000Y-57500000D03*
G04 #@! TO.N,Net-(U6-IO34)*
X53500000Y-59000000D03*
X52500000Y-52500000D03*
D60*
G04 #@! TO.N,+12VDC*
X41250000Y-165500000D03*
X41250000Y-154000000D03*
D61*
G04 #@! TO.N,BUTTON*
X50500000Y-52500000D03*
D62*
X52500000Y-113500000D03*
G04 #@! TO.N,I2C_SDA*
X58000000Y-58000000D03*
X53500000Y-51000000D03*
G04 #@! TO.N,I2S_BLCK*
X57000000Y-96000000D03*
D61*
X49500000Y-52500000D03*
G04 #@! TO.N,I2S_DIN*
X47500000Y-52500000D03*
D62*
X55500000Y-97500000D03*
G04 #@! TO.N,I2S_LRC*
X57000000Y-101187500D03*
D61*
X48500000Y-52500000D03*
D60*
G04 #@! TO.N,P+*
X58000000Y-165000000D03*
X58750000Y-157000000D03*
D61*
G04 #@! TO.N,Net-(B-1-Pin_1)*
X44000000Y-154000000D03*
X42500000Y-163500000D03*
X53500000Y-175000000D03*
D62*
G04 #@! TO.N,Net-(U6-IO4)*
X58000000Y-57000000D03*
X58000000Y-54500000D03*
G04 #@! TD*
D63*
G04 #@! TO.N,Net-(U6-IO2)*
X49400000Y-56000000D02*
X49400000Y-55100000D01*
X49400000Y-55100000D02*
X49500000Y-55000000D01*
X55505000Y-55000000D02*
X55505000Y-53795000D01*
X49500000Y-55000000D02*
X55505000Y-55000000D01*
X55505000Y-53795000D02*
X55470000Y-53760000D01*
G04 #@! TO.N,I2C_SDA*
X53500000Y-51000000D02*
X53500000Y-39080000D01*
X53500000Y-39080000D02*
X54040000Y-38540000D01*
D64*
G04 #@! TO.N,P+*
X58000000Y-165000000D02*
X50779000Y-165000000D01*
X50779000Y-165000000D02*
X49425000Y-163646000D01*
X49425000Y-162075000D02*
X49425000Y-163646000D01*
X49425000Y-163646000D02*
X51250000Y-165471000D01*
D65*
G04 #@! TO.N,Net-(B-1-Pin_1)*
X42500000Y-163500000D02*
X42000000Y-163500000D01*
X42000000Y-163500000D02*
X41500000Y-163000000D01*
X41500000Y-163000000D02*
X41500000Y-162500000D01*
X41500000Y-162500000D02*
X41000000Y-162000000D01*
D64*
G04 #@! TO.N,V_REG_IN*
X55500000Y-172000000D02*
X53000000Y-172000000D01*
X53000000Y-172000000D02*
X52500000Y-172500000D01*
X52500000Y-172500000D02*
X51500000Y-172500000D01*
X51500000Y-172500000D02*
X51300000Y-172300000D01*
X51300000Y-172300000D02*
X44500000Y-172300000D01*
G04 #@! TO.N,+12VDC*
X40990000Y-174490000D02*
X40990000Y-174500000D01*
X42500000Y-176000000D02*
X40990000Y-174490000D01*
D65*
G04 #@! TO.N,Net-(U1-SW)*
X54000000Y-131500000D02*
X55642000Y-131500000D01*
X55642000Y-131500000D02*
X56000000Y-131858000D01*
D64*
G04 #@! TO.N,P-*
X54600000Y-123600000D02*
X56000000Y-125000000D01*
D65*
G04 #@! TO.N,+5V*
X53312500Y-101687500D02*
X53312500Y-101312500D01*
X48000000Y-72262500D02*
X48000000Y-77849000D01*
X52351000Y-130451000D02*
X52351000Y-131919498D01*
X50500000Y-102000000D02*
X51425000Y-102925000D01*
X51425000Y-102925000D02*
X51425000Y-104500000D01*
X46000000Y-70262500D02*
X46400000Y-70662500D01*
X46100000Y-79000000D02*
X46849000Y-79000000D01*
X48000000Y-94000000D02*
X51000000Y-97000000D01*
X52351000Y-131919498D02*
X55431502Y-135000000D01*
X50500000Y-128600000D02*
X52351000Y-130451000D01*
D66*
X42500000Y-127000000D02*
X42500000Y-128500000D01*
D65*
X47849000Y-78000000D02*
X48000000Y-78000000D01*
X51425000Y-104500000D02*
X51425000Y-103200000D01*
X46849000Y-79000000D02*
X47849000Y-78000000D01*
X51425000Y-103200000D02*
X53312500Y-101312500D01*
X50500000Y-126550000D02*
X42950000Y-126550000D01*
D66*
X48000000Y-102000000D02*
X48000000Y-100000000D01*
D65*
X48000000Y-78000000D02*
X48000000Y-94000000D01*
X43700000Y-76600000D02*
X46100000Y-79000000D01*
X50500000Y-102000000D02*
X48000000Y-102000000D01*
X46000000Y-68500000D02*
X46000000Y-70262500D01*
X50500000Y-126550000D02*
X50500000Y-128600000D01*
D66*
X48000000Y-100000000D02*
X51000000Y-97000000D01*
X42500000Y-102000000D02*
X42500000Y-127000000D01*
D65*
X46400000Y-70662500D02*
X48000000Y-72262500D01*
X55431502Y-135000000D02*
X56000000Y-135000000D01*
D66*
X48000000Y-102000000D02*
X42500000Y-102000000D01*
D65*
X42950000Y-126550000D02*
X42500000Y-127000000D01*
X48000000Y-77849000D02*
X47849000Y-78000000D01*
D63*
G04 #@! TO.N,DATA_OUT*
X43000000Y-78500000D02*
X43000000Y-81000000D01*
X41200000Y-76700000D02*
X43000000Y-78500000D01*
G04 #@! TO.N,P-*
X41500000Y-96500000D02*
X41500000Y-97500000D01*
D65*
X52000000Y-61000000D02*
X53500000Y-61000000D01*
D63*
X51500000Y-147000000D02*
X51500000Y-148000000D01*
X48300000Y-152787500D02*
X48300000Y-153800000D01*
D65*
X53500000Y-135075000D02*
X53500000Y-135500000D01*
D63*
X43500000Y-96500000D02*
X44500000Y-96500000D01*
D65*
X41400000Y-68500000D02*
X41400000Y-66100000D01*
D67*
X57540000Y-72540000D02*
X55500000Y-70500000D01*
D64*
X53000000Y-122000000D02*
X53000000Y-123600000D01*
D67*
X51425000Y-162075000D02*
X53390000Y-162075000D01*
D65*
X52000000Y-142075000D02*
X54025000Y-140050000D01*
D67*
X47675000Y-150825000D02*
X47000000Y-151500000D01*
X53390000Y-162075000D02*
X53465000Y-162000000D01*
D65*
X54025000Y-140025000D02*
X54000000Y-140000000D01*
D63*
X44500000Y-97500000D02*
X43500000Y-97500000D01*
D65*
X41000000Y-150425000D02*
X41000000Y-149000000D01*
X44000000Y-138810000D02*
X48112500Y-138810000D01*
D64*
X43000000Y-182000000D02*
X46500000Y-182000000D01*
D67*
X49000000Y-141625000D02*
X49000000Y-143000000D01*
D65*
X53500000Y-135075000D02*
X53500000Y-134550000D01*
D64*
X46500000Y-182000000D02*
X50000000Y-182000000D01*
D67*
X46850000Y-75650000D02*
X47000000Y-75500000D01*
D65*
X44040000Y-53760000D02*
X44040000Y-54960000D01*
X59000000Y-85675000D02*
X59135000Y-85540000D01*
D64*
X50500000Y-123600000D02*
X53000000Y-123600000D01*
D65*
X41500000Y-68600000D02*
X41400000Y-68500000D01*
X58500000Y-36000000D02*
X57000000Y-36000000D01*
D67*
X56187500Y-100687500D02*
X55000000Y-100687500D01*
X51500000Y-147000000D02*
X51500000Y-147500000D01*
D68*
X49937500Y-149850000D02*
X49937500Y-149062500D01*
D65*
X51000000Y-89500000D02*
X58250000Y-89500000D01*
D67*
X49000000Y-139697500D02*
X48365000Y-139062500D01*
D65*
X47975000Y-150825000D02*
X47975000Y-150525000D01*
D67*
X54880000Y-158880000D02*
X54842500Y-158917500D01*
D65*
X47975000Y-150525000D02*
X48650000Y-149850000D01*
D63*
X42950000Y-86550000D02*
X44400000Y-88000000D01*
D65*
X42000000Y-149425000D02*
X41000000Y-150425000D01*
D67*
X49937500Y-150500000D02*
X48300000Y-150500000D01*
X58500000Y-72540000D02*
X57540000Y-72540000D01*
X53500000Y-159000000D02*
X54925000Y-159000000D01*
D65*
X51500000Y-143500000D02*
X52000000Y-143000000D01*
D67*
X50500000Y-67500000D02*
X50000000Y-67000000D01*
D65*
X41500000Y-70625000D02*
X41500000Y-68600000D01*
X57750000Y-80500000D02*
X57500000Y-80500000D01*
D64*
X53000000Y-123600000D02*
X54600000Y-123600000D01*
D67*
X45000000Y-155000000D02*
X44500000Y-155000000D01*
D63*
X48300000Y-153800000D02*
X48500000Y-154000000D01*
D65*
X40900000Y-69000000D02*
X41400000Y-68500000D01*
D68*
X49937500Y-149062500D02*
X51500000Y-147500000D01*
D65*
X45500000Y-72737500D02*
X46400000Y-72737500D01*
X53500000Y-135500000D02*
X54500000Y-136500000D01*
D67*
X55000000Y-159000000D02*
X54962500Y-159037500D01*
D65*
X51500000Y-143500000D02*
X51500000Y-145000000D01*
X44040000Y-54960000D02*
X44000000Y-55000000D01*
D67*
X45500000Y-72737500D02*
X45500000Y-73000000D01*
D65*
X46500000Y-110000000D02*
X46500000Y-109000000D01*
D67*
X55000000Y-157000000D02*
X55000000Y-159000000D01*
D65*
X58000000Y-136500000D02*
X58000000Y-139525000D01*
D67*
X42000000Y-156500000D02*
X41000000Y-157500000D01*
X51800000Y-67500000D02*
X50500000Y-67500000D01*
D63*
X48300000Y-151150000D02*
X47975000Y-150825000D01*
D67*
X55500000Y-70500000D02*
X55500000Y-70200000D01*
D63*
X41500000Y-95000000D02*
X41500000Y-96500000D01*
D65*
X45262500Y-72737500D02*
X45500000Y-72737500D01*
D67*
X48000000Y-162500000D02*
X48000000Y-162175000D01*
D65*
X43500000Y-149425000D02*
X42000000Y-149425000D01*
D67*
X52000000Y-64500000D02*
X52000000Y-61000000D01*
D65*
X41400000Y-66100000D02*
X41500000Y-66000000D01*
X51000000Y-92750000D02*
X51000000Y-89500000D01*
D68*
X49937500Y-149850000D02*
X49937500Y-150500000D01*
D63*
X43000000Y-93500000D02*
X41500000Y-95000000D01*
X42500000Y-96500000D02*
X43500000Y-96500000D01*
D67*
X46900000Y-162500000D02*
X48000000Y-162500000D01*
D63*
X43500000Y-97500000D02*
X42500000Y-97500000D01*
D65*
X57500000Y-80500000D02*
X57500000Y-77500000D01*
X53500000Y-134550000D02*
X50500000Y-131550000D01*
X59135000Y-81885000D02*
X57750000Y-80500000D01*
D67*
X47075000Y-57500000D02*
X47075000Y-56500000D01*
X50500000Y-68500000D02*
X50000000Y-69000000D01*
D63*
X51500000Y-148000000D02*
X52000000Y-148500000D01*
D67*
X42000000Y-58750000D02*
X42000000Y-59500000D01*
D65*
X57500000Y-77500000D02*
X55500000Y-75500000D01*
D67*
X42000000Y-156500000D02*
X42500000Y-156500000D01*
D65*
X58000000Y-147000000D02*
X57000000Y-148000000D01*
X41000000Y-36000000D02*
X42500000Y-36000000D01*
X53500000Y-104500000D02*
X54500000Y-104500000D01*
X52000000Y-143000000D02*
X52000000Y-142075000D01*
X51500000Y-147000000D02*
X51500000Y-145000000D01*
D67*
X55000000Y-102375000D02*
X55000000Y-101187500D01*
D65*
X51000000Y-61000000D02*
X52000000Y-61000000D01*
D63*
X48300000Y-152787500D02*
X48300000Y-151150000D01*
D67*
X55000000Y-101187500D02*
X54750000Y-100937500D01*
X49000000Y-141625000D02*
X49000000Y-139697500D01*
X41000000Y-157500000D02*
X41000000Y-158000000D01*
X54500000Y-100687500D02*
X54750000Y-100937500D01*
D63*
X41500000Y-96500000D02*
X42500000Y-96500000D01*
D65*
X58000000Y-139525000D02*
X57500000Y-140025000D01*
X56000000Y-61000000D02*
X53500000Y-61000000D01*
X59135000Y-85540000D02*
X59135000Y-81885000D01*
D63*
X44500000Y-96500000D02*
X44500000Y-97500000D01*
D67*
X55000000Y-100687500D02*
X55000000Y-99500000D01*
D65*
X53192500Y-104537500D02*
X53037500Y-104537500D01*
D67*
X55000000Y-99500000D02*
X54500000Y-99500000D01*
X47975000Y-150825000D02*
X47675000Y-150825000D01*
X42000000Y-59500000D02*
X42000000Y-60200000D01*
D65*
X58000000Y-146000000D02*
X58000000Y-147000000D01*
D67*
X50000000Y-67000000D02*
X50000000Y-64500000D01*
D64*
X42000000Y-183000000D02*
X43000000Y-182000000D01*
D67*
X54500000Y-99500000D02*
X54500000Y-100687500D01*
D65*
X54025000Y-140025000D02*
X57500000Y-140025000D01*
D67*
X50500000Y-68500000D02*
X51800000Y-68500000D01*
X55000000Y-65800000D02*
X55200000Y-65800000D01*
D65*
X58250000Y-89500000D02*
X59000000Y-88750000D01*
D67*
X45975000Y-75650000D02*
X46850000Y-75650000D01*
D65*
X53500000Y-61000000D02*
X53500000Y-60000000D01*
D67*
X55200000Y-65800000D02*
X56000000Y-65000000D01*
X54925000Y-159000000D02*
X54962500Y-159037500D01*
X55500000Y-70200000D02*
X55000000Y-69700000D01*
D65*
X54500000Y-136500000D02*
X58000000Y-136500000D01*
D63*
X44400000Y-88000000D02*
X46000000Y-88000000D01*
D65*
X54025000Y-140050000D02*
X54025000Y-140025000D01*
D67*
X50000000Y-64500000D02*
X52000000Y-64500000D01*
D65*
X54500000Y-104500000D02*
X55000000Y-105000000D01*
X59000000Y-88750000D02*
X59000000Y-85675000D01*
D67*
X54750000Y-100937500D02*
X55000000Y-100687500D01*
D65*
X46500000Y-109000000D02*
X45500000Y-108000000D01*
D67*
X54500000Y-99500000D02*
X54500000Y-98500000D01*
D65*
X48112500Y-138810000D02*
X48365000Y-139062500D01*
D63*
X42950000Y-86550000D02*
X44000000Y-85500000D01*
D65*
X48650000Y-149850000D02*
X49937500Y-149850000D01*
D67*
X48300000Y-150500000D02*
X47975000Y-150825000D01*
D64*
X50000000Y-182000000D02*
X51000000Y-183000000D01*
D65*
G04 #@! TO.N,Net-(BM1-Pin_1)*
X56500000Y-179500000D02*
X57500000Y-180500000D01*
X54500000Y-174500000D02*
X54500000Y-179500000D01*
X54500000Y-179500000D02*
X56500000Y-179500000D01*
X43000000Y-162000000D02*
X43000000Y-162500000D01*
X43000000Y-162500000D02*
X43500000Y-163000000D01*
D63*
G04 #@! TO.N,Net-(C4-Pad1)*
X49425000Y-144425000D02*
X49425000Y-145000000D01*
X49425000Y-145000000D02*
X49425000Y-144925000D01*
X41000000Y-141575000D02*
X41075000Y-141500000D01*
X49425000Y-144925000D02*
X48500000Y-144000000D01*
X41000000Y-143500000D02*
X41000000Y-141575000D01*
G04 #@! TO.N,Net-(U3-VC)*
X41000000Y-159925000D02*
X42925000Y-159925000D01*
X42925000Y-159925000D02*
X43000000Y-160000000D01*
X45000000Y-161962500D02*
X45000000Y-162087500D01*
X45000000Y-162000000D02*
X45000000Y-162087500D01*
X43000000Y-160000000D02*
X45000000Y-162000000D01*
G04 #@! TO.N,Net-(U1-BOOT)*
X50270000Y-133770000D02*
X50270000Y-136500000D01*
D65*
X50500000Y-136270000D02*
X50270000Y-136500000D01*
D63*
X50000000Y-133500000D02*
X50270000Y-133770000D01*
X50000000Y-133500000D02*
X50500000Y-134000000D01*
D64*
G04 #@! TO.N,Net-(U1-SW)*
X47925000Y-128925000D02*
X47925000Y-132500000D01*
D63*
X51500000Y-141000000D02*
X51500000Y-134000000D01*
X50875000Y-141625000D02*
X51500000Y-141000000D01*
X46500000Y-133500000D02*
X47500000Y-132500000D01*
X47500000Y-132500000D02*
X47925000Y-132500000D01*
D65*
X55700000Y-131500000D02*
X56500000Y-132300000D01*
D64*
X47925000Y-132500000D02*
X47925000Y-133500000D01*
D63*
X50270000Y-141625000D02*
X50875000Y-141625000D01*
D64*
X47500000Y-128500000D02*
X47925000Y-128925000D01*
D67*
G04 #@! TO.N,Net-(U3-VDD)*
X45950000Y-162087500D02*
X46000000Y-162137500D01*
X48500000Y-161000000D02*
X47500000Y-161000000D01*
X49425000Y-160075000D02*
X48500000Y-161000000D01*
X47500000Y-161000000D02*
X47012500Y-161487500D01*
X49500000Y-160000000D02*
X49425000Y-160075000D01*
X46012500Y-161487500D02*
X45950000Y-161550000D01*
X47012500Y-161487500D02*
X46012500Y-161487500D01*
X51425000Y-160000000D02*
X49500000Y-160000000D01*
X45950000Y-161550000D02*
X45950000Y-162500000D01*
X46000000Y-162037500D02*
X45950000Y-162087500D01*
G04 #@! TO.N,Net-(U6-EN)*
X49500000Y-71500000D02*
X49710000Y-71500000D01*
D63*
X45000000Y-57500000D02*
X45000000Y-56500000D01*
D67*
X43000000Y-56500000D02*
X43000000Y-53000000D01*
X44000000Y-38451661D02*
X43951661Y-38500000D01*
X43000000Y-56500000D02*
X45000000Y-56500000D01*
X43000000Y-53000000D02*
X44000000Y-52000000D01*
D63*
X44000000Y-58500000D02*
X45000000Y-57500000D01*
D67*
X41040000Y-38500000D02*
X41000000Y-38540000D01*
X49710000Y-71500000D02*
X50750000Y-72540000D01*
X43951661Y-38500000D02*
X41040000Y-38500000D01*
D65*
G04 #@! TO.N,Net-(C14-Pad1)*
X41500000Y-72700000D02*
X44000000Y-72700000D01*
D63*
G04 #@! TO.N,Net-(U6-IO35)*
X45000000Y-47000000D02*
X51500000Y-47000000D01*
D67*
X59000000Y-161000000D02*
X56880000Y-158880000D01*
D63*
X41380000Y-43620000D02*
X41500000Y-43500000D01*
X57500000Y-156500000D02*
X57000000Y-157000000D01*
X41500000Y-43500000D02*
X45000000Y-43500000D01*
X45000000Y-43500000D02*
X45000000Y-47000000D01*
D67*
X57037500Y-159037500D02*
X57000000Y-159000000D01*
X57000000Y-159000000D02*
X57000000Y-157000000D01*
D63*
X57500000Y-155500000D02*
X57500000Y-156500000D01*
X51500000Y-47000000D02*
X51500000Y-52500000D01*
X41000000Y-43620000D02*
X41380000Y-43620000D01*
D67*
G04 #@! TO.N,+3.3V*
X50532843Y-66032843D02*
X51000000Y-66500000D01*
X56500000Y-60000000D02*
X57500000Y-60000000D01*
D65*
X41000000Y-37270000D02*
X42270000Y-37270000D01*
D67*
X46300000Y-62200000D02*
X43700000Y-62200000D01*
X47500000Y-61000000D02*
X46300000Y-62200000D01*
D63*
X48000000Y-61000000D02*
X47500000Y-61000000D01*
X45975000Y-76600000D02*
X45515882Y-76600000D01*
D67*
X55075000Y-65000000D02*
X50532843Y-65000000D01*
D65*
X41000000Y-62200000D02*
X43700000Y-62200000D01*
D67*
X56000000Y-63075000D02*
X57500000Y-63075000D01*
D63*
X45975000Y-76600000D02*
X45975000Y-77475000D01*
D65*
X42270000Y-37270000D02*
X42500000Y-37500000D01*
X43700000Y-68500000D02*
X43700000Y-62200000D01*
D63*
X49500000Y-107000000D02*
X47500000Y-107000000D01*
D65*
X41000000Y-56500000D02*
X41000000Y-62200000D01*
D63*
X48500000Y-60500000D02*
X48000000Y-61000000D01*
X52000000Y-59500000D02*
X48500000Y-59500000D01*
X45515882Y-76600000D02*
X44565882Y-75650000D01*
D67*
X48000000Y-70500000D02*
X51700000Y-70500000D01*
X51800000Y-67000000D02*
X51000000Y-67000000D01*
X51700000Y-70500000D02*
X52500000Y-69700000D01*
X55500000Y-59000000D02*
X55000000Y-59500000D01*
D65*
X43700000Y-68500000D02*
X43700000Y-70400000D01*
D67*
X51000000Y-66500000D02*
X51000000Y-67000000D01*
X55075000Y-64925000D02*
X56000000Y-64000000D01*
D63*
X46500000Y-81500000D02*
X46500000Y-83500000D01*
X44565882Y-75650000D02*
X43700000Y-75650000D01*
D67*
X55075000Y-65000000D02*
X55075000Y-64925000D01*
D63*
X55000000Y-56500000D02*
X52000000Y-59500000D01*
D67*
X56000000Y-64000000D02*
X56000000Y-63075000D01*
D63*
X47000000Y-81000000D02*
X46500000Y-81500000D01*
D67*
X54500000Y-58000000D02*
X54500000Y-56700000D01*
X55500000Y-59000000D02*
X56500000Y-60000000D01*
X55500000Y-59000000D02*
X54500000Y-58000000D01*
X57500000Y-60000000D02*
X57500000Y-63075000D01*
D65*
X41000000Y-56500000D02*
X41000000Y-55000000D01*
D67*
X50532843Y-65000000D02*
X50532843Y-66032843D01*
D63*
X49500000Y-83500000D02*
X49500000Y-84540000D01*
X45975000Y-77475000D02*
X46500000Y-78000000D01*
X48500000Y-59500000D02*
X48500000Y-60500000D01*
G04 #@! TO.N,Net-(D1-A)*
X43000000Y-145000000D02*
X44500000Y-145000000D01*
X44500000Y-145000000D02*
X45000000Y-144500000D01*
G04 #@! TO.N,Net-(D1-K)*
X46875000Y-144500000D02*
X48300000Y-145925000D01*
X48300000Y-145925000D02*
X48300000Y-148862500D01*
G04 #@! TO.N,Net-(D2-K)*
X47650000Y-147150000D02*
X47650000Y-148862500D01*
X47000000Y-146500000D02*
X47650000Y-147150000D01*
G04 #@! TO.N,Net-(D2-A)*
X43000000Y-147000000D02*
X44625000Y-147000000D01*
X44625000Y-147000000D02*
X45125000Y-146500000D01*
D65*
G04 #@! TO.N,V_REG_IN*
X57500000Y-142975000D02*
X54050000Y-142975000D01*
X54025000Y-143000000D02*
X54071142Y-143000000D01*
X54071142Y-143000000D02*
X55535571Y-144464429D01*
X42000000Y-135000000D02*
X41000000Y-136000000D01*
X41000000Y-136000000D02*
X41000000Y-136197500D01*
X48435000Y-134935000D02*
X49000000Y-135500000D01*
X57500000Y-142975000D02*
X57025000Y-142975000D01*
X41000000Y-136197500D02*
X41112500Y-136310000D01*
X54050000Y-142975000D02*
X54025000Y-143000000D01*
X48370000Y-135000000D02*
X48435000Y-134935000D01*
X57025000Y-142975000D02*
X55535571Y-144464429D01*
X54000000Y-141500000D02*
X54000000Y-142975000D01*
X54000000Y-142975000D02*
X54025000Y-143000000D01*
X49000000Y-135500000D02*
X49000000Y-136500000D01*
D63*
G04 #@! TO.N,Net-(D6-K)*
X53000000Y-151600000D02*
X52600000Y-152000000D01*
D65*
X54000000Y-150600000D02*
X52600000Y-152000000D01*
D63*
X46012500Y-150500000D02*
X45500000Y-150500000D01*
X45500000Y-150500000D02*
X45000000Y-151000000D01*
X45000000Y-151000000D02*
X45000000Y-151500000D01*
X53000000Y-150500000D02*
X53000000Y-151600000D01*
D65*
X54000000Y-146000000D02*
X54000000Y-150600000D01*
D63*
X46012500Y-151150000D02*
X46012500Y-150500000D01*
G04 #@! TO.N,Net-(U4-CS)*
X49937500Y-151150000D02*
X50850000Y-151150000D01*
X48950000Y-147475000D02*
X49425000Y-147000000D01*
X50850000Y-151150000D02*
X51000000Y-151000000D01*
X51000000Y-151000000D02*
X51000000Y-149500000D01*
X49650000Y-147225000D02*
X49425000Y-147000000D01*
X48950000Y-148862500D02*
X48950000Y-147475000D01*
X49312500Y-148500000D02*
X48950000Y-148862500D01*
X49500000Y-148500000D02*
X49312500Y-148500000D01*
D67*
G04 #@! TO.N,Net-(U9-REGOUT)*
X48000000Y-63570065D02*
X48000000Y-68000000D01*
X48000000Y-68000000D02*
X51800000Y-68000000D01*
X51000000Y-63075000D02*
X48495065Y-63075000D01*
X48495065Y-63075000D02*
X48000000Y-63570065D01*
G04 #@! TO.N,Net-(U9-CPOUT)*
X53500000Y-63075000D02*
X53575000Y-63075000D01*
X56500000Y-68500000D02*
X55700000Y-68500000D01*
X53575000Y-63075000D02*
X54500000Y-64000000D01*
D63*
G04 #@! TO.N,Net-(J2-Pin_2)*
X54500000Y-39810000D02*
X58500000Y-39810000D01*
X54500000Y-52000000D02*
X54500000Y-39810000D01*
X55460000Y-79040000D02*
X55500000Y-79000000D01*
X49500000Y-79040000D02*
X55460000Y-79040000D01*
G04 #@! TO.N,Net-(J2-Pin_3)*
X55500000Y-41080000D02*
X55500000Y-51000000D01*
X55000000Y-81580000D02*
X49500000Y-81580000D01*
X58500000Y-41080000D02*
X55500000Y-41080000D01*
G04 #@! TO.N,Net-(U3-CS)*
X43187500Y-158000000D02*
X45000000Y-159812500D01*
X43000000Y-158000000D02*
X43187500Y-158000000D01*
G04 #@! TO.N,Net-(U6-IO0)*
X55960000Y-85540000D02*
X56000000Y-85500000D01*
X50385000Y-86540000D02*
X51385000Y-85540000D01*
X51385000Y-85540000D02*
X55960000Y-85540000D01*
X58500000Y-52510000D02*
X59000000Y-53010000D01*
X49500000Y-86540000D02*
X50385000Y-86540000D01*
X59000000Y-53010000D02*
X59000000Y-54500000D01*
G04 #@! TO.N,Net-(SPK+1-Pin_1)*
X53000000Y-111912500D02*
X56000000Y-114912500D01*
X53625000Y-102375000D02*
X53000000Y-103000000D01*
X53000000Y-106500000D02*
X53000000Y-111912500D01*
X54000000Y-102375000D02*
X53625000Y-102375000D01*
G04 #@! TO.N,Net-(SPK-1-Pin_1)*
X57000000Y-108462500D02*
X56000000Y-109462500D01*
X54500000Y-102375000D02*
X54500000Y-103000001D01*
X54999999Y-103500000D02*
X57000000Y-103500000D01*
X57000000Y-103500000D02*
X57000000Y-108462500D01*
X54500000Y-103000001D02*
X54999999Y-103500000D01*
G04 #@! TO.N,Net-(U7-B)*
X43700000Y-74700000D02*
X41200000Y-74700000D01*
G04 #@! TO.N,Net-(U1-COMP)*
X45500000Y-143000000D02*
X44000000Y-141500000D01*
X47730000Y-141625000D02*
X47500000Y-141855000D01*
X47500000Y-141855000D02*
X47500000Y-143000000D01*
X47500000Y-143000000D02*
X45500000Y-143000000D01*
D65*
G04 #@! TO.N,Net-(U1-EN)*
X46500000Y-134500000D02*
X47730000Y-135730000D01*
X47730000Y-135730000D02*
X47730000Y-136500000D01*
X44000000Y-134500000D02*
X46500000Y-134500000D01*
X44037500Y-136310000D02*
X44037500Y-134537500D01*
X44037500Y-134537500D02*
X44000000Y-134500000D01*
D63*
G04 #@! TO.N,Net-(U1-RT{slash}CLK)*
X41385000Y-138500000D02*
X41075000Y-138810000D01*
X42000000Y-138500000D02*
X41385000Y-138500000D01*
X46460000Y-136500000D02*
X45460000Y-137500000D01*
X45460000Y-137500000D02*
X45000000Y-137500000D01*
G04 #@! TO.N,Net-(U1-FB)*
X45625000Y-141625000D02*
X45500000Y-141500000D01*
X52500000Y-139000000D02*
X53500000Y-138000000D01*
D65*
X53575000Y-137925000D02*
X53500000Y-138000000D01*
D63*
X46460000Y-141625000D02*
X45625000Y-141625000D01*
D65*
X56000000Y-137925000D02*
X53575000Y-137925000D01*
D63*
G04 #@! TO.N,Net-(U4-VS)*
X50500000Y-153500000D02*
X50500000Y-154500000D01*
X48950000Y-152787500D02*
X49662500Y-153500000D01*
X49662500Y-153500000D02*
X50500000Y-153500000D01*
X50500000Y-154500000D02*
X50000000Y-155000000D01*
G04 #@! TO.N,Net-(U3-OC)*
X45000000Y-158500000D02*
X45950000Y-159450000D01*
X45950000Y-159450000D02*
X45950000Y-160225000D01*
X45000000Y-157700000D02*
X45000000Y-158500000D01*
G04 #@! TO.N,Net-(U3-OD)*
X46900000Y-159812500D02*
X46900000Y-157700000D01*
G04 #@! TO.N,Net-(U6-IO13)*
X46800000Y-74700000D02*
X47000000Y-74500000D01*
X45975000Y-74700000D02*
X45975000Y-74475000D01*
X45975000Y-74700000D02*
X46800000Y-74700000D01*
X46000000Y-59200000D02*
X46000000Y-57500000D01*
X45310000Y-54810000D02*
X45310000Y-53760000D01*
X46000000Y-55500000D02*
X45310000Y-54810000D01*
G04 #@! TO.N,Net-(D7-Pad3)*
X48500000Y-57000000D02*
X48000000Y-57500000D01*
X45000000Y-60000000D02*
X44500000Y-59500000D01*
X46363604Y-60000000D02*
X45000000Y-60000000D01*
X48000000Y-57500000D02*
X48000000Y-58363604D01*
X48000000Y-58363604D02*
X46363604Y-60000000D01*
X51500000Y-58000000D02*
X50500000Y-57000000D01*
X50500000Y-57000000D02*
X48500000Y-57000000D01*
X44500000Y-59500000D02*
X43200000Y-59500000D01*
D67*
G04 #@! TO.N,Net-(U6-IO34)*
X52500000Y-46500000D02*
X45465997Y-46500000D01*
X53500000Y-59000000D02*
X52500000Y-60000000D01*
X51500000Y-69000000D02*
X51800000Y-69000000D01*
X52500000Y-52500000D02*
X52500000Y-46500000D01*
X45465997Y-42446301D02*
X45369696Y-42350000D01*
X45369696Y-42350000D02*
X41000000Y-42350000D01*
X48500000Y-70000000D02*
X50500000Y-70000000D01*
X52500000Y-60000000D02*
X49000000Y-60000000D01*
X50500000Y-70000000D02*
X51500000Y-69000000D01*
X47500000Y-69000000D02*
X48500000Y-70000000D01*
X45465997Y-46500000D02*
X45465997Y-42446301D01*
X49000000Y-61000000D02*
X47500000Y-62500000D01*
X47500000Y-62500000D02*
X47500000Y-69000000D01*
X49000000Y-60000000D02*
X49000000Y-61000000D01*
D63*
G04 #@! TO.N,Net-(D7-Pad1)*
X46500000Y-60500000D02*
X43500000Y-60500000D01*
X43500000Y-60500000D02*
X43200000Y-60200000D01*
X49400000Y-58000000D02*
X49000000Y-58000000D01*
X43200000Y-60200000D02*
X43450000Y-60200000D01*
X49000000Y-58000000D02*
X46500000Y-60500000D01*
D65*
G04 #@! TO.N,+12VDC*
X45650000Y-148150000D02*
X46012500Y-148512500D01*
X46787500Y-153000000D02*
X47000000Y-152787500D01*
X46012500Y-149000000D02*
X46012500Y-149850000D01*
X42150000Y-148150000D02*
X45650000Y-148150000D01*
D64*
X41250000Y-154000000D02*
X41250000Y-152500000D01*
D69*
X43500000Y-152375000D02*
X43500000Y-151500000D01*
D67*
X41000000Y-147000000D02*
X41000000Y-145000000D01*
D65*
X46000000Y-151812500D02*
X46000000Y-153000000D01*
X46000000Y-153000000D02*
X46787500Y-153000000D01*
D67*
X46012500Y-149850000D02*
X46000000Y-149837500D01*
D63*
X46150000Y-148862500D02*
X46012500Y-149000000D01*
D65*
X47000000Y-148862500D02*
X46150000Y-148862500D01*
X47000000Y-152787500D02*
X47650000Y-152787500D01*
X45437500Y-152375000D02*
X46012500Y-151800000D01*
X46012500Y-148512500D02*
X46012500Y-149000000D01*
X43375000Y-152500000D02*
X43500000Y-152375000D01*
X46012500Y-151800000D02*
X46000000Y-151812500D01*
D64*
X42500000Y-176000000D02*
X45500000Y-176000000D01*
D65*
X43500000Y-152375000D02*
X45437500Y-152375000D01*
D69*
X45150000Y-149850000D02*
X46012500Y-149850000D01*
X43500000Y-151500000D02*
X45150000Y-149850000D01*
D65*
X41000000Y-147000000D02*
X42150000Y-148150000D01*
X41000000Y-152500000D02*
X43375000Y-152500000D01*
D63*
G04 #@! TO.N,I2C_SCL*
X57500000Y-55500000D02*
X59000000Y-55500000D01*
X58000000Y-42500000D02*
X56500000Y-42500000D01*
X58150000Y-42350000D02*
X58000000Y-42500000D01*
X59000000Y-55500000D02*
X59000000Y-56500000D01*
X56500000Y-56700000D02*
X56500000Y-56500000D01*
X56500000Y-56500000D02*
X57500000Y-55500000D01*
D67*
X59000000Y-56500000D02*
X59000000Y-67000000D01*
X59000000Y-67000000D02*
X55700000Y-67000000D01*
D63*
X58500000Y-42350000D02*
X58150000Y-42350000D01*
X56500000Y-42500000D02*
X56500000Y-56700000D01*
G04 #@! TO.N,BUTTON*
X52500000Y-108000000D02*
X51500000Y-107000000D01*
X50500000Y-47500000D02*
X50500000Y-52500000D01*
X44500000Y-46320000D02*
X44340000Y-46160000D01*
X51000000Y-110000000D02*
X51000000Y-116500000D01*
X52500000Y-113500000D02*
X52500000Y-108000000D01*
X51500000Y-107000000D02*
X51500000Y-109500000D01*
X51500000Y-109500000D02*
X51000000Y-110000000D01*
X44500000Y-47500000D02*
X50500000Y-47500000D01*
X41000000Y-46160000D02*
X44340000Y-46160000D01*
X44500000Y-47500000D02*
X44500000Y-46320000D01*
D67*
G04 #@! TO.N,I2C_SDA*
X58500000Y-66500000D02*
X55700000Y-66500000D01*
D63*
X54040000Y-38540000D02*
X58500000Y-38540000D01*
D67*
X57500000Y-59000000D02*
X57500000Y-58500000D01*
X57500000Y-58500000D02*
X58000000Y-58000000D01*
X58500000Y-60000000D02*
X58500000Y-66500000D01*
X57500000Y-59000000D02*
X58500000Y-60000000D01*
D63*
G04 #@! TO.N,I2S_BLCK*
X44000000Y-48500000D02*
X49500000Y-48500000D01*
X57000000Y-96000000D02*
X57000000Y-99375000D01*
X49500000Y-48500000D02*
X49500000Y-52500000D01*
X57000000Y-99375000D02*
X56187500Y-100187500D01*
X44000000Y-47500000D02*
X44000000Y-48500000D01*
X41000000Y-47430000D02*
X43930000Y-47430000D01*
X43930000Y-47430000D02*
X44000000Y-47500000D01*
G04 #@! TO.N,I2S_DIN*
X55500000Y-97500000D02*
X55500000Y-99500000D01*
X47500000Y-50000000D02*
X47500000Y-52500000D01*
X41000000Y-49970000D02*
X41030000Y-50000000D01*
X41030000Y-50000000D02*
X47500000Y-50000000D01*
G04 #@! TO.N,I2S_LRC*
X48500000Y-49500000D02*
X48500000Y-52500000D01*
X43500000Y-49500000D02*
X48500000Y-49500000D01*
X41000000Y-48700000D02*
X42700000Y-48700000D01*
X42700000Y-48700000D02*
X43500000Y-49500000D01*
X57000000Y-101187500D02*
X56187500Y-101187500D01*
D65*
G04 #@! TO.N,P+*
X49937500Y-151937500D02*
X53250000Y-155250000D01*
X56000000Y-155000000D02*
X53500000Y-155000000D01*
X49937500Y-151800000D02*
X49937500Y-151937500D01*
X50000000Y-157925000D02*
X50575000Y-157925000D01*
X59000000Y-152000000D02*
X56000000Y-155000000D01*
D64*
X58000000Y-165000000D02*
X58000000Y-174500000D01*
D65*
X53250000Y-155250000D02*
X53500000Y-155000000D01*
D70*
X59000000Y-159000000D02*
X59000000Y-152000000D01*
D65*
X50575000Y-157925000D02*
X53250000Y-155250000D01*
D64*
X58000000Y-174500000D02*
X57000000Y-175500000D01*
D63*
G04 #@! TO.N,Net-(B-1-Pin_1)*
X44779843Y-153675515D02*
X47000000Y-153675515D01*
X47000000Y-154900000D02*
X46900000Y-155000000D01*
X44455358Y-154000000D02*
X44779843Y-153675515D01*
D65*
X53500000Y-183500000D02*
X54500000Y-184500000D01*
X57500000Y-185500000D02*
X56500000Y-184500000D01*
D63*
X47000000Y-153675515D02*
X47000000Y-154900000D01*
X44000000Y-154000000D02*
X44455358Y-154000000D01*
D65*
X53500000Y-175000000D02*
X53500000Y-183500000D01*
X56500000Y-184500000D02*
X54500000Y-184500000D01*
D63*
G04 #@! TO.N,Net-(U6-IO4)*
X55500000Y-57975000D02*
X57000000Y-57975000D01*
X58000000Y-54500000D02*
X57000000Y-53500000D01*
X55500000Y-55500000D02*
X55500000Y-57975000D01*
X58240000Y-51500000D02*
X58500000Y-51240000D01*
X52500000Y-56000000D02*
X53000000Y-55500000D01*
X57000000Y-53500000D02*
X57000000Y-51500000D01*
X51500000Y-56000000D02*
X52500000Y-56000000D01*
X57000000Y-57975000D02*
X57025000Y-57975000D01*
X53000000Y-55500000D02*
X55500000Y-55500000D01*
X57000000Y-51500000D02*
X58240000Y-51500000D01*
X57025000Y-57975000D02*
X58000000Y-57000000D01*
D64*
G04 #@! TO.N,+12VDC*
X44500000Y-165500000D02*
X41250000Y-165500000D01*
G04 #@! TD*
G04 #@! TA.AperFunction,Conductor*
G04 #@! TO.N,P-*
G36*
X47192539Y-84519685D02*
G01*
X47238294Y-84572489D01*
X47249500Y-84624000D01*
X47249500Y-88376000D01*
X47229815Y-88443039D01*
X47177011Y-88488794D01*
X47125500Y-88500000D01*
X41124000Y-88500000D01*
X41056961Y-88480315D01*
X41011206Y-88427511D01*
X41000000Y-88376000D01*
X41000000Y-84624000D01*
X41019685Y-84556961D01*
X41072489Y-84511206D01*
X41124000Y-84500000D01*
X47125500Y-84500000D01*
X47192539Y-84519685D01*
G37*
G04 #@! TD.AperFunction*
G04 #@! TD*
G04 #@! TA.AperFunction,Conductor*
G04 #@! TO.N,P-*
G36*
X44943039Y-91519685D02*
G01*
X44988794Y-91572489D01*
X45000000Y-91624000D01*
X45000000Y-97876000D01*
X44980315Y-97943039D01*
X44927511Y-97988794D01*
X44876000Y-98000000D01*
X41124000Y-98000000D01*
X41056961Y-97980315D01*
X41011206Y-97927511D01*
X41000000Y-97876000D01*
X41000000Y-91624000D01*
X41019685Y-91556961D01*
X41072489Y-91511206D01*
X41124000Y-91500000D01*
X44876000Y-91500000D01*
X44943039Y-91519685D01*
G37*
G04 #@! TD.AperFunction*
G04 #@! TD*
M02*
