G04 #@! TF.GenerationSoftware,KiCad,Pcbnew,9.0.3+dfsg-1*
G04 #@! TF.CreationDate,2026-04-08T20:55:00-07:00*
G04 #@! TF.ProjectId,NeoPixel_Saber_Core,4e656f50-6978-4656-9c5f-53616265725f,rev?*
G04 #@! TF.SameCoordinates,Original*
G04 #@! TF.FileFunction,Copper,L2,Bot*
G04 #@! TF.FilePolarity,Positive*
%FSLAX46Y46*%
G04 Gerber Fmt 4.6, Leading zero omitted, Abs format (unit mm)*
G04 Created by KiCad (PCBNEW 9.0.3+dfsg-1) date 2026-04-08 20:55:00*
%MOMM*%
%LPD*%
G01*
G04 APERTURE LIST*
G04 Aperture macros list*
%AMRoundRect*
0 Rectangle with rounded corners*
0 $1 Rounding radius*
0 $2 $3 $4 $5 $6 $7 $8 $9 X,Y pos of 4 corners*
0 Add a 4 corners polygon primitive as box body*
4,1,4,$2,$3,$4,$5,$6,$7,$8,$9,$2,$3,0*
0 Add four circle primitives for the rounded corners*
1,1,$1+$1,$2,$3*
1,1,$1+$1,$4,$5*
1,1,$1+$1,$6,$7*
1,1,$1+$1,$8,$9*
0 Add four rect primitives between the rounded corners*
20,1,$1+$1,$2,$3,$4,$5,0*
20,1,$1+$1,$4,$5,$6,$7,0*
20,1,$1+$1,$6,$7,$8,$9,0*
20,1,$1+$1,$8,$9,$2,$3,0*%
G04 Aperture macros list end*
G04 #@! TA.AperFunction,HeatsinkPad*
%ADD10C,0.600000*%
G04 #@! TD*
G04 #@! TA.AperFunction,ComponentPad*
%ADD11C,1.600000*%
G04 #@! TD*
G04 #@! TA.AperFunction,ComponentPad*
%ADD12RoundRect,0.250000X0.550000X-0.550000X0.550000X0.550000X-0.550000X0.550000X-0.550000X-0.550000X0*%
G04 #@! TD*
G04 #@! TA.AperFunction,ComponentPad*
%ADD13O,2.000000X4.000000*%
G04 #@! TD*
G04 #@! TA.AperFunction,ComponentPad*
%ADD14O,4.000000X2.000000*%
G04 #@! TD*
G04 #@! TA.AperFunction,ComponentPad*
%ADD15O,4.500000X2.250000*%
G04 #@! TD*
G04 #@! TA.AperFunction,HeatsinkPad*
%ADD16C,0.500000*%
G04 #@! TD*
G04 #@! TA.AperFunction,HeatsinkPad*
%ADD17R,3.100000X1.800000*%
G04 #@! TD*
G04 #@! TA.AperFunction,ComponentPad*
%ADD18C,2.000000*%
G04 #@! TD*
G04 #@! TA.AperFunction,ComponentPad*
%ADD19R,1.700000X1.700000*%
G04 #@! TD*
G04 #@! TA.AperFunction,ComponentPad*
%ADD20C,1.700000*%
G04 #@! TD*
G04 #@! TA.AperFunction,ViaPad*
%ADD21C,1.000000*%
G04 #@! TD*
G04 #@! TA.AperFunction,ViaPad*
%ADD22C,0.500000*%
G04 #@! TD*
G04 #@! TA.AperFunction,ViaPad*
%ADD23C,0.600000*%
G04 #@! TD*
G04 #@! TA.AperFunction,Conductor*
%ADD24C,0.500000*%
G04 #@! TD*
G04 #@! TA.AperFunction,Conductor*
%ADD25C,0.250000*%
G04 #@! TD*
G04 #@! TA.AperFunction,Conductor*
%ADD26C,1.500000*%
G04 #@! TD*
G04 #@! TA.AperFunction,Conductor*
%ADD27C,0.200000*%
G04 #@! TD*
G04 APERTURE END LIST*
D10*
G04 #@! TO.P,U6,39,GND*
G04 #@! TO.N,P-*
X46890000Y-43010000D03*
X46890000Y-44410000D03*
X47590000Y-42310000D03*
X47590000Y-43710000D03*
X47590000Y-45110000D03*
X48290000Y-43010000D03*
X48290000Y-44410000D03*
X48990000Y-42310000D03*
X48990000Y-43710000D03*
X48990000Y-45110000D03*
X49690000Y-43010000D03*
X49690000Y-44410000D03*
G04 #@! TD*
D11*
G04 #@! TO.P,C18,2*
G04 #@! TO.N,P-*
X51000000Y-92750000D03*
D12*
G04 #@! TO.P,C18,1*
G04 #@! TO.N,+5V*
X51000000Y-96250000D03*
G04 #@! TD*
D13*
G04 #@! TO.P,J1,S2,SHIELD*
G04 #@! TO.N,P-*
X42000000Y-183000000D03*
G04 #@! TO.P,J1,S1,SHIELD*
X51000000Y-183000000D03*
D14*
G04 #@! TO.P,J1,2*
X46500000Y-182000000D03*
D15*
G04 #@! TO.P,J1,1*
G04 #@! TO.N,+12VDC*
X46500000Y-176000000D03*
G04 #@! TD*
D16*
G04 #@! TO.P,U1,9,GND*
G04 #@! TO.N,P-*
X47065000Y-139712500D03*
X48365000Y-139712500D03*
X49665000Y-139712500D03*
D17*
X48365000Y-139062500D03*
D16*
X47065000Y-138412500D03*
X48365000Y-138412500D03*
X49665000Y-138412500D03*
G04 #@! TD*
D18*
G04 #@! TO.P,SW2,1,1*
G04 #@! TO.N,P-*
X46500000Y-116500000D03*
X46500000Y-110000000D03*
G04 #@! TO.P,SW2,2,2*
G04 #@! TO.N,BUTTON*
X51000000Y-116500000D03*
X51000000Y-110000000D03*
G04 #@! TD*
D19*
G04 #@! TO.P,J2,1,Pin_1*
G04 #@! TO.N,P-*
X49500000Y-76500000D03*
D20*
G04 #@! TO.P,J2,2,Pin_2*
G04 #@! TO.N,Net-(J2-Pin_2)*
X49500000Y-79040000D03*
G04 #@! TO.P,J2,3,Pin_3*
G04 #@! TO.N,Net-(J2-Pin_3)*
X49500000Y-81580000D03*
G04 #@! TD*
D21*
G04 #@! TO.N,+12VDC*
X40990000Y-174500000D03*
D22*
G04 #@! TO.N,P-*
X50000000Y-69000000D03*
D21*
X46000000Y-87000000D03*
X55000000Y-105000000D03*
X42500000Y-96500000D03*
D22*
X47075000Y-57500000D03*
D21*
X47000000Y-88000000D03*
D22*
X53465000Y-162000000D03*
X54500000Y-98500000D03*
D21*
X53000000Y-122000000D03*
D22*
X48000000Y-162500000D03*
X49100000Y-149800000D03*
D21*
X46000000Y-85000000D03*
X44500000Y-96500000D03*
X45500000Y-108000000D03*
D22*
X47450000Y-151500000D03*
X50000000Y-67000000D03*
D23*
X49000000Y-143000000D03*
D22*
X42000000Y-58750000D03*
D21*
X44500000Y-97500000D03*
D22*
X48000000Y-151500000D03*
D21*
X43500000Y-97500000D03*
D22*
X48550000Y-149800000D03*
X55500000Y-70500000D03*
X53500000Y-60000000D03*
D21*
X42500000Y-97500000D03*
X46000000Y-86000000D03*
D22*
X52000000Y-148500000D03*
D21*
X44000000Y-55000000D03*
X46000000Y-88000000D03*
D22*
X57500000Y-80500000D03*
X57000000Y-148000000D03*
X49100000Y-151500000D03*
X48500000Y-154000000D03*
X48550000Y-151500000D03*
D21*
X47000000Y-86000000D03*
D23*
X42500000Y-36000000D03*
D22*
X48000000Y-149800000D03*
X46900000Y-149800000D03*
X42500000Y-156500000D03*
D21*
X43500000Y-96500000D03*
X47000000Y-85000000D03*
X41500000Y-96500000D03*
D23*
X41500000Y-66000000D03*
D22*
X44500000Y-155000000D03*
D21*
X47000000Y-87000000D03*
D23*
X57000000Y-36000000D03*
X51500000Y-143500000D03*
D21*
X41500000Y-97500000D03*
D22*
X41000000Y-149000000D03*
X53500000Y-159000000D03*
X47000000Y-75500000D03*
X47450000Y-149800000D03*
D23*
X45262500Y-72737500D03*
D22*
X46900000Y-151500000D03*
X56000000Y-65000000D03*
D21*
X55500000Y-75500000D03*
D22*
G04 #@! TO.N,Net-(BM1-Pin_1)*
X43500000Y-163000000D03*
X54500000Y-174500000D03*
D23*
G04 #@! TO.N,Net-(C4-Pad1)*
X48500000Y-144000000D03*
X41000000Y-143500000D03*
D22*
G04 #@! TO.N,Net-(U1-SW)*
X54000000Y-131500000D03*
D21*
X46500000Y-133500000D03*
D22*
X51500000Y-134000000D03*
D23*
G04 #@! TO.N,Net-(U6-EN)*
X44000000Y-58500000D03*
D22*
X44000000Y-52000000D03*
D23*
X49500000Y-71500000D03*
D22*
X44000000Y-38451661D03*
D23*
G04 #@! TO.N,Net-(U6-IO35)*
X57500000Y-155500000D03*
D22*
X51500000Y-52500000D03*
D23*
G04 #@! TO.N,+3.3V*
X49500000Y-83500000D03*
D22*
X47500000Y-61000000D03*
D23*
X46500000Y-78000000D03*
X47000000Y-81000000D03*
X46500000Y-83500000D03*
X42500000Y-37500000D03*
X47500000Y-107000000D03*
D22*
X48000000Y-70500000D03*
D23*
X41000000Y-55000000D03*
G04 #@! TO.N,V_REG_IN*
X48370000Y-135000000D03*
X54000000Y-141500000D03*
D21*
X55535571Y-144464429D03*
X55500000Y-172000000D03*
D23*
X42000000Y-135000000D03*
D22*
G04 #@! TO.N,Net-(D6-K)*
X53000000Y-150500000D03*
X45000000Y-151500000D03*
G04 #@! TO.N,Net-(U4-CS)*
X49500000Y-148500000D03*
X51000000Y-149500000D03*
G04 #@! TO.N,Net-(U9-CPOUT)*
X54500000Y-64000000D03*
X56500000Y-68500000D03*
D23*
G04 #@! TO.N,Net-(J2-Pin_2)*
X55500000Y-79000000D03*
D22*
X54500000Y-52000000D03*
G04 #@! TO.N,Net-(J2-Pin_3)*
X55500000Y-51000000D03*
D23*
X55000000Y-81580000D03*
G04 #@! TO.N,Net-(U6-IO0)*
X56000000Y-85500000D03*
X59000000Y-54500000D03*
G04 #@! TO.N,Net-(SPK+1-Pin_1)*
X53000000Y-106500000D03*
X53000000Y-103000000D03*
G04 #@! TO.N,Net-(U1-RT{slash}CLK)*
X45000000Y-137500000D03*
X42000000Y-138500000D03*
G04 #@! TO.N,Net-(U1-FB)*
X45500000Y-141500000D03*
X52500000Y-139000000D03*
G04 #@! TO.N,Net-(U6-IO13)*
X46000000Y-55500000D03*
X47000000Y-74500000D03*
D22*
X46000000Y-59200000D03*
D23*
X46000000Y-57500000D03*
G04 #@! TO.N,Net-(U6-IO34)*
X53500000Y-59000000D03*
X52500000Y-52500000D03*
D21*
G04 #@! TO.N,+12VDC*
X41250000Y-165500000D03*
X41250000Y-154000000D03*
D22*
G04 #@! TO.N,BUTTON*
X50500000Y-52500000D03*
D23*
X52500000Y-113500000D03*
G04 #@! TO.N,I2C_SDA*
X58000000Y-58000000D03*
X53500000Y-51000000D03*
G04 #@! TO.N,I2S_BLCK*
X57000000Y-96000000D03*
D22*
X49500000Y-52500000D03*
G04 #@! TO.N,I2S_DIN*
X47500000Y-52500000D03*
D23*
X55500000Y-97500000D03*
G04 #@! TO.N,I2S_LRC*
X57000000Y-101187500D03*
D22*
X48500000Y-52500000D03*
D21*
G04 #@! TO.N,P+*
X58000000Y-165000000D03*
X58750000Y-157000000D03*
D22*
G04 #@! TO.N,Net-(B-1-Pin_1)*
X44000000Y-154000000D03*
X42500000Y-163500000D03*
X53500000Y-175000000D03*
D23*
G04 #@! TO.N,Net-(U6-IO4)*
X58000000Y-57000000D03*
X58000000Y-54500000D03*
G04 #@! TD*
D24*
G04 #@! TO.N,Net-(B-1-Pin_1)*
X42500000Y-163500000D02*
X42500000Y-164000000D01*
D25*
X42500000Y-162750000D02*
X43500000Y-161750000D01*
D24*
X42500000Y-164000000D02*
X53500000Y-175000000D01*
D25*
X42500000Y-163500000D02*
X42500000Y-162750000D01*
X43500000Y-161750000D02*
X43500000Y-154500000D01*
X43500000Y-154500000D02*
X44000000Y-154000000D01*
D26*
G04 #@! TO.N,V_REG_IN*
X55500000Y-172000000D02*
X55500000Y-144500000D01*
X55500000Y-144500000D02*
X55535571Y-144464429D01*
G04 #@! TO.N,+12VDC*
X40990000Y-165760000D02*
X41250000Y-165500000D01*
X40990000Y-174500000D02*
X40990000Y-165760000D01*
D27*
G04 #@! TO.N,P-*
X50000000Y-69000000D02*
X50000000Y-67000000D01*
D24*
G04 #@! TO.N,Net-(BM1-Pin_1)*
X54500000Y-174500000D02*
X54500000Y-174000000D01*
X54500000Y-174000000D02*
X43500000Y-163000000D01*
D25*
G04 #@! TO.N,Net-(C4-Pad1)*
X41500000Y-144000000D02*
X41000000Y-143500000D01*
X48500000Y-144000000D02*
X41500000Y-144000000D01*
D24*
G04 #@! TO.N,Net-(U1-SW)*
X51500000Y-134000000D02*
X54000000Y-131500000D01*
D25*
X47000000Y-134000000D02*
X46500000Y-133500000D01*
X51500000Y-134000000D02*
X47000000Y-134000000D01*
G04 #@! TO.N,Net-(U6-EN)*
X49500000Y-70636396D02*
X49500000Y-71500000D01*
D27*
X44000000Y-52000000D02*
X44000000Y-38451661D01*
D25*
X44000000Y-58500000D02*
X47000000Y-58500000D01*
X47000000Y-58500000D02*
X48500000Y-60000000D01*
X48500000Y-69636396D02*
X49500000Y-70636396D01*
X48500000Y-60000000D02*
X48500000Y-69636396D01*
G04 #@! TO.N,Net-(U6-IO35)*
X53000000Y-64500000D02*
X53000000Y-69500000D01*
X58500000Y-90000000D02*
X58500000Y-154500000D01*
X54000000Y-70500000D02*
X54000000Y-85500000D01*
X53000000Y-69500000D02*
X54000000Y-70500000D01*
X58500000Y-154500000D02*
X57500000Y-155500000D01*
X51500000Y-52500000D02*
X51500000Y-64500000D01*
X51500000Y-64500000D02*
X53000000Y-64500000D01*
X54000000Y-85500000D02*
X58500000Y-90000000D01*
D24*
G04 #@! TO.N,+3.3V*
X42500000Y-37500000D02*
X42500000Y-53500000D01*
D25*
X48000000Y-75500000D02*
X48000000Y-70500000D01*
X49000000Y-83500000D02*
X49500000Y-83500000D01*
X48000000Y-84500000D02*
X49000000Y-83500000D01*
X46500000Y-80500000D02*
X47000000Y-81000000D01*
X47500000Y-90500000D02*
X48000000Y-90000000D01*
X46500000Y-77000000D02*
X48000000Y-75500000D01*
X48000000Y-90000000D02*
X48000000Y-84500000D01*
X47000000Y-83500000D02*
X46500000Y-83500000D01*
X46500000Y-78000000D02*
X46500000Y-80500000D01*
D24*
X42500000Y-53500000D02*
X41000000Y-55000000D01*
D27*
X48000000Y-61500000D02*
X47500000Y-61000000D01*
X48000000Y-70500000D02*
X48000000Y-61500000D01*
D25*
X46500000Y-78000000D02*
X46500000Y-77000000D01*
X47500000Y-107000000D02*
X47500000Y-90500000D01*
X48000000Y-84500000D02*
X47000000Y-83500000D01*
D24*
G04 #@! TO.N,V_REG_IN*
X48000000Y-135000000D02*
X42000000Y-135000000D01*
X50000000Y-137000000D02*
X54000000Y-137000000D01*
X48000000Y-135000000D02*
X50000000Y-137000000D01*
X48370000Y-135000000D02*
X48000000Y-135000000D01*
X54000000Y-137000000D02*
X54000000Y-141500000D01*
D27*
G04 #@! TO.N,Net-(D6-K)*
X45000000Y-151500000D02*
X46000000Y-150500000D01*
X46000000Y-150500000D02*
X53000000Y-150500000D01*
D25*
G04 #@! TO.N,Net-(U4-CS)*
X51000000Y-148500000D02*
X51000000Y-149500000D01*
X49500000Y-148500000D02*
X51000000Y-148500000D01*
D27*
G04 #@! TO.N,Net-(U9-CPOUT)*
X57000000Y-68000000D02*
X57000000Y-64500000D01*
X57000000Y-64500000D02*
X56500000Y-64000000D01*
X56500000Y-68500000D02*
X57000000Y-68000000D01*
X56500000Y-64000000D02*
X54500000Y-64000000D01*
D25*
G04 #@! TO.N,Net-(J2-Pin_2)*
X57500000Y-77000000D02*
X55500000Y-79000000D01*
X57500000Y-64000000D02*
X57500000Y-77000000D01*
X54500000Y-52000000D02*
X54500000Y-61000000D01*
X54500000Y-61000000D02*
X57500000Y-64000000D01*
G04 #@! TO.N,Net-(J2-Pin_3)*
X55500000Y-58500000D02*
X55500000Y-51000000D01*
X58000000Y-61000000D02*
X55500000Y-58500000D01*
X55000000Y-81580000D02*
X58000000Y-78580000D01*
X58000000Y-78580000D02*
X58000000Y-61000000D01*
G04 #@! TO.N,Net-(U6-IO0)*
X59000000Y-54500000D02*
X59000000Y-80500000D01*
X56000000Y-83500000D02*
X56000000Y-85500000D01*
X59000000Y-80500000D02*
X56000000Y-83500000D01*
G04 #@! TO.N,Net-(SPK+1-Pin_1)*
X53000000Y-103000000D02*
X53000000Y-106500000D01*
G04 #@! TO.N,Net-(U1-RT{slash}CLK)*
X45000000Y-137500000D02*
X43000000Y-137500000D01*
X43000000Y-137500000D02*
X42000000Y-138500000D01*
G04 #@! TO.N,Net-(U1-FB)*
X45500000Y-141500000D02*
X50000000Y-141500000D01*
X50000000Y-141500000D02*
X52500000Y-139000000D01*
G04 #@! TO.N,Net-(U6-IO13)*
X46000000Y-60500000D02*
X47000000Y-61500000D01*
X46000000Y-59200000D02*
X46000000Y-60500000D01*
X47000000Y-61500000D02*
X47000000Y-74500000D01*
X46000000Y-55500000D02*
X46000000Y-57500000D01*
D27*
G04 #@! TO.N,Net-(U6-IO34)*
X53500000Y-58000000D02*
X52500000Y-57000000D01*
X53500000Y-59000000D02*
X53500000Y-58000000D01*
X52500000Y-57000000D02*
X52500000Y-52500000D01*
D26*
G04 #@! TO.N,+12VDC*
X41250000Y-165500000D02*
X41250000Y-154000000D01*
D25*
G04 #@! TO.N,BUTTON*
X54068198Y-86931802D02*
X53500000Y-86363604D01*
X52500000Y-70000000D02*
X52500000Y-65000000D01*
X52500000Y-65000000D02*
X51000000Y-65000000D01*
X51000000Y-65000000D02*
X50500000Y-64500000D01*
X54431802Y-86931802D02*
X54068198Y-86931802D01*
X53000000Y-113500000D02*
X58000000Y-108500000D01*
X53500000Y-71000000D02*
X52500000Y-70000000D01*
X58000000Y-90500000D02*
X54431802Y-86931802D01*
X52500000Y-113500000D02*
X53000000Y-113500000D01*
X53500000Y-86363604D02*
X53500000Y-71000000D01*
X50500000Y-64500000D02*
X50500000Y-52500000D01*
X58000000Y-108500000D02*
X58000000Y-90500000D01*
G04 #@! TO.N,I2C_SDA*
X56500000Y-57500000D02*
X56500000Y-49500000D01*
X53500000Y-49500000D02*
X53500000Y-51000000D01*
X58000000Y-58000000D02*
X57500000Y-57500000D01*
X57500000Y-57500000D02*
X56500000Y-57500000D01*
X56500000Y-49500000D02*
X53500000Y-49500000D01*
G04 #@! TO.N,I2S_BLCK*
X56500000Y-90000000D02*
X56500000Y-96000000D01*
X53431802Y-86931802D02*
X56500000Y-90000000D01*
X51500000Y-70000000D02*
X53000000Y-71500000D01*
X53000000Y-71500000D02*
X53000000Y-86863604D01*
X49500000Y-55000000D02*
X49500000Y-52500000D01*
X51500000Y-65500000D02*
X51500000Y-70000000D01*
X56500000Y-96000000D02*
X57000000Y-96000000D01*
X50500000Y-65500000D02*
X50000000Y-65000000D01*
X50000000Y-55500000D02*
X49500000Y-55000000D01*
X53068198Y-86931802D02*
X53431802Y-86931802D01*
X53000000Y-86863604D02*
X53068198Y-86931802D01*
X50000000Y-65000000D02*
X50000000Y-55500000D01*
X51500000Y-65500000D02*
X50500000Y-65500000D01*
G04 #@! TO.N,I2S_DIN*
X52000000Y-87500000D02*
X53000000Y-88500000D01*
X49000000Y-69500000D02*
X52000000Y-72500000D01*
X49000000Y-56500000D02*
X49000000Y-69500000D01*
X52000000Y-72500000D02*
X52000000Y-87500000D01*
X47500000Y-55000000D02*
X49000000Y-56500000D01*
X53000000Y-88500000D02*
X55500000Y-91000000D01*
X47500000Y-52500000D02*
X47500000Y-55000000D01*
X55500000Y-91000000D02*
X55500000Y-97500000D01*
G04 #@! TO.N,I2S_LRC*
X50000000Y-66000000D02*
X49500000Y-65500000D01*
X49500000Y-65500000D02*
X49500000Y-56000000D01*
X56000000Y-96500000D02*
X56000000Y-90500000D01*
X52500000Y-87000000D02*
X52500000Y-72000000D01*
X51000000Y-66000000D02*
X50000000Y-66000000D01*
X51000000Y-70500000D02*
X51000000Y-66000000D01*
X56000000Y-90500000D02*
X52500000Y-87000000D01*
X52500000Y-72000000D02*
X51000000Y-70500000D01*
X57000000Y-97500000D02*
X56000000Y-96500000D01*
X57000000Y-101187500D02*
X57000000Y-97500000D01*
X49500000Y-56000000D02*
X48500000Y-55000000D01*
X48500000Y-55000000D02*
X48500000Y-52500000D01*
D26*
G04 #@! TO.N,P+*
X59000000Y-157250000D02*
X58750000Y-157000000D01*
X59000000Y-164000000D02*
X59000000Y-157250000D01*
X58000000Y-165000000D02*
X59000000Y-164000000D01*
D25*
G04 #@! TO.N,Net-(U6-IO4)*
X58000000Y-57000000D02*
X58000000Y-54500000D01*
G04 #@! TD*
G04 #@! TA.AperFunction,Conductor*
G04 #@! TO.N,P-*
G36*
X51979436Y-52794651D02*
G01*
X52005093Y-52794651D01*
X52009435Y-52797805D01*
X52014772Y-52798367D01*
X52033835Y-52815533D01*
X52054593Y-52830615D01*
X52058887Y-52837228D01*
X52059488Y-52838011D01*
X52059489Y-52838012D01*
X52059491Y-52838015D01*
X52120505Y-52899029D01*
X52148281Y-52953544D01*
X52149500Y-52969031D01*
X52149500Y-57046143D01*
X52163796Y-57099499D01*
X52173385Y-57135285D01*
X52173386Y-57135288D01*
X52219530Y-57215212D01*
X53120505Y-58116187D01*
X53148281Y-58170702D01*
X53149500Y-58186189D01*
X53149500Y-58530968D01*
X53130593Y-58589159D01*
X53120504Y-58600971D01*
X53059491Y-58661984D01*
X53059487Y-58661989D01*
X52987017Y-58787510D01*
X52949500Y-58927525D01*
X52949500Y-59072474D01*
X52987017Y-59212489D01*
X53059487Y-59338010D01*
X53059489Y-59338012D01*
X53059491Y-59338015D01*
X53161985Y-59440509D01*
X53161987Y-59440510D01*
X53161989Y-59440512D01*
X53287511Y-59512982D01*
X53287512Y-59512982D01*
X53287515Y-59512984D01*
X53427525Y-59550500D01*
X53427526Y-59550500D01*
X53572474Y-59550500D01*
X53572475Y-59550500D01*
X53712485Y-59512984D01*
X53712487Y-59512982D01*
X53712489Y-59512982D01*
X53838010Y-59440512D01*
X53838010Y-59440511D01*
X53838015Y-59440509D01*
X53940509Y-59338015D01*
X53940512Y-59338009D01*
X53944460Y-59332866D01*
X53945786Y-59333884D01*
X53985228Y-59298367D01*
X54046077Y-59291968D01*
X54099067Y-59322558D01*
X54123957Y-59378452D01*
X54124500Y-59388806D01*
X54124500Y-61049438D01*
X54137294Y-61097184D01*
X54137294Y-61097185D01*
X54150088Y-61144934D01*
X54150091Y-61144941D01*
X54199525Y-61230563D01*
X54199526Y-61230563D01*
X56449458Y-63480496D01*
X56477235Y-63535013D01*
X56467664Y-63595445D01*
X56424399Y-63638710D01*
X56379454Y-63649500D01*
X54898321Y-63649500D01*
X54840130Y-63630593D01*
X54828323Y-63620509D01*
X54807314Y-63599500D01*
X54807311Y-63599498D01*
X54807309Y-63599496D01*
X54693189Y-63533609D01*
X54693191Y-63533609D01*
X54643799Y-63520375D01*
X54565892Y-63499500D01*
X54434108Y-63499500D01*
X54356200Y-63520375D01*
X54306809Y-63533609D01*
X54192690Y-63599496D01*
X54099496Y-63692690D01*
X54033609Y-63806809D01*
X54033608Y-63806814D01*
X53999500Y-63934108D01*
X53999500Y-64065892D01*
X54010138Y-64105593D01*
X54033609Y-64193190D01*
X54099496Y-64307309D01*
X54099498Y-64307311D01*
X54099500Y-64307314D01*
X54192686Y-64400500D01*
X54192688Y-64400501D01*
X54192690Y-64400503D01*
X54306810Y-64466390D01*
X54306808Y-64466390D01*
X54306812Y-64466391D01*
X54306814Y-64466392D01*
X54434108Y-64500500D01*
X54434110Y-64500500D01*
X54565890Y-64500500D01*
X54565892Y-64500500D01*
X54693186Y-64466392D01*
X54693188Y-64466390D01*
X54693190Y-64466390D01*
X54807309Y-64400503D01*
X54807309Y-64400502D01*
X54807314Y-64400500D01*
X54828319Y-64379494D01*
X54882834Y-64351719D01*
X54898321Y-64350500D01*
X56313810Y-64350500D01*
X56372001Y-64369407D01*
X56383814Y-64379496D01*
X56620504Y-64616186D01*
X56648281Y-64670703D01*
X56649500Y-64686190D01*
X56649500Y-67813810D01*
X56647031Y-67821407D01*
X56648281Y-67829297D01*
X56637756Y-67849952D01*
X56630593Y-67872001D01*
X56620504Y-67883814D01*
X56533814Y-67970504D01*
X56479297Y-67998281D01*
X56463810Y-67999500D01*
X56434108Y-67999500D01*
X56356200Y-68020375D01*
X56306809Y-68033609D01*
X56192690Y-68099496D01*
X56099496Y-68192690D01*
X56033609Y-68306809D01*
X56033608Y-68306814D01*
X55999500Y-68434108D01*
X55999500Y-68565892D01*
X56029579Y-68678151D01*
X56033609Y-68693190D01*
X56099496Y-68807309D01*
X56099498Y-68807311D01*
X56099500Y-68807314D01*
X56192686Y-68900500D01*
X56192688Y-68900501D01*
X56192690Y-68900503D01*
X56306810Y-68966390D01*
X56306808Y-68966390D01*
X56306812Y-68966391D01*
X56306814Y-68966392D01*
X56434108Y-69000500D01*
X56434110Y-69000500D01*
X56565890Y-69000500D01*
X56565892Y-69000500D01*
X56693186Y-68966392D01*
X56693188Y-68966390D01*
X56693190Y-68966390D01*
X56807309Y-68900503D01*
X56807309Y-68900502D01*
X56807314Y-68900500D01*
X56900500Y-68807314D01*
X56939763Y-68739307D01*
X56985233Y-68698367D01*
X57046083Y-68691971D01*
X57099071Y-68722564D01*
X57123958Y-68778460D01*
X57124500Y-68788808D01*
X57124500Y-76803455D01*
X57105593Y-76861646D01*
X57095504Y-76873459D01*
X55548459Y-78420504D01*
X55493942Y-78448281D01*
X55478455Y-78449500D01*
X55427525Y-78449500D01*
X55412754Y-78453458D01*
X55287510Y-78487017D01*
X55161989Y-78559487D01*
X55059487Y-78661989D01*
X54987017Y-78787510D01*
X54949500Y-78927525D01*
X54949500Y-79072474D01*
X54987017Y-79212489D01*
X55059487Y-79338010D01*
X55059489Y-79338012D01*
X55059491Y-79338015D01*
X55161985Y-79440509D01*
X55161987Y-79440510D01*
X55161989Y-79440512D01*
X55287511Y-79512982D01*
X55287512Y-79512982D01*
X55287515Y-79512984D01*
X55427525Y-79550500D01*
X55427526Y-79550500D01*
X55572474Y-79550500D01*
X55572475Y-79550500D01*
X55712485Y-79512984D01*
X55712487Y-79512982D01*
X55712489Y-79512982D01*
X55838010Y-79440512D01*
X55838010Y-79440511D01*
X55838015Y-79440509D01*
X55940509Y-79338015D01*
X55940512Y-79338010D01*
X56012982Y-79212489D01*
X56012982Y-79212487D01*
X56012984Y-79212485D01*
X56050500Y-79072475D01*
X56050500Y-79021545D01*
X56069407Y-78963354D01*
X56079496Y-78951541D01*
X57455496Y-77575541D01*
X57510013Y-77547764D01*
X57570445Y-77557335D01*
X57613710Y-77600600D01*
X57624500Y-77645545D01*
X57624500Y-78383454D01*
X57605593Y-78441645D01*
X57595504Y-78453458D01*
X55048459Y-81000504D01*
X54993942Y-81028281D01*
X54978455Y-81029500D01*
X54927525Y-81029500D01*
X54865790Y-81046041D01*
X54787510Y-81067017D01*
X54661989Y-81139487D01*
X54559488Y-81241988D01*
X54555540Y-81247134D01*
X54554214Y-81246116D01*
X54514763Y-81281636D01*
X54453913Y-81288029D01*
X54400926Y-81257434D01*
X54376042Y-81201537D01*
X54375500Y-81191193D01*
X54375500Y-70450565D01*
X54371091Y-70434109D01*
X54349911Y-70355063D01*
X54349909Y-70355060D01*
X54349909Y-70355058D01*
X54300478Y-70269442D01*
X54300477Y-70269441D01*
X54300476Y-70269440D01*
X54300475Y-70269438D01*
X53404495Y-69373458D01*
X53376719Y-69318942D01*
X53375500Y-69303455D01*
X53375500Y-64450566D01*
X53375500Y-64450565D01*
X53349910Y-64355062D01*
X53349908Y-64355059D01*
X53349908Y-64355057D01*
X53300476Y-64269440D01*
X53300475Y-64269438D01*
X53230562Y-64199525D01*
X53230559Y-64199523D01*
X53144941Y-64150091D01*
X53144943Y-64150091D01*
X53107885Y-64140161D01*
X53049435Y-64124500D01*
X53049433Y-64124500D01*
X51974500Y-64124500D01*
X51916309Y-64105593D01*
X51880345Y-64056093D01*
X51875500Y-64025500D01*
X51875500Y-52888806D01*
X51877158Y-52883701D01*
X51876043Y-52878452D01*
X51886477Y-52855019D01*
X51894407Y-52830615D01*
X51898750Y-52827459D01*
X51900933Y-52822558D01*
X51923145Y-52809735D01*
X51943907Y-52794651D01*
X51949275Y-52794651D01*
X51953923Y-52791968D01*
X51979436Y-52794651D01*
G37*
G04 #@! TD.AperFunction*
G04 #@! TA.AperFunction,Conductor*
G36*
X49544502Y-66075540D02*
G01*
X49769437Y-66300475D01*
X49855063Y-66349911D01*
X49950564Y-66375500D01*
X49950565Y-66375500D01*
X50525500Y-66375500D01*
X50583691Y-66394407D01*
X50619655Y-66443907D01*
X50624500Y-66474500D01*
X50624500Y-70354454D01*
X50605593Y-70412645D01*
X50556093Y-70448609D01*
X50494907Y-70448609D01*
X50455496Y-70424458D01*
X49404496Y-69373458D01*
X49376719Y-69318941D01*
X49375500Y-69303454D01*
X49375500Y-66145544D01*
X49394407Y-66087353D01*
X49443907Y-66051389D01*
X49505093Y-66051389D01*
X49544502Y-66075540D01*
G37*
G04 #@! TD.AperFunction*
G04 #@! TA.AperFunction,Conductor*
G36*
X59718691Y-35018907D02*
G01*
X59754655Y-35068407D01*
X59759500Y-35099000D01*
X59759500Y-156355572D01*
X59740593Y-156413763D01*
X59691093Y-156449727D01*
X59629907Y-156449727D01*
X59590497Y-156425576D01*
X59387778Y-156222858D01*
X59387776Y-156222856D01*
X59223926Y-156113375D01*
X59223912Y-156113368D01*
X59041839Y-156037950D01*
X59041833Y-156037948D01*
X58848542Y-155999500D01*
X58848540Y-155999500D01*
X58651460Y-155999500D01*
X58651457Y-155999500D01*
X58458166Y-156037948D01*
X58458160Y-156037950D01*
X58276087Y-156113368D01*
X58276073Y-156113375D01*
X58112225Y-156222855D01*
X57972855Y-156362225D01*
X57863375Y-156526073D01*
X57863368Y-156526087D01*
X57787950Y-156708160D01*
X57787948Y-156708166D01*
X57749500Y-156901457D01*
X57749500Y-157098542D01*
X57787948Y-157291833D01*
X57787950Y-157291839D01*
X57863368Y-157473912D01*
X57863375Y-157473926D01*
X57972856Y-157637776D01*
X57975944Y-157641538D01*
X57974305Y-157642883D01*
X57998281Y-157689940D01*
X57999500Y-157705427D01*
X57999500Y-163544571D01*
X57980593Y-163602762D01*
X57970504Y-163614574D01*
X57222858Y-164362221D01*
X57222856Y-164362223D01*
X57113375Y-164526073D01*
X57113368Y-164526087D01*
X57037950Y-164708160D01*
X57037948Y-164708166D01*
X56999500Y-164901457D01*
X56999500Y-165098542D01*
X57037948Y-165291833D01*
X57037950Y-165291839D01*
X57113368Y-165473912D01*
X57113375Y-165473926D01*
X57222855Y-165637774D01*
X57222858Y-165637777D01*
X57222861Y-165637781D01*
X57362219Y-165777139D01*
X57362222Y-165777141D01*
X57362225Y-165777144D01*
X57526073Y-165886624D01*
X57526083Y-165886629D01*
X57526086Y-165886631D01*
X57708164Y-165962051D01*
X57901460Y-166000500D01*
X57901461Y-166000500D01*
X58098539Y-166000500D01*
X58098540Y-166000500D01*
X58291836Y-165962051D01*
X58473914Y-165886631D01*
X58473919Y-165886627D01*
X58473926Y-165886624D01*
X58637774Y-165777144D01*
X58637774Y-165777143D01*
X58637781Y-165777139D01*
X59590498Y-164824421D01*
X59645013Y-164796646D01*
X59705445Y-164806217D01*
X59748710Y-164849482D01*
X59759500Y-164894427D01*
X59759500Y-187960500D01*
X59740593Y-188018691D01*
X59691093Y-188054655D01*
X59660500Y-188059500D01*
X40339500Y-188059500D01*
X40281309Y-188040593D01*
X40245345Y-187991093D01*
X40240500Y-187960500D01*
X40240500Y-184896532D01*
X45449500Y-184896532D01*
X45449500Y-185103467D01*
X45489869Y-185306418D01*
X45569058Y-185497597D01*
X45569059Y-185497598D01*
X45684023Y-185669655D01*
X45830345Y-185815977D01*
X46002402Y-185930941D01*
X46193580Y-186010130D01*
X46396535Y-186050500D01*
X46396536Y-186050500D01*
X46603464Y-186050500D01*
X46603465Y-186050500D01*
X46806420Y-186010130D01*
X46997598Y-185930941D01*
X47169655Y-185815977D01*
X47315977Y-185669655D01*
X47430941Y-185497598D01*
X47510130Y-185306420D01*
X47550500Y-185103465D01*
X47550500Y-184896535D01*
X47510130Y-184693580D01*
X47430941Y-184502402D01*
X47315977Y-184330345D01*
X47169655Y-184184023D01*
X46997598Y-184069059D01*
X46997599Y-184069059D01*
X46997597Y-184069058D01*
X46806418Y-183989869D01*
X46603467Y-183949500D01*
X46603465Y-183949500D01*
X46396535Y-183949500D01*
X46396532Y-183949500D01*
X46193581Y-183989869D01*
X46002402Y-184069058D01*
X45830348Y-184184020D01*
X45684020Y-184330348D01*
X45569058Y-184502402D01*
X45489869Y-184693581D01*
X45449500Y-184896532D01*
X40240500Y-184896532D01*
X40240500Y-175891742D01*
X43999500Y-175891742D01*
X43999500Y-176108257D01*
X44033369Y-176322094D01*
X44033370Y-176322097D01*
X44100274Y-176528009D01*
X44198567Y-176720919D01*
X44325828Y-176896078D01*
X44478922Y-177049172D01*
X44654081Y-177176433D01*
X44846991Y-177274726D01*
X45052903Y-177341630D01*
X45138440Y-177355178D01*
X45266743Y-177375500D01*
X45266746Y-177375500D01*
X47733257Y-177375500D01*
X47840175Y-177358565D01*
X47947097Y-177341630D01*
X48153009Y-177274726D01*
X48345919Y-177176433D01*
X48521078Y-177049172D01*
X48674172Y-176896078D01*
X48801433Y-176720919D01*
X48899726Y-176528009D01*
X48966630Y-176322097D01*
X49000500Y-176108254D01*
X49000500Y-175891746D01*
X49000500Y-175891742D01*
X48966630Y-175677905D01*
X48966630Y-175677903D01*
X48899726Y-175471991D01*
X48801433Y-175279081D01*
X48674172Y-175103922D01*
X48521078Y-174950828D01*
X48345919Y-174823567D01*
X48345918Y-174823566D01*
X48345916Y-174823565D01*
X48153007Y-174725273D01*
X47947094Y-174658369D01*
X47733257Y-174624500D01*
X47733254Y-174624500D01*
X45266746Y-174624500D01*
X45266743Y-174624500D01*
X45052905Y-174658369D01*
X44846992Y-174725273D01*
X44654083Y-174823565D01*
X44478923Y-174950827D01*
X44325827Y-175103923D01*
X44198565Y-175279083D01*
X44100273Y-175471992D01*
X44033369Y-175677905D01*
X43999500Y-175891742D01*
X40240500Y-175891742D01*
X40240500Y-175387706D01*
X40259407Y-175329515D01*
X40308907Y-175293551D01*
X40370093Y-175293551D01*
X40394495Y-175305387D01*
X40516086Y-175386632D01*
X40698165Y-175462051D01*
X40891459Y-175500500D01*
X40891460Y-175500500D01*
X41088540Y-175500500D01*
X41088541Y-175500500D01*
X41281835Y-175462051D01*
X41463914Y-175386632D01*
X41627782Y-175277139D01*
X41767139Y-175137782D01*
X41876632Y-174973914D01*
X41952051Y-174791835D01*
X41990500Y-174598541D01*
X41990500Y-166215428D01*
X42009407Y-166157237D01*
X42019491Y-166145429D01*
X42027140Y-166137781D01*
X42136632Y-165973914D01*
X42212052Y-165791835D01*
X42250501Y-165598540D01*
X42250501Y-165401459D01*
X42250501Y-165397382D01*
X42250500Y-165397356D01*
X42250500Y-164697321D01*
X42269407Y-164639130D01*
X42318907Y-164603166D01*
X42380093Y-164603166D01*
X42419504Y-164627317D01*
X53099498Y-175307311D01*
X53099500Y-175307314D01*
X53192686Y-175400500D01*
X53192688Y-175400501D01*
X53192690Y-175400503D01*
X53299290Y-175462049D01*
X53299291Y-175462049D01*
X53306812Y-175466391D01*
X53306814Y-175466392D01*
X53434107Y-175500500D01*
X53434108Y-175500500D01*
X53434109Y-175500500D01*
X53565890Y-175500500D01*
X53565892Y-175500500D01*
X53693186Y-175466392D01*
X53693188Y-175466390D01*
X53693190Y-175466390D01*
X53807309Y-175400503D01*
X53807309Y-175400502D01*
X53807314Y-175400500D01*
X53900500Y-175307314D01*
X53916799Y-175279083D01*
X53966390Y-175193190D01*
X53966390Y-175193188D01*
X53966392Y-175193186D01*
X54000500Y-175065892D01*
X54000500Y-174947321D01*
X54019407Y-174889130D01*
X54068907Y-174853166D01*
X54130093Y-174853166D01*
X54169501Y-174877315D01*
X54192686Y-174900500D01*
X54192688Y-174900501D01*
X54192690Y-174900503D01*
X54306810Y-174966390D01*
X54306808Y-174966390D01*
X54306812Y-174966391D01*
X54306814Y-174966392D01*
X54434108Y-175000500D01*
X54434110Y-175000500D01*
X54565890Y-175000500D01*
X54565892Y-175000500D01*
X54693186Y-174966392D01*
X54693188Y-174966390D01*
X54693190Y-174966390D01*
X54807309Y-174900503D01*
X54807309Y-174900502D01*
X54807314Y-174900500D01*
X54900500Y-174807314D01*
X54909437Y-174791835D01*
X54966390Y-174693190D01*
X54966390Y-174693188D01*
X54966392Y-174693186D01*
X55000500Y-174565892D01*
X55000500Y-173934108D01*
X54966392Y-173806814D01*
X54966390Y-173806811D01*
X54966390Y-173806809D01*
X54900503Y-173692690D01*
X54900501Y-173692688D01*
X54900500Y-173692686D01*
X54807314Y-173599500D01*
X54807311Y-173599498D01*
X43807314Y-162599500D01*
X43807311Y-162599498D01*
X43807309Y-162599496D01*
X43693189Y-162533609D01*
X43693191Y-162533609D01*
X43643799Y-162520375D01*
X43565892Y-162499500D01*
X43520544Y-162499500D01*
X43462353Y-162480593D01*
X43426389Y-162431093D01*
X43426389Y-162369907D01*
X43450538Y-162330498D01*
X43800475Y-161980562D01*
X43849911Y-161894937D01*
X43875500Y-161799436D01*
X43875500Y-161700564D01*
X43875500Y-154696544D01*
X43877968Y-154688946D01*
X43876719Y-154681056D01*
X43887242Y-154660402D01*
X43894407Y-154638353D01*
X43904497Y-154626540D01*
X44001542Y-154529496D01*
X44056058Y-154501719D01*
X44059471Y-154501450D01*
X44059458Y-154501347D01*
X44065889Y-154500500D01*
X44065892Y-154500500D01*
X44193186Y-154466392D01*
X44193188Y-154466390D01*
X44193190Y-154466390D01*
X44307309Y-154400503D01*
X44307309Y-154400502D01*
X44307314Y-154400500D01*
X44400500Y-154307314D01*
X44466392Y-154193186D01*
X44500500Y-154065892D01*
X44500500Y-153934108D01*
X44466392Y-153806814D01*
X44466390Y-153806811D01*
X44466390Y-153806809D01*
X44400503Y-153692690D01*
X44400501Y-153692688D01*
X44400500Y-153692686D01*
X44307314Y-153599500D01*
X44307311Y-153599498D01*
X44307309Y-153599496D01*
X44193189Y-153533609D01*
X44193191Y-153533609D01*
X44143799Y-153520375D01*
X44065892Y-153499500D01*
X43934108Y-153499500D01*
X43856200Y-153520375D01*
X43806809Y-153533609D01*
X43692690Y-153599496D01*
X43599496Y-153692690D01*
X43533609Y-153806809D01*
X43499499Y-153934110D01*
X43498653Y-153940542D01*
X43495699Y-153940153D01*
X43480593Y-153986646D01*
X43470509Y-153998453D01*
X43269438Y-154199525D01*
X43269437Y-154199524D01*
X43199524Y-154269438D01*
X43150091Y-154355057D01*
X43137915Y-154400500D01*
X43124501Y-154450564D01*
X43124500Y-154450566D01*
X43124500Y-161553455D01*
X43105593Y-161611646D01*
X43095504Y-161623459D01*
X42419504Y-162299459D01*
X42364987Y-162327236D01*
X42304555Y-162317665D01*
X42261290Y-162274400D01*
X42250500Y-162229455D01*
X42250500Y-153901460D01*
X42250499Y-153901456D01*
X42212051Y-153708165D01*
X42136632Y-153526086D01*
X42027139Y-153362218D01*
X41887782Y-153222861D01*
X41723914Y-153113368D01*
X41723915Y-153113368D01*
X41723913Y-153113367D01*
X41541835Y-153037949D01*
X41348543Y-152999500D01*
X41348541Y-152999500D01*
X41151459Y-152999500D01*
X41151456Y-152999500D01*
X40958165Y-153037949D01*
X40958163Y-153037949D01*
X40776086Y-153113367D01*
X40612218Y-153222861D01*
X40612214Y-153222864D01*
X40472864Y-153362214D01*
X40472861Y-153362218D01*
X40455970Y-153387498D01*
X40421815Y-153438614D01*
X40373765Y-153476493D01*
X40312627Y-153478895D01*
X40261753Y-153444902D01*
X40240576Y-153387498D01*
X40240500Y-153383612D01*
X40240500Y-151434108D01*
X44499500Y-151434108D01*
X44499500Y-151565892D01*
X44529579Y-151678151D01*
X44533609Y-151693190D01*
X44599496Y-151807309D01*
X44599498Y-151807311D01*
X44599500Y-151807314D01*
X44692686Y-151900500D01*
X44692688Y-151900501D01*
X44692690Y-151900503D01*
X44806810Y-151966390D01*
X44806808Y-151966390D01*
X44806812Y-151966391D01*
X44806814Y-151966392D01*
X44934108Y-152000500D01*
X44934110Y-152000500D01*
X45065890Y-152000500D01*
X45065892Y-152000500D01*
X45193186Y-151966392D01*
X45193188Y-151966390D01*
X45193190Y-151966390D01*
X45307309Y-151900503D01*
X45307309Y-151900502D01*
X45307314Y-151900500D01*
X45400500Y-151807314D01*
X45466392Y-151693186D01*
X45500500Y-151565892D01*
X45500500Y-151536190D01*
X45519407Y-151477999D01*
X45529496Y-151466186D01*
X46116186Y-150879496D01*
X46170703Y-150851719D01*
X46186190Y-150850500D01*
X52601679Y-150850500D01*
X52659870Y-150869407D01*
X52671676Y-150879490D01*
X52692686Y-150900500D01*
X52692688Y-150900501D01*
X52692690Y-150900503D01*
X52806810Y-150966390D01*
X52806808Y-150966390D01*
X52806812Y-150966391D01*
X52806814Y-150966392D01*
X52934108Y-151000500D01*
X52934110Y-151000500D01*
X53065890Y-151000500D01*
X53065892Y-151000500D01*
X53193186Y-150966392D01*
X53193188Y-150966390D01*
X53193190Y-150966390D01*
X53307309Y-150900503D01*
X53307309Y-150900502D01*
X53307314Y-150900500D01*
X53400500Y-150807314D01*
X53466392Y-150693186D01*
X53500500Y-150565892D01*
X53500500Y-150434108D01*
X53466392Y-150306814D01*
X53466390Y-150306811D01*
X53466390Y-150306809D01*
X53400503Y-150192690D01*
X53400501Y-150192688D01*
X53400500Y-150192686D01*
X53307314Y-150099500D01*
X53307311Y-150099498D01*
X53307309Y-150099496D01*
X53193189Y-150033609D01*
X53193191Y-150033609D01*
X53105948Y-150010233D01*
X53065892Y-149999500D01*
X52934108Y-149999500D01*
X52894052Y-150010233D01*
X52806809Y-150033609D01*
X52692690Y-150099496D01*
X52692689Y-150099497D01*
X52692686Y-150099499D01*
X52692686Y-150099500D01*
X52671680Y-150120505D01*
X52617166Y-150148281D01*
X52601679Y-150149500D01*
X51245507Y-150149500D01*
X51187316Y-150130593D01*
X51151352Y-150081093D01*
X51151352Y-150019907D01*
X51187316Y-149970407D01*
X51196007Y-149964764D01*
X51307309Y-149900503D01*
X51307309Y-149900502D01*
X51307314Y-149900500D01*
X51400500Y-149807314D01*
X51466392Y-149693186D01*
X51500500Y-149565892D01*
X51500500Y-149434108D01*
X51466392Y-149306814D01*
X51466390Y-149306811D01*
X51466390Y-149306809D01*
X51400503Y-149192690D01*
X51396551Y-149187540D01*
X51398901Y-149185735D01*
X51376706Y-149142082D01*
X51375500Y-149126678D01*
X51375500Y-148450566D01*
X51375500Y-148450565D01*
X51349910Y-148355062D01*
X51349908Y-148355059D01*
X51349908Y-148355057D01*
X51300476Y-148269440D01*
X51300475Y-148269438D01*
X51230562Y-148199525D01*
X51230559Y-148199523D01*
X51144941Y-148150091D01*
X51144943Y-148150091D01*
X51107885Y-148140161D01*
X51049435Y-148124500D01*
X51049433Y-148124500D01*
X49873321Y-148124500D01*
X49815130Y-148105593D01*
X49812523Y-148103366D01*
X49812460Y-148103449D01*
X49807309Y-148099496D01*
X49693189Y-148033609D01*
X49693191Y-148033609D01*
X49643799Y-148020375D01*
X49565892Y-147999500D01*
X49434108Y-147999500D01*
X49356200Y-148020375D01*
X49306809Y-148033609D01*
X49192690Y-148099496D01*
X49099496Y-148192690D01*
X49033609Y-148306809D01*
X49033608Y-148306814D01*
X48999500Y-148434108D01*
X48999500Y-148565892D01*
X49029579Y-148678151D01*
X49033609Y-148693190D01*
X49099496Y-148807309D01*
X49099498Y-148807311D01*
X49099500Y-148807314D01*
X49192686Y-148900500D01*
X49192688Y-148900501D01*
X49192690Y-148900503D01*
X49306810Y-148966390D01*
X49306808Y-148966390D01*
X49306812Y-148966391D01*
X49306814Y-148966392D01*
X49434108Y-149000500D01*
X49434110Y-149000500D01*
X49565890Y-149000500D01*
X49565892Y-149000500D01*
X49693186Y-148966392D01*
X49693188Y-148966390D01*
X49693190Y-148966390D01*
X49807309Y-148900503D01*
X49807309Y-148900502D01*
X49807314Y-148900500D01*
X49807317Y-148900496D01*
X49812460Y-148896551D01*
X49814273Y-148898913D01*
X49857834Y-148876719D01*
X49873321Y-148875500D01*
X50525500Y-148875500D01*
X50540412Y-148880345D01*
X50556093Y-148880345D01*
X50568778Y-148889561D01*
X50583691Y-148894407D01*
X50592907Y-148907092D01*
X50605593Y-148916309D01*
X50610438Y-148931221D01*
X50619655Y-148943907D01*
X50624500Y-148974500D01*
X50624500Y-149126678D01*
X50605593Y-149184869D01*
X50603367Y-149187477D01*
X50603449Y-149187540D01*
X50599496Y-149192690D01*
X50533609Y-149306809D01*
X50533608Y-149306814D01*
X50499500Y-149434108D01*
X50499500Y-149565892D01*
X50529579Y-149678151D01*
X50533609Y-149693190D01*
X50599496Y-149807309D01*
X50599498Y-149807311D01*
X50599500Y-149807314D01*
X50692686Y-149900500D01*
X50692688Y-149900501D01*
X50692690Y-149900503D01*
X50803993Y-149964764D01*
X50844934Y-150010233D01*
X50851330Y-150071083D01*
X50820737Y-150124071D01*
X50764841Y-150148958D01*
X50754493Y-150149500D01*
X45953856Y-150149500D01*
X45864712Y-150173386D01*
X45784788Y-150219530D01*
X45033814Y-150970504D01*
X44979297Y-150998281D01*
X44963810Y-150999500D01*
X44934108Y-150999500D01*
X44856200Y-151020375D01*
X44806809Y-151033609D01*
X44692690Y-151099496D01*
X44599496Y-151192690D01*
X44533609Y-151306809D01*
X44533608Y-151306814D01*
X44499500Y-151434108D01*
X40240500Y-151434108D01*
X40240500Y-143427525D01*
X40449500Y-143427525D01*
X40449500Y-143572475D01*
X40479087Y-143682896D01*
X40487017Y-143712489D01*
X40559487Y-143838010D01*
X40559489Y-143838012D01*
X40559491Y-143838015D01*
X40661985Y-143940509D01*
X40661987Y-143940510D01*
X40661989Y-143940512D01*
X40787511Y-144012982D01*
X40787512Y-144012982D01*
X40787515Y-144012984D01*
X40927525Y-144050500D01*
X40978454Y-144050500D01*
X41036645Y-144069407D01*
X41048457Y-144079496D01*
X41177123Y-144208161D01*
X41269437Y-144300475D01*
X41355063Y-144349911D01*
X41450564Y-144375500D01*
X41450565Y-144375500D01*
X48055968Y-144375500D01*
X48114159Y-144394407D01*
X48125971Y-144404496D01*
X48161983Y-144440507D01*
X48161989Y-144440512D01*
X48287511Y-144512982D01*
X48287512Y-144512982D01*
X48287515Y-144512984D01*
X48427525Y-144550500D01*
X48427526Y-144550500D01*
X48572474Y-144550500D01*
X48572475Y-144550500D01*
X48712485Y-144512984D01*
X48712487Y-144512982D01*
X48712489Y-144512982D01*
X48838010Y-144440512D01*
X48838010Y-144440511D01*
X48838015Y-144440509D01*
X48877068Y-144401456D01*
X54499500Y-144401456D01*
X54499500Y-172098543D01*
X54537949Y-172291834D01*
X54537949Y-172291836D01*
X54613367Y-172473913D01*
X54613368Y-172473914D01*
X54722861Y-172637782D01*
X54862218Y-172777139D01*
X55026086Y-172886632D01*
X55208165Y-172962051D01*
X55401459Y-173000500D01*
X55401460Y-173000500D01*
X55598540Y-173000500D01*
X55598541Y-173000500D01*
X55791835Y-172962051D01*
X55973914Y-172886632D01*
X56137782Y-172777139D01*
X56277139Y-172637782D01*
X56386632Y-172473914D01*
X56462051Y-172291835D01*
X56500500Y-172098541D01*
X56500500Y-144751548D01*
X56502402Y-144732234D01*
X56536071Y-144562969D01*
X56536071Y-144365889D01*
X56497622Y-144172593D01*
X56422202Y-143990515D01*
X56422200Y-143990512D01*
X56422195Y-143990502D01*
X56312715Y-143826654D01*
X56312712Y-143826651D01*
X56312710Y-143826648D01*
X56173352Y-143687290D01*
X56173348Y-143687287D01*
X56173345Y-143687284D01*
X56009497Y-143577804D01*
X56009483Y-143577797D01*
X55827410Y-143502379D01*
X55827404Y-143502377D01*
X55634113Y-143463929D01*
X55634111Y-143463929D01*
X55437031Y-143463929D01*
X55437028Y-143463929D01*
X55243737Y-143502377D01*
X55243731Y-143502379D01*
X55061658Y-143577797D01*
X55061644Y-143577804D01*
X54897794Y-143687285D01*
X54862221Y-143722858D01*
X54862217Y-143722860D01*
X54862218Y-143722861D01*
X54722864Y-143862214D01*
X54722861Y-143862218D01*
X54613371Y-144026079D01*
X54613365Y-144026091D01*
X54579052Y-144108933D01*
X54579052Y-144108934D01*
X54537950Y-144208161D01*
X54537948Y-144208167D01*
X54533494Y-144230562D01*
X54499500Y-144401456D01*
X48877068Y-144401456D01*
X48940509Y-144338015D01*
X49012984Y-144212485D01*
X49050500Y-144072475D01*
X49050500Y-143927525D01*
X49012984Y-143787515D01*
X49012982Y-143787512D01*
X49012982Y-143787510D01*
X48940512Y-143661989D01*
X48940510Y-143661987D01*
X48940509Y-143661985D01*
X48838015Y-143559491D01*
X48838012Y-143559489D01*
X48838010Y-143559487D01*
X48712488Y-143487017D01*
X48712489Y-143487017D01*
X48626324Y-143463929D01*
X48572475Y-143449500D01*
X48427525Y-143449500D01*
X48373676Y-143463929D01*
X48287510Y-143487017D01*
X48161989Y-143559487D01*
X48161983Y-143559492D01*
X48125971Y-143595504D01*
X48071454Y-143623281D01*
X48055968Y-143624500D01*
X41696546Y-143624500D01*
X41688948Y-143622031D01*
X41681059Y-143623281D01*
X41660403Y-143612756D01*
X41638355Y-143605593D01*
X41626542Y-143595504D01*
X41579496Y-143548458D01*
X41551719Y-143493941D01*
X41550500Y-143478454D01*
X41550500Y-143427525D01*
X41512984Y-143287515D01*
X41512982Y-143287512D01*
X41512982Y-143287510D01*
X41440512Y-143161989D01*
X41440510Y-143161987D01*
X41440509Y-143161985D01*
X41338015Y-143059491D01*
X41338012Y-143059489D01*
X41338010Y-143059487D01*
X41212488Y-142987017D01*
X41212489Y-142987017D01*
X41182896Y-142979087D01*
X41072475Y-142949500D01*
X40927525Y-142949500D01*
X40865790Y-142966041D01*
X40787510Y-142987017D01*
X40661989Y-143059487D01*
X40559487Y-143161989D01*
X40487017Y-143287510D01*
X40487016Y-143287515D01*
X40449500Y-143427525D01*
X40240500Y-143427525D01*
X40240500Y-141427525D01*
X44949500Y-141427525D01*
X44949500Y-141572474D01*
X44987017Y-141712489D01*
X45059487Y-141838010D01*
X45059489Y-141838012D01*
X45059491Y-141838015D01*
X45161985Y-141940509D01*
X45161987Y-141940510D01*
X45161989Y-141940512D01*
X45287511Y-142012982D01*
X45287512Y-142012982D01*
X45287515Y-142012984D01*
X45427525Y-142050500D01*
X45427526Y-142050500D01*
X45572474Y-142050500D01*
X45572475Y-142050500D01*
X45712485Y-142012984D01*
X45712487Y-142012982D01*
X45712489Y-142012982D01*
X45838010Y-141940512D01*
X45838010Y-141940511D01*
X45838015Y-141940509D01*
X45856022Y-141922501D01*
X45874029Y-141904496D01*
X45928546Y-141876719D01*
X45944032Y-141875500D01*
X50049436Y-141875500D01*
X50097186Y-141862705D01*
X50097187Y-141862705D01*
X50144934Y-141849911D01*
X50144933Y-141849911D01*
X50144938Y-141849910D01*
X50230562Y-141800475D01*
X50300475Y-141730562D01*
X52451541Y-139579496D01*
X52506058Y-139551719D01*
X52521545Y-139550500D01*
X52572474Y-139550500D01*
X52572475Y-139550500D01*
X52712485Y-139512984D01*
X52712487Y-139512982D01*
X52712489Y-139512982D01*
X52838010Y-139440512D01*
X52838010Y-139440511D01*
X52838015Y-139440509D01*
X52940509Y-139338015D01*
X53012984Y-139212485D01*
X53050500Y-139072475D01*
X53050500Y-138927525D01*
X53012984Y-138787515D01*
X53012982Y-138787512D01*
X53012982Y-138787510D01*
X52940512Y-138661989D01*
X52940510Y-138661987D01*
X52940509Y-138661985D01*
X52838015Y-138559491D01*
X52838012Y-138559489D01*
X52838010Y-138559487D01*
X52712488Y-138487017D01*
X52712489Y-138487017D01*
X52624178Y-138463354D01*
X52572475Y-138449500D01*
X52427525Y-138449500D01*
X52375822Y-138463354D01*
X52287510Y-138487017D01*
X52161989Y-138559487D01*
X52059487Y-138661989D01*
X51987017Y-138787510D01*
X51949500Y-138927525D01*
X51949500Y-138978455D01*
X51930593Y-139036646D01*
X51920504Y-139048459D01*
X49873459Y-141095504D01*
X49818942Y-141123281D01*
X49803455Y-141124500D01*
X45944032Y-141124500D01*
X45885841Y-141105593D01*
X45874029Y-141095504D01*
X45838016Y-141059492D01*
X45838010Y-141059487D01*
X45712488Y-140987017D01*
X45712489Y-140987017D01*
X45682896Y-140979087D01*
X45572475Y-140949500D01*
X45427525Y-140949500D01*
X45365790Y-140966041D01*
X45287510Y-140987017D01*
X45161989Y-141059487D01*
X45059487Y-141161989D01*
X44987017Y-141287510D01*
X44949500Y-141427525D01*
X40240500Y-141427525D01*
X40240500Y-140390077D01*
X46740974Y-140390077D01*
X46740974Y-140390078D01*
X46846234Y-140433678D01*
X46991128Y-140462499D01*
X46991132Y-140462500D01*
X47138868Y-140462500D01*
X47138871Y-140462499D01*
X47283764Y-140433678D01*
X47283770Y-140433676D01*
X47389023Y-140390077D01*
X48040974Y-140390077D01*
X48040974Y-140390078D01*
X48146234Y-140433678D01*
X48291128Y-140462499D01*
X48291132Y-140462500D01*
X48438868Y-140462500D01*
X48438871Y-140462499D01*
X48583764Y-140433678D01*
X48583770Y-140433676D01*
X48689023Y-140390077D01*
X49340974Y-140390077D01*
X49340974Y-140390078D01*
X49446234Y-140433678D01*
X49591128Y-140462499D01*
X49591132Y-140462500D01*
X49738868Y-140462500D01*
X49738871Y-140462499D01*
X49883764Y-140433678D01*
X49883770Y-140433676D01*
X49989023Y-140390077D01*
X49664999Y-140066053D01*
X49340974Y-140390077D01*
X48689023Y-140390077D01*
X48364999Y-140066053D01*
X48040974Y-140390077D01*
X47389023Y-140390077D01*
X47064999Y-140066053D01*
X46740974Y-140390077D01*
X40240500Y-140390077D01*
X40240500Y-139638628D01*
X46315000Y-139638628D01*
X46315000Y-139786371D01*
X46343822Y-139931266D01*
X46343822Y-139931268D01*
X46387420Y-140036524D01*
X46711446Y-139712499D01*
X46691556Y-139692609D01*
X46965000Y-139692609D01*
X46965000Y-139732391D01*
X46980224Y-139769145D01*
X47008355Y-139797276D01*
X47045109Y-139812500D01*
X47084891Y-139812500D01*
X47121645Y-139797276D01*
X47149776Y-139769145D01*
X47165000Y-139732391D01*
X47165000Y-139712500D01*
X47418553Y-139712500D01*
X47714999Y-140008945D01*
X48011445Y-139712499D01*
X47991555Y-139692609D01*
X48265000Y-139692609D01*
X48265000Y-139732391D01*
X48280224Y-139769145D01*
X48308355Y-139797276D01*
X48345109Y-139812500D01*
X48384891Y-139812500D01*
X48421645Y-139797276D01*
X48449776Y-139769145D01*
X48465000Y-139732391D01*
X48465000Y-139712500D01*
X48718553Y-139712500D01*
X49014999Y-140008945D01*
X49311446Y-139712499D01*
X49291556Y-139692609D01*
X49565000Y-139692609D01*
X49565000Y-139732391D01*
X49580224Y-139769145D01*
X49608355Y-139797276D01*
X49645109Y-139812500D01*
X49684891Y-139812500D01*
X49721645Y-139797276D01*
X49749776Y-139769145D01*
X49765000Y-139732391D01*
X49765000Y-139712499D01*
X50018553Y-139712499D01*
X50342577Y-140036523D01*
X50386176Y-139931270D01*
X50386178Y-139931264D01*
X50414999Y-139786371D01*
X50415000Y-139786367D01*
X50415000Y-139638632D01*
X50414999Y-139638628D01*
X50386178Y-139493734D01*
X50342578Y-139388474D01*
X50342577Y-139388474D01*
X50018553Y-139712499D01*
X49765000Y-139712499D01*
X49765000Y-139692609D01*
X49749776Y-139655855D01*
X49721645Y-139627724D01*
X49684891Y-139612500D01*
X49645109Y-139612500D01*
X49608355Y-139627724D01*
X49580224Y-139655855D01*
X49565000Y-139692609D01*
X49291556Y-139692609D01*
X49015000Y-139416053D01*
X48718553Y-139712500D01*
X48465000Y-139712500D01*
X48465000Y-139692609D01*
X48449776Y-139655855D01*
X48421645Y-139627724D01*
X48384891Y-139612500D01*
X48345109Y-139612500D01*
X48308355Y-139627724D01*
X48280224Y-139655855D01*
X48265000Y-139692609D01*
X47991555Y-139692609D01*
X47715000Y-139416053D01*
X47418553Y-139712500D01*
X47165000Y-139712500D01*
X47165000Y-139692609D01*
X47149776Y-139655855D01*
X47121645Y-139627724D01*
X47084891Y-139612500D01*
X47045109Y-139612500D01*
X47008355Y-139627724D01*
X46980224Y-139655855D01*
X46965000Y-139692609D01*
X46691556Y-139692609D01*
X46387421Y-139388474D01*
X46387420Y-139388474D01*
X46343822Y-139493731D01*
X46343822Y-139493733D01*
X46315000Y-139638628D01*
X40240500Y-139638628D01*
X40240500Y-139062500D01*
X46768553Y-139062500D01*
X47064999Y-139358945D01*
X47361445Y-139062500D01*
X48068553Y-139062500D01*
X48364999Y-139358945D01*
X48661444Y-139062500D01*
X49368553Y-139062500D01*
X49664999Y-139358945D01*
X49961446Y-139062499D01*
X49665000Y-138766053D01*
X49368553Y-139062500D01*
X48661444Y-139062500D01*
X48661445Y-139062499D01*
X48365000Y-138766053D01*
X48068553Y-139062500D01*
X47361445Y-139062500D01*
X47361446Y-139062499D01*
X47065000Y-138766053D01*
X46768553Y-139062500D01*
X40240500Y-139062500D01*
X40240500Y-138427525D01*
X41449500Y-138427525D01*
X41449500Y-138572475D01*
X41479087Y-138682896D01*
X41487017Y-138712489D01*
X41559487Y-138838010D01*
X41559489Y-138838012D01*
X41559491Y-138838015D01*
X41661985Y-138940509D01*
X41661987Y-138940510D01*
X41661989Y-138940512D01*
X41787511Y-139012982D01*
X41787512Y-139012982D01*
X41787515Y-139012984D01*
X41927525Y-139050500D01*
X41927526Y-139050500D01*
X42072474Y-139050500D01*
X42072475Y-139050500D01*
X42212485Y-139012984D01*
X42212487Y-139012982D01*
X42212489Y-139012982D01*
X42338010Y-138940512D01*
X42338010Y-138940511D01*
X42338015Y-138940509D01*
X42440509Y-138838015D01*
X42469668Y-138787510D01*
X42512982Y-138712489D01*
X42512982Y-138712487D01*
X42512984Y-138712485D01*
X42550500Y-138572475D01*
X42550500Y-138521545D01*
X42569407Y-138463354D01*
X42579496Y-138451541D01*
X42692409Y-138338628D01*
X46315000Y-138338628D01*
X46315000Y-138486371D01*
X46343822Y-138631266D01*
X46343822Y-138631268D01*
X46387420Y-138736524D01*
X46711445Y-138412499D01*
X46691555Y-138392609D01*
X46965000Y-138392609D01*
X46965000Y-138432391D01*
X46980224Y-138469145D01*
X47008355Y-138497276D01*
X47045109Y-138512500D01*
X47084891Y-138512500D01*
X47121645Y-138497276D01*
X47149776Y-138469145D01*
X47165000Y-138432391D01*
X47165000Y-138412500D01*
X47418553Y-138412500D01*
X47714999Y-138708945D01*
X48011445Y-138412499D01*
X47991555Y-138392609D01*
X48265000Y-138392609D01*
X48265000Y-138432391D01*
X48280224Y-138469145D01*
X48308355Y-138497276D01*
X48345109Y-138512500D01*
X48384891Y-138512500D01*
X48421645Y-138497276D01*
X48449776Y-138469145D01*
X48465000Y-138432391D01*
X48465000Y-138412500D01*
X48718553Y-138412500D01*
X49014999Y-138708945D01*
X49311445Y-138412499D01*
X49291555Y-138392609D01*
X49565000Y-138392609D01*
X49565000Y-138432391D01*
X49580224Y-138469145D01*
X49608355Y-138497276D01*
X49645109Y-138512500D01*
X49684891Y-138512500D01*
X49721645Y-138497276D01*
X49749776Y-138469145D01*
X49765000Y-138432391D01*
X49765000Y-138412499D01*
X50018553Y-138412499D01*
X50342577Y-138736523D01*
X50386176Y-138631270D01*
X50386178Y-138631264D01*
X50414999Y-138486371D01*
X50415000Y-138486367D01*
X50415000Y-138338632D01*
X50414999Y-138338628D01*
X50386178Y-138193734D01*
X50342578Y-138088474D01*
X50342577Y-138088474D01*
X50018553Y-138412499D01*
X49765000Y-138412499D01*
X49765000Y-138392609D01*
X49749776Y-138355855D01*
X49721645Y-138327724D01*
X49684891Y-138312500D01*
X49645109Y-138312500D01*
X49608355Y-138327724D01*
X49580224Y-138355855D01*
X49565000Y-138392609D01*
X49291555Y-138392609D01*
X49015000Y-138116053D01*
X48718553Y-138412500D01*
X48465000Y-138412500D01*
X48465000Y-138392609D01*
X48449776Y-138355855D01*
X48421645Y-138327724D01*
X48384891Y-138312500D01*
X48345109Y-138312500D01*
X48308355Y-138327724D01*
X48280224Y-138355855D01*
X48265000Y-138392609D01*
X47991555Y-138392609D01*
X47715000Y-138116053D01*
X47418553Y-138412500D01*
X47165000Y-138412500D01*
X47165000Y-138392609D01*
X47149776Y-138355855D01*
X47121645Y-138327724D01*
X47084891Y-138312500D01*
X47045109Y-138312500D01*
X47008355Y-138327724D01*
X46980224Y-138355855D01*
X46965000Y-138392609D01*
X46691555Y-138392609D01*
X46387421Y-138088474D01*
X46387420Y-138088474D01*
X46343822Y-138193731D01*
X46343822Y-138193733D01*
X46315000Y-138338628D01*
X42692409Y-138338628D01*
X43126541Y-137904496D01*
X43181058Y-137876719D01*
X43196545Y-137875500D01*
X44555968Y-137875500D01*
X44614159Y-137894407D01*
X44625971Y-137904496D01*
X44661983Y-137940507D01*
X44661989Y-137940512D01*
X44787511Y-138012982D01*
X44787512Y-138012982D01*
X44787515Y-138012984D01*
X44927525Y-138050500D01*
X44927526Y-138050500D01*
X45072474Y-138050500D01*
X45072475Y-138050500D01*
X45212485Y-138012984D01*
X45212487Y-138012982D01*
X45212489Y-138012982D01*
X45338010Y-137940512D01*
X45338010Y-137940511D01*
X45338015Y-137940509D01*
X45440509Y-137838015D01*
X45440512Y-137838010D01*
X45500032Y-137734920D01*
X46740974Y-137734920D01*
X46740974Y-137734921D01*
X47064999Y-138058945D01*
X47389024Y-137734920D01*
X48040974Y-137734920D01*
X48040974Y-137734921D01*
X48364999Y-138058945D01*
X48689024Y-137734920D01*
X49340974Y-137734920D01*
X49340974Y-137734921D01*
X49664999Y-138058945D01*
X49989024Y-137734920D01*
X49886508Y-137692457D01*
X49874849Y-137689548D01*
X49738871Y-137662500D01*
X49591128Y-137662500D01*
X49446233Y-137691322D01*
X49446231Y-137691322D01*
X49340974Y-137734920D01*
X48689024Y-137734920D01*
X48583767Y-137691322D01*
X48438871Y-137662500D01*
X48291128Y-137662500D01*
X48146233Y-137691322D01*
X48146231Y-137691322D01*
X48040974Y-137734920D01*
X47389024Y-137734920D01*
X47283767Y-137691322D01*
X47138871Y-137662500D01*
X46991128Y-137662500D01*
X46846233Y-137691322D01*
X46846231Y-137691322D01*
X46740974Y-137734920D01*
X45500032Y-137734920D01*
X45509797Y-137718007D01*
X45512982Y-137712488D01*
X45512981Y-137712488D01*
X45512984Y-137712485D01*
X45550500Y-137572475D01*
X45550500Y-137427525D01*
X45512984Y-137287515D01*
X45512982Y-137287512D01*
X45512982Y-137287510D01*
X45440512Y-137161989D01*
X45440510Y-137161987D01*
X45440509Y-137161985D01*
X45338015Y-137059491D01*
X45338012Y-137059489D01*
X45338010Y-137059487D01*
X45212488Y-136987017D01*
X45212489Y-136987017D01*
X45182896Y-136979087D01*
X45072475Y-136949500D01*
X44927525Y-136949500D01*
X44865790Y-136966041D01*
X44787510Y-136987017D01*
X44661989Y-137059487D01*
X44661983Y-137059492D01*
X44625971Y-137095504D01*
X44571454Y-137123281D01*
X44555968Y-137124500D01*
X43049436Y-137124500D01*
X42950564Y-137124500D01*
X42892113Y-137140161D01*
X42855058Y-137150090D01*
X42769442Y-137199521D01*
X42048459Y-137920504D01*
X41993942Y-137948281D01*
X41978455Y-137949500D01*
X41927525Y-137949500D01*
X41865790Y-137966041D01*
X41787510Y-137987017D01*
X41661989Y-138059487D01*
X41559487Y-138161989D01*
X41487017Y-138287510D01*
X41487016Y-138287515D01*
X41449500Y-138427525D01*
X40240500Y-138427525D01*
X40240500Y-134927525D01*
X41449500Y-134927525D01*
X41449500Y-135072475D01*
X41475352Y-135168954D01*
X41487017Y-135212489D01*
X41559487Y-135338010D01*
X41559489Y-135338012D01*
X41559491Y-135338015D01*
X41661985Y-135440509D01*
X41661987Y-135440510D01*
X41661989Y-135440512D01*
X41787511Y-135512982D01*
X41787512Y-135512982D01*
X41787515Y-135512984D01*
X41927525Y-135550500D01*
X41927526Y-135550500D01*
X42072474Y-135550500D01*
X42072475Y-135550500D01*
X42212485Y-135512984D01*
X42212488Y-135512981D01*
X42218479Y-135510501D01*
X42218961Y-135511665D01*
X42260635Y-135500500D01*
X47751678Y-135500500D01*
X47809869Y-135519407D01*
X47821682Y-135529496D01*
X49692686Y-137400500D01*
X49692688Y-137400501D01*
X49692689Y-137400502D01*
X49692690Y-137400503D01*
X49806810Y-137466390D01*
X49806808Y-137466390D01*
X49806812Y-137466391D01*
X49806814Y-137466392D01*
X49934107Y-137500500D01*
X49934108Y-137500500D01*
X53400500Y-137500500D01*
X53458691Y-137519407D01*
X53494655Y-137568907D01*
X53499500Y-137599500D01*
X53499500Y-141239365D01*
X53488334Y-141281038D01*
X53489499Y-141281521D01*
X53487016Y-141287513D01*
X53449500Y-141427525D01*
X53449500Y-141572474D01*
X53487017Y-141712489D01*
X53559487Y-141838010D01*
X53559489Y-141838012D01*
X53559491Y-141838015D01*
X53661985Y-141940509D01*
X53661987Y-141940510D01*
X53661989Y-141940512D01*
X53787511Y-142012982D01*
X53787512Y-142012982D01*
X53787515Y-142012984D01*
X53927525Y-142050500D01*
X53927526Y-142050500D01*
X54072474Y-142050500D01*
X54072475Y-142050500D01*
X54212485Y-142012984D01*
X54212487Y-142012982D01*
X54212489Y-142012982D01*
X54338010Y-141940512D01*
X54338010Y-141940511D01*
X54338015Y-141940509D01*
X54440509Y-141838015D01*
X54512984Y-141712485D01*
X54550500Y-141572475D01*
X54550500Y-141427525D01*
X54512984Y-141287515D01*
X54512983Y-141287513D01*
X54510501Y-141281521D01*
X54511665Y-141281038D01*
X54500500Y-141239365D01*
X54500500Y-136934109D01*
X54500500Y-136934108D01*
X54466392Y-136806814D01*
X54466390Y-136806811D01*
X54466390Y-136806809D01*
X54400503Y-136692690D01*
X54400501Y-136692688D01*
X54400500Y-136692686D01*
X54307314Y-136599500D01*
X54307311Y-136599498D01*
X54307309Y-136599496D01*
X54193189Y-136533609D01*
X54193191Y-136533609D01*
X54143799Y-136520375D01*
X54065892Y-136499500D01*
X54065890Y-136499500D01*
X50248322Y-136499500D01*
X50190131Y-136480593D01*
X50178318Y-136470504D01*
X48931285Y-135223471D01*
X48903508Y-135168954D01*
X48905662Y-135127846D01*
X48920500Y-135072475D01*
X48920500Y-134927525D01*
X48882984Y-134787515D01*
X48882982Y-134787512D01*
X48882982Y-134787510D01*
X48810512Y-134661989D01*
X48810510Y-134661987D01*
X48810509Y-134661985D01*
X48708015Y-134559491D01*
X48708012Y-134559489D01*
X48708011Y-134559488D01*
X48702866Y-134555540D01*
X48703883Y-134554214D01*
X48668364Y-134514763D01*
X48661971Y-134453913D01*
X48692566Y-134400926D01*
X48748463Y-134376042D01*
X48758807Y-134375500D01*
X51126679Y-134375500D01*
X51184870Y-134394407D01*
X51187476Y-134396633D01*
X51187540Y-134396551D01*
X51192690Y-134400503D01*
X51306810Y-134466390D01*
X51306808Y-134466390D01*
X51306812Y-134466391D01*
X51306814Y-134466392D01*
X51434108Y-134500500D01*
X51434110Y-134500500D01*
X51565890Y-134500500D01*
X51565892Y-134500500D01*
X51693186Y-134466392D01*
X51693188Y-134466390D01*
X51693190Y-134466390D01*
X51807309Y-134400503D01*
X51807309Y-134400502D01*
X51807314Y-134400500D01*
X54400500Y-131807314D01*
X54466392Y-131693186D01*
X54500500Y-131565892D01*
X54500500Y-131434107D01*
X54466392Y-131306814D01*
X54466390Y-131306811D01*
X54466390Y-131306809D01*
X54400503Y-131192690D01*
X54400501Y-131192688D01*
X54400500Y-131192686D01*
X54307314Y-131099500D01*
X54307311Y-131099498D01*
X54307309Y-131099496D01*
X54193189Y-131033609D01*
X54193191Y-131033609D01*
X54143799Y-131020374D01*
X54065893Y-130999500D01*
X53934108Y-130999500D01*
X53856200Y-131020375D01*
X53806809Y-131033609D01*
X53692690Y-131099496D01*
X51196682Y-133595504D01*
X51142165Y-133623281D01*
X51126678Y-133624500D01*
X47349500Y-133624500D01*
X47291309Y-133605593D01*
X47255345Y-133556093D01*
X47250500Y-133525500D01*
X47250500Y-133426083D01*
X47250500Y-133426082D01*
X47221658Y-133281087D01*
X47165084Y-133144505D01*
X47082951Y-133021584D01*
X46978416Y-132917049D01*
X46855495Y-132834916D01*
X46855493Y-132834915D01*
X46718914Y-132778342D01*
X46573918Y-132749500D01*
X46426082Y-132749500D01*
X46426081Y-132749500D01*
X46281085Y-132778342D01*
X46144506Y-132834915D01*
X46021585Y-132917048D01*
X45917048Y-133021585D01*
X45834915Y-133144506D01*
X45778342Y-133281085D01*
X45778342Y-133281087D01*
X45749500Y-133426082D01*
X45749500Y-133573918D01*
X45778342Y-133718913D01*
X45834916Y-133855495D01*
X45917049Y-133978416D01*
X46021584Y-134082951D01*
X46144505Y-134165084D01*
X46281087Y-134221658D01*
X46426082Y-134250500D01*
X46426083Y-134250500D01*
X46573917Y-134250500D01*
X46573918Y-134250500D01*
X46573919Y-134250499D01*
X46573925Y-134250499D01*
X46620208Y-134241292D01*
X46643412Y-134236676D01*
X46655958Y-134238160D01*
X46668170Y-134234923D01*
X46682426Y-134241292D01*
X46704173Y-134243866D01*
X46725233Y-134257000D01*
X46729155Y-134260193D01*
X46769437Y-134300475D01*
X46801047Y-134318725D01*
X46807191Y-134323727D01*
X46819698Y-134343097D01*
X46835127Y-134360233D01*
X46835975Y-134368307D01*
X46840380Y-134375129D01*
X46839112Y-134398151D01*
X46841523Y-134421083D01*
X46837463Y-134428114D01*
X46837017Y-134436222D01*
X46822458Y-134454103D01*
X46810930Y-134474071D01*
X46803512Y-134477373D01*
X46798386Y-134483670D01*
X46776100Y-134489578D01*
X46755034Y-134498958D01*
X46744686Y-134499500D01*
X42260635Y-134499500D01*
X42218961Y-134488334D01*
X42218479Y-134489499D01*
X42212486Y-134487016D01*
X42088944Y-134453913D01*
X42072475Y-134449500D01*
X41927525Y-134449500D01*
X41911056Y-134453913D01*
X41787510Y-134487017D01*
X41661989Y-134559487D01*
X41559487Y-134661989D01*
X41487017Y-134787510D01*
X41487016Y-134787515D01*
X41449500Y-134927525D01*
X40240500Y-134927525D01*
X40240500Y-116381943D01*
X45000000Y-116381943D01*
X45000000Y-116618056D01*
X45036934Y-116851252D01*
X45036935Y-116851256D01*
X45109892Y-117075793D01*
X45109894Y-117075796D01*
X45217084Y-117286169D01*
X45277339Y-117369105D01*
X45976211Y-116670232D01*
X45987482Y-116712292D01*
X46059890Y-116837708D01*
X46162292Y-116940110D01*
X46287708Y-117012518D01*
X46329765Y-117023787D01*
X45630893Y-117722659D01*
X45713825Y-117782913D01*
X45713829Y-117782915D01*
X45924203Y-117890105D01*
X45924206Y-117890107D01*
X46148743Y-117963064D01*
X46148747Y-117963065D01*
X46381944Y-118000000D01*
X46618056Y-118000000D01*
X46851252Y-117963065D01*
X46851256Y-117963064D01*
X47075793Y-117890107D01*
X47075796Y-117890105D01*
X47286170Y-117782915D01*
X47286176Y-117782911D01*
X47369105Y-117722659D01*
X47369105Y-117722658D01*
X46670234Y-117023787D01*
X46712292Y-117012518D01*
X46837708Y-116940110D01*
X46940110Y-116837708D01*
X47012518Y-116712292D01*
X47023787Y-116670234D01*
X47722658Y-117369105D01*
X47722659Y-117369105D01*
X47782911Y-117286176D01*
X47782915Y-117286170D01*
X47890105Y-117075796D01*
X47890107Y-117075793D01*
X47963064Y-116851256D01*
X47963065Y-116851252D01*
X48000000Y-116618056D01*
X48000000Y-116401579D01*
X49749500Y-116401579D01*
X49749500Y-116598420D01*
X49780289Y-116792821D01*
X49828147Y-116940110D01*
X49841116Y-116980025D01*
X49930476Y-117155405D01*
X50046172Y-117314646D01*
X50185354Y-117453828D01*
X50344595Y-117569524D01*
X50519975Y-117658884D01*
X50707174Y-117719709D01*
X50707175Y-117719709D01*
X50707178Y-117719710D01*
X50901580Y-117750500D01*
X50901583Y-117750500D01*
X51098420Y-117750500D01*
X51292821Y-117719710D01*
X51292822Y-117719709D01*
X51292826Y-117719709D01*
X51480025Y-117658884D01*
X51655405Y-117569524D01*
X51814646Y-117453828D01*
X51953828Y-117314646D01*
X52069524Y-117155405D01*
X52158884Y-116980025D01*
X52219709Y-116792826D01*
X52219710Y-116792821D01*
X52250500Y-116598420D01*
X52250500Y-116401579D01*
X52219710Y-116207178D01*
X52219709Y-116207174D01*
X52158884Y-116019975D01*
X52069524Y-115844595D01*
X51953828Y-115685354D01*
X51814646Y-115546172D01*
X51655405Y-115430476D01*
X51655404Y-115430475D01*
X51655402Y-115430474D01*
X51480025Y-115341116D01*
X51292821Y-115280289D01*
X51098420Y-115249500D01*
X51098417Y-115249500D01*
X50901583Y-115249500D01*
X50901580Y-115249500D01*
X50707178Y-115280289D01*
X50519974Y-115341116D01*
X50344597Y-115430474D01*
X50185355Y-115546171D01*
X50046171Y-115685355D01*
X49930474Y-115844597D01*
X49841116Y-116019974D01*
X49780289Y-116207178D01*
X49749500Y-116401579D01*
X48000000Y-116401579D01*
X48000000Y-116381943D01*
X47963065Y-116148747D01*
X47963064Y-116148743D01*
X47890107Y-115924206D01*
X47890105Y-115924203D01*
X47782915Y-115713829D01*
X47782913Y-115713825D01*
X47722659Y-115630893D01*
X47023787Y-116329765D01*
X47012518Y-116287708D01*
X46940110Y-116162292D01*
X46837708Y-116059890D01*
X46712292Y-115987482D01*
X46670232Y-115976211D01*
X47369105Y-115277339D01*
X47286169Y-115217084D01*
X47075796Y-115109894D01*
X47075793Y-115109892D01*
X46851256Y-115036935D01*
X46851252Y-115036934D01*
X46618056Y-115000000D01*
X46381944Y-115000000D01*
X46148747Y-115036934D01*
X46148743Y-115036935D01*
X45924206Y-115109892D01*
X45924203Y-115109894D01*
X45713823Y-115217088D01*
X45630893Y-115277339D01*
X46329766Y-115976212D01*
X46287708Y-115987482D01*
X46162292Y-116059890D01*
X46059890Y-116162292D01*
X45987482Y-116287708D01*
X45976212Y-116329766D01*
X45277339Y-115630893D01*
X45217088Y-115713823D01*
X45109894Y-115924203D01*
X45109892Y-115924206D01*
X45036935Y-116148743D01*
X45036934Y-116148747D01*
X45000000Y-116381943D01*
X40240500Y-116381943D01*
X40240500Y-109881943D01*
X45000000Y-109881943D01*
X45000000Y-110118056D01*
X45036934Y-110351252D01*
X45036935Y-110351256D01*
X45109892Y-110575793D01*
X45109894Y-110575796D01*
X45217084Y-110786169D01*
X45277339Y-110869105D01*
X45976211Y-110170232D01*
X45987482Y-110212292D01*
X46059890Y-110337708D01*
X46162292Y-110440110D01*
X46287708Y-110512518D01*
X46329765Y-110523787D01*
X45630893Y-111222659D01*
X45713825Y-111282913D01*
X45713829Y-111282915D01*
X45924203Y-111390105D01*
X45924206Y-111390107D01*
X46148743Y-111463064D01*
X46148747Y-111463065D01*
X46381944Y-111500000D01*
X46618056Y-111500000D01*
X46851252Y-111463065D01*
X46851256Y-111463064D01*
X47075793Y-111390107D01*
X47075796Y-111390105D01*
X47286170Y-111282915D01*
X47286176Y-111282911D01*
X47369105Y-111222659D01*
X47369105Y-111222658D01*
X46670234Y-110523787D01*
X46712292Y-110512518D01*
X46837708Y-110440110D01*
X46940110Y-110337708D01*
X47012518Y-110212292D01*
X47023787Y-110170234D01*
X47722658Y-110869105D01*
X47722659Y-110869105D01*
X47782911Y-110786176D01*
X47782915Y-110786170D01*
X47890105Y-110575796D01*
X47890107Y-110575793D01*
X47963064Y-110351256D01*
X47963065Y-110351252D01*
X48000000Y-110118056D01*
X48000000Y-109901579D01*
X49749500Y-109901579D01*
X49749500Y-110098420D01*
X49780289Y-110292821D01*
X49828147Y-110440110D01*
X49841116Y-110480025D01*
X49930476Y-110655405D01*
X50046172Y-110814646D01*
X50185354Y-110953828D01*
X50344595Y-111069524D01*
X50519975Y-111158884D01*
X50707174Y-111219709D01*
X50707175Y-111219709D01*
X50707178Y-111219710D01*
X50901580Y-111250500D01*
X50901583Y-111250500D01*
X51098420Y-111250500D01*
X51292821Y-111219710D01*
X51292822Y-111219709D01*
X51292826Y-111219709D01*
X51480025Y-111158884D01*
X51655405Y-111069524D01*
X51814646Y-110953828D01*
X51953828Y-110814646D01*
X52069524Y-110655405D01*
X52158884Y-110480025D01*
X52219709Y-110292826D01*
X52219710Y-110292821D01*
X52250500Y-110098420D01*
X52250500Y-109901579D01*
X52219710Y-109707178D01*
X52219709Y-109707174D01*
X52158884Y-109519975D01*
X52069524Y-109344595D01*
X51953828Y-109185354D01*
X51814646Y-109046172D01*
X51655405Y-108930476D01*
X51655404Y-108930475D01*
X51655402Y-108930474D01*
X51480025Y-108841116D01*
X51292821Y-108780289D01*
X51098420Y-108749500D01*
X51098417Y-108749500D01*
X50901583Y-108749500D01*
X50901580Y-108749500D01*
X50707178Y-108780289D01*
X50519974Y-108841116D01*
X50344597Y-108930474D01*
X50185355Y-109046171D01*
X50046171Y-109185355D01*
X49930474Y-109344597D01*
X49841116Y-109519974D01*
X49780289Y-109707178D01*
X49749500Y-109901579D01*
X48000000Y-109901579D01*
X48000000Y-109881943D01*
X47963065Y-109648747D01*
X47963064Y-109648743D01*
X47890107Y-109424206D01*
X47890105Y-109424203D01*
X47782915Y-109213829D01*
X47782913Y-109213825D01*
X47722659Y-109130893D01*
X47023787Y-109829765D01*
X47012518Y-109787708D01*
X46940110Y-109662292D01*
X46837708Y-109559890D01*
X46712292Y-109487482D01*
X46670232Y-109476211D01*
X47369105Y-108777339D01*
X47286169Y-108717084D01*
X47075796Y-108609894D01*
X47075793Y-108609892D01*
X46851256Y-108536935D01*
X46851252Y-108536934D01*
X46618056Y-108500000D01*
X46381944Y-108500000D01*
X46148747Y-108536934D01*
X46148743Y-108536935D01*
X45924206Y-108609892D01*
X45924203Y-108609894D01*
X45713823Y-108717088D01*
X45630893Y-108777339D01*
X46329766Y-109476212D01*
X46287708Y-109487482D01*
X46162292Y-109559890D01*
X46059890Y-109662292D01*
X45987482Y-109787708D01*
X45976212Y-109829766D01*
X45277339Y-109130893D01*
X45217088Y-109213823D01*
X45109894Y-109424203D01*
X45109892Y-109424206D01*
X45036935Y-109648743D01*
X45036934Y-109648747D01*
X45000000Y-109881943D01*
X40240500Y-109881943D01*
X40240500Y-83427525D01*
X45949500Y-83427525D01*
X45949500Y-83572475D01*
X45971757Y-83655537D01*
X45987017Y-83712489D01*
X46059487Y-83838010D01*
X46059489Y-83838012D01*
X46059491Y-83838015D01*
X46161985Y-83940509D01*
X46161987Y-83940510D01*
X46161989Y-83940512D01*
X46287511Y-84012982D01*
X46287512Y-84012982D01*
X46287515Y-84012984D01*
X46427525Y-84050500D01*
X46427526Y-84050500D01*
X46572474Y-84050500D01*
X46572475Y-84050500D01*
X46712485Y-84012984D01*
X46817529Y-83952336D01*
X46877375Y-83939615D01*
X46933271Y-83964501D01*
X46937032Y-83968069D01*
X47595504Y-84626541D01*
X47623281Y-84681058D01*
X47624500Y-84696545D01*
X47624500Y-89803455D01*
X47605593Y-89861646D01*
X47595509Y-89873452D01*
X47269438Y-90199525D01*
X47269437Y-90199524D01*
X47199524Y-90269438D01*
X47150091Y-90355057D01*
X47124500Y-90450566D01*
X47124500Y-106555968D01*
X47105593Y-106614159D01*
X47095504Y-106625971D01*
X47059492Y-106661983D01*
X47059487Y-106661989D01*
X46987017Y-106787510D01*
X46949500Y-106927525D01*
X46949500Y-107072474D01*
X46987017Y-107212489D01*
X47059487Y-107338010D01*
X47059489Y-107338012D01*
X47059491Y-107338015D01*
X47161985Y-107440509D01*
X47161987Y-107440510D01*
X47161989Y-107440512D01*
X47287511Y-107512982D01*
X47287512Y-107512982D01*
X47287515Y-107512984D01*
X47427525Y-107550500D01*
X47427526Y-107550500D01*
X47572474Y-107550500D01*
X47572475Y-107550500D01*
X47712485Y-107512984D01*
X47712487Y-107512982D01*
X47712489Y-107512982D01*
X47838010Y-107440512D01*
X47838010Y-107440511D01*
X47838015Y-107440509D01*
X47940509Y-107338015D01*
X48012984Y-107212485D01*
X48050500Y-107072475D01*
X48050500Y-106927525D01*
X48012984Y-106787515D01*
X48012982Y-106787512D01*
X48012982Y-106787510D01*
X47940512Y-106661989D01*
X47940507Y-106661983D01*
X47904496Y-106625971D01*
X47876719Y-106571454D01*
X47875500Y-106555968D01*
X47875500Y-102927525D01*
X52449500Y-102927525D01*
X52449500Y-103072474D01*
X52487017Y-103212489D01*
X52559487Y-103338010D01*
X52559489Y-103338012D01*
X52559491Y-103338015D01*
X52595505Y-103374029D01*
X52623281Y-103428544D01*
X52624500Y-103444031D01*
X52624500Y-106055968D01*
X52605593Y-106114159D01*
X52595504Y-106125971D01*
X52559492Y-106161983D01*
X52559487Y-106161989D01*
X52487017Y-106287510D01*
X52487016Y-106287515D01*
X52449500Y-106427525D01*
X52449500Y-106572475D01*
X52479087Y-106682896D01*
X52487017Y-106712489D01*
X52559487Y-106838010D01*
X52559489Y-106838012D01*
X52559491Y-106838015D01*
X52661985Y-106940509D01*
X52661987Y-106940510D01*
X52661989Y-106940512D01*
X52787511Y-107012982D01*
X52787512Y-107012982D01*
X52787515Y-107012984D01*
X52927525Y-107050500D01*
X52927526Y-107050500D01*
X53072474Y-107050500D01*
X53072475Y-107050500D01*
X53212485Y-107012984D01*
X53212487Y-107012982D01*
X53212489Y-107012982D01*
X53338010Y-106940512D01*
X53338010Y-106940511D01*
X53338015Y-106940509D01*
X53440509Y-106838015D01*
X53512984Y-106712485D01*
X53550500Y-106572475D01*
X53550500Y-106427525D01*
X53512984Y-106287515D01*
X53512982Y-106287512D01*
X53512982Y-106287510D01*
X53440512Y-106161989D01*
X53440507Y-106161983D01*
X53404496Y-106125971D01*
X53376719Y-106071454D01*
X53375500Y-106055968D01*
X53375500Y-103444031D01*
X53394407Y-103385840D01*
X53404490Y-103374033D01*
X53440509Y-103338015D01*
X53512984Y-103212485D01*
X53550500Y-103072475D01*
X53550500Y-102927525D01*
X53512984Y-102787515D01*
X53512982Y-102787512D01*
X53512982Y-102787510D01*
X53440512Y-102661989D01*
X53440510Y-102661987D01*
X53440509Y-102661985D01*
X53338015Y-102559491D01*
X53338012Y-102559489D01*
X53338010Y-102559487D01*
X53212488Y-102487017D01*
X53212489Y-102487017D01*
X53182896Y-102479087D01*
X53072475Y-102449500D01*
X52927525Y-102449500D01*
X52865790Y-102466041D01*
X52787510Y-102487017D01*
X52661989Y-102559487D01*
X52559487Y-102661989D01*
X52487017Y-102787510D01*
X52449500Y-102927525D01*
X47875500Y-102927525D01*
X47875500Y-95652129D01*
X49949500Y-95652129D01*
X49949500Y-96847866D01*
X49949501Y-96847870D01*
X49955908Y-96907480D01*
X49955909Y-96907485D01*
X50006202Y-97042329D01*
X50047111Y-97096976D01*
X50092454Y-97157546D01*
X50092457Y-97157548D01*
X50092458Y-97157549D01*
X50207670Y-97243797D01*
X50342511Y-97294089D01*
X50342512Y-97294089D01*
X50342517Y-97294091D01*
X50402127Y-97300500D01*
X51597872Y-97300499D01*
X51657483Y-97294091D01*
X51773877Y-97250679D01*
X51792329Y-97243797D01*
X51792329Y-97243796D01*
X51792331Y-97243796D01*
X51907546Y-97157546D01*
X51993796Y-97042331D01*
X52044091Y-96907483D01*
X52050500Y-96847873D01*
X52050499Y-95652128D01*
X52044091Y-95592517D01*
X52031772Y-95559487D01*
X51993797Y-95457670D01*
X51907549Y-95342458D01*
X51907548Y-95342457D01*
X51907546Y-95342454D01*
X51907541Y-95342450D01*
X51792329Y-95256202D01*
X51657488Y-95205910D01*
X51657483Y-95205909D01*
X51657481Y-95205908D01*
X51657477Y-95205908D01*
X51626249Y-95202550D01*
X51597873Y-95199500D01*
X51597870Y-95199500D01*
X50402133Y-95199500D01*
X50402129Y-95199500D01*
X50402128Y-95199501D01*
X50394949Y-95200272D01*
X50342519Y-95205908D01*
X50342514Y-95205909D01*
X50207670Y-95256202D01*
X50092458Y-95342450D01*
X50092450Y-95342458D01*
X50006202Y-95457670D01*
X49955910Y-95592511D01*
X49955908Y-95592522D01*
X49949500Y-95652129D01*
X47875500Y-95652129D01*
X47875500Y-92647684D01*
X49700000Y-92647684D01*
X49700000Y-92852315D01*
X49732008Y-93054412D01*
X49795243Y-93249027D01*
X49888139Y-93431348D01*
X49888143Y-93431353D01*
X49920523Y-93475920D01*
X49920524Y-93475920D01*
X50600000Y-92796444D01*
X50600000Y-92802661D01*
X50627259Y-92904394D01*
X50679920Y-92995606D01*
X50754394Y-93070080D01*
X50845606Y-93122741D01*
X50947339Y-93150000D01*
X50953553Y-93150000D01*
X50274078Y-93829475D01*
X50318647Y-93861858D01*
X50500972Y-93954756D01*
X50695587Y-94017991D01*
X50897685Y-94050000D01*
X51102315Y-94050000D01*
X51304412Y-94017991D01*
X51499027Y-93954756D01*
X51681342Y-93861863D01*
X51681350Y-93861858D01*
X51725920Y-93829475D01*
X51046445Y-93150000D01*
X51052661Y-93150000D01*
X51154394Y-93122741D01*
X51245606Y-93070080D01*
X51320080Y-92995606D01*
X51372741Y-92904394D01*
X51400000Y-92802661D01*
X51400000Y-92796445D01*
X52079475Y-93475920D01*
X52111858Y-93431350D01*
X52111863Y-93431342D01*
X52204756Y-93249027D01*
X52267991Y-93054412D01*
X52300000Y-92852315D01*
X52300000Y-92647684D01*
X52267991Y-92445587D01*
X52204756Y-92250972D01*
X52111858Y-92068647D01*
X52079475Y-92024078D01*
X51400000Y-92703553D01*
X51400000Y-92697339D01*
X51372741Y-92595606D01*
X51320080Y-92504394D01*
X51245606Y-92429920D01*
X51154394Y-92377259D01*
X51052661Y-92350000D01*
X51046445Y-92350000D01*
X51725920Y-91670524D01*
X51725920Y-91670523D01*
X51681353Y-91638143D01*
X51681348Y-91638139D01*
X51499027Y-91545243D01*
X51304412Y-91482008D01*
X51102315Y-91450000D01*
X50897685Y-91450000D01*
X50695587Y-91482008D01*
X50500972Y-91545243D01*
X50318651Y-91638139D01*
X50318647Y-91638141D01*
X50274078Y-91670523D01*
X50953555Y-92350000D01*
X50947339Y-92350000D01*
X50845606Y-92377259D01*
X50754394Y-92429920D01*
X50679920Y-92504394D01*
X50627259Y-92595606D01*
X50600000Y-92697339D01*
X50600000Y-92703555D01*
X49920523Y-92024078D01*
X49888141Y-92068647D01*
X49888139Y-92068651D01*
X49795243Y-92250972D01*
X49732008Y-92445587D01*
X49700000Y-92647684D01*
X47875500Y-92647684D01*
X47875500Y-90696544D01*
X47894407Y-90638353D01*
X47904497Y-90626540D01*
X48080472Y-90450565D01*
X48300475Y-90230563D01*
X48349911Y-90144937D01*
X48375500Y-90049436D01*
X48375500Y-89950564D01*
X48375500Y-84696544D01*
X48394407Y-84638353D01*
X48404490Y-84626546D01*
X49062968Y-83968067D01*
X49117483Y-83940292D01*
X49177915Y-83949863D01*
X49182470Y-83952337D01*
X49287511Y-84012982D01*
X49287512Y-84012982D01*
X49287515Y-84012984D01*
X49427525Y-84050500D01*
X49427526Y-84050500D01*
X49572474Y-84050500D01*
X49572475Y-84050500D01*
X49712485Y-84012984D01*
X49712487Y-84012982D01*
X49712489Y-84012982D01*
X49838010Y-83940512D01*
X49838010Y-83940511D01*
X49838015Y-83940509D01*
X49940509Y-83838015D01*
X50012984Y-83712485D01*
X50050500Y-83572475D01*
X50050500Y-83427525D01*
X50012984Y-83287515D01*
X50012982Y-83287512D01*
X50012982Y-83287510D01*
X49940512Y-83161989D01*
X49940510Y-83161987D01*
X49940509Y-83161985D01*
X49838015Y-83059491D01*
X49838012Y-83059489D01*
X49838010Y-83059487D01*
X49712488Y-82987017D01*
X49712489Y-82987017D01*
X49682896Y-82979087D01*
X49572475Y-82949500D01*
X49427525Y-82949500D01*
X49365790Y-82966041D01*
X49287510Y-82987017D01*
X49161989Y-83059487D01*
X49161983Y-83059492D01*
X49125971Y-83095504D01*
X49071454Y-83123281D01*
X49055968Y-83124500D01*
X49049436Y-83124500D01*
X48950564Y-83124500D01*
X48892113Y-83140161D01*
X48855058Y-83150090D01*
X48769442Y-83199521D01*
X48070004Y-83898959D01*
X48015487Y-83926736D01*
X47955055Y-83917165D01*
X47929996Y-83898959D01*
X47230563Y-83199526D01*
X47230563Y-83199525D01*
X47144941Y-83150091D01*
X47144937Y-83150089D01*
X47068617Y-83129639D01*
X47068613Y-83129638D01*
X47057993Y-83126793D01*
X47049436Y-83124500D01*
X47049435Y-83124500D01*
X46942013Y-83124500D01*
X46940017Y-83124419D01*
X46913118Y-83114455D01*
X46885841Y-83105593D01*
X46883276Y-83103402D01*
X46882641Y-83103167D01*
X46882165Y-83102454D01*
X46874029Y-83095504D01*
X46838016Y-83059492D01*
X46838010Y-83059487D01*
X46712488Y-82987017D01*
X46712489Y-82987017D01*
X46682896Y-82979087D01*
X46572475Y-82949500D01*
X46427525Y-82949500D01*
X46365790Y-82966041D01*
X46287510Y-82987017D01*
X46161989Y-83059487D01*
X46059487Y-83161989D01*
X45987017Y-83287510D01*
X45968916Y-83355063D01*
X45949500Y-83427525D01*
X40240500Y-83427525D01*
X40240500Y-58427525D01*
X43449500Y-58427525D01*
X43449500Y-58572475D01*
X43475467Y-58669384D01*
X43487017Y-58712489D01*
X43559487Y-58838010D01*
X43559489Y-58838012D01*
X43559491Y-58838015D01*
X43661985Y-58940509D01*
X43661987Y-58940510D01*
X43661989Y-58940512D01*
X43787511Y-59012982D01*
X43787512Y-59012982D01*
X43787515Y-59012984D01*
X43927525Y-59050500D01*
X43927526Y-59050500D01*
X44072474Y-59050500D01*
X44072475Y-59050500D01*
X44212485Y-59012984D01*
X44212487Y-59012982D01*
X44212489Y-59012982D01*
X44338010Y-58940512D01*
X44338010Y-58940511D01*
X44338015Y-58940509D01*
X44356022Y-58922501D01*
X44374029Y-58904496D01*
X44428546Y-58876719D01*
X44444032Y-58875500D01*
X45439836Y-58875500D01*
X45498027Y-58894407D01*
X45533991Y-58943907D01*
X45533991Y-59000198D01*
X45535288Y-59000546D01*
X45533608Y-59006812D01*
X45533608Y-59006814D01*
X45499500Y-59134108D01*
X45499500Y-59265892D01*
X45517718Y-59333884D01*
X45533609Y-59393190D01*
X45599496Y-59507309D01*
X45603449Y-59512460D01*
X45601086Y-59514273D01*
X45623281Y-59557834D01*
X45624500Y-59573321D01*
X45624500Y-60549435D01*
X45650090Y-60644938D01*
X45693156Y-60719530D01*
X45699526Y-60730563D01*
X46595505Y-61626542D01*
X46623281Y-61681057D01*
X46624500Y-61696544D01*
X46624500Y-74055968D01*
X46605593Y-74114159D01*
X46595504Y-74125971D01*
X46559492Y-74161983D01*
X46559487Y-74161989D01*
X46487017Y-74287510D01*
X46449500Y-74427525D01*
X46449500Y-74572474D01*
X46487017Y-74712489D01*
X46559487Y-74838010D01*
X46559489Y-74838012D01*
X46559491Y-74838015D01*
X46661985Y-74940509D01*
X46661987Y-74940510D01*
X46661989Y-74940512D01*
X46787511Y-75012982D01*
X46787512Y-75012982D01*
X46787515Y-75012984D01*
X46927525Y-75050500D01*
X46927526Y-75050500D01*
X47072474Y-75050500D01*
X47072475Y-75050500D01*
X47212485Y-75012984D01*
X47212487Y-75012982D01*
X47212489Y-75012982D01*
X47338010Y-74940512D01*
X47338010Y-74940511D01*
X47338015Y-74940509D01*
X47440509Y-74838015D01*
X47440512Y-74838009D01*
X47444460Y-74832866D01*
X47445786Y-74833884D01*
X47485228Y-74798367D01*
X47546077Y-74791968D01*
X47599067Y-74822558D01*
X47623957Y-74878452D01*
X47624500Y-74888806D01*
X47624500Y-75303455D01*
X47605593Y-75361646D01*
X47595504Y-75373459D01*
X46269438Y-76699525D01*
X46269437Y-76699524D01*
X46199524Y-76769438D01*
X46150091Y-76855057D01*
X46124500Y-76950566D01*
X46124500Y-77555968D01*
X46105593Y-77614159D01*
X46095504Y-77625971D01*
X46059492Y-77661983D01*
X46059487Y-77661989D01*
X45987017Y-77787510D01*
X45949500Y-77927525D01*
X45949500Y-78072474D01*
X45987017Y-78212489D01*
X46059487Y-78338010D01*
X46059489Y-78338012D01*
X46059491Y-78338015D01*
X46095505Y-78374029D01*
X46123281Y-78428544D01*
X46124500Y-78444031D01*
X46124500Y-80549438D01*
X46126210Y-80555822D01*
X46126214Y-80555835D01*
X46127365Y-80560127D01*
X46150090Y-80644938D01*
X46170056Y-80679520D01*
X46199526Y-80730563D01*
X46420505Y-80951542D01*
X46448281Y-81006057D01*
X46449500Y-81021544D01*
X46449500Y-81072474D01*
X46487017Y-81212489D01*
X46559487Y-81338010D01*
X46559489Y-81338012D01*
X46559491Y-81338015D01*
X46661985Y-81440509D01*
X46661987Y-81440510D01*
X46661989Y-81440512D01*
X46787511Y-81512982D01*
X46787512Y-81512982D01*
X46787515Y-81512984D01*
X46927525Y-81550500D01*
X46927526Y-81550500D01*
X47072474Y-81550500D01*
X47072475Y-81550500D01*
X47212485Y-81512984D01*
X47212487Y-81512982D01*
X47212489Y-81512982D01*
X47246432Y-81493385D01*
X48399500Y-81493385D01*
X48399500Y-81666614D01*
X48426597Y-81837702D01*
X48426598Y-81837706D01*
X48480123Y-82002438D01*
X48480125Y-82002441D01*
X48545373Y-82130500D01*
X48558768Y-82156788D01*
X48660586Y-82296928D01*
X48783072Y-82419414D01*
X48923212Y-82521232D01*
X49077555Y-82599873D01*
X49077557Y-82599873D01*
X49077558Y-82599874D01*
X49077561Y-82599876D01*
X49242293Y-82653401D01*
X49242297Y-82653402D01*
X49413386Y-82680500D01*
X49413389Y-82680500D01*
X49586614Y-82680500D01*
X49757702Y-82653402D01*
X49757706Y-82653401D01*
X49922438Y-82599876D01*
X49922440Y-82599874D01*
X49922445Y-82599873D01*
X50076788Y-82521232D01*
X50216928Y-82419414D01*
X50339414Y-82296928D01*
X50441232Y-82156788D01*
X50519873Y-82002445D01*
X50519874Y-82002440D01*
X50519876Y-82002438D01*
X50573401Y-81837706D01*
X50573402Y-81837702D01*
X50600500Y-81666614D01*
X50600500Y-81493385D01*
X50573402Y-81322297D01*
X50573401Y-81322293D01*
X50519876Y-81157561D01*
X50519874Y-81157558D01*
X50519873Y-81157557D01*
X50519873Y-81157555D01*
X50441232Y-81003212D01*
X50339414Y-80863072D01*
X50216928Y-80740586D01*
X50076788Y-80638768D01*
X50076787Y-80638767D01*
X50076785Y-80638766D01*
X49922441Y-80560125D01*
X49922438Y-80560123D01*
X49757706Y-80506598D01*
X49757702Y-80506597D01*
X49586614Y-80479500D01*
X49586611Y-80479500D01*
X49413389Y-80479500D01*
X49413386Y-80479500D01*
X49242297Y-80506597D01*
X49242293Y-80506598D01*
X49077561Y-80560123D01*
X49077558Y-80560125D01*
X48923214Y-80638766D01*
X48783073Y-80740585D01*
X48660585Y-80863073D01*
X48558766Y-81003214D01*
X48480125Y-81157558D01*
X48480123Y-81157561D01*
X48426598Y-81322293D01*
X48426597Y-81322297D01*
X48399500Y-81493385D01*
X47246432Y-81493385D01*
X47338010Y-81440512D01*
X47338010Y-81440511D01*
X47338015Y-81440509D01*
X47440509Y-81338015D01*
X47487033Y-81257434D01*
X47512982Y-81212489D01*
X47512982Y-81212487D01*
X47512984Y-81212485D01*
X47550500Y-81072475D01*
X47550500Y-80927525D01*
X47512984Y-80787515D01*
X47512982Y-80787512D01*
X47512982Y-80787510D01*
X47440512Y-80661989D01*
X47440510Y-80661987D01*
X47440509Y-80661985D01*
X47338015Y-80559491D01*
X47338012Y-80559489D01*
X47338010Y-80559487D01*
X47212488Y-80487017D01*
X47212489Y-80487017D01*
X47182896Y-80479087D01*
X47072475Y-80449500D01*
X47072474Y-80449500D01*
X47021544Y-80449500D01*
X47013946Y-80447031D01*
X47006056Y-80448281D01*
X46985402Y-80437757D01*
X46963353Y-80430593D01*
X46951540Y-80420503D01*
X46904496Y-80373458D01*
X46876719Y-80318941D01*
X46875500Y-80303455D01*
X46875500Y-78444031D01*
X46894407Y-78385840D01*
X46904490Y-78374033D01*
X46940509Y-78338015D01*
X46949136Y-78323073D01*
X47012982Y-78212489D01*
X47012982Y-78212487D01*
X47012984Y-78212485D01*
X47050500Y-78072475D01*
X47050500Y-77927525D01*
X47012984Y-77787515D01*
X47012982Y-77787512D01*
X47012982Y-77787510D01*
X46940512Y-77661989D01*
X46940507Y-77661983D01*
X46904496Y-77625971D01*
X46876719Y-77571454D01*
X46875500Y-77555968D01*
X46875500Y-77196545D01*
X46894407Y-77138354D01*
X46904496Y-77126541D01*
X47980996Y-76050041D01*
X48035513Y-76022264D01*
X48095945Y-76031835D01*
X48139210Y-76075100D01*
X48150000Y-76120045D01*
X48150000Y-76249999D01*
X48150001Y-76250000D01*
X49066988Y-76250000D01*
X49034075Y-76307007D01*
X49000000Y-76434174D01*
X49000000Y-76565826D01*
X49034075Y-76692993D01*
X49066988Y-76750000D01*
X48150001Y-76750000D01*
X48150000Y-76750001D01*
X48150000Y-77397824D01*
X48149999Y-77397824D01*
X48156401Y-77457370D01*
X48156403Y-77457381D01*
X48206646Y-77592088D01*
X48206647Y-77592090D01*
X48292807Y-77707184D01*
X48292815Y-77707192D01*
X48407909Y-77793352D01*
X48407911Y-77793353D01*
X48542618Y-77843596D01*
X48542629Y-77843598D01*
X48602176Y-77850000D01*
X48999082Y-77850000D01*
X49057273Y-77868907D01*
X49093237Y-77918407D01*
X49093237Y-77979593D01*
X49057273Y-78029093D01*
X49044027Y-78037210D01*
X48923214Y-78098766D01*
X48783073Y-78200585D01*
X48660585Y-78323073D01*
X48558766Y-78463214D01*
X48480125Y-78617558D01*
X48480123Y-78617561D01*
X48426598Y-78782293D01*
X48426597Y-78782297D01*
X48399500Y-78953385D01*
X48399500Y-79126614D01*
X48426597Y-79297702D01*
X48426598Y-79297706D01*
X48480123Y-79462438D01*
X48480125Y-79462441D01*
X48480126Y-79462444D01*
X48480127Y-79462445D01*
X48558768Y-79616788D01*
X48660586Y-79756928D01*
X48783072Y-79879414D01*
X48923212Y-79981232D01*
X49077555Y-80059873D01*
X49077557Y-80059873D01*
X49077558Y-80059874D01*
X49077561Y-80059876D01*
X49242293Y-80113401D01*
X49242297Y-80113402D01*
X49413386Y-80140500D01*
X49413389Y-80140500D01*
X49586614Y-80140500D01*
X49757702Y-80113402D01*
X49757706Y-80113401D01*
X49922438Y-80059876D01*
X49922440Y-80059874D01*
X49922445Y-80059873D01*
X50076788Y-79981232D01*
X50216928Y-79879414D01*
X50339414Y-79756928D01*
X50441232Y-79616788D01*
X50519873Y-79462445D01*
X50519874Y-79462440D01*
X50519876Y-79462438D01*
X50573401Y-79297706D01*
X50573402Y-79297702D01*
X50600500Y-79126614D01*
X50600500Y-78953385D01*
X50573402Y-78782297D01*
X50573401Y-78782293D01*
X50519876Y-78617561D01*
X50519874Y-78617558D01*
X50519873Y-78617557D01*
X50519873Y-78617555D01*
X50441232Y-78463212D01*
X50339414Y-78323072D01*
X50216928Y-78200586D01*
X50076788Y-78098768D01*
X50076787Y-78098767D01*
X50076785Y-78098766D01*
X49955973Y-78037210D01*
X49912708Y-77993945D01*
X49903137Y-77933513D01*
X49930914Y-77878997D01*
X49985431Y-77851219D01*
X50000918Y-77850000D01*
X50397824Y-77850000D01*
X50457370Y-77843598D01*
X50457381Y-77843596D01*
X50592088Y-77793353D01*
X50592090Y-77793352D01*
X50707184Y-77707192D01*
X50707192Y-77707184D01*
X50793352Y-77592090D01*
X50793353Y-77592088D01*
X50843596Y-77457381D01*
X50843598Y-77457370D01*
X50850000Y-77397824D01*
X50850000Y-76750001D01*
X50849999Y-76750000D01*
X49933012Y-76750000D01*
X49965925Y-76692993D01*
X50000000Y-76565826D01*
X50000000Y-76434174D01*
X49965925Y-76307007D01*
X49933012Y-76250000D01*
X50849999Y-76250000D01*
X50850000Y-76249999D01*
X50850000Y-75602175D01*
X50843598Y-75542629D01*
X50843596Y-75542618D01*
X50793353Y-75407911D01*
X50793352Y-75407909D01*
X50707192Y-75292815D01*
X50707184Y-75292807D01*
X50592090Y-75206647D01*
X50592088Y-75206646D01*
X50457381Y-75156403D01*
X50457370Y-75156401D01*
X50397824Y-75150000D01*
X49750001Y-75150000D01*
X49750000Y-75150001D01*
X49750000Y-76066988D01*
X49692993Y-76034075D01*
X49565826Y-76000000D01*
X49434174Y-76000000D01*
X49307007Y-76034075D01*
X49250000Y-76066988D01*
X49250000Y-75150001D01*
X49249999Y-75150000D01*
X48602176Y-75150000D01*
X48542629Y-75156401D01*
X48542618Y-75156403D01*
X48509096Y-75168907D01*
X48447967Y-75171527D01*
X48396972Y-75137716D01*
X48375591Y-75080388D01*
X48375500Y-75076149D01*
X48375500Y-70873321D01*
X48394407Y-70815130D01*
X48396633Y-70812523D01*
X48396551Y-70812460D01*
X48400496Y-70807317D01*
X48400500Y-70807314D01*
X48409380Y-70791933D01*
X48466390Y-70693190D01*
X48466390Y-70693188D01*
X48466392Y-70693186D01*
X48500500Y-70565892D01*
X48500500Y-70434108D01*
X48498700Y-70427390D01*
X48501900Y-70366291D01*
X48540404Y-70318740D01*
X48599504Y-70302903D01*
X48656626Y-70324828D01*
X48664330Y-70331763D01*
X49095504Y-70762937D01*
X49123281Y-70817454D01*
X49124500Y-70832941D01*
X49124500Y-71055968D01*
X49105593Y-71114159D01*
X49095504Y-71125971D01*
X49059492Y-71161983D01*
X49059487Y-71161989D01*
X48987017Y-71287510D01*
X48949500Y-71427525D01*
X48949500Y-71572474D01*
X48987017Y-71712489D01*
X49059487Y-71838010D01*
X49059489Y-71838012D01*
X49059491Y-71838015D01*
X49161985Y-71940509D01*
X49161987Y-71940510D01*
X49161989Y-71940512D01*
X49287511Y-72012982D01*
X49287512Y-72012982D01*
X49287515Y-72012984D01*
X49427525Y-72050500D01*
X49427526Y-72050500D01*
X49572474Y-72050500D01*
X49572475Y-72050500D01*
X49712485Y-72012984D01*
X49712487Y-72012982D01*
X49712489Y-72012982D01*
X49838010Y-71940512D01*
X49838010Y-71940511D01*
X49838015Y-71940509D01*
X49940509Y-71838015D01*
X50012984Y-71712485D01*
X50050500Y-71572475D01*
X50050500Y-71427525D01*
X50019486Y-71311780D01*
X50022687Y-71250679D01*
X50061192Y-71203129D01*
X50120293Y-71187293D01*
X50177414Y-71209219D01*
X50185116Y-71216153D01*
X51595504Y-72626541D01*
X51623281Y-72681058D01*
X51624500Y-72696545D01*
X51624500Y-87549435D01*
X51647067Y-87633657D01*
X51650091Y-87644942D01*
X51699525Y-87730563D01*
X51699526Y-87730563D01*
X55095504Y-91126541D01*
X55123281Y-91181058D01*
X55124500Y-91196545D01*
X55124500Y-97055968D01*
X55105593Y-97114159D01*
X55095504Y-97125971D01*
X55059492Y-97161983D01*
X55059487Y-97161989D01*
X54987017Y-97287510D01*
X54949500Y-97427525D01*
X54949500Y-97572474D01*
X54987017Y-97712489D01*
X55059487Y-97838010D01*
X55059489Y-97838012D01*
X55059491Y-97838015D01*
X55161985Y-97940509D01*
X55161987Y-97940510D01*
X55161989Y-97940512D01*
X55287511Y-98012982D01*
X55287512Y-98012982D01*
X55287515Y-98012984D01*
X55427525Y-98050500D01*
X55427526Y-98050500D01*
X55572474Y-98050500D01*
X55572475Y-98050500D01*
X55712485Y-98012984D01*
X55712487Y-98012982D01*
X55712489Y-98012982D01*
X55838010Y-97940512D01*
X55838010Y-97940511D01*
X55838015Y-97940509D01*
X55940509Y-97838015D01*
X56012984Y-97712485D01*
X56050500Y-97572475D01*
X56050500Y-97427525D01*
X56019486Y-97311780D01*
X56022687Y-97250679D01*
X56061192Y-97203129D01*
X56120293Y-97187293D01*
X56177414Y-97209219D01*
X56185116Y-97216153D01*
X56595504Y-97626541D01*
X56623281Y-97681058D01*
X56624500Y-97696545D01*
X56624500Y-100743468D01*
X56605593Y-100801659D01*
X56595504Y-100813471D01*
X56559492Y-100849483D01*
X56559487Y-100849489D01*
X56487017Y-100975010D01*
X56449500Y-101115025D01*
X56449500Y-101259974D01*
X56487017Y-101399989D01*
X56559487Y-101525510D01*
X56559489Y-101525512D01*
X56559491Y-101525515D01*
X56661985Y-101628009D01*
X56661987Y-101628010D01*
X56661989Y-101628012D01*
X56787511Y-101700482D01*
X56787512Y-101700482D01*
X56787515Y-101700484D01*
X56927525Y-101738000D01*
X56927526Y-101738000D01*
X57072474Y-101738000D01*
X57072475Y-101738000D01*
X57212485Y-101700484D01*
X57212487Y-101700482D01*
X57212489Y-101700482D01*
X57338010Y-101628012D01*
X57338010Y-101628011D01*
X57338015Y-101628009D01*
X57440509Y-101525515D01*
X57440512Y-101525509D01*
X57444460Y-101520366D01*
X57445786Y-101521384D01*
X57485228Y-101485867D01*
X57546077Y-101479468D01*
X57599067Y-101510058D01*
X57623957Y-101565952D01*
X57624500Y-101576306D01*
X57624500Y-108303454D01*
X57605593Y-108361645D01*
X57595504Y-108373458D01*
X52937031Y-113031930D01*
X52882514Y-113059707D01*
X52822082Y-113050136D01*
X52817527Y-113047662D01*
X52712488Y-112987017D01*
X52712489Y-112987017D01*
X52682896Y-112979087D01*
X52572475Y-112949500D01*
X52427525Y-112949500D01*
X52365790Y-112966041D01*
X52287510Y-112987017D01*
X52161989Y-113059487D01*
X52059487Y-113161989D01*
X51987017Y-113287510D01*
X51949500Y-113427525D01*
X51949500Y-113572474D01*
X51987017Y-113712489D01*
X52059487Y-113838010D01*
X52059489Y-113838012D01*
X52059491Y-113838015D01*
X52161985Y-113940509D01*
X52161987Y-113940510D01*
X52161989Y-113940512D01*
X52287511Y-114012982D01*
X52287512Y-114012982D01*
X52287515Y-114012984D01*
X52427525Y-114050500D01*
X52427526Y-114050500D01*
X52572474Y-114050500D01*
X52572475Y-114050500D01*
X52712485Y-114012984D01*
X52712487Y-114012982D01*
X52712489Y-114012982D01*
X52838010Y-113940512D01*
X52838010Y-113940511D01*
X52838015Y-113940509D01*
X52856022Y-113922501D01*
X52874029Y-113904496D01*
X52877097Y-113902932D01*
X52878863Y-113899974D01*
X52894232Y-113894201D01*
X52928546Y-113876719D01*
X52935115Y-113875902D01*
X52939560Y-113875500D01*
X52950564Y-113875500D01*
X53049436Y-113875500D01*
X53097186Y-113862705D01*
X53105417Y-113860499D01*
X53105421Y-113860499D01*
X53144934Y-113849911D01*
X53144933Y-113849911D01*
X53144938Y-113849910D01*
X53230562Y-113800475D01*
X53300475Y-113730562D01*
X53300474Y-113730562D01*
X57955497Y-109075538D01*
X58010013Y-109047763D01*
X58070445Y-109057334D01*
X58113710Y-109100599D01*
X58124500Y-109145544D01*
X58124500Y-154303455D01*
X58105593Y-154361646D01*
X58095504Y-154373459D01*
X57548459Y-154920504D01*
X57493942Y-154948281D01*
X57478455Y-154949500D01*
X57427525Y-154949500D01*
X57365790Y-154966041D01*
X57287510Y-154987017D01*
X57161989Y-155059487D01*
X57059487Y-155161989D01*
X56987017Y-155287510D01*
X56949500Y-155427525D01*
X56949500Y-155572474D01*
X56987017Y-155712489D01*
X57059487Y-155838010D01*
X57059489Y-155838012D01*
X57059491Y-155838015D01*
X57161985Y-155940509D01*
X57161987Y-155940510D01*
X57161989Y-155940512D01*
X57287511Y-156012982D01*
X57287512Y-156012982D01*
X57287515Y-156012984D01*
X57427525Y-156050500D01*
X57427526Y-156050500D01*
X57572474Y-156050500D01*
X57572475Y-156050500D01*
X57712485Y-156012984D01*
X57712487Y-156012982D01*
X57712489Y-156012982D01*
X57838010Y-155940512D01*
X57838010Y-155940511D01*
X57838015Y-155940509D01*
X57940509Y-155838015D01*
X58012984Y-155712485D01*
X58050500Y-155572475D01*
X58050500Y-155521544D01*
X58069407Y-155463353D01*
X58079490Y-155451546D01*
X58800475Y-154730562D01*
X58800478Y-154730557D01*
X58849909Y-154644941D01*
X58849909Y-154644939D01*
X58849911Y-154644937D01*
X58875500Y-154549436D01*
X58875500Y-154450564D01*
X58875500Y-89950565D01*
X58849910Y-89855062D01*
X58849908Y-89855059D01*
X58849908Y-89855057D01*
X58800475Y-89769438D01*
X58730562Y-89699524D01*
X58730562Y-89699525D01*
X54404496Y-85373459D01*
X54376719Y-85318942D01*
X54375500Y-85303455D01*
X54375500Y-81968806D01*
X54394407Y-81910615D01*
X54443907Y-81874651D01*
X54505093Y-81874651D01*
X54554593Y-81910615D01*
X54558887Y-81917228D01*
X54559488Y-81918011D01*
X54559489Y-81918012D01*
X54559491Y-81918015D01*
X54661985Y-82020509D01*
X54661987Y-82020510D01*
X54661989Y-82020512D01*
X54787511Y-82092982D01*
X54787512Y-82092982D01*
X54787515Y-82092984D01*
X54927525Y-82130500D01*
X54927526Y-82130500D01*
X55072474Y-82130500D01*
X55072475Y-82130500D01*
X55212485Y-82092984D01*
X55212487Y-82092982D01*
X55212489Y-82092982D01*
X55338010Y-82020512D01*
X55338010Y-82020511D01*
X55338015Y-82020509D01*
X55440509Y-81918015D01*
X55440963Y-81917228D01*
X55512982Y-81792489D01*
X55512982Y-81792487D01*
X55512984Y-81792485D01*
X55550500Y-81652475D01*
X55550500Y-81601545D01*
X55569407Y-81543354D01*
X55579496Y-81531541D01*
X56807583Y-80303454D01*
X58300475Y-78810563D01*
X58349911Y-78724937D01*
X58375500Y-78629436D01*
X58375500Y-78530564D01*
X58375500Y-60950565D01*
X58371090Y-60934108D01*
X58349910Y-60855063D01*
X58349910Y-60855062D01*
X58349910Y-60855061D01*
X58300475Y-60769438D01*
X58230562Y-60699524D01*
X58230562Y-60699525D01*
X55904496Y-58373459D01*
X55876719Y-58318942D01*
X55875500Y-58303455D01*
X55875500Y-51373321D01*
X55889738Y-51322171D01*
X55895969Y-51311844D01*
X55900500Y-51307314D01*
X55940229Y-51238500D01*
X55940738Y-51237658D01*
X55963170Y-51218232D01*
X55985233Y-51198367D01*
X55986231Y-51198262D01*
X55986991Y-51197604D01*
X56016565Y-51195073D01*
X56046083Y-51191971D01*
X56046953Y-51192473D01*
X56047954Y-51192388D01*
X56073359Y-51207719D01*
X56099071Y-51222564D01*
X56099479Y-51223481D01*
X56100340Y-51224001D01*
X56111888Y-51251351D01*
X56123958Y-51278460D01*
X56124046Y-51280146D01*
X56124140Y-51280368D01*
X56124073Y-51280655D01*
X56124500Y-51288808D01*
X56124500Y-57450564D01*
X56124500Y-57450565D01*
X56124500Y-57549435D01*
X56130674Y-57572475D01*
X56150091Y-57644942D01*
X56199523Y-57730559D01*
X56199525Y-57730562D01*
X56269438Y-57800475D01*
X56269440Y-57800476D01*
X56355058Y-57849908D01*
X56355056Y-57849908D01*
X56355060Y-57849909D01*
X56355062Y-57849910D01*
X56450565Y-57875500D01*
X57303455Y-57875500D01*
X57311052Y-57877968D01*
X57318942Y-57876719D01*
X57339597Y-57887243D01*
X57361646Y-57894407D01*
X57373459Y-57904496D01*
X57420504Y-57951541D01*
X57448281Y-58006058D01*
X57449500Y-58021545D01*
X57449500Y-58072475D01*
X57475820Y-58170702D01*
X57487017Y-58212489D01*
X57559487Y-58338010D01*
X57559489Y-58338012D01*
X57559491Y-58338015D01*
X57661985Y-58440509D01*
X57661987Y-58440510D01*
X57661989Y-58440512D01*
X57787511Y-58512982D01*
X57787512Y-58512982D01*
X57787515Y-58512984D01*
X57927525Y-58550500D01*
X57927526Y-58550500D01*
X58072474Y-58550500D01*
X58072475Y-58550500D01*
X58212485Y-58512984D01*
X58212487Y-58512982D01*
X58212489Y-58512982D01*
X58338010Y-58440512D01*
X58338010Y-58440511D01*
X58338015Y-58440509D01*
X58440509Y-58338015D01*
X58440512Y-58338009D01*
X58444460Y-58332866D01*
X58445786Y-58333884D01*
X58485228Y-58298367D01*
X58546077Y-58291968D01*
X58599067Y-58322558D01*
X58623957Y-58378452D01*
X58624500Y-58388806D01*
X58624500Y-80303454D01*
X58605593Y-80361645D01*
X58595504Y-80373458D01*
X55769438Y-83199525D01*
X55769437Y-83199524D01*
X55699524Y-83269438D01*
X55650089Y-83355061D01*
X55650090Y-83355062D01*
X55630675Y-83427522D01*
X55630674Y-83427526D01*
X55624500Y-83450564D01*
X55624500Y-85055968D01*
X55605593Y-85114159D01*
X55595504Y-85125971D01*
X55559492Y-85161983D01*
X55559487Y-85161989D01*
X55487017Y-85287510D01*
X55449500Y-85427525D01*
X55449500Y-85572474D01*
X55487017Y-85712489D01*
X55559487Y-85838010D01*
X55559489Y-85838012D01*
X55559491Y-85838015D01*
X55661985Y-85940509D01*
X55661987Y-85940510D01*
X55661989Y-85940512D01*
X55787511Y-86012982D01*
X55787512Y-86012982D01*
X55787515Y-86012984D01*
X55927525Y-86050500D01*
X55927526Y-86050500D01*
X56072474Y-86050500D01*
X56072475Y-86050500D01*
X56212485Y-86012984D01*
X56212487Y-86012982D01*
X56212489Y-86012982D01*
X56338010Y-85940512D01*
X56338010Y-85940511D01*
X56338015Y-85940509D01*
X56440509Y-85838015D01*
X56512984Y-85712485D01*
X56550500Y-85572475D01*
X56550500Y-85427525D01*
X56512984Y-85287515D01*
X56512982Y-85287512D01*
X56512982Y-85287510D01*
X56440512Y-85161989D01*
X56440507Y-85161983D01*
X56404496Y-85125971D01*
X56376719Y-85071454D01*
X56375500Y-85055968D01*
X56375500Y-83696545D01*
X56394407Y-83638354D01*
X56404496Y-83626541D01*
X57734111Y-82296926D01*
X59300475Y-80730563D01*
X59349911Y-80644937D01*
X59375500Y-80549436D01*
X59375500Y-80450564D01*
X59375500Y-54944031D01*
X59394407Y-54885840D01*
X59404490Y-54874033D01*
X59440509Y-54838015D01*
X59451521Y-54818942D01*
X59512982Y-54712489D01*
X59512982Y-54712487D01*
X59512984Y-54712485D01*
X59550500Y-54572475D01*
X59550500Y-54427525D01*
X59512984Y-54287515D01*
X59512982Y-54287512D01*
X59512982Y-54287510D01*
X59440512Y-54161989D01*
X59440510Y-54161987D01*
X59440509Y-54161985D01*
X59338015Y-54059491D01*
X59338012Y-54059489D01*
X59338010Y-54059487D01*
X59212488Y-53987017D01*
X59212489Y-53987017D01*
X59182896Y-53979087D01*
X59072475Y-53949500D01*
X58927525Y-53949500D01*
X58865790Y-53966041D01*
X58787510Y-53987017D01*
X58661989Y-54059487D01*
X58661988Y-54059488D01*
X58661985Y-54059490D01*
X58661985Y-54059491D01*
X58570001Y-54151474D01*
X58515487Y-54179250D01*
X58455055Y-54169679D01*
X58429999Y-54151475D01*
X58338015Y-54059491D01*
X58338012Y-54059489D01*
X58338010Y-54059487D01*
X58212488Y-53987017D01*
X58212489Y-53987017D01*
X58182896Y-53979087D01*
X58072475Y-53949500D01*
X57927525Y-53949500D01*
X57865790Y-53966041D01*
X57787510Y-53987017D01*
X57661989Y-54059487D01*
X57559487Y-54161989D01*
X57487017Y-54287510D01*
X57487016Y-54287515D01*
X57449500Y-54427525D01*
X57449500Y-54572475D01*
X57479087Y-54682896D01*
X57487017Y-54712489D01*
X57559487Y-54838010D01*
X57559489Y-54838012D01*
X57559491Y-54838015D01*
X57595505Y-54874029D01*
X57623281Y-54928544D01*
X57624500Y-54944031D01*
X57624500Y-56555968D01*
X57605593Y-56614159D01*
X57595504Y-56625971D01*
X57559492Y-56661983D01*
X57559487Y-56661989D01*
X57487017Y-56787510D01*
X57449500Y-56927525D01*
X57449500Y-57025500D01*
X57430593Y-57083691D01*
X57381093Y-57119655D01*
X57350500Y-57124500D01*
X56974500Y-57124500D01*
X56916309Y-57105593D01*
X56880345Y-57056093D01*
X56875500Y-57025500D01*
X56875500Y-49450566D01*
X56875500Y-49450565D01*
X56849910Y-49355062D01*
X56849908Y-49355059D01*
X56849908Y-49355057D01*
X56800476Y-49269440D01*
X56800475Y-49269438D01*
X56730562Y-49199525D01*
X56730559Y-49199523D01*
X56644941Y-49150091D01*
X56644943Y-49150091D01*
X56607885Y-49140161D01*
X56549435Y-49124500D01*
X53549435Y-49124500D01*
X53450565Y-49124500D01*
X53392114Y-49140161D01*
X53355057Y-49150091D01*
X53269440Y-49199523D01*
X53199523Y-49269440D01*
X53150091Y-49355057D01*
X53124500Y-49450566D01*
X53124500Y-50555968D01*
X53105593Y-50614159D01*
X53095504Y-50625971D01*
X53059492Y-50661983D01*
X53059487Y-50661989D01*
X52987017Y-50787510D01*
X52949500Y-50927525D01*
X52949500Y-51072474D01*
X52987017Y-51212489D01*
X53059487Y-51338010D01*
X53059489Y-51338012D01*
X53059491Y-51338015D01*
X53161985Y-51440509D01*
X53161987Y-51440510D01*
X53161989Y-51440512D01*
X53287511Y-51512982D01*
X53287512Y-51512982D01*
X53287515Y-51512984D01*
X53427525Y-51550500D01*
X53427526Y-51550500D01*
X53572474Y-51550500D01*
X53572475Y-51550500D01*
X53712485Y-51512984D01*
X53712487Y-51512982D01*
X53712489Y-51512982D01*
X53838010Y-51440512D01*
X53838010Y-51440511D01*
X53838015Y-51440509D01*
X53940509Y-51338015D01*
X53940512Y-51338010D01*
X54012982Y-51212489D01*
X54012982Y-51212487D01*
X54012984Y-51212485D01*
X54050500Y-51072475D01*
X54050500Y-50927525D01*
X54012984Y-50787515D01*
X54012982Y-50787512D01*
X54012982Y-50787510D01*
X53940512Y-50661989D01*
X53940507Y-50661983D01*
X53904496Y-50625971D01*
X53876719Y-50571454D01*
X53875500Y-50555968D01*
X53875500Y-49974500D01*
X53894407Y-49916309D01*
X53943907Y-49880345D01*
X53974500Y-49875500D01*
X56025500Y-49875500D01*
X56083691Y-49894407D01*
X56119655Y-49943907D01*
X56124500Y-49974500D01*
X56124500Y-50711191D01*
X56105593Y-50769382D01*
X56056093Y-50805346D01*
X55994907Y-50805346D01*
X55945407Y-50769382D01*
X55939764Y-50760692D01*
X55900501Y-50692688D01*
X55900500Y-50692686D01*
X55807314Y-50599500D01*
X55807311Y-50599498D01*
X55807309Y-50599496D01*
X55693189Y-50533609D01*
X55693191Y-50533609D01*
X55643799Y-50520375D01*
X55565892Y-50499500D01*
X55434108Y-50499500D01*
X55356200Y-50520375D01*
X55306809Y-50533609D01*
X55192690Y-50599496D01*
X55099496Y-50692690D01*
X55033609Y-50806809D01*
X55033608Y-50806814D01*
X54999500Y-50934108D01*
X54999500Y-51065892D01*
X55001264Y-51072474D01*
X55033609Y-51193190D01*
X55099496Y-51307309D01*
X55103449Y-51312460D01*
X55101086Y-51314273D01*
X55123281Y-51357834D01*
X55124500Y-51373321D01*
X55124500Y-51711191D01*
X55105593Y-51769382D01*
X55056093Y-51805346D01*
X54994907Y-51805346D01*
X54945407Y-51769382D01*
X54939764Y-51760692D01*
X54900501Y-51692688D01*
X54900500Y-51692686D01*
X54807314Y-51599500D01*
X54807311Y-51599498D01*
X54807309Y-51599496D01*
X54693189Y-51533609D01*
X54693191Y-51533609D01*
X54616215Y-51512984D01*
X54565892Y-51499500D01*
X54434108Y-51499500D01*
X54383785Y-51512984D01*
X54306809Y-51533609D01*
X54192690Y-51599496D01*
X54099496Y-51692690D01*
X54033609Y-51806809D01*
X54033608Y-51806814D01*
X53999500Y-51934108D01*
X53999500Y-52065892D01*
X54025248Y-52161985D01*
X54033609Y-52193190D01*
X54099496Y-52307309D01*
X54103449Y-52312460D01*
X54101086Y-52314273D01*
X54123281Y-52357834D01*
X54124500Y-52373321D01*
X54124500Y-58611193D01*
X54105593Y-58669384D01*
X54056093Y-58705348D01*
X53994907Y-58705348D01*
X53953630Y-58679278D01*
X53945598Y-58670799D01*
X53940509Y-58661985D01*
X53878583Y-58600059D01*
X53877630Y-58599053D01*
X53865031Y-58572582D01*
X53851719Y-58546454D01*
X53851545Y-58544245D01*
X53851336Y-58543806D01*
X53851458Y-58543147D01*
X53850500Y-58530968D01*
X53850500Y-57953857D01*
X53850500Y-57953856D01*
X53826614Y-57864712D01*
X53826612Y-57864708D01*
X53815471Y-57845410D01*
X53815471Y-57845409D01*
X53780473Y-57784792D01*
X53780472Y-57784791D01*
X53780471Y-57784790D01*
X53780470Y-57784788D01*
X52879496Y-56883814D01*
X52851719Y-56829297D01*
X52850500Y-56813810D01*
X52850500Y-52969031D01*
X52869407Y-52910840D01*
X52879490Y-52899033D01*
X52940509Y-52838015D01*
X52940963Y-52837228D01*
X53012982Y-52712489D01*
X53012982Y-52712487D01*
X53012984Y-52712485D01*
X53050500Y-52572475D01*
X53050500Y-52427525D01*
X53012984Y-52287515D01*
X53012982Y-52287512D01*
X53012982Y-52287510D01*
X52940512Y-52161989D01*
X52940510Y-52161987D01*
X52940509Y-52161985D01*
X52838015Y-52059491D01*
X52838012Y-52059489D01*
X52838010Y-52059487D01*
X52712488Y-51987017D01*
X52712489Y-51987017D01*
X52682896Y-51979087D01*
X52572475Y-51949500D01*
X52427525Y-51949500D01*
X52365790Y-51966041D01*
X52287510Y-51987017D01*
X52161989Y-52059487D01*
X52059487Y-52161989D01*
X52054564Y-52170516D01*
X52009091Y-52211454D01*
X51948241Y-52217845D01*
X51898829Y-52191015D01*
X51807314Y-52099500D01*
X51807311Y-52099498D01*
X51807309Y-52099496D01*
X51693189Y-52033609D01*
X51693191Y-52033609D01*
X51643799Y-52020375D01*
X51565892Y-51999500D01*
X51434108Y-51999500D01*
X51356200Y-52020375D01*
X51306809Y-52033609D01*
X51192690Y-52099496D01*
X51099498Y-52192688D01*
X51085736Y-52216525D01*
X51040266Y-52257465D01*
X50979416Y-52263860D01*
X50926428Y-52233267D01*
X50914264Y-52216525D01*
X50900501Y-52192688D01*
X50900500Y-52192686D01*
X50807314Y-52099500D01*
X50807311Y-52099498D01*
X50807309Y-52099496D01*
X50693189Y-52033609D01*
X50693191Y-52033609D01*
X50643799Y-52020375D01*
X50565892Y-51999500D01*
X50434108Y-51999500D01*
X50356200Y-52020375D01*
X50306809Y-52033609D01*
X50192690Y-52099496D01*
X50099498Y-52192688D01*
X50085736Y-52216525D01*
X50040266Y-52257465D01*
X49979416Y-52263860D01*
X49926428Y-52233267D01*
X49914264Y-52216525D01*
X49900501Y-52192688D01*
X49900500Y-52192686D01*
X49807314Y-52099500D01*
X49807311Y-52099498D01*
X49807309Y-52099496D01*
X49693189Y-52033609D01*
X49693191Y-52033609D01*
X49643799Y-52020375D01*
X49565892Y-51999500D01*
X49434108Y-51999500D01*
X49356200Y-52020375D01*
X49306809Y-52033609D01*
X49192690Y-52099496D01*
X49099498Y-52192688D01*
X49085736Y-52216525D01*
X49040266Y-52257465D01*
X48979416Y-52263860D01*
X48926428Y-52233267D01*
X48914264Y-52216525D01*
X48900501Y-52192688D01*
X48900500Y-52192686D01*
X48807314Y-52099500D01*
X48807311Y-52099498D01*
X48807309Y-52099496D01*
X48693189Y-52033609D01*
X48693191Y-52033609D01*
X48643799Y-52020375D01*
X48565892Y-51999500D01*
X48434108Y-51999500D01*
X48356200Y-52020375D01*
X48306809Y-52033609D01*
X48192690Y-52099496D01*
X48099498Y-52192688D01*
X48085736Y-52216525D01*
X48040266Y-52257465D01*
X47979416Y-52263860D01*
X47926428Y-52233267D01*
X47914264Y-52216525D01*
X47900501Y-52192688D01*
X47900500Y-52192686D01*
X47807314Y-52099500D01*
X47807311Y-52099498D01*
X47807309Y-52099496D01*
X47693189Y-52033609D01*
X47693191Y-52033609D01*
X47643799Y-52020375D01*
X47565892Y-51999500D01*
X47434108Y-51999500D01*
X47356200Y-52020375D01*
X47306809Y-52033609D01*
X47192690Y-52099496D01*
X47099496Y-52192690D01*
X47033609Y-52306809D01*
X47033608Y-52306814D01*
X46999500Y-52434108D01*
X46999500Y-52565892D01*
X47029579Y-52678151D01*
X47033609Y-52693190D01*
X47099496Y-52807309D01*
X47103449Y-52812460D01*
X47101086Y-52814273D01*
X47123281Y-52857834D01*
X47124500Y-52873321D01*
X47124500Y-55049438D01*
X47137294Y-55097184D01*
X47137294Y-55097185D01*
X47150088Y-55144934D01*
X47150091Y-55144941D01*
X47199525Y-55230563D01*
X47199526Y-55230563D01*
X48595504Y-56626541D01*
X48623281Y-56681058D01*
X48624500Y-56696545D01*
X48624500Y-59354455D01*
X48605593Y-59412646D01*
X48556093Y-59448610D01*
X48494907Y-59448610D01*
X48455496Y-59424459D01*
X47230563Y-58199526D01*
X47230563Y-58199525D01*
X47144941Y-58150091D01*
X47144937Y-58150089D01*
X47057994Y-58126792D01*
X47057989Y-58126792D01*
X47049436Y-58124500D01*
X47049435Y-58124500D01*
X46388807Y-58124500D01*
X46330616Y-58105593D01*
X46294652Y-58056093D01*
X46294652Y-57994907D01*
X46330616Y-57945407D01*
X46337224Y-57941115D01*
X46338009Y-57940512D01*
X46338015Y-57940509D01*
X46440509Y-57838015D01*
X46469665Y-57787515D01*
X46512982Y-57712489D01*
X46512982Y-57712487D01*
X46512984Y-57712485D01*
X46550500Y-57572475D01*
X46550500Y-57427525D01*
X46512984Y-57287515D01*
X46512982Y-57287512D01*
X46512982Y-57287510D01*
X46440512Y-57161989D01*
X46440507Y-57161983D01*
X46404496Y-57125971D01*
X46376719Y-57071454D01*
X46375500Y-57055968D01*
X46375500Y-55944031D01*
X46394407Y-55885840D01*
X46404490Y-55874033D01*
X46440509Y-55838015D01*
X46512984Y-55712485D01*
X46550500Y-55572475D01*
X46550500Y-55427525D01*
X46512984Y-55287515D01*
X46512982Y-55287512D01*
X46512982Y-55287510D01*
X46440512Y-55161989D01*
X46440510Y-55161987D01*
X46440509Y-55161985D01*
X46338015Y-55059491D01*
X46338012Y-55059489D01*
X46338010Y-55059487D01*
X46212488Y-54987017D01*
X46212489Y-54987017D01*
X46182896Y-54979087D01*
X46072475Y-54949500D01*
X45927525Y-54949500D01*
X45865790Y-54966041D01*
X45787510Y-54987017D01*
X45661989Y-55059487D01*
X45559487Y-55161989D01*
X45487017Y-55287510D01*
X45449500Y-55427525D01*
X45449500Y-55572474D01*
X45487017Y-55712489D01*
X45559487Y-55838010D01*
X45559489Y-55838012D01*
X45559491Y-55838015D01*
X45595505Y-55874029D01*
X45623281Y-55928544D01*
X45624500Y-55944031D01*
X45624500Y-57055968D01*
X45605593Y-57114159D01*
X45595504Y-57125971D01*
X45559492Y-57161983D01*
X45559487Y-57161989D01*
X45487017Y-57287510D01*
X45449500Y-57427525D01*
X45449500Y-57572474D01*
X45487017Y-57712489D01*
X45559487Y-57838010D01*
X45559489Y-57838012D01*
X45559491Y-57838015D01*
X45661985Y-57940509D01*
X45661987Y-57940510D01*
X45661988Y-57940511D01*
X45667134Y-57944460D01*
X45666116Y-57945785D01*
X45701636Y-57985237D01*
X45708029Y-58046087D01*
X45677434Y-58099074D01*
X45621537Y-58123958D01*
X45611193Y-58124500D01*
X44444032Y-58124500D01*
X44385841Y-58105593D01*
X44374029Y-58095504D01*
X44338016Y-58059492D01*
X44338010Y-58059487D01*
X44212488Y-57987017D01*
X44212489Y-57987017D01*
X44088735Y-57953857D01*
X44072475Y-57949500D01*
X43927525Y-57949500D01*
X43911265Y-57953857D01*
X43787510Y-57987017D01*
X43661989Y-58059487D01*
X43559487Y-58161989D01*
X43487017Y-58287510D01*
X43463987Y-58373459D01*
X43449500Y-58427525D01*
X40240500Y-58427525D01*
X40240500Y-54927525D01*
X40449500Y-54927525D01*
X40449500Y-55072475D01*
X40475527Y-55169609D01*
X40487017Y-55212489D01*
X40559487Y-55338010D01*
X40559489Y-55338012D01*
X40559491Y-55338015D01*
X40661985Y-55440509D01*
X40661987Y-55440510D01*
X40661989Y-55440512D01*
X40787511Y-55512982D01*
X40787512Y-55512982D01*
X40787515Y-55512984D01*
X40927525Y-55550500D01*
X40927526Y-55550500D01*
X41072474Y-55550500D01*
X41072475Y-55550500D01*
X41212485Y-55512984D01*
X41212487Y-55512982D01*
X41212489Y-55512982D01*
X41338010Y-55440512D01*
X41338010Y-55440511D01*
X41338015Y-55440509D01*
X41440509Y-55338015D01*
X41512984Y-55212485D01*
X41512985Y-55212480D01*
X41515469Y-55206486D01*
X41516637Y-55206970D01*
X41538201Y-55169611D01*
X42900499Y-53807315D01*
X42966392Y-53693186D01*
X43000500Y-53565893D01*
X43000500Y-53434108D01*
X43000500Y-38385769D01*
X43499500Y-38385769D01*
X43499500Y-38517553D01*
X43529579Y-38629812D01*
X43533609Y-38644851D01*
X43599496Y-38758970D01*
X43599498Y-38758972D01*
X43599500Y-38758975D01*
X43620505Y-38779980D01*
X43648281Y-38834495D01*
X43649500Y-38849982D01*
X43649500Y-51601678D01*
X43630593Y-51659869D01*
X43620505Y-51671680D01*
X43599501Y-51692684D01*
X43599496Y-51692690D01*
X43533609Y-51806809D01*
X43533608Y-51806814D01*
X43499500Y-51934108D01*
X43499500Y-52065892D01*
X43525248Y-52161985D01*
X43533609Y-52193190D01*
X43599496Y-52307309D01*
X43599498Y-52307311D01*
X43599500Y-52307314D01*
X43692686Y-52400500D01*
X43692688Y-52400501D01*
X43692690Y-52400503D01*
X43806810Y-52466390D01*
X43806808Y-52466390D01*
X43806812Y-52466391D01*
X43806814Y-52466392D01*
X43934108Y-52500500D01*
X43934110Y-52500500D01*
X44065890Y-52500500D01*
X44065892Y-52500500D01*
X44193186Y-52466392D01*
X44193188Y-52466390D01*
X44193190Y-52466390D01*
X44307309Y-52400503D01*
X44307309Y-52400502D01*
X44307314Y-52400500D01*
X44400500Y-52307314D01*
X44400792Y-52306809D01*
X44466390Y-52193190D01*
X44466390Y-52193188D01*
X44466392Y-52193186D01*
X44500500Y-52065892D01*
X44500500Y-51934108D01*
X44466392Y-51806814D01*
X44466390Y-51806811D01*
X44466390Y-51806809D01*
X44400503Y-51692690D01*
X44400498Y-51692684D01*
X44379495Y-51671680D01*
X44351719Y-51617163D01*
X44350500Y-51601678D01*
X44350500Y-38849982D01*
X44369407Y-38791791D01*
X44379490Y-38779984D01*
X44400500Y-38758975D01*
X44466392Y-38644847D01*
X44500500Y-38517553D01*
X44500500Y-38385769D01*
X44466392Y-38258475D01*
X44466390Y-38258472D01*
X44466390Y-38258470D01*
X44400503Y-38144351D01*
X44400501Y-38144349D01*
X44400500Y-38144347D01*
X44307314Y-38051161D01*
X44307311Y-38051159D01*
X44307309Y-38051157D01*
X44193189Y-37985270D01*
X44193191Y-37985270D01*
X44143799Y-37972036D01*
X44065892Y-37951161D01*
X43934108Y-37951161D01*
X43856200Y-37972036D01*
X43806809Y-37985270D01*
X43692690Y-38051157D01*
X43599496Y-38144351D01*
X43533609Y-38258470D01*
X43533608Y-38258475D01*
X43499500Y-38385769D01*
X43000500Y-38385769D01*
X43000500Y-37760634D01*
X43011666Y-37718963D01*
X43010500Y-37718480D01*
X43012977Y-37712496D01*
X43012984Y-37712485D01*
X43050500Y-37572475D01*
X43050500Y-37427525D01*
X43012984Y-37287515D01*
X43012982Y-37287512D01*
X43012982Y-37287510D01*
X42940512Y-37161989D01*
X42940510Y-37161987D01*
X42940509Y-37161985D01*
X42838015Y-37059491D01*
X42838012Y-37059489D01*
X42838010Y-37059487D01*
X42712488Y-36987017D01*
X42712489Y-36987017D01*
X42682896Y-36979087D01*
X42572475Y-36949500D01*
X42427525Y-36949500D01*
X42365790Y-36966041D01*
X42287510Y-36987017D01*
X42161989Y-37059487D01*
X42059487Y-37161989D01*
X41987017Y-37287510D01*
X41987016Y-37287515D01*
X41949500Y-37427525D01*
X41949500Y-37572475D01*
X41987016Y-37712485D01*
X41987018Y-37712490D01*
X41989500Y-37718480D01*
X41988333Y-37718963D01*
X41999500Y-37760634D01*
X41999500Y-53251677D01*
X41980593Y-53309868D01*
X41970504Y-53321681D01*
X40830386Y-54461798D01*
X40793027Y-54483369D01*
X40793510Y-54484533D01*
X40787519Y-54487014D01*
X40787516Y-54487015D01*
X40787515Y-54487016D01*
X40734461Y-54517646D01*
X40661986Y-54559490D01*
X40559487Y-54661989D01*
X40487017Y-54787510D01*
X40456065Y-54903024D01*
X40449500Y-54927525D01*
X40240500Y-54927525D01*
X40240500Y-35099000D01*
X40259407Y-35040809D01*
X40308907Y-35004845D01*
X40339500Y-35000000D01*
X59660500Y-35000000D01*
X59718691Y-35018907D01*
G37*
G04 #@! TD.AperFunction*
G04 #@! TD*
M02*
