G04 #@! TF.GenerationSoftware,KiCad,Pcbnew,9.0.3+dfsg-1*
G04 #@! TF.CreationDate,2026-04-08T20:55:01-07:00*
G04 #@! TF.ProjectId,NeoPixel_Saber_Core,4e656f50-6978-4656-9c5f-53616265725f,rev?*
G04 #@! TF.SameCoordinates,Original*
G04 #@! TF.FileFunction,Legend,Top*
G04 #@! TF.FilePolarity,Positive*
%FSLAX46Y46*%
G04 Gerber Fmt 4.6, Leading zero omitted, Abs format (unit mm)*
G04 Created by KiCad (PCBNEW 9.0.3+dfsg-1) date 2026-04-08 20:55:01*
%MOMM*%
%LPD*%
G01*
G04 APERTURE LIST*
%ADD10C,0.100000*%
%ADD11C,0.150000*%
%ADD12C,0.080000*%
%ADD13C,0.120000*%
%ADD14C,0.152400*%
%ADD15C,0.400000*%
%ADD16C,0.127000*%
%ADD17C,0.200000*%
G04 APERTURE END LIST*
D10*
X44500000Y-89000000D02*
X44500000Y-91000000D01*
X44500000Y-89000000D02*
X45000000Y-89250000D01*
X44500000Y-90500000D02*
X44500000Y-89000000D01*
X44500000Y-89000000D02*
X44000000Y-89250000D01*
X45500000Y-99500000D02*
X45500000Y-99000000D01*
X45500000Y-99500000D02*
X44500000Y-99500000D01*
X44500000Y-89500000D02*
X44500000Y-90500000D01*
X44500000Y-91000000D02*
X45000000Y-90500000D01*
X45500000Y-99000000D02*
X45500000Y-99500000D01*
X44500000Y-91000000D02*
X44000000Y-90500000D01*
X44500000Y-89000000D02*
X44500000Y-89500000D01*
X44500000Y-99000000D02*
X45500000Y-99500000D01*
X54256265Y-106824800D02*
X54399122Y-106872419D01*
X54399122Y-106872419D02*
X54637217Y-106872419D01*
X54637217Y-106872419D02*
X54732455Y-106824800D01*
X54732455Y-106824800D02*
X54780074Y-106777180D01*
X54780074Y-106777180D02*
X54827693Y-106681942D01*
X54827693Y-106681942D02*
X54827693Y-106586704D01*
X54827693Y-106586704D02*
X54780074Y-106491466D01*
X54780074Y-106491466D02*
X54732455Y-106443847D01*
X54732455Y-106443847D02*
X54637217Y-106396228D01*
X54637217Y-106396228D02*
X54446741Y-106348609D01*
X54446741Y-106348609D02*
X54351503Y-106300990D01*
X54351503Y-106300990D02*
X54303884Y-106253371D01*
X54303884Y-106253371D02*
X54256265Y-106158133D01*
X54256265Y-106158133D02*
X54256265Y-106062895D01*
X54256265Y-106062895D02*
X54303884Y-105967657D01*
X54303884Y-105967657D02*
X54351503Y-105920038D01*
X54351503Y-105920038D02*
X54446741Y-105872419D01*
X54446741Y-105872419D02*
X54684836Y-105872419D01*
X54684836Y-105872419D02*
X54827693Y-105920038D01*
X55256265Y-106872419D02*
X55256265Y-105872419D01*
X55256265Y-105872419D02*
X55637217Y-105872419D01*
X55637217Y-105872419D02*
X55732455Y-105920038D01*
X55732455Y-105920038D02*
X55780074Y-105967657D01*
X55780074Y-105967657D02*
X55827693Y-106062895D01*
X55827693Y-106062895D02*
X55827693Y-106205752D01*
X55827693Y-106205752D02*
X55780074Y-106300990D01*
X55780074Y-106300990D02*
X55732455Y-106348609D01*
X55732455Y-106348609D02*
X55637217Y-106396228D01*
X55637217Y-106396228D02*
X55256265Y-106396228D01*
X56256265Y-106872419D02*
X56256265Y-105872419D01*
X56827693Y-106872419D02*
X56399122Y-106300990D01*
X56827693Y-105872419D02*
X56256265Y-106443847D01*
X57256265Y-106491466D02*
X58018170Y-106491466D01*
X45380074Y-80872419D02*
X45380074Y-79872419D01*
X45380074Y-79872419D02*
X45594360Y-79872419D01*
X45594360Y-79872419D02*
X45722931Y-79920038D01*
X45722931Y-79920038D02*
X45808646Y-80015276D01*
X45808646Y-80015276D02*
X45851503Y-80110514D01*
X45851503Y-80110514D02*
X45894360Y-80300990D01*
X45894360Y-80300990D02*
X45894360Y-80443847D01*
X45894360Y-80443847D02*
X45851503Y-80634323D01*
X45851503Y-80634323D02*
X45808646Y-80729561D01*
X45808646Y-80729561D02*
X45722931Y-80824800D01*
X45722931Y-80824800D02*
X45594360Y-80872419D01*
X45594360Y-80872419D02*
X45380074Y-80872419D01*
X46451503Y-79872419D02*
X46622931Y-79872419D01*
X46622931Y-79872419D02*
X46708646Y-79920038D01*
X46708646Y-79920038D02*
X46794360Y-80015276D01*
X46794360Y-80015276D02*
X46837217Y-80205752D01*
X46837217Y-80205752D02*
X46837217Y-80539085D01*
X46837217Y-80539085D02*
X46794360Y-80729561D01*
X46794360Y-80729561D02*
X46708646Y-80824800D01*
X46708646Y-80824800D02*
X46622931Y-80872419D01*
X46622931Y-80872419D02*
X46451503Y-80872419D01*
X46451503Y-80872419D02*
X46365789Y-80824800D01*
X46365789Y-80824800D02*
X46280074Y-80729561D01*
X46280074Y-80729561D02*
X46237217Y-80539085D01*
X46237217Y-80539085D02*
X46237217Y-80205752D01*
X46237217Y-80205752D02*
X46280074Y-80015276D01*
X46280074Y-80015276D02*
X46365789Y-79920038D01*
X46365789Y-79920038D02*
X46451503Y-79872419D01*
X47222931Y-79872419D02*
X47222931Y-80681942D01*
X47222931Y-80681942D02*
X47265788Y-80777180D01*
X47265788Y-80777180D02*
X47308646Y-80824800D01*
X47308646Y-80824800D02*
X47394360Y-80872419D01*
X47394360Y-80872419D02*
X47565788Y-80872419D01*
X47565788Y-80872419D02*
X47651503Y-80824800D01*
X47651503Y-80824800D02*
X47694360Y-80777180D01*
X47694360Y-80777180D02*
X47737217Y-80681942D01*
X47737217Y-80681942D02*
X47737217Y-79872419D01*
X48037217Y-79872419D02*
X48551503Y-79872419D01*
X48294360Y-80872419D02*
X48294360Y-79872419D01*
X55897217Y-88348609D02*
X56040074Y-88396228D01*
X56040074Y-88396228D02*
X56087693Y-88443847D01*
X56087693Y-88443847D02*
X56135312Y-88539085D01*
X56135312Y-88539085D02*
X56135312Y-88681942D01*
X56135312Y-88681942D02*
X56087693Y-88777180D01*
X56087693Y-88777180D02*
X56040074Y-88824800D01*
X56040074Y-88824800D02*
X55944836Y-88872419D01*
X55944836Y-88872419D02*
X55563884Y-88872419D01*
X55563884Y-88872419D02*
X55563884Y-87872419D01*
X55563884Y-87872419D02*
X55897217Y-87872419D01*
X55897217Y-87872419D02*
X55992455Y-87920038D01*
X55992455Y-87920038D02*
X56040074Y-87967657D01*
X56040074Y-87967657D02*
X56087693Y-88062895D01*
X56087693Y-88062895D02*
X56087693Y-88158133D01*
X56087693Y-88158133D02*
X56040074Y-88253371D01*
X56040074Y-88253371D02*
X55992455Y-88300990D01*
X55992455Y-88300990D02*
X55897217Y-88348609D01*
X55897217Y-88348609D02*
X55563884Y-88348609D01*
X56754360Y-87872419D02*
X56944836Y-87872419D01*
X56944836Y-87872419D02*
X57040074Y-87920038D01*
X57040074Y-87920038D02*
X57135312Y-88015276D01*
X57135312Y-88015276D02*
X57182931Y-88205752D01*
X57182931Y-88205752D02*
X57182931Y-88539085D01*
X57182931Y-88539085D02*
X57135312Y-88729561D01*
X57135312Y-88729561D02*
X57040074Y-88824800D01*
X57040074Y-88824800D02*
X56944836Y-88872419D01*
X56944836Y-88872419D02*
X56754360Y-88872419D01*
X56754360Y-88872419D02*
X56659122Y-88824800D01*
X56659122Y-88824800D02*
X56563884Y-88729561D01*
X56563884Y-88729561D02*
X56516265Y-88539085D01*
X56516265Y-88539085D02*
X56516265Y-88205752D01*
X56516265Y-88205752D02*
X56563884Y-88015276D01*
X56563884Y-88015276D02*
X56659122Y-87920038D01*
X56659122Y-87920038D02*
X56754360Y-87872419D01*
X57801979Y-87872419D02*
X57992455Y-87872419D01*
X57992455Y-87872419D02*
X58087693Y-87920038D01*
X58087693Y-87920038D02*
X58182931Y-88015276D01*
X58182931Y-88015276D02*
X58230550Y-88205752D01*
X58230550Y-88205752D02*
X58230550Y-88539085D01*
X58230550Y-88539085D02*
X58182931Y-88729561D01*
X58182931Y-88729561D02*
X58087693Y-88824800D01*
X58087693Y-88824800D02*
X57992455Y-88872419D01*
X57992455Y-88872419D02*
X57801979Y-88872419D01*
X57801979Y-88872419D02*
X57706741Y-88824800D01*
X57706741Y-88824800D02*
X57611503Y-88729561D01*
X57611503Y-88729561D02*
X57563884Y-88539085D01*
X57563884Y-88539085D02*
X57563884Y-88205752D01*
X57563884Y-88205752D02*
X57611503Y-88015276D01*
X57611503Y-88015276D02*
X57706741Y-87920038D01*
X57706741Y-87920038D02*
X57801979Y-87872419D01*
X58516265Y-87872419D02*
X59087693Y-87872419D01*
X58801979Y-88872419D02*
X58801979Y-87872419D01*
X53637217Y-175848609D02*
X53780074Y-175896228D01*
X53780074Y-175896228D02*
X53827693Y-175943847D01*
X53827693Y-175943847D02*
X53875312Y-176039085D01*
X53875312Y-176039085D02*
X53875312Y-176181942D01*
X53875312Y-176181942D02*
X53827693Y-176277180D01*
X53827693Y-176277180D02*
X53780074Y-176324800D01*
X53780074Y-176324800D02*
X53684836Y-176372419D01*
X53684836Y-176372419D02*
X53303884Y-176372419D01*
X53303884Y-176372419D02*
X53303884Y-175372419D01*
X53303884Y-175372419D02*
X53637217Y-175372419D01*
X53637217Y-175372419D02*
X53732455Y-175420038D01*
X53732455Y-175420038D02*
X53780074Y-175467657D01*
X53780074Y-175467657D02*
X53827693Y-175562895D01*
X53827693Y-175562895D02*
X53827693Y-175658133D01*
X53827693Y-175658133D02*
X53780074Y-175753371D01*
X53780074Y-175753371D02*
X53732455Y-175800990D01*
X53732455Y-175800990D02*
X53637217Y-175848609D01*
X53637217Y-175848609D02*
X53303884Y-175848609D01*
X54303884Y-175991466D02*
X55065789Y-175991466D01*
X54684836Y-176372419D02*
X54684836Y-175610514D01*
X40780074Y-90372419D02*
X40303884Y-90372419D01*
X40303884Y-90372419D02*
X40303884Y-89372419D01*
X41113408Y-89848609D02*
X41446741Y-89848609D01*
X41589598Y-90372419D02*
X41113408Y-90372419D01*
X41113408Y-90372419D02*
X41113408Y-89372419D01*
X41113408Y-89372419D02*
X41589598Y-89372419D01*
X42018170Y-90372419D02*
X42018170Y-89372419D01*
X42018170Y-89372419D02*
X42256265Y-89372419D01*
X42256265Y-89372419D02*
X42399122Y-89420038D01*
X42399122Y-89420038D02*
X42494360Y-89515276D01*
X42494360Y-89515276D02*
X42541979Y-89610514D01*
X42541979Y-89610514D02*
X42589598Y-89800990D01*
X42589598Y-89800990D02*
X42589598Y-89943847D01*
X42589598Y-89943847D02*
X42541979Y-90134323D01*
X42541979Y-90134323D02*
X42494360Y-90229561D01*
X42494360Y-90229561D02*
X42399122Y-90324800D01*
X42399122Y-90324800D02*
X42256265Y-90372419D01*
X42256265Y-90372419D02*
X42018170Y-90372419D01*
X43018170Y-89991466D02*
X43780075Y-89991466D01*
X53637217Y-180348609D02*
X53780074Y-180396228D01*
X53780074Y-180396228D02*
X53827693Y-180443847D01*
X53827693Y-180443847D02*
X53875312Y-180539085D01*
X53875312Y-180539085D02*
X53875312Y-180681942D01*
X53875312Y-180681942D02*
X53827693Y-180777180D01*
X53827693Y-180777180D02*
X53780074Y-180824800D01*
X53780074Y-180824800D02*
X53684836Y-180872419D01*
X53684836Y-180872419D02*
X53303884Y-180872419D01*
X53303884Y-180872419D02*
X53303884Y-179872419D01*
X53303884Y-179872419D02*
X53637217Y-179872419D01*
X53637217Y-179872419D02*
X53732455Y-179920038D01*
X53732455Y-179920038D02*
X53780074Y-179967657D01*
X53780074Y-179967657D02*
X53827693Y-180062895D01*
X53827693Y-180062895D02*
X53827693Y-180158133D01*
X53827693Y-180158133D02*
X53780074Y-180253371D01*
X53780074Y-180253371D02*
X53732455Y-180300990D01*
X53732455Y-180300990D02*
X53637217Y-180348609D01*
X53637217Y-180348609D02*
X53303884Y-180348609D01*
X54303884Y-180872419D02*
X54303884Y-179872419D01*
X54303884Y-179872419D02*
X54637217Y-180586704D01*
X54637217Y-180586704D02*
X54970550Y-179872419D01*
X54970550Y-179872419D02*
X54970550Y-180872419D01*
X53637217Y-185348609D02*
X53780074Y-185396228D01*
X53780074Y-185396228D02*
X53827693Y-185443847D01*
X53827693Y-185443847D02*
X53875312Y-185539085D01*
X53875312Y-185539085D02*
X53875312Y-185681942D01*
X53875312Y-185681942D02*
X53827693Y-185777180D01*
X53827693Y-185777180D02*
X53780074Y-185824800D01*
X53780074Y-185824800D02*
X53684836Y-185872419D01*
X53684836Y-185872419D02*
X53303884Y-185872419D01*
X53303884Y-185872419D02*
X53303884Y-184872419D01*
X53303884Y-184872419D02*
X53637217Y-184872419D01*
X53637217Y-184872419D02*
X53732455Y-184920038D01*
X53732455Y-184920038D02*
X53780074Y-184967657D01*
X53780074Y-184967657D02*
X53827693Y-185062895D01*
X53827693Y-185062895D02*
X53827693Y-185158133D01*
X53827693Y-185158133D02*
X53780074Y-185253371D01*
X53780074Y-185253371D02*
X53732455Y-185300990D01*
X53732455Y-185300990D02*
X53637217Y-185348609D01*
X53637217Y-185348609D02*
X53303884Y-185348609D01*
X54303884Y-185491466D02*
X55065789Y-185491466D01*
X48375312Y-119277180D02*
X48327693Y-119324800D01*
X48327693Y-119324800D02*
X48184836Y-119372419D01*
X48184836Y-119372419D02*
X48089598Y-119372419D01*
X48089598Y-119372419D02*
X47946741Y-119324800D01*
X47946741Y-119324800D02*
X47851503Y-119229561D01*
X47851503Y-119229561D02*
X47803884Y-119134323D01*
X47803884Y-119134323D02*
X47756265Y-118943847D01*
X47756265Y-118943847D02*
X47756265Y-118800990D01*
X47756265Y-118800990D02*
X47803884Y-118610514D01*
X47803884Y-118610514D02*
X47851503Y-118515276D01*
X47851503Y-118515276D02*
X47946741Y-118420038D01*
X47946741Y-118420038D02*
X48089598Y-118372419D01*
X48089598Y-118372419D02*
X48184836Y-118372419D01*
X48184836Y-118372419D02*
X48327693Y-118420038D01*
X48327693Y-118420038D02*
X48375312Y-118467657D01*
X48661027Y-118372419D02*
X49232455Y-118372419D01*
X48946741Y-119372419D02*
X48946741Y-118372419D01*
X50137217Y-119372419D02*
X49803884Y-118896228D01*
X49565789Y-119372419D02*
X49565789Y-118372419D01*
X49565789Y-118372419D02*
X49946741Y-118372419D01*
X49946741Y-118372419D02*
X50041979Y-118420038D01*
X50041979Y-118420038D02*
X50089598Y-118467657D01*
X50089598Y-118467657D02*
X50137217Y-118562895D01*
X50137217Y-118562895D02*
X50137217Y-118705752D01*
X50137217Y-118705752D02*
X50089598Y-118800990D01*
X50089598Y-118800990D02*
X50041979Y-118848609D01*
X50041979Y-118848609D02*
X49946741Y-118896228D01*
X49946741Y-118896228D02*
X49565789Y-118896228D01*
X51041979Y-119372419D02*
X50565789Y-119372419D01*
X50565789Y-119372419D02*
X50565789Y-118372419D01*
X54256265Y-118824800D02*
X54399122Y-118872419D01*
X54399122Y-118872419D02*
X54637217Y-118872419D01*
X54637217Y-118872419D02*
X54732455Y-118824800D01*
X54732455Y-118824800D02*
X54780074Y-118777180D01*
X54780074Y-118777180D02*
X54827693Y-118681942D01*
X54827693Y-118681942D02*
X54827693Y-118586704D01*
X54827693Y-118586704D02*
X54780074Y-118491466D01*
X54780074Y-118491466D02*
X54732455Y-118443847D01*
X54732455Y-118443847D02*
X54637217Y-118396228D01*
X54637217Y-118396228D02*
X54446741Y-118348609D01*
X54446741Y-118348609D02*
X54351503Y-118300990D01*
X54351503Y-118300990D02*
X54303884Y-118253371D01*
X54303884Y-118253371D02*
X54256265Y-118158133D01*
X54256265Y-118158133D02*
X54256265Y-118062895D01*
X54256265Y-118062895D02*
X54303884Y-117967657D01*
X54303884Y-117967657D02*
X54351503Y-117920038D01*
X54351503Y-117920038D02*
X54446741Y-117872419D01*
X54446741Y-117872419D02*
X54684836Y-117872419D01*
X54684836Y-117872419D02*
X54827693Y-117920038D01*
X55256265Y-118872419D02*
X55256265Y-117872419D01*
X55256265Y-117872419D02*
X55637217Y-117872419D01*
X55637217Y-117872419D02*
X55732455Y-117920038D01*
X55732455Y-117920038D02*
X55780074Y-117967657D01*
X55780074Y-117967657D02*
X55827693Y-118062895D01*
X55827693Y-118062895D02*
X55827693Y-118205752D01*
X55827693Y-118205752D02*
X55780074Y-118300990D01*
X55780074Y-118300990D02*
X55732455Y-118348609D01*
X55732455Y-118348609D02*
X55637217Y-118396228D01*
X55637217Y-118396228D02*
X55256265Y-118396228D01*
X56256265Y-118872419D02*
X56256265Y-117872419D01*
X56827693Y-118872419D02*
X56399122Y-118300990D01*
X56827693Y-117872419D02*
X56256265Y-118443847D01*
X57256265Y-118491466D02*
X58018170Y-118491466D01*
X57637217Y-118872419D02*
X57637217Y-118110514D01*
X45708646Y-119872419D02*
X46375312Y-119872419D01*
X46375312Y-119872419D02*
X45708646Y-120872419D01*
X45708646Y-120872419D02*
X46375312Y-120872419D01*
X46756265Y-120872419D02*
X46756265Y-120205752D01*
X46756265Y-119872419D02*
X46708646Y-119920038D01*
X46708646Y-119920038D02*
X46756265Y-119967657D01*
X46756265Y-119967657D02*
X46803884Y-119920038D01*
X46803884Y-119920038D02*
X46756265Y-119872419D01*
X46756265Y-119872419D02*
X46756265Y-119967657D01*
X47232455Y-120872419D02*
X47232455Y-119872419D01*
X47232455Y-120253371D02*
X47327693Y-120205752D01*
X47327693Y-120205752D02*
X47518169Y-120205752D01*
X47518169Y-120205752D02*
X47613407Y-120253371D01*
X47613407Y-120253371D02*
X47661026Y-120300990D01*
X47661026Y-120300990D02*
X47708645Y-120396228D01*
X47708645Y-120396228D02*
X47708645Y-120681942D01*
X47708645Y-120681942D02*
X47661026Y-120777180D01*
X47661026Y-120777180D02*
X47613407Y-120824800D01*
X47613407Y-120824800D02*
X47518169Y-120872419D01*
X47518169Y-120872419D02*
X47327693Y-120872419D01*
X47327693Y-120872419D02*
X47232455Y-120824800D01*
X48089598Y-120824800D02*
X48184836Y-120872419D01*
X48184836Y-120872419D02*
X48375312Y-120872419D01*
X48375312Y-120872419D02*
X48470550Y-120824800D01*
X48470550Y-120824800D02*
X48518169Y-120729561D01*
X48518169Y-120729561D02*
X48518169Y-120681942D01*
X48518169Y-120681942D02*
X48470550Y-120586704D01*
X48470550Y-120586704D02*
X48375312Y-120539085D01*
X48375312Y-120539085D02*
X48232455Y-120539085D01*
X48232455Y-120539085D02*
X48137217Y-120491466D01*
X48137217Y-120491466D02*
X48089598Y-120396228D01*
X48089598Y-120396228D02*
X48089598Y-120348609D01*
X48089598Y-120348609D02*
X48137217Y-120253371D01*
X48137217Y-120253371D02*
X48232455Y-120205752D01*
X48232455Y-120205752D02*
X48375312Y-120205752D01*
X48375312Y-120205752D02*
X48470550Y-120253371D01*
X49661027Y-120824800D02*
X49803884Y-120872419D01*
X49803884Y-120872419D02*
X50041979Y-120872419D01*
X50041979Y-120872419D02*
X50137217Y-120824800D01*
X50137217Y-120824800D02*
X50184836Y-120777180D01*
X50184836Y-120777180D02*
X50232455Y-120681942D01*
X50232455Y-120681942D02*
X50232455Y-120586704D01*
X50232455Y-120586704D02*
X50184836Y-120491466D01*
X50184836Y-120491466D02*
X50137217Y-120443847D01*
X50137217Y-120443847D02*
X50041979Y-120396228D01*
X50041979Y-120396228D02*
X49851503Y-120348609D01*
X49851503Y-120348609D02*
X49756265Y-120300990D01*
X49756265Y-120300990D02*
X49708646Y-120253371D01*
X49708646Y-120253371D02*
X49661027Y-120158133D01*
X49661027Y-120158133D02*
X49661027Y-120062895D01*
X49661027Y-120062895D02*
X49708646Y-119967657D01*
X49708646Y-119967657D02*
X49756265Y-119920038D01*
X49756265Y-119920038D02*
X49851503Y-119872419D01*
X49851503Y-119872419D02*
X50089598Y-119872419D01*
X50089598Y-119872419D02*
X50232455Y-119920038D01*
X51089598Y-120872419D02*
X51089598Y-120348609D01*
X51089598Y-120348609D02*
X51041979Y-120253371D01*
X51041979Y-120253371D02*
X50946741Y-120205752D01*
X50946741Y-120205752D02*
X50756265Y-120205752D01*
X50756265Y-120205752D02*
X50661027Y-120253371D01*
X51089598Y-120824800D02*
X50994360Y-120872419D01*
X50994360Y-120872419D02*
X50756265Y-120872419D01*
X50756265Y-120872419D02*
X50661027Y-120824800D01*
X50661027Y-120824800D02*
X50613408Y-120729561D01*
X50613408Y-120729561D02*
X50613408Y-120634323D01*
X50613408Y-120634323D02*
X50661027Y-120539085D01*
X50661027Y-120539085D02*
X50756265Y-120491466D01*
X50756265Y-120491466D02*
X50994360Y-120491466D01*
X50994360Y-120491466D02*
X51089598Y-120443847D01*
X51565789Y-120872419D02*
X51565789Y-119872419D01*
X51565789Y-120253371D02*
X51661027Y-120205752D01*
X51661027Y-120205752D02*
X51851503Y-120205752D01*
X51851503Y-120205752D02*
X51946741Y-120253371D01*
X51946741Y-120253371D02*
X51994360Y-120300990D01*
X51994360Y-120300990D02*
X52041979Y-120396228D01*
X52041979Y-120396228D02*
X52041979Y-120681942D01*
X52041979Y-120681942D02*
X51994360Y-120777180D01*
X51994360Y-120777180D02*
X51946741Y-120824800D01*
X51946741Y-120824800D02*
X51851503Y-120872419D01*
X51851503Y-120872419D02*
X51661027Y-120872419D01*
X51661027Y-120872419D02*
X51565789Y-120824800D01*
X52851503Y-120824800D02*
X52756265Y-120872419D01*
X52756265Y-120872419D02*
X52565789Y-120872419D01*
X52565789Y-120872419D02*
X52470551Y-120824800D01*
X52470551Y-120824800D02*
X52422932Y-120729561D01*
X52422932Y-120729561D02*
X52422932Y-120348609D01*
X52422932Y-120348609D02*
X52470551Y-120253371D01*
X52470551Y-120253371D02*
X52565789Y-120205752D01*
X52565789Y-120205752D02*
X52756265Y-120205752D01*
X52756265Y-120205752D02*
X52851503Y-120253371D01*
X52851503Y-120253371D02*
X52899122Y-120348609D01*
X52899122Y-120348609D02*
X52899122Y-120443847D01*
X52899122Y-120443847D02*
X52422932Y-120539085D01*
X53327694Y-120872419D02*
X53327694Y-120205752D01*
X53327694Y-120396228D02*
X53375313Y-120300990D01*
X53375313Y-120300990D02*
X53422932Y-120253371D01*
X53422932Y-120253371D02*
X53518170Y-120205752D01*
X53518170Y-120205752D02*
X53613408Y-120205752D01*
X57303884Y-69348609D02*
X57637217Y-69348609D01*
X57780074Y-69872419D02*
X57303884Y-69872419D01*
X57303884Y-69872419D02*
X57303884Y-68872419D01*
X57303884Y-68872419D02*
X57780074Y-68872419D01*
X58208646Y-69872419D02*
X58208646Y-68872419D01*
X58208646Y-68872419D02*
X58780074Y-69872419D01*
X58780074Y-69872419D02*
X58780074Y-68872419D01*
X40780074Y-99372419D02*
X40303884Y-99372419D01*
X40303884Y-99372419D02*
X40303884Y-98372419D01*
X41113408Y-98848609D02*
X41446741Y-98848609D01*
X41589598Y-99372419D02*
X41113408Y-99372419D01*
X41113408Y-99372419D02*
X41113408Y-98372419D01*
X41113408Y-98372419D02*
X41589598Y-98372419D01*
X42018170Y-99372419D02*
X42018170Y-98372419D01*
X42018170Y-98372419D02*
X42256265Y-98372419D01*
X42256265Y-98372419D02*
X42399122Y-98420038D01*
X42399122Y-98420038D02*
X42494360Y-98515276D01*
X42494360Y-98515276D02*
X42541979Y-98610514D01*
X42541979Y-98610514D02*
X42589598Y-98800990D01*
X42589598Y-98800990D02*
X42589598Y-98943847D01*
X42589598Y-98943847D02*
X42541979Y-99134323D01*
X42541979Y-99134323D02*
X42494360Y-99229561D01*
X42494360Y-99229561D02*
X42399122Y-99324800D01*
X42399122Y-99324800D02*
X42256265Y-99372419D01*
X42256265Y-99372419D02*
X42018170Y-99372419D01*
X43018170Y-98991466D02*
X43780075Y-98991466D01*
X43399122Y-99372419D02*
X43399122Y-98610514D01*
D11*
X49107142Y-89609580D02*
X49059523Y-89657200D01*
X49059523Y-89657200D02*
X48916666Y-89704819D01*
X48916666Y-89704819D02*
X48821428Y-89704819D01*
X48821428Y-89704819D02*
X48678571Y-89657200D01*
X48678571Y-89657200D02*
X48583333Y-89561961D01*
X48583333Y-89561961D02*
X48535714Y-89466723D01*
X48535714Y-89466723D02*
X48488095Y-89276247D01*
X48488095Y-89276247D02*
X48488095Y-89133390D01*
X48488095Y-89133390D02*
X48535714Y-88942914D01*
X48535714Y-88942914D02*
X48583333Y-88847676D01*
X48583333Y-88847676D02*
X48678571Y-88752438D01*
X48678571Y-88752438D02*
X48821428Y-88704819D01*
X48821428Y-88704819D02*
X48916666Y-88704819D01*
X48916666Y-88704819D02*
X49059523Y-88752438D01*
X49059523Y-88752438D02*
X49107142Y-88800057D01*
X50059523Y-89704819D02*
X49488095Y-89704819D01*
X49773809Y-89704819D02*
X49773809Y-88704819D01*
X49773809Y-88704819D02*
X49678571Y-88847676D01*
X49678571Y-88847676D02*
X49583333Y-88942914D01*
X49583333Y-88942914D02*
X49488095Y-88990533D01*
X50630952Y-89133390D02*
X50535714Y-89085771D01*
X50535714Y-89085771D02*
X50488095Y-89038152D01*
X50488095Y-89038152D02*
X50440476Y-88942914D01*
X50440476Y-88942914D02*
X50440476Y-88895295D01*
X50440476Y-88895295D02*
X50488095Y-88800057D01*
X50488095Y-88800057D02*
X50535714Y-88752438D01*
X50535714Y-88752438D02*
X50630952Y-88704819D01*
X50630952Y-88704819D02*
X50821428Y-88704819D01*
X50821428Y-88704819D02*
X50916666Y-88752438D01*
X50916666Y-88752438D02*
X50964285Y-88800057D01*
X50964285Y-88800057D02*
X51011904Y-88895295D01*
X51011904Y-88895295D02*
X51011904Y-88942914D01*
X51011904Y-88942914D02*
X50964285Y-89038152D01*
X50964285Y-89038152D02*
X50916666Y-89085771D01*
X50916666Y-89085771D02*
X50821428Y-89133390D01*
X50821428Y-89133390D02*
X50630952Y-89133390D01*
X50630952Y-89133390D02*
X50535714Y-89181009D01*
X50535714Y-89181009D02*
X50488095Y-89228628D01*
X50488095Y-89228628D02*
X50440476Y-89323866D01*
X50440476Y-89323866D02*
X50440476Y-89514342D01*
X50440476Y-89514342D02*
X50488095Y-89609580D01*
X50488095Y-89609580D02*
X50535714Y-89657200D01*
X50535714Y-89657200D02*
X50630952Y-89704819D01*
X50630952Y-89704819D02*
X50821428Y-89704819D01*
X50821428Y-89704819D02*
X50916666Y-89657200D01*
X50916666Y-89657200D02*
X50964285Y-89609580D01*
X50964285Y-89609580D02*
X51011904Y-89514342D01*
X51011904Y-89514342D02*
X51011904Y-89323866D01*
X51011904Y-89323866D02*
X50964285Y-89228628D01*
X50964285Y-89228628D02*
X50916666Y-89181009D01*
X50916666Y-89181009D02*
X50821428Y-89133390D01*
X56554819Y-129167094D02*
X55554819Y-129167094D01*
X55554819Y-129167094D02*
X55554819Y-128928999D01*
X55554819Y-128928999D02*
X55602438Y-128786142D01*
X55602438Y-128786142D02*
X55697676Y-128690904D01*
X55697676Y-128690904D02*
X55792914Y-128643285D01*
X55792914Y-128643285D02*
X55983390Y-128595666D01*
X55983390Y-128595666D02*
X56126247Y-128595666D01*
X56126247Y-128595666D02*
X56316723Y-128643285D01*
X56316723Y-128643285D02*
X56411961Y-128690904D01*
X56411961Y-128690904D02*
X56507200Y-128786142D01*
X56507200Y-128786142D02*
X56554819Y-128928999D01*
X56554819Y-128928999D02*
X56554819Y-129167094D01*
X55554819Y-128262332D02*
X55554819Y-127643285D01*
X55554819Y-127643285D02*
X55935771Y-127976618D01*
X55935771Y-127976618D02*
X55935771Y-127833761D01*
X55935771Y-127833761D02*
X55983390Y-127738523D01*
X55983390Y-127738523D02*
X56031009Y-127690904D01*
X56031009Y-127690904D02*
X56126247Y-127643285D01*
X56126247Y-127643285D02*
X56364342Y-127643285D01*
X56364342Y-127643285D02*
X56459580Y-127690904D01*
X56459580Y-127690904D02*
X56507200Y-127738523D01*
X56507200Y-127738523D02*
X56554819Y-127833761D01*
X56554819Y-127833761D02*
X56554819Y-128119475D01*
X56554819Y-128119475D02*
X56507200Y-128214713D01*
X56507200Y-128214713D02*
X56459580Y-128262332D01*
X44154819Y-169638094D02*
X43154819Y-169638094D01*
X43154819Y-169638094D02*
X43154819Y-169399999D01*
X43154819Y-169399999D02*
X43202438Y-169257142D01*
X43202438Y-169257142D02*
X43297676Y-169161904D01*
X43297676Y-169161904D02*
X43392914Y-169114285D01*
X43392914Y-169114285D02*
X43583390Y-169066666D01*
X43583390Y-169066666D02*
X43726247Y-169066666D01*
X43726247Y-169066666D02*
X43916723Y-169114285D01*
X43916723Y-169114285D02*
X44011961Y-169161904D01*
X44011961Y-169161904D02*
X44107200Y-169257142D01*
X44107200Y-169257142D02*
X44154819Y-169399999D01*
X44154819Y-169399999D02*
X44154819Y-169638094D01*
X43488152Y-168209523D02*
X44154819Y-168209523D01*
X43107200Y-168447618D02*
X43821485Y-168685713D01*
X43821485Y-168685713D02*
X43821485Y-168066666D01*
X51704819Y-169638094D02*
X50704819Y-169638094D01*
X50704819Y-169638094D02*
X50704819Y-169399999D01*
X50704819Y-169399999D02*
X50752438Y-169257142D01*
X50752438Y-169257142D02*
X50847676Y-169161904D01*
X50847676Y-169161904D02*
X50942914Y-169114285D01*
X50942914Y-169114285D02*
X51133390Y-169066666D01*
X51133390Y-169066666D02*
X51276247Y-169066666D01*
X51276247Y-169066666D02*
X51466723Y-169114285D01*
X51466723Y-169114285D02*
X51561961Y-169161904D01*
X51561961Y-169161904D02*
X51657200Y-169257142D01*
X51657200Y-169257142D02*
X51704819Y-169399999D01*
X51704819Y-169399999D02*
X51704819Y-169638094D01*
X50704819Y-168161904D02*
X50704819Y-168638094D01*
X50704819Y-168638094D02*
X51181009Y-168685713D01*
X51181009Y-168685713D02*
X51133390Y-168638094D01*
X51133390Y-168638094D02*
X51085771Y-168542856D01*
X51085771Y-168542856D02*
X51085771Y-168304761D01*
X51085771Y-168304761D02*
X51133390Y-168209523D01*
X51133390Y-168209523D02*
X51181009Y-168161904D01*
X51181009Y-168161904D02*
X51276247Y-168114285D01*
X51276247Y-168114285D02*
X51514342Y-168114285D01*
X51514342Y-168114285D02*
X51609580Y-168161904D01*
X51609580Y-168161904D02*
X51657200Y-168209523D01*
X51657200Y-168209523D02*
X51704819Y-168304761D01*
X51704819Y-168304761D02*
X51704819Y-168542856D01*
X51704819Y-168542856D02*
X51657200Y-168638094D01*
X51657200Y-168638094D02*
X51609580Y-168685713D01*
X40857142Y-134454819D02*
X40523809Y-133978628D01*
X40285714Y-134454819D02*
X40285714Y-133454819D01*
X40285714Y-133454819D02*
X40666666Y-133454819D01*
X40666666Y-133454819D02*
X40761904Y-133502438D01*
X40761904Y-133502438D02*
X40809523Y-133550057D01*
X40809523Y-133550057D02*
X40857142Y-133645295D01*
X40857142Y-133645295D02*
X40857142Y-133788152D01*
X40857142Y-133788152D02*
X40809523Y-133883390D01*
X40809523Y-133883390D02*
X40761904Y-133931009D01*
X40761904Y-133931009D02*
X40666666Y-133978628D01*
X40666666Y-133978628D02*
X40285714Y-133978628D01*
X41809523Y-134454819D02*
X41238095Y-134454819D01*
X41523809Y-134454819D02*
X41523809Y-133454819D01*
X41523809Y-133454819D02*
X41428571Y-133597676D01*
X41428571Y-133597676D02*
X41333333Y-133692914D01*
X41333333Y-133692914D02*
X41238095Y-133740533D01*
X42666666Y-133454819D02*
X42476190Y-133454819D01*
X42476190Y-133454819D02*
X42380952Y-133502438D01*
X42380952Y-133502438D02*
X42333333Y-133550057D01*
X42333333Y-133550057D02*
X42238095Y-133692914D01*
X42238095Y-133692914D02*
X42190476Y-133883390D01*
X42190476Y-133883390D02*
X42190476Y-134264342D01*
X42190476Y-134264342D02*
X42238095Y-134359580D01*
X42238095Y-134359580D02*
X42285714Y-134407200D01*
X42285714Y-134407200D02*
X42380952Y-134454819D01*
X42380952Y-134454819D02*
X42571428Y-134454819D01*
X42571428Y-134454819D02*
X42666666Y-134407200D01*
X42666666Y-134407200D02*
X42714285Y-134359580D01*
X42714285Y-134359580D02*
X42761904Y-134264342D01*
X42761904Y-134264342D02*
X42761904Y-134026247D01*
X42761904Y-134026247D02*
X42714285Y-133931009D01*
X42714285Y-133931009D02*
X42666666Y-133883390D01*
X42666666Y-133883390D02*
X42571428Y-133835771D01*
X42571428Y-133835771D02*
X42380952Y-133835771D01*
X42380952Y-133835771D02*
X42285714Y-133883390D01*
X42285714Y-133883390D02*
X42238095Y-133931009D01*
X42238095Y-133931009D02*
X42190476Y-134026247D01*
D12*
X44049999Y-140535935D02*
X43816666Y-140154982D01*
X43649999Y-140535935D02*
X43649999Y-139735935D01*
X43649999Y-139735935D02*
X43916666Y-139735935D01*
X43916666Y-139735935D02*
X43983333Y-139774030D01*
X43983333Y-139774030D02*
X44016666Y-139812125D01*
X44016666Y-139812125D02*
X44049999Y-139888316D01*
X44049999Y-139888316D02*
X44049999Y-140002601D01*
X44049999Y-140002601D02*
X44016666Y-140078792D01*
X44016666Y-140078792D02*
X43983333Y-140116887D01*
X43983333Y-140116887D02*
X43916666Y-140154982D01*
X43916666Y-140154982D02*
X43649999Y-140154982D01*
X44716666Y-140535935D02*
X44316666Y-140535935D01*
X44516666Y-140535935D02*
X44516666Y-139735935D01*
X44516666Y-139735935D02*
X44449999Y-139850220D01*
X44449999Y-139850220D02*
X44383333Y-139926411D01*
X44383333Y-139926411D02*
X44316666Y-139964506D01*
X44950000Y-139735935D02*
X45416666Y-139735935D01*
X45416666Y-139735935D02*
X45116666Y-140535935D01*
D11*
X40833333Y-163859580D02*
X40785714Y-163907200D01*
X40785714Y-163907200D02*
X40642857Y-163954819D01*
X40642857Y-163954819D02*
X40547619Y-163954819D01*
X40547619Y-163954819D02*
X40404762Y-163907200D01*
X40404762Y-163907200D02*
X40309524Y-163811961D01*
X40309524Y-163811961D02*
X40261905Y-163716723D01*
X40261905Y-163716723D02*
X40214286Y-163526247D01*
X40214286Y-163526247D02*
X40214286Y-163383390D01*
X40214286Y-163383390D02*
X40261905Y-163192914D01*
X40261905Y-163192914D02*
X40309524Y-163097676D01*
X40309524Y-163097676D02*
X40404762Y-163002438D01*
X40404762Y-163002438D02*
X40547619Y-162954819D01*
X40547619Y-162954819D02*
X40642857Y-162954819D01*
X40642857Y-162954819D02*
X40785714Y-163002438D01*
X40785714Y-163002438D02*
X40833333Y-163050057D01*
X41690476Y-162954819D02*
X41500000Y-162954819D01*
X41500000Y-162954819D02*
X41404762Y-163002438D01*
X41404762Y-163002438D02*
X41357143Y-163050057D01*
X41357143Y-163050057D02*
X41261905Y-163192914D01*
X41261905Y-163192914D02*
X41214286Y-163383390D01*
X41214286Y-163383390D02*
X41214286Y-163764342D01*
X41214286Y-163764342D02*
X41261905Y-163859580D01*
X41261905Y-163859580D02*
X41309524Y-163907200D01*
X41309524Y-163907200D02*
X41404762Y-163954819D01*
X41404762Y-163954819D02*
X41595238Y-163954819D01*
X41595238Y-163954819D02*
X41690476Y-163907200D01*
X41690476Y-163907200D02*
X41738095Y-163859580D01*
X41738095Y-163859580D02*
X41785714Y-163764342D01*
X41785714Y-163764342D02*
X41785714Y-163526247D01*
X41785714Y-163526247D02*
X41738095Y-163431009D01*
X41738095Y-163431009D02*
X41690476Y-163383390D01*
X41690476Y-163383390D02*
X41595238Y-163335771D01*
X41595238Y-163335771D02*
X41404762Y-163335771D01*
X41404762Y-163335771D02*
X41309524Y-163383390D01*
X41309524Y-163383390D02*
X41261905Y-163431009D01*
X41261905Y-163431009D02*
X41214286Y-163526247D01*
X54857142Y-161359580D02*
X54809523Y-161407200D01*
X54809523Y-161407200D02*
X54666666Y-161454819D01*
X54666666Y-161454819D02*
X54571428Y-161454819D01*
X54571428Y-161454819D02*
X54428571Y-161407200D01*
X54428571Y-161407200D02*
X54333333Y-161311961D01*
X54333333Y-161311961D02*
X54285714Y-161216723D01*
X54285714Y-161216723D02*
X54238095Y-161026247D01*
X54238095Y-161026247D02*
X54238095Y-160883390D01*
X54238095Y-160883390D02*
X54285714Y-160692914D01*
X54285714Y-160692914D02*
X54333333Y-160597676D01*
X54333333Y-160597676D02*
X54428571Y-160502438D01*
X54428571Y-160502438D02*
X54571428Y-160454819D01*
X54571428Y-160454819D02*
X54666666Y-160454819D01*
X54666666Y-160454819D02*
X54809523Y-160502438D01*
X54809523Y-160502438D02*
X54857142Y-160550057D01*
X55809523Y-161454819D02*
X55238095Y-161454819D01*
X55523809Y-161454819D02*
X55523809Y-160454819D01*
X55523809Y-160454819D02*
X55428571Y-160597676D01*
X55428571Y-160597676D02*
X55333333Y-160692914D01*
X55333333Y-160692914D02*
X55238095Y-160740533D01*
X56714285Y-160454819D02*
X56238095Y-160454819D01*
X56238095Y-160454819D02*
X56190476Y-160931009D01*
X56190476Y-160931009D02*
X56238095Y-160883390D01*
X56238095Y-160883390D02*
X56333333Y-160835771D01*
X56333333Y-160835771D02*
X56571428Y-160835771D01*
X56571428Y-160835771D02*
X56666666Y-160883390D01*
X56666666Y-160883390D02*
X56714285Y-160931009D01*
X56714285Y-160931009D02*
X56761904Y-161026247D01*
X56761904Y-161026247D02*
X56761904Y-161264342D01*
X56761904Y-161264342D02*
X56714285Y-161359580D01*
X56714285Y-161359580D02*
X56666666Y-161407200D01*
X56666666Y-161407200D02*
X56571428Y-161454819D01*
X56571428Y-161454819D02*
X56333333Y-161454819D01*
X56333333Y-161454819D02*
X56238095Y-161407200D01*
X56238095Y-161407200D02*
X56190476Y-161359580D01*
X58333333Y-162954819D02*
X58000000Y-162478628D01*
X57761905Y-162954819D02*
X57761905Y-161954819D01*
X57761905Y-161954819D02*
X58142857Y-161954819D01*
X58142857Y-161954819D02*
X58238095Y-162002438D01*
X58238095Y-162002438D02*
X58285714Y-162050057D01*
X58285714Y-162050057D02*
X58333333Y-162145295D01*
X58333333Y-162145295D02*
X58333333Y-162288152D01*
X58333333Y-162288152D02*
X58285714Y-162383390D01*
X58285714Y-162383390D02*
X58238095Y-162431009D01*
X58238095Y-162431009D02*
X58142857Y-162478628D01*
X58142857Y-162478628D02*
X57761905Y-162478628D01*
X58904762Y-162383390D02*
X58809524Y-162335771D01*
X58809524Y-162335771D02*
X58761905Y-162288152D01*
X58761905Y-162288152D02*
X58714286Y-162192914D01*
X58714286Y-162192914D02*
X58714286Y-162145295D01*
X58714286Y-162145295D02*
X58761905Y-162050057D01*
X58761905Y-162050057D02*
X58809524Y-162002438D01*
X58809524Y-162002438D02*
X58904762Y-161954819D01*
X58904762Y-161954819D02*
X59095238Y-161954819D01*
X59095238Y-161954819D02*
X59190476Y-162002438D01*
X59190476Y-162002438D02*
X59238095Y-162050057D01*
X59238095Y-162050057D02*
X59285714Y-162145295D01*
X59285714Y-162145295D02*
X59285714Y-162192914D01*
X59285714Y-162192914D02*
X59238095Y-162288152D01*
X59238095Y-162288152D02*
X59190476Y-162335771D01*
X59190476Y-162335771D02*
X59095238Y-162383390D01*
X59095238Y-162383390D02*
X58904762Y-162383390D01*
X58904762Y-162383390D02*
X58809524Y-162431009D01*
X58809524Y-162431009D02*
X58761905Y-162478628D01*
X58761905Y-162478628D02*
X58714286Y-162573866D01*
X58714286Y-162573866D02*
X58714286Y-162764342D01*
X58714286Y-162764342D02*
X58761905Y-162859580D01*
X58761905Y-162859580D02*
X58809524Y-162907200D01*
X58809524Y-162907200D02*
X58904762Y-162954819D01*
X58904762Y-162954819D02*
X59095238Y-162954819D01*
X59095238Y-162954819D02*
X59190476Y-162907200D01*
X59190476Y-162907200D02*
X59238095Y-162859580D01*
X59238095Y-162859580D02*
X59285714Y-162764342D01*
X59285714Y-162764342D02*
X59285714Y-162573866D01*
X59285714Y-162573866D02*
X59238095Y-162478628D01*
X59238095Y-162478628D02*
X59190476Y-162431009D01*
X59190476Y-162431009D02*
X59095238Y-162383390D01*
X53954819Y-157666666D02*
X53478628Y-157999999D01*
X53954819Y-158238094D02*
X52954819Y-158238094D01*
X52954819Y-158238094D02*
X52954819Y-157857142D01*
X52954819Y-157857142D02*
X53002438Y-157761904D01*
X53002438Y-157761904D02*
X53050057Y-157714285D01*
X53050057Y-157714285D02*
X53145295Y-157666666D01*
X53145295Y-157666666D02*
X53288152Y-157666666D01*
X53288152Y-157666666D02*
X53383390Y-157714285D01*
X53383390Y-157714285D02*
X53431009Y-157761904D01*
X53431009Y-157761904D02*
X53478628Y-157857142D01*
X53478628Y-157857142D02*
X53478628Y-158238094D01*
X53954819Y-157190475D02*
X53954819Y-156999999D01*
X53954819Y-156999999D02*
X53907200Y-156904761D01*
X53907200Y-156904761D02*
X53859580Y-156857142D01*
X53859580Y-156857142D02*
X53716723Y-156761904D01*
X53716723Y-156761904D02*
X53526247Y-156714285D01*
X53526247Y-156714285D02*
X53145295Y-156714285D01*
X53145295Y-156714285D02*
X53050057Y-156761904D01*
X53050057Y-156761904D02*
X53002438Y-156809523D01*
X53002438Y-156809523D02*
X52954819Y-156904761D01*
X52954819Y-156904761D02*
X52954819Y-157095237D01*
X52954819Y-157095237D02*
X53002438Y-157190475D01*
X53002438Y-157190475D02*
X53050057Y-157238094D01*
X53050057Y-157238094D02*
X53145295Y-157285713D01*
X53145295Y-157285713D02*
X53383390Y-157285713D01*
X53383390Y-157285713D02*
X53478628Y-157238094D01*
X53478628Y-157238094D02*
X53526247Y-157190475D01*
X53526247Y-157190475D02*
X53573866Y-157095237D01*
X53573866Y-157095237D02*
X53573866Y-156904761D01*
X53573866Y-156904761D02*
X53526247Y-156809523D01*
X53526247Y-156809523D02*
X53478628Y-156761904D01*
X53478628Y-156761904D02*
X53383390Y-156714285D01*
X49333333Y-163954819D02*
X49000000Y-163478628D01*
X48761905Y-163954819D02*
X48761905Y-162954819D01*
X48761905Y-162954819D02*
X49142857Y-162954819D01*
X49142857Y-162954819D02*
X49238095Y-163002438D01*
X49238095Y-163002438D02*
X49285714Y-163050057D01*
X49285714Y-163050057D02*
X49333333Y-163145295D01*
X49333333Y-163145295D02*
X49333333Y-163288152D01*
X49333333Y-163288152D02*
X49285714Y-163383390D01*
X49285714Y-163383390D02*
X49238095Y-163431009D01*
X49238095Y-163431009D02*
X49142857Y-163478628D01*
X49142857Y-163478628D02*
X48761905Y-163478628D01*
X50238095Y-162954819D02*
X49761905Y-162954819D01*
X49761905Y-162954819D02*
X49714286Y-163431009D01*
X49714286Y-163431009D02*
X49761905Y-163383390D01*
X49761905Y-163383390D02*
X49857143Y-163335771D01*
X49857143Y-163335771D02*
X50095238Y-163335771D01*
X50095238Y-163335771D02*
X50190476Y-163383390D01*
X50190476Y-163383390D02*
X50238095Y-163431009D01*
X50238095Y-163431009D02*
X50285714Y-163526247D01*
X50285714Y-163526247D02*
X50285714Y-163764342D01*
X50285714Y-163764342D02*
X50238095Y-163859580D01*
X50238095Y-163859580D02*
X50190476Y-163907200D01*
X50190476Y-163907200D02*
X50095238Y-163954819D01*
X50095238Y-163954819D02*
X49857143Y-163954819D01*
X49857143Y-163954819D02*
X49761905Y-163907200D01*
X49761905Y-163907200D02*
X49714286Y-163859580D01*
X49333333Y-143859580D02*
X49285714Y-143907200D01*
X49285714Y-143907200D02*
X49142857Y-143954819D01*
X49142857Y-143954819D02*
X49047619Y-143954819D01*
X49047619Y-143954819D02*
X48904762Y-143907200D01*
X48904762Y-143907200D02*
X48809524Y-143811961D01*
X48809524Y-143811961D02*
X48761905Y-143716723D01*
X48761905Y-143716723D02*
X48714286Y-143526247D01*
X48714286Y-143526247D02*
X48714286Y-143383390D01*
X48714286Y-143383390D02*
X48761905Y-143192914D01*
X48761905Y-143192914D02*
X48809524Y-143097676D01*
X48809524Y-143097676D02*
X48904762Y-143002438D01*
X48904762Y-143002438D02*
X49047619Y-142954819D01*
X49047619Y-142954819D02*
X49142857Y-142954819D01*
X49142857Y-142954819D02*
X49285714Y-143002438D01*
X49285714Y-143002438D02*
X49333333Y-143050057D01*
X50190476Y-143288152D02*
X50190476Y-143954819D01*
X49952381Y-142907200D02*
X49714286Y-143621485D01*
X49714286Y-143621485D02*
X50333333Y-143621485D01*
X58333333Y-138859580D02*
X58285714Y-138907200D01*
X58285714Y-138907200D02*
X58142857Y-138954819D01*
X58142857Y-138954819D02*
X58047619Y-138954819D01*
X58047619Y-138954819D02*
X57904762Y-138907200D01*
X57904762Y-138907200D02*
X57809524Y-138811961D01*
X57809524Y-138811961D02*
X57761905Y-138716723D01*
X57761905Y-138716723D02*
X57714286Y-138526247D01*
X57714286Y-138526247D02*
X57714286Y-138383390D01*
X57714286Y-138383390D02*
X57761905Y-138192914D01*
X57761905Y-138192914D02*
X57809524Y-138097676D01*
X57809524Y-138097676D02*
X57904762Y-138002438D01*
X57904762Y-138002438D02*
X58047619Y-137954819D01*
X58047619Y-137954819D02*
X58142857Y-137954819D01*
X58142857Y-137954819D02*
X58285714Y-138002438D01*
X58285714Y-138002438D02*
X58333333Y-138050057D01*
X58714286Y-138050057D02*
X58761905Y-138002438D01*
X58761905Y-138002438D02*
X58857143Y-137954819D01*
X58857143Y-137954819D02*
X59095238Y-137954819D01*
X59095238Y-137954819D02*
X59190476Y-138002438D01*
X59190476Y-138002438D02*
X59238095Y-138050057D01*
X59238095Y-138050057D02*
X59285714Y-138145295D01*
X59285714Y-138145295D02*
X59285714Y-138240533D01*
X59285714Y-138240533D02*
X59238095Y-138383390D01*
X59238095Y-138383390D02*
X58666667Y-138954819D01*
X58666667Y-138954819D02*
X59285714Y-138954819D01*
X52454819Y-134642857D02*
X51978628Y-134976190D01*
X52454819Y-135214285D02*
X51454819Y-135214285D01*
X51454819Y-135214285D02*
X51454819Y-134833333D01*
X51454819Y-134833333D02*
X51502438Y-134738095D01*
X51502438Y-134738095D02*
X51550057Y-134690476D01*
X51550057Y-134690476D02*
X51645295Y-134642857D01*
X51645295Y-134642857D02*
X51788152Y-134642857D01*
X51788152Y-134642857D02*
X51883390Y-134690476D01*
X51883390Y-134690476D02*
X51931009Y-134738095D01*
X51931009Y-134738095D02*
X51978628Y-134833333D01*
X51978628Y-134833333D02*
X51978628Y-135214285D01*
X52454819Y-133690476D02*
X52454819Y-134261904D01*
X52454819Y-133976190D02*
X51454819Y-133976190D01*
X51454819Y-133976190D02*
X51597676Y-134071428D01*
X51597676Y-134071428D02*
X51692914Y-134166666D01*
X51692914Y-134166666D02*
X51740533Y-134261904D01*
X52454819Y-133214285D02*
X52454819Y-133023809D01*
X52454819Y-133023809D02*
X52407200Y-132928571D01*
X52407200Y-132928571D02*
X52359580Y-132880952D01*
X52359580Y-132880952D02*
X52216723Y-132785714D01*
X52216723Y-132785714D02*
X52026247Y-132738095D01*
X52026247Y-132738095D02*
X51645295Y-132738095D01*
X51645295Y-132738095D02*
X51550057Y-132785714D01*
X51550057Y-132785714D02*
X51502438Y-132833333D01*
X51502438Y-132833333D02*
X51454819Y-132928571D01*
X51454819Y-132928571D02*
X51454819Y-133119047D01*
X51454819Y-133119047D02*
X51502438Y-133214285D01*
X51502438Y-133214285D02*
X51550057Y-133261904D01*
X51550057Y-133261904D02*
X51645295Y-133309523D01*
X51645295Y-133309523D02*
X51883390Y-133309523D01*
X51883390Y-133309523D02*
X51978628Y-133261904D01*
X51978628Y-133261904D02*
X52026247Y-133214285D01*
X52026247Y-133214285D02*
X52073866Y-133119047D01*
X52073866Y-133119047D02*
X52073866Y-132928571D01*
X52073866Y-132928571D02*
X52026247Y-132833333D01*
X52026247Y-132833333D02*
X51978628Y-132785714D01*
X51978628Y-132785714D02*
X51883390Y-132738095D01*
D12*
X43065935Y-70516666D02*
X42684982Y-70749999D01*
X43065935Y-70916666D02*
X42265935Y-70916666D01*
X42265935Y-70916666D02*
X42265935Y-70649999D01*
X42265935Y-70649999D02*
X42304030Y-70583333D01*
X42304030Y-70583333D02*
X42342125Y-70549999D01*
X42342125Y-70549999D02*
X42418316Y-70516666D01*
X42418316Y-70516666D02*
X42532601Y-70516666D01*
X42532601Y-70516666D02*
X42608792Y-70549999D01*
X42608792Y-70549999D02*
X42646887Y-70583333D01*
X42646887Y-70583333D02*
X42684982Y-70649999D01*
X42684982Y-70649999D02*
X42684982Y-70916666D01*
X42265935Y-70283333D02*
X42265935Y-69816666D01*
X42265935Y-69816666D02*
X43065935Y-70116666D01*
D13*
X52637664Y-128514285D02*
X52675760Y-128552381D01*
X52675760Y-128552381D02*
X52713855Y-128666666D01*
X52713855Y-128666666D02*
X52713855Y-128742857D01*
X52713855Y-128742857D02*
X52675760Y-128857143D01*
X52675760Y-128857143D02*
X52599569Y-128933333D01*
X52599569Y-128933333D02*
X52523379Y-128971428D01*
X52523379Y-128971428D02*
X52370998Y-129009524D01*
X52370998Y-129009524D02*
X52256712Y-129009524D01*
X52256712Y-129009524D02*
X52104331Y-128971428D01*
X52104331Y-128971428D02*
X52028140Y-128933333D01*
X52028140Y-128933333D02*
X51951950Y-128857143D01*
X51951950Y-128857143D02*
X51913855Y-128742857D01*
X51913855Y-128742857D02*
X51913855Y-128666666D01*
X51913855Y-128666666D02*
X51951950Y-128552381D01*
X51951950Y-128552381D02*
X51990045Y-128514285D01*
X52713855Y-127752381D02*
X52713855Y-128209524D01*
X52713855Y-127980952D02*
X51913855Y-127980952D01*
X51913855Y-127980952D02*
X52028140Y-128057143D01*
X52028140Y-128057143D02*
X52104331Y-128133333D01*
X52104331Y-128133333D02*
X52142426Y-128209524D01*
X52713855Y-126990476D02*
X52713855Y-127447619D01*
X52713855Y-127219047D02*
X51913855Y-127219047D01*
X51913855Y-127219047D02*
X52028140Y-127295238D01*
X52028140Y-127295238D02*
X52104331Y-127371428D01*
X52104331Y-127371428D02*
X52142426Y-127447619D01*
D11*
X58284819Y-137105357D02*
X57808628Y-137438690D01*
X58284819Y-137676785D02*
X57284819Y-137676785D01*
X57284819Y-137676785D02*
X57284819Y-137295833D01*
X57284819Y-137295833D02*
X57332438Y-137200595D01*
X57332438Y-137200595D02*
X57380057Y-137152976D01*
X57380057Y-137152976D02*
X57475295Y-137105357D01*
X57475295Y-137105357D02*
X57618152Y-137105357D01*
X57618152Y-137105357D02*
X57713390Y-137152976D01*
X57713390Y-137152976D02*
X57761009Y-137200595D01*
X57761009Y-137200595D02*
X57808628Y-137295833D01*
X57808628Y-137295833D02*
X57808628Y-137676785D01*
X58284819Y-136152976D02*
X58284819Y-136724404D01*
X58284819Y-136438690D02*
X57284819Y-136438690D01*
X57284819Y-136438690D02*
X57427676Y-136533928D01*
X57427676Y-136533928D02*
X57522914Y-136629166D01*
X57522914Y-136629166D02*
X57570533Y-136724404D01*
X57713390Y-135581547D02*
X57665771Y-135676785D01*
X57665771Y-135676785D02*
X57618152Y-135724404D01*
X57618152Y-135724404D02*
X57522914Y-135772023D01*
X57522914Y-135772023D02*
X57475295Y-135772023D01*
X57475295Y-135772023D02*
X57380057Y-135724404D01*
X57380057Y-135724404D02*
X57332438Y-135676785D01*
X57332438Y-135676785D02*
X57284819Y-135581547D01*
X57284819Y-135581547D02*
X57284819Y-135391071D01*
X57284819Y-135391071D02*
X57332438Y-135295833D01*
X57332438Y-135295833D02*
X57380057Y-135248214D01*
X57380057Y-135248214D02*
X57475295Y-135200595D01*
X57475295Y-135200595D02*
X57522914Y-135200595D01*
X57522914Y-135200595D02*
X57618152Y-135248214D01*
X57618152Y-135248214D02*
X57665771Y-135295833D01*
X57665771Y-135295833D02*
X57713390Y-135391071D01*
X57713390Y-135391071D02*
X57713390Y-135581547D01*
X57713390Y-135581547D02*
X57761009Y-135676785D01*
X57761009Y-135676785D02*
X57808628Y-135724404D01*
X57808628Y-135724404D02*
X57903866Y-135772023D01*
X57903866Y-135772023D02*
X58094342Y-135772023D01*
X58094342Y-135772023D02*
X58189580Y-135724404D01*
X58189580Y-135724404D02*
X58237200Y-135676785D01*
X58237200Y-135676785D02*
X58284819Y-135581547D01*
X58284819Y-135581547D02*
X58284819Y-135391071D01*
X58284819Y-135391071D02*
X58237200Y-135295833D01*
X58237200Y-135295833D02*
X58189580Y-135248214D01*
X58189580Y-135248214D02*
X58094342Y-135200595D01*
X58094342Y-135200595D02*
X57903866Y-135200595D01*
X57903866Y-135200595D02*
X57808628Y-135248214D01*
X57808628Y-135248214D02*
X57761009Y-135295833D01*
X57761009Y-135295833D02*
X57713390Y-135391071D01*
X41333333Y-148954819D02*
X41000000Y-148478628D01*
X40761905Y-148954819D02*
X40761905Y-147954819D01*
X40761905Y-147954819D02*
X41142857Y-147954819D01*
X41142857Y-147954819D02*
X41238095Y-148002438D01*
X41238095Y-148002438D02*
X41285714Y-148050057D01*
X41285714Y-148050057D02*
X41333333Y-148145295D01*
X41333333Y-148145295D02*
X41333333Y-148288152D01*
X41333333Y-148288152D02*
X41285714Y-148383390D01*
X41285714Y-148383390D02*
X41238095Y-148431009D01*
X41238095Y-148431009D02*
X41142857Y-148478628D01*
X41142857Y-148478628D02*
X40761905Y-148478628D01*
X41714286Y-148050057D02*
X41761905Y-148002438D01*
X41761905Y-148002438D02*
X41857143Y-147954819D01*
X41857143Y-147954819D02*
X42095238Y-147954819D01*
X42095238Y-147954819D02*
X42190476Y-148002438D01*
X42190476Y-148002438D02*
X42238095Y-148050057D01*
X42238095Y-148050057D02*
X42285714Y-148145295D01*
X42285714Y-148145295D02*
X42285714Y-148240533D01*
X42285714Y-148240533D02*
X42238095Y-148383390D01*
X42238095Y-148383390D02*
X41666667Y-148954819D01*
X41666667Y-148954819D02*
X42285714Y-148954819D01*
X44136905Y-148604819D02*
X44136905Y-147604819D01*
X44136905Y-147604819D02*
X44375000Y-147604819D01*
X44375000Y-147604819D02*
X44517857Y-147652438D01*
X44517857Y-147652438D02*
X44613095Y-147747676D01*
X44613095Y-147747676D02*
X44660714Y-147842914D01*
X44660714Y-147842914D02*
X44708333Y-148033390D01*
X44708333Y-148033390D02*
X44708333Y-148176247D01*
X44708333Y-148176247D02*
X44660714Y-148366723D01*
X44660714Y-148366723D02*
X44613095Y-148461961D01*
X44613095Y-148461961D02*
X44517857Y-148557200D01*
X44517857Y-148557200D02*
X44375000Y-148604819D01*
X44375000Y-148604819D02*
X44136905Y-148604819D01*
X45089286Y-147700057D02*
X45136905Y-147652438D01*
X45136905Y-147652438D02*
X45232143Y-147604819D01*
X45232143Y-147604819D02*
X45470238Y-147604819D01*
X45470238Y-147604819D02*
X45565476Y-147652438D01*
X45565476Y-147652438D02*
X45613095Y-147700057D01*
X45613095Y-147700057D02*
X45660714Y-147795295D01*
X45660714Y-147795295D02*
X45660714Y-147890533D01*
X45660714Y-147890533D02*
X45613095Y-148033390D01*
X45613095Y-148033390D02*
X45041667Y-148604819D01*
X45041667Y-148604819D02*
X45660714Y-148604819D01*
X42557142Y-143684819D02*
X42223809Y-143208628D01*
X41985714Y-143684819D02*
X41985714Y-142684819D01*
X41985714Y-142684819D02*
X42366666Y-142684819D01*
X42366666Y-142684819D02*
X42461904Y-142732438D01*
X42461904Y-142732438D02*
X42509523Y-142780057D01*
X42509523Y-142780057D02*
X42557142Y-142875295D01*
X42557142Y-142875295D02*
X42557142Y-143018152D01*
X42557142Y-143018152D02*
X42509523Y-143113390D01*
X42509523Y-143113390D02*
X42461904Y-143161009D01*
X42461904Y-143161009D02*
X42366666Y-143208628D01*
X42366666Y-143208628D02*
X41985714Y-143208628D01*
X43509523Y-143684819D02*
X42938095Y-143684819D01*
X43223809Y-143684819D02*
X43223809Y-142684819D01*
X43223809Y-142684819D02*
X43128571Y-142827676D01*
X43128571Y-142827676D02*
X43033333Y-142922914D01*
X43033333Y-142922914D02*
X42938095Y-142970533D01*
X44414285Y-142684819D02*
X43938095Y-142684819D01*
X43938095Y-142684819D02*
X43890476Y-143161009D01*
X43890476Y-143161009D02*
X43938095Y-143113390D01*
X43938095Y-143113390D02*
X44033333Y-143065771D01*
X44033333Y-143065771D02*
X44271428Y-143065771D01*
X44271428Y-143065771D02*
X44366666Y-143113390D01*
X44366666Y-143113390D02*
X44414285Y-143161009D01*
X44414285Y-143161009D02*
X44461904Y-143256247D01*
X44461904Y-143256247D02*
X44461904Y-143494342D01*
X44461904Y-143494342D02*
X44414285Y-143589580D01*
X44414285Y-143589580D02*
X44366666Y-143637200D01*
X44366666Y-143637200D02*
X44271428Y-143684819D01*
X44271428Y-143684819D02*
X44033333Y-143684819D01*
X44033333Y-143684819D02*
X43938095Y-143637200D01*
X43938095Y-143637200D02*
X43890476Y-143589580D01*
X48454819Y-86142857D02*
X47978628Y-86476190D01*
X48454819Y-86714285D02*
X47454819Y-86714285D01*
X47454819Y-86714285D02*
X47454819Y-86333333D01*
X47454819Y-86333333D02*
X47502438Y-86238095D01*
X47502438Y-86238095D02*
X47550057Y-86190476D01*
X47550057Y-86190476D02*
X47645295Y-86142857D01*
X47645295Y-86142857D02*
X47788152Y-86142857D01*
X47788152Y-86142857D02*
X47883390Y-86190476D01*
X47883390Y-86190476D02*
X47931009Y-86238095D01*
X47931009Y-86238095D02*
X47978628Y-86333333D01*
X47978628Y-86333333D02*
X47978628Y-86714285D01*
X48454819Y-85190476D02*
X48454819Y-85761904D01*
X48454819Y-85476190D02*
X47454819Y-85476190D01*
X47454819Y-85476190D02*
X47597676Y-85571428D01*
X47597676Y-85571428D02*
X47692914Y-85666666D01*
X47692914Y-85666666D02*
X47740533Y-85761904D01*
X47454819Y-84857142D02*
X47454819Y-84238095D01*
X47454819Y-84238095D02*
X47835771Y-84571428D01*
X47835771Y-84571428D02*
X47835771Y-84428571D01*
X47835771Y-84428571D02*
X47883390Y-84333333D01*
X47883390Y-84333333D02*
X47931009Y-84285714D01*
X47931009Y-84285714D02*
X48026247Y-84238095D01*
X48026247Y-84238095D02*
X48264342Y-84238095D01*
X48264342Y-84238095D02*
X48359580Y-84285714D01*
X48359580Y-84285714D02*
X48407200Y-84333333D01*
X48407200Y-84333333D02*
X48454819Y-84428571D01*
X48454819Y-84428571D02*
X48454819Y-84714285D01*
X48454819Y-84714285D02*
X48407200Y-84809523D01*
X48407200Y-84809523D02*
X48359580Y-84857142D01*
X40833333Y-143954819D02*
X40500000Y-143478628D01*
X40261905Y-143954819D02*
X40261905Y-142954819D01*
X40261905Y-142954819D02*
X40642857Y-142954819D01*
X40642857Y-142954819D02*
X40738095Y-143002438D01*
X40738095Y-143002438D02*
X40785714Y-143050057D01*
X40785714Y-143050057D02*
X40833333Y-143145295D01*
X40833333Y-143145295D02*
X40833333Y-143288152D01*
X40833333Y-143288152D02*
X40785714Y-143383390D01*
X40785714Y-143383390D02*
X40738095Y-143431009D01*
X40738095Y-143431009D02*
X40642857Y-143478628D01*
X40642857Y-143478628D02*
X40261905Y-143478628D01*
X41785714Y-143954819D02*
X41214286Y-143954819D01*
X41500000Y-143954819D02*
X41500000Y-142954819D01*
X41500000Y-142954819D02*
X41404762Y-143097676D01*
X41404762Y-143097676D02*
X41309524Y-143192914D01*
X41309524Y-143192914D02*
X41214286Y-143240533D01*
X41833333Y-58454819D02*
X41500000Y-57978628D01*
X41261905Y-58454819D02*
X41261905Y-57454819D01*
X41261905Y-57454819D02*
X41642857Y-57454819D01*
X41642857Y-57454819D02*
X41738095Y-57502438D01*
X41738095Y-57502438D02*
X41785714Y-57550057D01*
X41785714Y-57550057D02*
X41833333Y-57645295D01*
X41833333Y-57645295D02*
X41833333Y-57788152D01*
X41833333Y-57788152D02*
X41785714Y-57883390D01*
X41785714Y-57883390D02*
X41738095Y-57931009D01*
X41738095Y-57931009D02*
X41642857Y-57978628D01*
X41642857Y-57978628D02*
X41261905Y-57978628D01*
X42690476Y-57454819D02*
X42500000Y-57454819D01*
X42500000Y-57454819D02*
X42404762Y-57502438D01*
X42404762Y-57502438D02*
X42357143Y-57550057D01*
X42357143Y-57550057D02*
X42261905Y-57692914D01*
X42261905Y-57692914D02*
X42214286Y-57883390D01*
X42214286Y-57883390D02*
X42214286Y-58264342D01*
X42214286Y-58264342D02*
X42261905Y-58359580D01*
X42261905Y-58359580D02*
X42309524Y-58407200D01*
X42309524Y-58407200D02*
X42404762Y-58454819D01*
X42404762Y-58454819D02*
X42595238Y-58454819D01*
X42595238Y-58454819D02*
X42690476Y-58407200D01*
X42690476Y-58407200D02*
X42738095Y-58359580D01*
X42738095Y-58359580D02*
X42785714Y-58264342D01*
X42785714Y-58264342D02*
X42785714Y-58026247D01*
X42785714Y-58026247D02*
X42738095Y-57931009D01*
X42738095Y-57931009D02*
X42690476Y-57883390D01*
X42690476Y-57883390D02*
X42595238Y-57835771D01*
X42595238Y-57835771D02*
X42404762Y-57835771D01*
X42404762Y-57835771D02*
X42309524Y-57883390D01*
X42309524Y-57883390D02*
X42261905Y-57931009D01*
X42261905Y-57931009D02*
X42214286Y-58026247D01*
X57859580Y-62680357D02*
X57907200Y-62727976D01*
X57907200Y-62727976D02*
X57954819Y-62870833D01*
X57954819Y-62870833D02*
X57954819Y-62966071D01*
X57954819Y-62966071D02*
X57907200Y-63108928D01*
X57907200Y-63108928D02*
X57811961Y-63204166D01*
X57811961Y-63204166D02*
X57716723Y-63251785D01*
X57716723Y-63251785D02*
X57526247Y-63299404D01*
X57526247Y-63299404D02*
X57383390Y-63299404D01*
X57383390Y-63299404D02*
X57192914Y-63251785D01*
X57192914Y-63251785D02*
X57097676Y-63204166D01*
X57097676Y-63204166D02*
X57002438Y-63108928D01*
X57002438Y-63108928D02*
X56954819Y-62966071D01*
X56954819Y-62966071D02*
X56954819Y-62870833D01*
X56954819Y-62870833D02*
X57002438Y-62727976D01*
X57002438Y-62727976D02*
X57050057Y-62680357D01*
X57050057Y-62299404D02*
X57002438Y-62251785D01*
X57002438Y-62251785D02*
X56954819Y-62156547D01*
X56954819Y-62156547D02*
X56954819Y-61918452D01*
X56954819Y-61918452D02*
X57002438Y-61823214D01*
X57002438Y-61823214D02*
X57050057Y-61775595D01*
X57050057Y-61775595D02*
X57145295Y-61727976D01*
X57145295Y-61727976D02*
X57240533Y-61727976D01*
X57240533Y-61727976D02*
X57383390Y-61775595D01*
X57383390Y-61775595D02*
X57954819Y-62347023D01*
X57954819Y-62347023D02*
X57954819Y-61727976D01*
X56954819Y-61108928D02*
X56954819Y-61013690D01*
X56954819Y-61013690D02*
X57002438Y-60918452D01*
X57002438Y-60918452D02*
X57050057Y-60870833D01*
X57050057Y-60870833D02*
X57145295Y-60823214D01*
X57145295Y-60823214D02*
X57335771Y-60775595D01*
X57335771Y-60775595D02*
X57573866Y-60775595D01*
X57573866Y-60775595D02*
X57764342Y-60823214D01*
X57764342Y-60823214D02*
X57859580Y-60870833D01*
X57859580Y-60870833D02*
X57907200Y-60918452D01*
X57907200Y-60918452D02*
X57954819Y-61013690D01*
X57954819Y-61013690D02*
X57954819Y-61108928D01*
X57954819Y-61108928D02*
X57907200Y-61204166D01*
X57907200Y-61204166D02*
X57859580Y-61251785D01*
X57859580Y-61251785D02*
X57764342Y-61299404D01*
X57764342Y-61299404D02*
X57573866Y-61347023D01*
X57573866Y-61347023D02*
X57335771Y-61347023D01*
X57335771Y-61347023D02*
X57145295Y-61299404D01*
X57145295Y-61299404D02*
X57050057Y-61251785D01*
X57050057Y-61251785D02*
X57002438Y-61204166D01*
X57002438Y-61204166D02*
X56954819Y-61108928D01*
X43936905Y-59854819D02*
X43936905Y-58854819D01*
X43936905Y-58854819D02*
X44175000Y-58854819D01*
X44175000Y-58854819D02*
X44317857Y-58902438D01*
X44317857Y-58902438D02*
X44413095Y-58997676D01*
X44413095Y-58997676D02*
X44460714Y-59092914D01*
X44460714Y-59092914D02*
X44508333Y-59283390D01*
X44508333Y-59283390D02*
X44508333Y-59426247D01*
X44508333Y-59426247D02*
X44460714Y-59616723D01*
X44460714Y-59616723D02*
X44413095Y-59711961D01*
X44413095Y-59711961D02*
X44317857Y-59807200D01*
X44317857Y-59807200D02*
X44175000Y-59854819D01*
X44175000Y-59854819D02*
X43936905Y-59854819D01*
X44841667Y-58854819D02*
X45508333Y-58854819D01*
X45508333Y-58854819D02*
X45079762Y-59854819D01*
X52284819Y-158142857D02*
X51808628Y-158476190D01*
X52284819Y-158714285D02*
X51284819Y-158714285D01*
X51284819Y-158714285D02*
X51284819Y-158333333D01*
X51284819Y-158333333D02*
X51332438Y-158238095D01*
X51332438Y-158238095D02*
X51380057Y-158190476D01*
X51380057Y-158190476D02*
X51475295Y-158142857D01*
X51475295Y-158142857D02*
X51618152Y-158142857D01*
X51618152Y-158142857D02*
X51713390Y-158190476D01*
X51713390Y-158190476D02*
X51761009Y-158238095D01*
X51761009Y-158238095D02*
X51808628Y-158333333D01*
X51808628Y-158333333D02*
X51808628Y-158714285D01*
X51380057Y-157761904D02*
X51332438Y-157714285D01*
X51332438Y-157714285D02*
X51284819Y-157619047D01*
X51284819Y-157619047D02*
X51284819Y-157380952D01*
X51284819Y-157380952D02*
X51332438Y-157285714D01*
X51332438Y-157285714D02*
X51380057Y-157238095D01*
X51380057Y-157238095D02*
X51475295Y-157190476D01*
X51475295Y-157190476D02*
X51570533Y-157190476D01*
X51570533Y-157190476D02*
X51713390Y-157238095D01*
X51713390Y-157238095D02*
X52284819Y-157809523D01*
X52284819Y-157809523D02*
X52284819Y-157190476D01*
X51284819Y-156571428D02*
X51284819Y-156476190D01*
X51284819Y-156476190D02*
X51332438Y-156380952D01*
X51332438Y-156380952D02*
X51380057Y-156333333D01*
X51380057Y-156333333D02*
X51475295Y-156285714D01*
X51475295Y-156285714D02*
X51665771Y-156238095D01*
X51665771Y-156238095D02*
X51903866Y-156238095D01*
X51903866Y-156238095D02*
X52094342Y-156285714D01*
X52094342Y-156285714D02*
X52189580Y-156333333D01*
X52189580Y-156333333D02*
X52237200Y-156380952D01*
X52237200Y-156380952D02*
X52284819Y-156476190D01*
X52284819Y-156476190D02*
X52284819Y-156571428D01*
X52284819Y-156571428D02*
X52237200Y-156666666D01*
X52237200Y-156666666D02*
X52189580Y-156714285D01*
X52189580Y-156714285D02*
X52094342Y-156761904D01*
X52094342Y-156761904D02*
X51903866Y-156809523D01*
X51903866Y-156809523D02*
X51665771Y-156809523D01*
X51665771Y-156809523D02*
X51475295Y-156761904D01*
X51475295Y-156761904D02*
X51380057Y-156714285D01*
X51380057Y-156714285D02*
X51332438Y-156666666D01*
X51332438Y-156666666D02*
X51284819Y-156571428D01*
X44133333Y-124454819D02*
X43657143Y-124454819D01*
X43657143Y-124454819D02*
X43657143Y-123454819D01*
X44990476Y-124454819D02*
X44419048Y-124454819D01*
X44704762Y-124454819D02*
X44704762Y-123454819D01*
X44704762Y-123454819D02*
X44609524Y-123597676D01*
X44609524Y-123597676D02*
X44514286Y-123692914D01*
X44514286Y-123692914D02*
X44419048Y-123740533D01*
X43333333Y-154359580D02*
X43285714Y-154407200D01*
X43285714Y-154407200D02*
X43142857Y-154454819D01*
X43142857Y-154454819D02*
X43047619Y-154454819D01*
X43047619Y-154454819D02*
X42904762Y-154407200D01*
X42904762Y-154407200D02*
X42809524Y-154311961D01*
X42809524Y-154311961D02*
X42761905Y-154216723D01*
X42761905Y-154216723D02*
X42714286Y-154026247D01*
X42714286Y-154026247D02*
X42714286Y-153883390D01*
X42714286Y-153883390D02*
X42761905Y-153692914D01*
X42761905Y-153692914D02*
X42809524Y-153597676D01*
X42809524Y-153597676D02*
X42904762Y-153502438D01*
X42904762Y-153502438D02*
X43047619Y-153454819D01*
X43047619Y-153454819D02*
X43142857Y-153454819D01*
X43142857Y-153454819D02*
X43285714Y-153502438D01*
X43285714Y-153502438D02*
X43333333Y-153550057D01*
X43666667Y-153454819D02*
X44285714Y-153454819D01*
X44285714Y-153454819D02*
X43952381Y-153835771D01*
X43952381Y-153835771D02*
X44095238Y-153835771D01*
X44095238Y-153835771D02*
X44190476Y-153883390D01*
X44190476Y-153883390D02*
X44238095Y-153931009D01*
X44238095Y-153931009D02*
X44285714Y-154026247D01*
X44285714Y-154026247D02*
X44285714Y-154264342D01*
X44285714Y-154264342D02*
X44238095Y-154359580D01*
X44238095Y-154359580D02*
X44190476Y-154407200D01*
X44190476Y-154407200D02*
X44095238Y-154454819D01*
X44095238Y-154454819D02*
X43809524Y-154454819D01*
X43809524Y-154454819D02*
X43714286Y-154407200D01*
X43714286Y-154407200D02*
X43666667Y-154359580D01*
X51857142Y-59954819D02*
X51523809Y-59478628D01*
X51285714Y-59954819D02*
X51285714Y-58954819D01*
X51285714Y-58954819D02*
X51666666Y-58954819D01*
X51666666Y-58954819D02*
X51761904Y-59002438D01*
X51761904Y-59002438D02*
X51809523Y-59050057D01*
X51809523Y-59050057D02*
X51857142Y-59145295D01*
X51857142Y-59145295D02*
X51857142Y-59288152D01*
X51857142Y-59288152D02*
X51809523Y-59383390D01*
X51809523Y-59383390D02*
X51761904Y-59431009D01*
X51761904Y-59431009D02*
X51666666Y-59478628D01*
X51666666Y-59478628D02*
X51285714Y-59478628D01*
X52238095Y-59050057D02*
X52285714Y-59002438D01*
X52285714Y-59002438D02*
X52380952Y-58954819D01*
X52380952Y-58954819D02*
X52619047Y-58954819D01*
X52619047Y-58954819D02*
X52714285Y-59002438D01*
X52714285Y-59002438D02*
X52761904Y-59050057D01*
X52761904Y-59050057D02*
X52809523Y-59145295D01*
X52809523Y-59145295D02*
X52809523Y-59240533D01*
X52809523Y-59240533D02*
X52761904Y-59383390D01*
X52761904Y-59383390D02*
X52190476Y-59954819D01*
X52190476Y-59954819D02*
X52809523Y-59954819D01*
X53761904Y-59954819D02*
X53190476Y-59954819D01*
X53476190Y-59954819D02*
X53476190Y-58954819D01*
X53476190Y-58954819D02*
X53380952Y-59097676D01*
X53380952Y-59097676D02*
X53285714Y-59192914D01*
X53285714Y-59192914D02*
X53190476Y-59240533D01*
X57857142Y-55954819D02*
X57523809Y-55478628D01*
X57285714Y-55954819D02*
X57285714Y-54954819D01*
X57285714Y-54954819D02*
X57666666Y-54954819D01*
X57666666Y-54954819D02*
X57761904Y-55002438D01*
X57761904Y-55002438D02*
X57809523Y-55050057D01*
X57809523Y-55050057D02*
X57857142Y-55145295D01*
X57857142Y-55145295D02*
X57857142Y-55288152D01*
X57857142Y-55288152D02*
X57809523Y-55383390D01*
X57809523Y-55383390D02*
X57761904Y-55431009D01*
X57761904Y-55431009D02*
X57666666Y-55478628D01*
X57666666Y-55478628D02*
X57285714Y-55478628D01*
X58809523Y-55954819D02*
X58238095Y-55954819D01*
X58523809Y-55954819D02*
X58523809Y-54954819D01*
X58523809Y-54954819D02*
X58428571Y-55097676D01*
X58428571Y-55097676D02*
X58333333Y-55192914D01*
X58333333Y-55192914D02*
X58238095Y-55240533D01*
X59428571Y-54954819D02*
X59523809Y-54954819D01*
X59523809Y-54954819D02*
X59619047Y-55002438D01*
X59619047Y-55002438D02*
X59666666Y-55050057D01*
X59666666Y-55050057D02*
X59714285Y-55145295D01*
X59714285Y-55145295D02*
X59761904Y-55335771D01*
X59761904Y-55335771D02*
X59761904Y-55573866D01*
X59761904Y-55573866D02*
X59714285Y-55764342D01*
X59714285Y-55764342D02*
X59666666Y-55859580D01*
X59666666Y-55859580D02*
X59619047Y-55907200D01*
X59619047Y-55907200D02*
X59523809Y-55954819D01*
X59523809Y-55954819D02*
X59428571Y-55954819D01*
X59428571Y-55954819D02*
X59333333Y-55907200D01*
X59333333Y-55907200D02*
X59285714Y-55859580D01*
X59285714Y-55859580D02*
X59238095Y-55764342D01*
X59238095Y-55764342D02*
X59190476Y-55573866D01*
X59190476Y-55573866D02*
X59190476Y-55335771D01*
X59190476Y-55335771D02*
X59238095Y-55145295D01*
X59238095Y-55145295D02*
X59285714Y-55050057D01*
X59285714Y-55050057D02*
X59333333Y-55002438D01*
X59333333Y-55002438D02*
X59428571Y-54954819D01*
X50833333Y-148859580D02*
X50785714Y-148907200D01*
X50785714Y-148907200D02*
X50642857Y-148954819D01*
X50642857Y-148954819D02*
X50547619Y-148954819D01*
X50547619Y-148954819D02*
X50404762Y-148907200D01*
X50404762Y-148907200D02*
X50309524Y-148811961D01*
X50309524Y-148811961D02*
X50261905Y-148716723D01*
X50261905Y-148716723D02*
X50214286Y-148526247D01*
X50214286Y-148526247D02*
X50214286Y-148383390D01*
X50214286Y-148383390D02*
X50261905Y-148192914D01*
X50261905Y-148192914D02*
X50309524Y-148097676D01*
X50309524Y-148097676D02*
X50404762Y-148002438D01*
X50404762Y-148002438D02*
X50547619Y-147954819D01*
X50547619Y-147954819D02*
X50642857Y-147954819D01*
X50642857Y-147954819D02*
X50785714Y-148002438D01*
X50785714Y-148002438D02*
X50833333Y-148050057D01*
X51166667Y-147954819D02*
X51833333Y-147954819D01*
X51833333Y-147954819D02*
X51404762Y-148954819D01*
X46857142Y-107454819D02*
X46523809Y-106978628D01*
X46285714Y-107454819D02*
X46285714Y-106454819D01*
X46285714Y-106454819D02*
X46666666Y-106454819D01*
X46666666Y-106454819D02*
X46761904Y-106502438D01*
X46761904Y-106502438D02*
X46809523Y-106550057D01*
X46809523Y-106550057D02*
X46857142Y-106645295D01*
X46857142Y-106645295D02*
X46857142Y-106788152D01*
X46857142Y-106788152D02*
X46809523Y-106883390D01*
X46809523Y-106883390D02*
X46761904Y-106931009D01*
X46761904Y-106931009D02*
X46666666Y-106978628D01*
X46666666Y-106978628D02*
X46285714Y-106978628D01*
X47809523Y-107454819D02*
X47238095Y-107454819D01*
X47523809Y-107454819D02*
X47523809Y-106454819D01*
X47523809Y-106454819D02*
X47428571Y-106597676D01*
X47428571Y-106597676D02*
X47333333Y-106692914D01*
X47333333Y-106692914D02*
X47238095Y-106740533D01*
X48761904Y-107454819D02*
X48190476Y-107454819D01*
X48476190Y-107454819D02*
X48476190Y-106454819D01*
X48476190Y-106454819D02*
X48380952Y-106597676D01*
X48380952Y-106597676D02*
X48285714Y-106692914D01*
X48285714Y-106692914D02*
X48190476Y-106740533D01*
X45357142Y-58359580D02*
X45309523Y-58407200D01*
X45309523Y-58407200D02*
X45166666Y-58454819D01*
X45166666Y-58454819D02*
X45071428Y-58454819D01*
X45071428Y-58454819D02*
X44928571Y-58407200D01*
X44928571Y-58407200D02*
X44833333Y-58311961D01*
X44833333Y-58311961D02*
X44785714Y-58216723D01*
X44785714Y-58216723D02*
X44738095Y-58026247D01*
X44738095Y-58026247D02*
X44738095Y-57883390D01*
X44738095Y-57883390D02*
X44785714Y-57692914D01*
X44785714Y-57692914D02*
X44833333Y-57597676D01*
X44833333Y-57597676D02*
X44928571Y-57502438D01*
X44928571Y-57502438D02*
X45071428Y-57454819D01*
X45071428Y-57454819D02*
X45166666Y-57454819D01*
X45166666Y-57454819D02*
X45309523Y-57502438D01*
X45309523Y-57502438D02*
X45357142Y-57550057D01*
X46309523Y-58454819D02*
X45738095Y-58454819D01*
X46023809Y-58454819D02*
X46023809Y-57454819D01*
X46023809Y-57454819D02*
X45928571Y-57597676D01*
X45928571Y-57597676D02*
X45833333Y-57692914D01*
X45833333Y-57692914D02*
X45738095Y-57740533D01*
X46642857Y-57454819D02*
X47261904Y-57454819D01*
X47261904Y-57454819D02*
X46928571Y-57835771D01*
X46928571Y-57835771D02*
X47071428Y-57835771D01*
X47071428Y-57835771D02*
X47166666Y-57883390D01*
X47166666Y-57883390D02*
X47214285Y-57931009D01*
X47214285Y-57931009D02*
X47261904Y-58026247D01*
X47261904Y-58026247D02*
X47261904Y-58264342D01*
X47261904Y-58264342D02*
X47214285Y-58359580D01*
X47214285Y-58359580D02*
X47166666Y-58407200D01*
X47166666Y-58407200D02*
X47071428Y-58454819D01*
X47071428Y-58454819D02*
X46785714Y-58454819D01*
X46785714Y-58454819D02*
X46690476Y-58407200D01*
X46690476Y-58407200D02*
X46642857Y-58359580D01*
X41833333Y-156804819D02*
X41500000Y-156328628D01*
X41261905Y-156804819D02*
X41261905Y-155804819D01*
X41261905Y-155804819D02*
X41642857Y-155804819D01*
X41642857Y-155804819D02*
X41738095Y-155852438D01*
X41738095Y-155852438D02*
X41785714Y-155900057D01*
X41785714Y-155900057D02*
X41833333Y-155995295D01*
X41833333Y-155995295D02*
X41833333Y-156138152D01*
X41833333Y-156138152D02*
X41785714Y-156233390D01*
X41785714Y-156233390D02*
X41738095Y-156281009D01*
X41738095Y-156281009D02*
X41642857Y-156328628D01*
X41642857Y-156328628D02*
X41261905Y-156328628D01*
X42690476Y-156138152D02*
X42690476Y-156804819D01*
X42452381Y-155757200D02*
X42214286Y-156471485D01*
X42214286Y-156471485D02*
X42833333Y-156471485D01*
X41357142Y-78454819D02*
X41023809Y-77978628D01*
X40785714Y-78454819D02*
X40785714Y-77454819D01*
X40785714Y-77454819D02*
X41166666Y-77454819D01*
X41166666Y-77454819D02*
X41261904Y-77502438D01*
X41261904Y-77502438D02*
X41309523Y-77550057D01*
X41309523Y-77550057D02*
X41357142Y-77645295D01*
X41357142Y-77645295D02*
X41357142Y-77788152D01*
X41357142Y-77788152D02*
X41309523Y-77883390D01*
X41309523Y-77883390D02*
X41261904Y-77931009D01*
X41261904Y-77931009D02*
X41166666Y-77978628D01*
X41166666Y-77978628D02*
X40785714Y-77978628D01*
X42309523Y-78454819D02*
X41738095Y-78454819D01*
X42023809Y-78454819D02*
X42023809Y-77454819D01*
X42023809Y-77454819D02*
X41928571Y-77597676D01*
X41928571Y-77597676D02*
X41833333Y-77692914D01*
X41833333Y-77692914D02*
X41738095Y-77740533D01*
X43166666Y-77788152D02*
X43166666Y-78454819D01*
X42928571Y-77407200D02*
X42690476Y-78121485D01*
X42690476Y-78121485D02*
X43309523Y-78121485D01*
X48357142Y-59954819D02*
X48023809Y-59478628D01*
X47785714Y-59954819D02*
X47785714Y-58954819D01*
X47785714Y-58954819D02*
X48166666Y-58954819D01*
X48166666Y-58954819D02*
X48261904Y-59002438D01*
X48261904Y-59002438D02*
X48309523Y-59050057D01*
X48309523Y-59050057D02*
X48357142Y-59145295D01*
X48357142Y-59145295D02*
X48357142Y-59288152D01*
X48357142Y-59288152D02*
X48309523Y-59383390D01*
X48309523Y-59383390D02*
X48261904Y-59431009D01*
X48261904Y-59431009D02*
X48166666Y-59478628D01*
X48166666Y-59478628D02*
X47785714Y-59478628D01*
X48738095Y-59050057D02*
X48785714Y-59002438D01*
X48785714Y-59002438D02*
X48880952Y-58954819D01*
X48880952Y-58954819D02*
X49119047Y-58954819D01*
X49119047Y-58954819D02*
X49214285Y-59002438D01*
X49214285Y-59002438D02*
X49261904Y-59050057D01*
X49261904Y-59050057D02*
X49309523Y-59145295D01*
X49309523Y-59145295D02*
X49309523Y-59240533D01*
X49309523Y-59240533D02*
X49261904Y-59383390D01*
X49261904Y-59383390D02*
X48690476Y-59954819D01*
X48690476Y-59954819D02*
X49309523Y-59954819D01*
X49690476Y-59050057D02*
X49738095Y-59002438D01*
X49738095Y-59002438D02*
X49833333Y-58954819D01*
X49833333Y-58954819D02*
X50071428Y-58954819D01*
X50071428Y-58954819D02*
X50166666Y-59002438D01*
X50166666Y-59002438D02*
X50214285Y-59050057D01*
X50214285Y-59050057D02*
X50261904Y-59145295D01*
X50261904Y-59145295D02*
X50261904Y-59240533D01*
X50261904Y-59240533D02*
X50214285Y-59383390D01*
X50214285Y-59383390D02*
X49642857Y-59954819D01*
X49642857Y-59954819D02*
X50261904Y-59954819D01*
X59454819Y-59642857D02*
X58978628Y-59976190D01*
X59454819Y-60214285D02*
X58454819Y-60214285D01*
X58454819Y-60214285D02*
X58454819Y-59833333D01*
X58454819Y-59833333D02*
X58502438Y-59738095D01*
X58502438Y-59738095D02*
X58550057Y-59690476D01*
X58550057Y-59690476D02*
X58645295Y-59642857D01*
X58645295Y-59642857D02*
X58788152Y-59642857D01*
X58788152Y-59642857D02*
X58883390Y-59690476D01*
X58883390Y-59690476D02*
X58931009Y-59738095D01*
X58931009Y-59738095D02*
X58978628Y-59833333D01*
X58978628Y-59833333D02*
X58978628Y-60214285D01*
X59454819Y-58690476D02*
X59454819Y-59261904D01*
X59454819Y-58976190D02*
X58454819Y-58976190D01*
X58454819Y-58976190D02*
X58597676Y-59071428D01*
X58597676Y-59071428D02*
X58692914Y-59166666D01*
X58692914Y-59166666D02*
X58740533Y-59261904D01*
X58550057Y-58309523D02*
X58502438Y-58261904D01*
X58502438Y-58261904D02*
X58454819Y-58166666D01*
X58454819Y-58166666D02*
X58454819Y-57928571D01*
X58454819Y-57928571D02*
X58502438Y-57833333D01*
X58502438Y-57833333D02*
X58550057Y-57785714D01*
X58550057Y-57785714D02*
X58645295Y-57738095D01*
X58645295Y-57738095D02*
X58740533Y-57738095D01*
X58740533Y-57738095D02*
X58883390Y-57785714D01*
X58883390Y-57785714D02*
X59454819Y-58357142D01*
X59454819Y-58357142D02*
X59454819Y-57738095D01*
X52359580Y-62680357D02*
X52407200Y-62727976D01*
X52407200Y-62727976D02*
X52454819Y-62870833D01*
X52454819Y-62870833D02*
X52454819Y-62966071D01*
X52454819Y-62966071D02*
X52407200Y-63108928D01*
X52407200Y-63108928D02*
X52311961Y-63204166D01*
X52311961Y-63204166D02*
X52216723Y-63251785D01*
X52216723Y-63251785D02*
X52026247Y-63299404D01*
X52026247Y-63299404D02*
X51883390Y-63299404D01*
X51883390Y-63299404D02*
X51692914Y-63251785D01*
X51692914Y-63251785D02*
X51597676Y-63204166D01*
X51597676Y-63204166D02*
X51502438Y-63108928D01*
X51502438Y-63108928D02*
X51454819Y-62966071D01*
X51454819Y-62966071D02*
X51454819Y-62870833D01*
X51454819Y-62870833D02*
X51502438Y-62727976D01*
X51502438Y-62727976D02*
X51550057Y-62680357D01*
X52454819Y-61727976D02*
X52454819Y-62299404D01*
X52454819Y-62013690D02*
X51454819Y-62013690D01*
X51454819Y-62013690D02*
X51597676Y-62108928D01*
X51597676Y-62108928D02*
X51692914Y-62204166D01*
X51692914Y-62204166D02*
X51740533Y-62299404D01*
X52454819Y-61251785D02*
X52454819Y-61061309D01*
X52454819Y-61061309D02*
X52407200Y-60966071D01*
X52407200Y-60966071D02*
X52359580Y-60918452D01*
X52359580Y-60918452D02*
X52216723Y-60823214D01*
X52216723Y-60823214D02*
X52026247Y-60775595D01*
X52026247Y-60775595D02*
X51645295Y-60775595D01*
X51645295Y-60775595D02*
X51550057Y-60823214D01*
X51550057Y-60823214D02*
X51502438Y-60870833D01*
X51502438Y-60870833D02*
X51454819Y-60966071D01*
X51454819Y-60966071D02*
X51454819Y-61156547D01*
X51454819Y-61156547D02*
X51502438Y-61251785D01*
X51502438Y-61251785D02*
X51550057Y-61299404D01*
X51550057Y-61299404D02*
X51645295Y-61347023D01*
X51645295Y-61347023D02*
X51883390Y-61347023D01*
X51883390Y-61347023D02*
X51978628Y-61299404D01*
X51978628Y-61299404D02*
X52026247Y-61251785D01*
X52026247Y-61251785D02*
X52073866Y-61156547D01*
X52073866Y-61156547D02*
X52073866Y-60966071D01*
X52073866Y-60966071D02*
X52026247Y-60870833D01*
X52026247Y-60870833D02*
X51978628Y-60823214D01*
X51978628Y-60823214D02*
X51883390Y-60775595D01*
X55357142Y-104859580D02*
X55309523Y-104907200D01*
X55309523Y-104907200D02*
X55166666Y-104954819D01*
X55166666Y-104954819D02*
X55071428Y-104954819D01*
X55071428Y-104954819D02*
X54928571Y-104907200D01*
X54928571Y-104907200D02*
X54833333Y-104811961D01*
X54833333Y-104811961D02*
X54785714Y-104716723D01*
X54785714Y-104716723D02*
X54738095Y-104526247D01*
X54738095Y-104526247D02*
X54738095Y-104383390D01*
X54738095Y-104383390D02*
X54785714Y-104192914D01*
X54785714Y-104192914D02*
X54833333Y-104097676D01*
X54833333Y-104097676D02*
X54928571Y-104002438D01*
X54928571Y-104002438D02*
X55071428Y-103954819D01*
X55071428Y-103954819D02*
X55166666Y-103954819D01*
X55166666Y-103954819D02*
X55309523Y-104002438D01*
X55309523Y-104002438D02*
X55357142Y-104050057D01*
X56309523Y-104954819D02*
X55738095Y-104954819D01*
X56023809Y-104954819D02*
X56023809Y-103954819D01*
X56023809Y-103954819D02*
X55928571Y-104097676D01*
X55928571Y-104097676D02*
X55833333Y-104192914D01*
X55833333Y-104192914D02*
X55738095Y-104240533D01*
X57166666Y-103954819D02*
X56976190Y-103954819D01*
X56976190Y-103954819D02*
X56880952Y-104002438D01*
X56880952Y-104002438D02*
X56833333Y-104050057D01*
X56833333Y-104050057D02*
X56738095Y-104192914D01*
X56738095Y-104192914D02*
X56690476Y-104383390D01*
X56690476Y-104383390D02*
X56690476Y-104764342D01*
X56690476Y-104764342D02*
X56738095Y-104859580D01*
X56738095Y-104859580D02*
X56785714Y-104907200D01*
X56785714Y-104907200D02*
X56880952Y-104954819D01*
X56880952Y-104954819D02*
X57071428Y-104954819D01*
X57071428Y-104954819D02*
X57166666Y-104907200D01*
X57166666Y-104907200D02*
X57214285Y-104859580D01*
X57214285Y-104859580D02*
X57261904Y-104764342D01*
X57261904Y-104764342D02*
X57261904Y-104526247D01*
X57261904Y-104526247D02*
X57214285Y-104431009D01*
X57214285Y-104431009D02*
X57166666Y-104383390D01*
X57166666Y-104383390D02*
X57071428Y-104335771D01*
X57071428Y-104335771D02*
X56880952Y-104335771D01*
X56880952Y-104335771D02*
X56785714Y-104383390D01*
X56785714Y-104383390D02*
X56738095Y-104431009D01*
X56738095Y-104431009D02*
X56690476Y-104526247D01*
X53204819Y-68511904D02*
X54014342Y-68511904D01*
X54014342Y-68511904D02*
X54109580Y-68464285D01*
X54109580Y-68464285D02*
X54157200Y-68416666D01*
X54157200Y-68416666D02*
X54204819Y-68321428D01*
X54204819Y-68321428D02*
X54204819Y-68130952D01*
X54204819Y-68130952D02*
X54157200Y-68035714D01*
X54157200Y-68035714D02*
X54109580Y-67988095D01*
X54109580Y-67988095D02*
X54014342Y-67940476D01*
X54014342Y-67940476D02*
X53204819Y-67940476D01*
X54204819Y-67416666D02*
X54204819Y-67226190D01*
X54204819Y-67226190D02*
X54157200Y-67130952D01*
X54157200Y-67130952D02*
X54109580Y-67083333D01*
X54109580Y-67083333D02*
X53966723Y-66988095D01*
X53966723Y-66988095D02*
X53776247Y-66940476D01*
X53776247Y-66940476D02*
X53395295Y-66940476D01*
X53395295Y-66940476D02*
X53300057Y-66988095D01*
X53300057Y-66988095D02*
X53252438Y-67035714D01*
X53252438Y-67035714D02*
X53204819Y-67130952D01*
X53204819Y-67130952D02*
X53204819Y-67321428D01*
X53204819Y-67321428D02*
X53252438Y-67416666D01*
X53252438Y-67416666D02*
X53300057Y-67464285D01*
X53300057Y-67464285D02*
X53395295Y-67511904D01*
X53395295Y-67511904D02*
X53633390Y-67511904D01*
X53633390Y-67511904D02*
X53728628Y-67464285D01*
X53728628Y-67464285D02*
X53776247Y-67416666D01*
X53776247Y-67416666D02*
X53823866Y-67321428D01*
X53823866Y-67321428D02*
X53823866Y-67130952D01*
X53823866Y-67130952D02*
X53776247Y-67035714D01*
X53776247Y-67035714D02*
X53728628Y-66988095D01*
X53728628Y-66988095D02*
X53633390Y-66940476D01*
X49179580Y-62680357D02*
X49227200Y-62727976D01*
X49227200Y-62727976D02*
X49274819Y-62870833D01*
X49274819Y-62870833D02*
X49274819Y-62966071D01*
X49274819Y-62966071D02*
X49227200Y-63108928D01*
X49227200Y-63108928D02*
X49131961Y-63204166D01*
X49131961Y-63204166D02*
X49036723Y-63251785D01*
X49036723Y-63251785D02*
X48846247Y-63299404D01*
X48846247Y-63299404D02*
X48703390Y-63299404D01*
X48703390Y-63299404D02*
X48512914Y-63251785D01*
X48512914Y-63251785D02*
X48417676Y-63204166D01*
X48417676Y-63204166D02*
X48322438Y-63108928D01*
X48322438Y-63108928D02*
X48274819Y-62966071D01*
X48274819Y-62966071D02*
X48274819Y-62870833D01*
X48274819Y-62870833D02*
X48322438Y-62727976D01*
X48322438Y-62727976D02*
X48370057Y-62680357D01*
X49274819Y-61727976D02*
X49274819Y-62299404D01*
X49274819Y-62013690D02*
X48274819Y-62013690D01*
X48274819Y-62013690D02*
X48417676Y-62108928D01*
X48417676Y-62108928D02*
X48512914Y-62204166D01*
X48512914Y-62204166D02*
X48560533Y-62299404D01*
X48274819Y-61394642D02*
X48274819Y-60727976D01*
X48274819Y-60727976D02*
X49274819Y-61156547D01*
X44661905Y-143154819D02*
X44661905Y-142154819D01*
X44661905Y-142154819D02*
X44900000Y-142154819D01*
X44900000Y-142154819D02*
X45042857Y-142202438D01*
X45042857Y-142202438D02*
X45138095Y-142297676D01*
X45138095Y-142297676D02*
X45185714Y-142392914D01*
X45185714Y-142392914D02*
X45233333Y-142583390D01*
X45233333Y-142583390D02*
X45233333Y-142726247D01*
X45233333Y-142726247D02*
X45185714Y-142916723D01*
X45185714Y-142916723D02*
X45138095Y-143011961D01*
X45138095Y-143011961D02*
X45042857Y-143107200D01*
X45042857Y-143107200D02*
X44900000Y-143154819D01*
X44900000Y-143154819D02*
X44661905Y-143154819D01*
X46185714Y-143154819D02*
X45614286Y-143154819D01*
X45900000Y-143154819D02*
X45900000Y-142154819D01*
X45900000Y-142154819D02*
X45804762Y-142297676D01*
X45804762Y-142297676D02*
X45709524Y-142392914D01*
X45709524Y-142392914D02*
X45614286Y-142440533D01*
X40833333Y-154859580D02*
X40785714Y-154907200D01*
X40785714Y-154907200D02*
X40642857Y-154954819D01*
X40642857Y-154954819D02*
X40547619Y-154954819D01*
X40547619Y-154954819D02*
X40404762Y-154907200D01*
X40404762Y-154907200D02*
X40309524Y-154811961D01*
X40309524Y-154811961D02*
X40261905Y-154716723D01*
X40261905Y-154716723D02*
X40214286Y-154526247D01*
X40214286Y-154526247D02*
X40214286Y-154383390D01*
X40214286Y-154383390D02*
X40261905Y-154192914D01*
X40261905Y-154192914D02*
X40309524Y-154097676D01*
X40309524Y-154097676D02*
X40404762Y-154002438D01*
X40404762Y-154002438D02*
X40547619Y-153954819D01*
X40547619Y-153954819D02*
X40642857Y-153954819D01*
X40642857Y-153954819D02*
X40785714Y-154002438D01*
X40785714Y-154002438D02*
X40833333Y-154050057D01*
X41738095Y-153954819D02*
X41261905Y-153954819D01*
X41261905Y-153954819D02*
X41214286Y-154431009D01*
X41214286Y-154431009D02*
X41261905Y-154383390D01*
X41261905Y-154383390D02*
X41357143Y-154335771D01*
X41357143Y-154335771D02*
X41595238Y-154335771D01*
X41595238Y-154335771D02*
X41690476Y-154383390D01*
X41690476Y-154383390D02*
X41738095Y-154431009D01*
X41738095Y-154431009D02*
X41785714Y-154526247D01*
X41785714Y-154526247D02*
X41785714Y-154764342D01*
X41785714Y-154764342D02*
X41738095Y-154859580D01*
X41738095Y-154859580D02*
X41690476Y-154907200D01*
X41690476Y-154907200D02*
X41595238Y-154954819D01*
X41595238Y-154954819D02*
X41357143Y-154954819D01*
X41357143Y-154954819D02*
X41261905Y-154907200D01*
X41261905Y-154907200D02*
X41214286Y-154859580D01*
X50833333Y-153954819D02*
X50357143Y-153954819D01*
X50357143Y-153954819D02*
X50357143Y-152954819D01*
X51119048Y-153050057D02*
X51166667Y-153002438D01*
X51166667Y-153002438D02*
X51261905Y-152954819D01*
X51261905Y-152954819D02*
X51500000Y-152954819D01*
X51500000Y-152954819D02*
X51595238Y-153002438D01*
X51595238Y-153002438D02*
X51642857Y-153050057D01*
X51642857Y-153050057D02*
X51690476Y-153145295D01*
X51690476Y-153145295D02*
X51690476Y-153240533D01*
X51690476Y-153240533D02*
X51642857Y-153383390D01*
X51642857Y-153383390D02*
X51071429Y-153954819D01*
X51071429Y-153954819D02*
X51690476Y-153954819D01*
X52359580Y-140166666D02*
X52407200Y-140214285D01*
X52407200Y-140214285D02*
X52454819Y-140357142D01*
X52454819Y-140357142D02*
X52454819Y-140452380D01*
X52454819Y-140452380D02*
X52407200Y-140595237D01*
X52407200Y-140595237D02*
X52311961Y-140690475D01*
X52311961Y-140690475D02*
X52216723Y-140738094D01*
X52216723Y-140738094D02*
X52026247Y-140785713D01*
X52026247Y-140785713D02*
X51883390Y-140785713D01*
X51883390Y-140785713D02*
X51692914Y-140738094D01*
X51692914Y-140738094D02*
X51597676Y-140690475D01*
X51597676Y-140690475D02*
X51502438Y-140595237D01*
X51502438Y-140595237D02*
X51454819Y-140452380D01*
X51454819Y-140452380D02*
X51454819Y-140357142D01*
X51454819Y-140357142D02*
X51502438Y-140214285D01*
X51502438Y-140214285D02*
X51550057Y-140166666D01*
X52454819Y-139214285D02*
X52454819Y-139785713D01*
X52454819Y-139499999D02*
X51454819Y-139499999D01*
X51454819Y-139499999D02*
X51597676Y-139595237D01*
X51597676Y-139595237D02*
X51692914Y-139690475D01*
X51692914Y-139690475D02*
X51740533Y-139785713D01*
X51833333Y-163859580D02*
X51785714Y-163907200D01*
X51785714Y-163907200D02*
X51642857Y-163954819D01*
X51642857Y-163954819D02*
X51547619Y-163954819D01*
X51547619Y-163954819D02*
X51404762Y-163907200D01*
X51404762Y-163907200D02*
X51309524Y-163811961D01*
X51309524Y-163811961D02*
X51261905Y-163716723D01*
X51261905Y-163716723D02*
X51214286Y-163526247D01*
X51214286Y-163526247D02*
X51214286Y-163383390D01*
X51214286Y-163383390D02*
X51261905Y-163192914D01*
X51261905Y-163192914D02*
X51309524Y-163097676D01*
X51309524Y-163097676D02*
X51404762Y-163002438D01*
X51404762Y-163002438D02*
X51547619Y-162954819D01*
X51547619Y-162954819D02*
X51642857Y-162954819D01*
X51642857Y-162954819D02*
X51785714Y-163002438D01*
X51785714Y-163002438D02*
X51833333Y-163050057D01*
X52309524Y-163954819D02*
X52500000Y-163954819D01*
X52500000Y-163954819D02*
X52595238Y-163907200D01*
X52595238Y-163907200D02*
X52642857Y-163859580D01*
X52642857Y-163859580D02*
X52738095Y-163716723D01*
X52738095Y-163716723D02*
X52785714Y-163526247D01*
X52785714Y-163526247D02*
X52785714Y-163145295D01*
X52785714Y-163145295D02*
X52738095Y-163050057D01*
X52738095Y-163050057D02*
X52690476Y-163002438D01*
X52690476Y-163002438D02*
X52595238Y-162954819D01*
X52595238Y-162954819D02*
X52404762Y-162954819D01*
X52404762Y-162954819D02*
X52309524Y-163002438D01*
X52309524Y-163002438D02*
X52261905Y-163050057D01*
X52261905Y-163050057D02*
X52214286Y-163145295D01*
X52214286Y-163145295D02*
X52214286Y-163383390D01*
X52214286Y-163383390D02*
X52261905Y-163478628D01*
X52261905Y-163478628D02*
X52309524Y-163526247D01*
X52309524Y-163526247D02*
X52404762Y-163573866D01*
X52404762Y-163573866D02*
X52595238Y-163573866D01*
X52595238Y-163573866D02*
X52690476Y-163526247D01*
X52690476Y-163526247D02*
X52738095Y-163478628D01*
X52738095Y-163478628D02*
X52785714Y-163383390D01*
X46357142Y-123859580D02*
X46309523Y-123907200D01*
X46309523Y-123907200D02*
X46166666Y-123954819D01*
X46166666Y-123954819D02*
X46071428Y-123954819D01*
X46071428Y-123954819D02*
X45928571Y-123907200D01*
X45928571Y-123907200D02*
X45833333Y-123811961D01*
X45833333Y-123811961D02*
X45785714Y-123716723D01*
X45785714Y-123716723D02*
X45738095Y-123526247D01*
X45738095Y-123526247D02*
X45738095Y-123383390D01*
X45738095Y-123383390D02*
X45785714Y-123192914D01*
X45785714Y-123192914D02*
X45833333Y-123097676D01*
X45833333Y-123097676D02*
X45928571Y-123002438D01*
X45928571Y-123002438D02*
X46071428Y-122954819D01*
X46071428Y-122954819D02*
X46166666Y-122954819D01*
X46166666Y-122954819D02*
X46309523Y-123002438D01*
X46309523Y-123002438D02*
X46357142Y-123050057D01*
X47309523Y-123954819D02*
X46738095Y-123954819D01*
X47023809Y-123954819D02*
X47023809Y-122954819D01*
X47023809Y-122954819D02*
X46928571Y-123097676D01*
X46928571Y-123097676D02*
X46833333Y-123192914D01*
X46833333Y-123192914D02*
X46738095Y-123240533D01*
X47928571Y-122954819D02*
X48023809Y-122954819D01*
X48023809Y-122954819D02*
X48119047Y-123002438D01*
X48119047Y-123002438D02*
X48166666Y-123050057D01*
X48166666Y-123050057D02*
X48214285Y-123145295D01*
X48214285Y-123145295D02*
X48261904Y-123335771D01*
X48261904Y-123335771D02*
X48261904Y-123573866D01*
X48261904Y-123573866D02*
X48214285Y-123764342D01*
X48214285Y-123764342D02*
X48166666Y-123859580D01*
X48166666Y-123859580D02*
X48119047Y-123907200D01*
X48119047Y-123907200D02*
X48023809Y-123954819D01*
X48023809Y-123954819D02*
X47928571Y-123954819D01*
X47928571Y-123954819D02*
X47833333Y-123907200D01*
X47833333Y-123907200D02*
X47785714Y-123859580D01*
X47785714Y-123859580D02*
X47738095Y-123764342D01*
X47738095Y-123764342D02*
X47690476Y-123573866D01*
X47690476Y-123573866D02*
X47690476Y-123335771D01*
X47690476Y-123335771D02*
X47738095Y-123145295D01*
X47738095Y-123145295D02*
X47785714Y-123050057D01*
X47785714Y-123050057D02*
X47833333Y-123002438D01*
X47833333Y-123002438D02*
X47928571Y-122954819D01*
X50761905Y-143954819D02*
X50761905Y-142954819D01*
X50761905Y-142954819D02*
X51000000Y-142954819D01*
X51000000Y-142954819D02*
X51142857Y-143002438D01*
X51142857Y-143002438D02*
X51238095Y-143097676D01*
X51238095Y-143097676D02*
X51285714Y-143192914D01*
X51285714Y-143192914D02*
X51333333Y-143383390D01*
X51333333Y-143383390D02*
X51333333Y-143526247D01*
X51333333Y-143526247D02*
X51285714Y-143716723D01*
X51285714Y-143716723D02*
X51238095Y-143811961D01*
X51238095Y-143811961D02*
X51142857Y-143907200D01*
X51142857Y-143907200D02*
X51000000Y-143954819D01*
X51000000Y-143954819D02*
X50761905Y-143954819D01*
X52190476Y-142954819D02*
X52000000Y-142954819D01*
X52000000Y-142954819D02*
X51904762Y-143002438D01*
X51904762Y-143002438D02*
X51857143Y-143050057D01*
X51857143Y-143050057D02*
X51761905Y-143192914D01*
X51761905Y-143192914D02*
X51714286Y-143383390D01*
X51714286Y-143383390D02*
X51714286Y-143764342D01*
X51714286Y-143764342D02*
X51761905Y-143859580D01*
X51761905Y-143859580D02*
X51809524Y-143907200D01*
X51809524Y-143907200D02*
X51904762Y-143954819D01*
X51904762Y-143954819D02*
X52095238Y-143954819D01*
X52095238Y-143954819D02*
X52190476Y-143907200D01*
X52190476Y-143907200D02*
X52238095Y-143859580D01*
X52238095Y-143859580D02*
X52285714Y-143764342D01*
X52285714Y-143764342D02*
X52285714Y-143526247D01*
X52285714Y-143526247D02*
X52238095Y-143431009D01*
X52238095Y-143431009D02*
X52190476Y-143383390D01*
X52190476Y-143383390D02*
X52095238Y-143335771D01*
X52095238Y-143335771D02*
X51904762Y-143335771D01*
X51904762Y-143335771D02*
X51809524Y-143383390D01*
X51809524Y-143383390D02*
X51761905Y-143431009D01*
X51761905Y-143431009D02*
X51714286Y-143526247D01*
D12*
X42149999Y-74089744D02*
X42116666Y-74127840D01*
X42116666Y-74127840D02*
X42016666Y-74165935D01*
X42016666Y-74165935D02*
X41949999Y-74165935D01*
X41949999Y-74165935D02*
X41849999Y-74127840D01*
X41849999Y-74127840D02*
X41783333Y-74051649D01*
X41783333Y-74051649D02*
X41749999Y-73975459D01*
X41749999Y-73975459D02*
X41716666Y-73823078D01*
X41716666Y-73823078D02*
X41716666Y-73708792D01*
X41716666Y-73708792D02*
X41749999Y-73556411D01*
X41749999Y-73556411D02*
X41783333Y-73480220D01*
X41783333Y-73480220D02*
X41849999Y-73404030D01*
X41849999Y-73404030D02*
X41949999Y-73365935D01*
X41949999Y-73365935D02*
X42016666Y-73365935D01*
X42016666Y-73365935D02*
X42116666Y-73404030D01*
X42116666Y-73404030D02*
X42149999Y-73442125D01*
X42816666Y-74165935D02*
X42416666Y-74165935D01*
X42616666Y-74165935D02*
X42616666Y-73365935D01*
X42616666Y-73365935D02*
X42549999Y-73480220D01*
X42549999Y-73480220D02*
X42483333Y-73556411D01*
X42483333Y-73556411D02*
X42416666Y-73594506D01*
X43416666Y-73632601D02*
X43416666Y-74165935D01*
X43250000Y-73327840D02*
X43083333Y-73899268D01*
X43083333Y-73899268D02*
X43516666Y-73899268D01*
D11*
X48439580Y-72342857D02*
X48487200Y-72390476D01*
X48487200Y-72390476D02*
X48534819Y-72533333D01*
X48534819Y-72533333D02*
X48534819Y-72628571D01*
X48534819Y-72628571D02*
X48487200Y-72771428D01*
X48487200Y-72771428D02*
X48391961Y-72866666D01*
X48391961Y-72866666D02*
X48296723Y-72914285D01*
X48296723Y-72914285D02*
X48106247Y-72961904D01*
X48106247Y-72961904D02*
X47963390Y-72961904D01*
X47963390Y-72961904D02*
X47772914Y-72914285D01*
X47772914Y-72914285D02*
X47677676Y-72866666D01*
X47677676Y-72866666D02*
X47582438Y-72771428D01*
X47582438Y-72771428D02*
X47534819Y-72628571D01*
X47534819Y-72628571D02*
X47534819Y-72533333D01*
X47534819Y-72533333D02*
X47582438Y-72390476D01*
X47582438Y-72390476D02*
X47630057Y-72342857D01*
X48534819Y-71390476D02*
X48534819Y-71961904D01*
X48534819Y-71676190D02*
X47534819Y-71676190D01*
X47534819Y-71676190D02*
X47677676Y-71771428D01*
X47677676Y-71771428D02*
X47772914Y-71866666D01*
X47772914Y-71866666D02*
X47820533Y-71961904D01*
X47630057Y-71009523D02*
X47582438Y-70961904D01*
X47582438Y-70961904D02*
X47534819Y-70866666D01*
X47534819Y-70866666D02*
X47534819Y-70628571D01*
X47534819Y-70628571D02*
X47582438Y-70533333D01*
X47582438Y-70533333D02*
X47630057Y-70485714D01*
X47630057Y-70485714D02*
X47725295Y-70438095D01*
X47725295Y-70438095D02*
X47820533Y-70438095D01*
X47820533Y-70438095D02*
X47963390Y-70485714D01*
X47963390Y-70485714D02*
X48534819Y-71057142D01*
X48534819Y-71057142D02*
X48534819Y-70438095D01*
X45833333Y-134359580D02*
X45785714Y-134407200D01*
X45785714Y-134407200D02*
X45642857Y-134454819D01*
X45642857Y-134454819D02*
X45547619Y-134454819D01*
X45547619Y-134454819D02*
X45404762Y-134407200D01*
X45404762Y-134407200D02*
X45309524Y-134311961D01*
X45309524Y-134311961D02*
X45261905Y-134216723D01*
X45261905Y-134216723D02*
X45214286Y-134026247D01*
X45214286Y-134026247D02*
X45214286Y-133883390D01*
X45214286Y-133883390D02*
X45261905Y-133692914D01*
X45261905Y-133692914D02*
X45309524Y-133597676D01*
X45309524Y-133597676D02*
X45404762Y-133502438D01*
X45404762Y-133502438D02*
X45547619Y-133454819D01*
X45547619Y-133454819D02*
X45642857Y-133454819D01*
X45642857Y-133454819D02*
X45785714Y-133502438D01*
X45785714Y-133502438D02*
X45833333Y-133550057D01*
X46404762Y-133883390D02*
X46309524Y-133835771D01*
X46309524Y-133835771D02*
X46261905Y-133788152D01*
X46261905Y-133788152D02*
X46214286Y-133692914D01*
X46214286Y-133692914D02*
X46214286Y-133645295D01*
X46214286Y-133645295D02*
X46261905Y-133550057D01*
X46261905Y-133550057D02*
X46309524Y-133502438D01*
X46309524Y-133502438D02*
X46404762Y-133454819D01*
X46404762Y-133454819D02*
X46595238Y-133454819D01*
X46595238Y-133454819D02*
X46690476Y-133502438D01*
X46690476Y-133502438D02*
X46738095Y-133550057D01*
X46738095Y-133550057D02*
X46785714Y-133645295D01*
X46785714Y-133645295D02*
X46785714Y-133692914D01*
X46785714Y-133692914D02*
X46738095Y-133788152D01*
X46738095Y-133788152D02*
X46690476Y-133835771D01*
X46690476Y-133835771D02*
X46595238Y-133883390D01*
X46595238Y-133883390D02*
X46404762Y-133883390D01*
X46404762Y-133883390D02*
X46309524Y-133931009D01*
X46309524Y-133931009D02*
X46261905Y-133978628D01*
X46261905Y-133978628D02*
X46214286Y-134073866D01*
X46214286Y-134073866D02*
X46214286Y-134264342D01*
X46214286Y-134264342D02*
X46261905Y-134359580D01*
X46261905Y-134359580D02*
X46309524Y-134407200D01*
X46309524Y-134407200D02*
X46404762Y-134454819D01*
X46404762Y-134454819D02*
X46595238Y-134454819D01*
X46595238Y-134454819D02*
X46690476Y-134407200D01*
X46690476Y-134407200D02*
X46738095Y-134359580D01*
X46738095Y-134359580D02*
X46785714Y-134264342D01*
X46785714Y-134264342D02*
X46785714Y-134073866D01*
X46785714Y-134073866D02*
X46738095Y-133978628D01*
X46738095Y-133978628D02*
X46690476Y-133931009D01*
X46690476Y-133931009D02*
X46595238Y-133883390D01*
X42833333Y-163954819D02*
X42500000Y-163478628D01*
X42261905Y-163954819D02*
X42261905Y-162954819D01*
X42261905Y-162954819D02*
X42642857Y-162954819D01*
X42642857Y-162954819D02*
X42738095Y-163002438D01*
X42738095Y-163002438D02*
X42785714Y-163050057D01*
X42785714Y-163050057D02*
X42833333Y-163145295D01*
X42833333Y-163145295D02*
X42833333Y-163288152D01*
X42833333Y-163288152D02*
X42785714Y-163383390D01*
X42785714Y-163383390D02*
X42738095Y-163431009D01*
X42738095Y-163431009D02*
X42642857Y-163478628D01*
X42642857Y-163478628D02*
X42261905Y-163478628D01*
X43166667Y-162954819D02*
X43785714Y-162954819D01*
X43785714Y-162954819D02*
X43452381Y-163335771D01*
X43452381Y-163335771D02*
X43595238Y-163335771D01*
X43595238Y-163335771D02*
X43690476Y-163383390D01*
X43690476Y-163383390D02*
X43738095Y-163431009D01*
X43738095Y-163431009D02*
X43785714Y-163526247D01*
X43785714Y-163526247D02*
X43785714Y-163764342D01*
X43785714Y-163764342D02*
X43738095Y-163859580D01*
X43738095Y-163859580D02*
X43690476Y-163907200D01*
X43690476Y-163907200D02*
X43595238Y-163954819D01*
X43595238Y-163954819D02*
X43309524Y-163954819D01*
X43309524Y-163954819D02*
X43214286Y-163907200D01*
X43214286Y-163907200D02*
X43166667Y-163859580D01*
D13*
G04 #@! TO.C,U6*
X40590000Y-54200000D02*
X40590000Y-53250000D01*
X41990000Y-54200000D02*
X40590000Y-54200000D01*
X57590000Y-54200000D02*
X58990000Y-54200000D01*
X58990000Y-54200000D02*
X58990000Y-53250000D01*
X40590000Y-35250000D02*
X40090000Y-35250000D01*
X40590000Y-34750000D01*
X40590000Y-35250000D01*
G36*
X40590000Y-35250000D02*
G01*
X40090000Y-35250000D01*
X40590000Y-34750000D01*
X40590000Y-35250000D01*
G37*
G04 #@! TO.C,C18*
X55120000Y-94500000D02*
G75*
G02*
X46880000Y-94500000I-4120000J0D01*
G01*
X46880000Y-94500000D02*
G75*
G02*
X55120000Y-94500000I4120000J0D01*
G01*
X52040000Y-93780000D02*
X55017000Y-93780000D01*
X52040000Y-93740000D02*
X55009000Y-93740000D01*
X52040000Y-93700000D02*
X55002000Y-93700000D01*
X52040000Y-93660000D02*
X54993000Y-93660000D01*
X52040000Y-93620000D02*
X54985000Y-93620000D01*
X52040000Y-93580000D02*
X54976000Y-93580000D01*
X52040000Y-93540000D02*
X54967000Y-93540000D01*
X52040000Y-93500000D02*
X54957000Y-93500000D01*
X52040000Y-93460000D02*
X54947000Y-93460000D01*
X52040000Y-93420000D02*
X54936000Y-93420000D01*
X52040000Y-93380000D02*
X54925000Y-93380000D01*
X52040000Y-93340000D02*
X54913000Y-93340000D01*
X52040000Y-93300000D02*
X54901000Y-93300000D01*
X52040000Y-93260000D02*
X54889000Y-93260000D01*
X52040000Y-93220000D02*
X54876000Y-93220000D01*
X52040000Y-93180000D02*
X54863000Y-93180000D01*
X52040000Y-93140000D02*
X54849000Y-93140000D01*
X52040000Y-93100000D02*
X54835000Y-93100000D01*
X52040000Y-93060000D02*
X54820000Y-93060000D01*
X52040000Y-93020000D02*
X54805000Y-93020000D01*
X52040000Y-92980000D02*
X54789000Y-92980000D01*
X52040000Y-92940000D02*
X54773000Y-92940000D01*
X52040000Y-92900000D02*
X54757000Y-92900000D01*
X52040000Y-92860000D02*
X54740000Y-92860000D01*
X52040000Y-92820000D02*
X54722000Y-92820000D01*
X52040000Y-92780000D02*
X54704000Y-92780000D01*
X52040000Y-92740000D02*
X54685000Y-92740000D01*
X52040000Y-92700000D02*
X54666000Y-92700000D01*
X52040000Y-92660000D02*
X54646000Y-92660000D01*
X52040000Y-92620000D02*
X54626000Y-92620000D01*
X52040000Y-92580000D02*
X54605000Y-92580000D01*
X52040000Y-92540000D02*
X54584000Y-92540000D01*
X52040000Y-92500000D02*
X54562000Y-92500000D01*
X52040000Y-92460000D02*
X54539000Y-92460000D01*
X52040000Y-92420000D02*
X54516000Y-92420000D01*
X52040000Y-92380000D02*
X54493000Y-92380000D01*
X52040000Y-92340000D02*
X54468000Y-92340000D01*
X52040000Y-92300000D02*
X54443000Y-92300000D01*
X52040000Y-92260000D02*
X54418000Y-92260000D01*
X52040000Y-92220000D02*
X54392000Y-92220000D01*
X52040000Y-92180000D02*
X54365000Y-92180000D01*
X52040000Y-92140000D02*
X54337000Y-92140000D01*
X52040000Y-92100000D02*
X54309000Y-92100000D01*
X52040000Y-92060000D02*
X54280000Y-92060000D01*
X52040000Y-92020000D02*
X54250000Y-92020000D01*
X52040000Y-91980000D02*
X54219000Y-91980000D01*
X52040000Y-91940000D02*
X54188000Y-91940000D01*
X52040000Y-91900000D02*
X54156000Y-91900000D01*
X52040000Y-91860000D02*
X54123000Y-91860000D01*
X52040000Y-91820000D02*
X54089000Y-91820000D01*
X52040000Y-91780000D02*
X54055000Y-91780000D01*
X52040000Y-91740000D02*
X54019000Y-91740000D01*
X50467000Y-90420000D02*
X51533000Y-90420000D01*
X50232000Y-90460000D02*
X51768000Y-90460000D01*
X50053000Y-90500000D02*
X51947000Y-90500000D01*
X49903000Y-90540000D02*
X52097000Y-90540000D01*
X49772000Y-90580000D02*
X52228000Y-90580000D01*
X49654000Y-90620000D02*
X52346000Y-90620000D01*
X49547000Y-90660000D02*
X52453000Y-90660000D01*
X49448000Y-90700000D02*
X52552000Y-90700000D01*
X49356000Y-90740000D02*
X52644000Y-90740000D01*
X49269000Y-90780000D02*
X52731000Y-90780000D01*
X49187000Y-90820000D02*
X52813000Y-90820000D01*
X49110000Y-90860000D02*
X52890000Y-90860000D01*
X49036000Y-90900000D02*
X52964000Y-90900000D01*
X48966000Y-90940000D02*
X53034000Y-90940000D01*
X48899000Y-90980000D02*
X53101000Y-90980000D01*
X48835000Y-91020000D02*
X53165000Y-91020000D01*
X48773000Y-91060000D02*
X53227000Y-91060000D01*
X48713000Y-91100000D02*
X53287000Y-91100000D01*
X48685000Y-98909698D02*
X48685000Y-98109698D01*
X48656000Y-91140000D02*
X53344000Y-91140000D01*
X48600000Y-91180000D02*
X53400000Y-91180000D01*
X48547000Y-91220000D02*
X53453000Y-91220000D01*
X48495000Y-91260000D02*
X53505000Y-91260000D01*
X48445000Y-91300000D02*
X53555000Y-91300000D01*
X48396000Y-91340000D02*
X53604000Y-91340000D01*
X48349000Y-91380000D02*
X53651000Y-91380000D01*
X48304000Y-91420000D02*
X53696000Y-91420000D01*
X48285000Y-98509698D02*
X49085000Y-98509698D01*
X48259000Y-91460000D02*
X53741000Y-91460000D01*
X48216000Y-91500000D02*
X53784000Y-91500000D01*
X48174000Y-91540000D02*
X53826000Y-91540000D01*
X48133000Y-91580000D02*
X53867000Y-91580000D01*
X48094000Y-91620000D02*
X53906000Y-91620000D01*
X48055000Y-91660000D02*
X53945000Y-91660000D01*
X48018000Y-91700000D02*
X53982000Y-91700000D01*
X47981000Y-91740000D02*
X49960000Y-91740000D01*
X47945000Y-91780000D02*
X49960000Y-91780000D01*
X47911000Y-91820000D02*
X49960000Y-91820000D01*
X47877000Y-91860000D02*
X49960000Y-91860000D01*
X47844000Y-91900000D02*
X49960000Y-91900000D01*
X47812000Y-91940000D02*
X49960000Y-91940000D01*
X47781000Y-91980000D02*
X49960000Y-91980000D01*
X47750000Y-92020000D02*
X49960000Y-92020000D01*
X47720000Y-92060000D02*
X49960000Y-92060000D01*
X47691000Y-92100000D02*
X49960000Y-92100000D01*
X47663000Y-92140000D02*
X49960000Y-92140000D01*
X47635000Y-92180000D02*
X49960000Y-92180000D01*
X47608000Y-92220000D02*
X49960000Y-92220000D01*
X47582000Y-92260000D02*
X49960000Y-92260000D01*
X47557000Y-92300000D02*
X49960000Y-92300000D01*
X47532000Y-92340000D02*
X49960000Y-92340000D01*
X47507000Y-92380000D02*
X49960000Y-92380000D01*
X47484000Y-92420000D02*
X49960000Y-92420000D01*
X47461000Y-92460000D02*
X49960000Y-92460000D01*
X47438000Y-92500000D02*
X49960000Y-92500000D01*
X47416000Y-92540000D02*
X49960000Y-92540000D01*
X47395000Y-92580000D02*
X49960000Y-92580000D01*
X47374000Y-92620000D02*
X49960000Y-92620000D01*
X47354000Y-92660000D02*
X49960000Y-92660000D01*
X47334000Y-92700000D02*
X49960000Y-92700000D01*
X47315000Y-92740000D02*
X49960000Y-92740000D01*
X47296000Y-92780000D02*
X49960000Y-92780000D01*
X47278000Y-92820000D02*
X49960000Y-92820000D01*
X47260000Y-92860000D02*
X49960000Y-92860000D01*
X47243000Y-92900000D02*
X49960000Y-92900000D01*
X47227000Y-92940000D02*
X49960000Y-92940000D01*
X47211000Y-92980000D02*
X49960000Y-92980000D01*
X47195000Y-93020000D02*
X49960000Y-93020000D01*
X47180000Y-93060000D02*
X49960000Y-93060000D01*
X47165000Y-93100000D02*
X49960000Y-93100000D01*
X47151000Y-93140000D02*
X49960000Y-93140000D01*
X47137000Y-93180000D02*
X49960000Y-93180000D01*
X47124000Y-93220000D02*
X49960000Y-93220000D01*
X47111000Y-93260000D02*
X49960000Y-93260000D01*
X47099000Y-93300000D02*
X49960000Y-93300000D01*
X47087000Y-93340000D02*
X49960000Y-93340000D01*
X47075000Y-93380000D02*
X49960000Y-93380000D01*
X47064000Y-93420000D02*
X49960000Y-93420000D01*
X47053000Y-93460000D02*
X49960000Y-93460000D01*
X47043000Y-93500000D02*
X49960000Y-93500000D01*
X47033000Y-93540000D02*
X49960000Y-93540000D01*
X47024000Y-93580000D02*
X49960000Y-93580000D01*
X47015000Y-93620000D02*
X49960000Y-93620000D01*
X47007000Y-93660000D02*
X49960000Y-93660000D01*
X46998000Y-93700000D02*
X49960000Y-93700000D01*
X46991000Y-93740000D02*
X49960000Y-93740000D01*
X46983000Y-93780000D02*
X49960000Y-93780000D01*
X46977000Y-93820000D02*
X55023000Y-93820000D01*
X46970000Y-93860000D02*
X55030000Y-93860000D01*
X46964000Y-93900000D02*
X55036000Y-93900000D01*
X46958000Y-93940000D02*
X55042000Y-93940000D01*
X46953000Y-93980000D02*
X55047000Y-93980000D01*
X46948000Y-94020000D02*
X55052000Y-94020000D01*
X46944000Y-94060000D02*
X55056000Y-94060000D01*
X46939000Y-94100000D02*
X55061000Y-94100000D01*
X46936000Y-94140000D02*
X55064000Y-94140000D01*
X46932000Y-94180000D02*
X55068000Y-94180000D01*
X46930000Y-94220000D02*
X55070000Y-94220000D01*
X46927000Y-94260000D02*
X55073000Y-94260000D01*
X46925000Y-94300000D02*
X55075000Y-94300000D01*
X46923000Y-94340000D02*
X55077000Y-94340000D01*
X46922000Y-94380000D02*
X55078000Y-94380000D01*
X46921000Y-94420000D02*
X55079000Y-94420000D01*
X46920000Y-94500000D02*
X55080000Y-94500000D01*
X46920000Y-94460000D02*
X55080000Y-94460000D01*
D14*
G04 #@! TO.C,D3*
X56176200Y-133877300D02*
G75*
G02*
X56023800Y-133877300I-76200J0D01*
G01*
X56023800Y-133877300D02*
G75*
G02*
X56176200Y-133877300I76200J0D01*
G01*
X59325800Y-132061200D02*
X59325800Y-124796800D01*
X59325800Y-124796800D02*
X58083740Y-124796800D01*
X52874200Y-124796800D02*
X52874200Y-132061200D01*
X52874200Y-132061200D02*
X54116260Y-132061200D01*
X58083740Y-132061200D02*
X59325800Y-132061200D01*
X54116260Y-124796800D02*
X52874200Y-124796800D01*
G04 #@! TO.C,D4*
X41716260Y-165267800D02*
X40474200Y-165267800D01*
X45683740Y-172532200D02*
X46925800Y-172532200D01*
X40474200Y-172532200D02*
X41716260Y-172532200D01*
X40474200Y-165267800D02*
X40474200Y-172532200D01*
X46925800Y-165267800D02*
X45683740Y-165267800D01*
X46925800Y-172532200D02*
X46925800Y-165267800D01*
X43776200Y-174348300D02*
G75*
G02*
X43623800Y-174348300I-76200J0D01*
G01*
X43623800Y-174348300D02*
G75*
G02*
X43776200Y-174348300I76200J0D01*
G01*
G04 #@! TO.C,D5*
X49266260Y-165267800D02*
X48024200Y-165267800D01*
X53233740Y-172532200D02*
X54475800Y-172532200D01*
X48024200Y-172532200D02*
X49266260Y-172532200D01*
X48024200Y-165267800D02*
X48024200Y-172532200D01*
X54475800Y-165267800D02*
X53233740Y-165267800D01*
X54475800Y-172532200D02*
X54475800Y-165267800D01*
X51326200Y-174348300D02*
G75*
G02*
X51173800Y-174348300I-76200J0D01*
G01*
X51173800Y-174348300D02*
G75*
G02*
X51326200Y-174348300I76200J0D01*
G01*
D15*
G04 #@! TO.C,J1*
X46700000Y-174200000D02*
G75*
G02*
X46300000Y-174200000I-200000J0D01*
G01*
X46300000Y-174200000D02*
G75*
G02*
X46700000Y-174200000I200000J0D01*
G01*
D16*
X51500000Y-188000000D02*
X41500000Y-188000000D01*
X51500000Y-185200000D02*
X51500000Y-188000000D01*
X51500000Y-175000000D02*
X51500000Y-180800000D01*
X48700000Y-175000000D02*
X51500000Y-175000000D01*
X41500000Y-188000000D02*
X41500000Y-185200000D01*
X41500000Y-180800000D02*
X41500000Y-175000000D01*
X41500000Y-175000000D02*
X44400000Y-175000000D01*
D13*
G04 #@! TO.C,R16*
X43302064Y-137220000D02*
X41847936Y-137220000D01*
X43302064Y-135400000D02*
X41847936Y-135400000D01*
G04 #@! TO.C,R17*
X41810436Y-139720000D02*
X43264564Y-139720000D01*
X41810436Y-137900000D02*
X43264564Y-137900000D01*
G04 #@! TO.C,U1*
X51165000Y-136702500D02*
X50835000Y-136462500D01*
X51165000Y-136222500D01*
X51165000Y-136702500D01*
G36*
X51165000Y-136702500D02*
G01*
X50835000Y-136462500D01*
X51165000Y-136222500D01*
X51165000Y-136702500D01*
G37*
X50925000Y-141122500D02*
X50830000Y-141122500D01*
X50925000Y-140797500D02*
X50925000Y-141122500D01*
X50925000Y-137002500D02*
X50925000Y-137327500D01*
X50830000Y-137002500D02*
X50925000Y-137002500D01*
X45900000Y-141122500D02*
X45805000Y-141122500D01*
X45805000Y-141122500D02*
X45805000Y-140797500D01*
X45805000Y-137327500D02*
X45805000Y-137002500D01*
X45805000Y-137002500D02*
X45900000Y-137002500D01*
G04 #@! TO.C,U4*
X45335000Y-149845000D02*
X45005000Y-150085000D01*
X45005000Y-149605000D01*
X45335000Y-149845000D01*
G36*
X45335000Y-149845000D02*
G01*
X45005000Y-150085000D01*
X45005000Y-149605000D01*
X45335000Y-149845000D01*
G37*
X50085000Y-152935000D02*
X49360000Y-152935000D01*
X50085000Y-152210000D02*
X50085000Y-152935000D01*
X50085000Y-148715000D02*
X50085000Y-149440000D01*
X49360000Y-148715000D02*
X50085000Y-148715000D01*
X46590000Y-152935000D02*
X45865000Y-152935000D01*
X45865000Y-152935000D02*
X45865000Y-152210000D01*
X45865000Y-149440000D02*
X45865000Y-148715000D01*
X45865000Y-148715000D02*
X46590000Y-148715000D01*
G04 #@! TO.C,U8*
X55500000Y-98817500D02*
X55260000Y-98487500D01*
X55740000Y-98487500D01*
X55500000Y-98817500D01*
G36*
X55500000Y-98817500D02*
G01*
X55260000Y-98487500D01*
X55740000Y-98487500D01*
X55500000Y-98817500D01*
G37*
X56360000Y-102547500D02*
X55885000Y-102547500D01*
X56360000Y-102072500D02*
X56360000Y-102547500D01*
X56360000Y-99327500D02*
X56360000Y-99802500D01*
X55885000Y-99327500D02*
X56360000Y-99327500D01*
X53615000Y-102547500D02*
X53140000Y-102547500D01*
X53140000Y-102547500D02*
X53140000Y-102072500D01*
X53140000Y-99802500D02*
X53140000Y-99327500D01*
X53140000Y-99327500D02*
X53615000Y-99327500D01*
G04 #@! TO.C,SW2*
X45500000Y-111000000D02*
X45500000Y-115500000D01*
X48000000Y-116750000D02*
X49500000Y-116750000D01*
X49500000Y-109750000D02*
X48000000Y-109750000D01*
X52000000Y-115500000D02*
X52000000Y-111000000D01*
G04 #@! TO.C,C6*
X40265000Y-160701248D02*
X40265000Y-161223752D01*
X41735000Y-160701248D02*
X41735000Y-161223752D01*
G04 #@! TO.C,+5V1*
X45800000Y-99800000D02*
X50200000Y-99800000D01*
X45800000Y-104200000D02*
X45800000Y-99800000D01*
X50200000Y-99800000D02*
X50200000Y-104200000D01*
X50200000Y-104200000D02*
X45800000Y-104200000D01*
G04 #@! TO.C,C15*
X56261252Y-158302500D02*
X55738748Y-158302500D01*
X56261252Y-159772500D02*
X55738748Y-159772500D01*
G04 #@! TO.C,B-1*
X55300000Y-183300000D02*
X59700000Y-183300000D01*
X55300000Y-187700000D02*
X55300000Y-183300000D01*
X59700000Y-183300000D02*
X59700000Y-187700000D01*
X59700000Y-187700000D02*
X55300000Y-187700000D01*
G04 #@! TO.C,R8*
X58265000Y-159772936D02*
X58265000Y-160227064D01*
X59735000Y-159772936D02*
X59735000Y-160227064D01*
G04 #@! TO.C,R9*
X56227064Y-156265000D02*
X55772936Y-156265000D01*
X56227064Y-157735000D02*
X55772936Y-157735000D01*
G04 #@! TO.C,R5*
X48690000Y-161302064D02*
X48690000Y-160847936D01*
X50160000Y-161302064D02*
X50160000Y-160847936D01*
G04 #@! TO.C,C4*
X50201248Y-144265000D02*
X50723752Y-144265000D01*
X50201248Y-145735000D02*
X50723752Y-145735000D01*
G04 #@! TO.C,P-_1*
X40800000Y-91300000D02*
X45200000Y-91300000D01*
X40800000Y-95700000D02*
X40800000Y-91300000D01*
X45200000Y-91300000D02*
X45200000Y-95700000D01*
X45200000Y-95700000D02*
X40800000Y-95700000D01*
G04 #@! TO.C,C2*
X56140000Y-142211252D02*
X56140000Y-140788748D01*
X58860000Y-142211252D02*
X58860000Y-140788748D01*
G04 #@! TO.C,R19*
X52590000Y-137264564D02*
X52590000Y-135810436D01*
X54410000Y-137264564D02*
X54410000Y-135810436D01*
G04 #@! TO.C,R7*
X43265000Y-71472936D02*
X43265000Y-71927064D01*
X44735000Y-71472936D02*
X44735000Y-71927064D01*
G04 #@! TO.C,C11*
X49140000Y-129363748D02*
X49140000Y-130786252D01*
X51860000Y-129363748D02*
X51860000Y-130786252D01*
G04 #@! TO.C,U5*
X40290000Y-63440000D02*
X41550000Y-63440000D01*
X40290000Y-67200000D02*
X40290000Y-63440000D01*
X47110000Y-63440000D02*
X45850000Y-63440000D01*
X47110000Y-67200000D02*
X47110000Y-63440000D01*
X40390000Y-68480000D02*
X40060000Y-68720000D01*
X40060000Y-68240000D01*
X40390000Y-68480000D01*
G36*
X40390000Y-68480000D02*
G01*
X40060000Y-68720000D01*
X40060000Y-68240000D01*
X40390000Y-68480000D01*
G37*
G04 #@! TO.C,U3*
X44390000Y-160452500D02*
X44440000Y-160452500D01*
X44390000Y-162272500D02*
X44390000Y-160452500D01*
X44440000Y-162272500D02*
X44390000Y-162272500D01*
X47460000Y-160452500D02*
X47510000Y-160452500D01*
X47510000Y-160452500D02*
X47510000Y-162272500D01*
X47510000Y-162272500D02*
X47460000Y-162272500D01*
X47790000Y-160152500D02*
X47460000Y-159912500D01*
X47790000Y-159672500D01*
X47790000Y-160152500D01*
G36*
X47790000Y-160152500D02*
G01*
X47460000Y-159912500D01*
X47790000Y-159672500D01*
X47790000Y-160152500D01*
G37*
G04 #@! TO.C,R18*
X55090000Y-135735436D02*
X55090000Y-137189564D01*
X56910000Y-135735436D02*
X56910000Y-137189564D01*
G04 #@! TO.C,DOUT1*
X40800000Y-78800000D02*
X45200000Y-78800000D01*
X40800000Y-83200000D02*
X40800000Y-78800000D01*
X45200000Y-78800000D02*
X45200000Y-83200000D01*
X45200000Y-83200000D02*
X40800000Y-83200000D01*
G04 #@! TO.C,R2*
X41772936Y-146265000D02*
X42227064Y-146265000D01*
X41772936Y-147735000D02*
X42227064Y-147735000D01*
G04 #@! TO.C,SPK-1*
X53800000Y-107262500D02*
X58200000Y-107262500D01*
X53800000Y-111662500D02*
X53800000Y-107262500D01*
X58200000Y-107262500D02*
X58200000Y-111662500D01*
X58200000Y-111662500D02*
X53800000Y-111662500D01*
G04 #@! TO.C,D2*
X44937500Y-147460000D02*
X47622500Y-147460000D01*
X47622500Y-145540000D02*
X44937500Y-145540000D01*
X47622500Y-147460000D02*
X47622500Y-145540000D01*
G04 #@! TO.C,R15*
X43264564Y-140590000D02*
X41810436Y-140590000D01*
X43264564Y-142410000D02*
X41810436Y-142410000D01*
G04 #@! TO.C,R13*
X48765000Y-85312936D02*
X48765000Y-85767064D01*
X50235000Y-85312936D02*
X50235000Y-85767064D01*
G04 #@! TO.C,R1*
X41772936Y-144265000D02*
X42227064Y-144265000D01*
X41772936Y-145735000D02*
X42227064Y-145735000D01*
G04 #@! TO.C,+5V_1*
X40300000Y-99800000D02*
X44700000Y-99800000D01*
X40300000Y-104200000D02*
X40300000Y-99800000D01*
X44700000Y-99800000D02*
X44700000Y-104200000D01*
X44700000Y-104200000D02*
X40300000Y-104200000D01*
G04 #@! TO.C,SW3*
X52060000Y-83540000D02*
X52060000Y-84740000D01*
X52060000Y-86340000D02*
X52060000Y-87540000D01*
X52060000Y-87540000D02*
X58460000Y-87540000D01*
X58460000Y-83540000D02*
X52060000Y-83540000D01*
X58460000Y-84740000D02*
X58460000Y-83540000D01*
X58460000Y-87540000D02*
X58460000Y-86340000D01*
G04 #@! TO.C,R6*
X41772936Y-55765000D02*
X42227064Y-55765000D01*
X41772936Y-57235000D02*
X42227064Y-57235000D01*
G04 #@! TO.C,C20*
X55265000Y-62298752D02*
X55265000Y-61776248D01*
X56735000Y-62298752D02*
X56735000Y-61776248D01*
G04 #@! TO.C,U2*
X44340000Y-155450000D02*
X44340000Y-157250000D01*
X47560000Y-156450000D02*
X47560000Y-155650000D01*
X47560000Y-156450000D02*
X47560000Y-157250000D01*
X47840000Y-155390000D02*
X47510000Y-155150000D01*
X47840000Y-154910000D01*
X47840000Y-155390000D01*
G36*
X47840000Y-155390000D02*
G01*
X47510000Y-155150000D01*
X47840000Y-154910000D01*
X47840000Y-155390000D01*
G37*
D17*
G04 #@! TO.C,D7*
X44570000Y-60200000D02*
G75*
G02*
X44370000Y-60200000I-100000J0D01*
G01*
X44370000Y-60200000D02*
G75*
G02*
X44570000Y-60200000I100000J0D01*
G01*
D13*
G04 #@! TO.C,J2*
X48230000Y-75230000D02*
X49500000Y-75230000D01*
X48230000Y-76500000D02*
X48230000Y-75230000D01*
X50577358Y-78610000D02*
X50890000Y-78610000D01*
X50577358Y-79470000D02*
X50890000Y-79470000D01*
X50577358Y-81150000D02*
X50890000Y-81150000D01*
X50577358Y-82010000D02*
X50890000Y-82010000D01*
X50660000Y-76070000D02*
X50890000Y-76070000D01*
X50660000Y-76930000D02*
X50890000Y-76930000D01*
X50890000Y-77770000D02*
X53650000Y-77770000D01*
X50890000Y-80310000D02*
X53650000Y-80310000D01*
X53650000Y-78610000D02*
X59650000Y-78610000D01*
X53650000Y-81150000D02*
X59650000Y-81150000D01*
X59650000Y-78610000D02*
X59650000Y-79470000D01*
X59650000Y-79470000D02*
X53650000Y-79470000D01*
X59650000Y-81150000D02*
X59650000Y-82010000D01*
X59650000Y-82010000D02*
X53650000Y-82010000D01*
X50890000Y-75120000D02*
X53650000Y-75120000D01*
X53650000Y-82960000D01*
X50890000Y-82960000D01*
X50890000Y-75120000D01*
X53650000Y-76070000D02*
X59650000Y-76070000D01*
X59650000Y-76930000D01*
X53650000Y-76930000D01*
X53650000Y-76070000D01*
G36*
X53650000Y-76070000D02*
G01*
X59650000Y-76070000D01*
X59650000Y-76930000D01*
X53650000Y-76930000D01*
X53650000Y-76070000D01*
G37*
G04 #@! TO.C,R20*
X49090000Y-155735436D02*
X49090000Y-157189564D01*
X50910000Y-155735436D02*
X50910000Y-157189564D01*
G04 #@! TO.C,L1*
X40600000Y-124800000D02*
X48000000Y-124800000D01*
X40600000Y-127100000D02*
X40600000Y-124800000D01*
X40600000Y-132200000D02*
X40600000Y-129900000D01*
X48000000Y-124800000D02*
X48000000Y-127100000D01*
X48000000Y-129900000D02*
X48000000Y-132200000D01*
X48000000Y-132200000D02*
X40600000Y-132200000D01*
G04 #@! TO.C,C3*
X42590000Y-151611252D02*
X42590000Y-150188748D01*
X44410000Y-151611252D02*
X44410000Y-150188748D01*
G04 #@! TO.C,R21*
X50765000Y-56772936D02*
X50765000Y-57227064D01*
X52235000Y-56772936D02*
X52235000Y-57227064D01*
G04 #@! TO.C,R10*
X55272936Y-55965000D02*
X55727064Y-55965000D01*
X55272936Y-57435000D02*
X55727064Y-57435000D01*
G04 #@! TO.C,C7*
X50201248Y-146265000D02*
X50723752Y-146265000D01*
X50201248Y-147735000D02*
X50723752Y-147735000D01*
G04 #@! TO.C,R11*
X50272936Y-106265000D02*
X50727064Y-106265000D01*
X50272936Y-107735000D02*
X50727064Y-107735000D01*
G04 #@! TO.C,C13*
X45776248Y-55765000D02*
X46298752Y-55765000D01*
X45776248Y-57235000D02*
X46298752Y-57235000D01*
G04 #@! TO.C,R4*
X41772936Y-157265000D02*
X42227064Y-157265000D01*
X41772936Y-158735000D02*
X42227064Y-158735000D01*
G04 #@! TO.C,U7*
X43927500Y-74090000D02*
X45747500Y-74090000D01*
X43927500Y-74140000D02*
X43927500Y-74090000D01*
X43927500Y-77210000D02*
X43927500Y-77160000D01*
X45747500Y-74090000D02*
X45747500Y-74140000D01*
X45747500Y-77160000D02*
X45747500Y-77210000D01*
X45747500Y-77210000D02*
X43927500Y-77210000D01*
X46527500Y-77490000D02*
X46047500Y-77490000D01*
X46287500Y-77160000D01*
X46527500Y-77490000D01*
G36*
X46527500Y-77490000D02*
G01*
X46047500Y-77490000D01*
X46287500Y-77160000D01*
X46527500Y-77490000D01*
G37*
G04 #@! TO.C,R14*
X40465000Y-75472936D02*
X40465000Y-75927064D01*
X41935000Y-75472936D02*
X41935000Y-75927064D01*
G04 #@! TO.C,R22*
X48665000Y-56772936D02*
X48665000Y-57227064D01*
X50135000Y-56772936D02*
X50135000Y-57227064D01*
G04 #@! TO.C,R12*
X56272936Y-58265000D02*
X56727064Y-58265000D01*
X56272936Y-59735000D02*
X56727064Y-59735000D01*
G04 #@! TO.C,C19*
X52765000Y-62298752D02*
X52765000Y-61776248D01*
X54235000Y-62298752D02*
X54235000Y-61776248D01*
G04 #@! TO.C,P-1*
X40750000Y-84350000D02*
X45150000Y-84350000D01*
X40750000Y-88750000D02*
X40750000Y-84350000D01*
X45150000Y-84350000D02*
X45150000Y-88750000D01*
X45150000Y-88750000D02*
X40750000Y-88750000D01*
G04 #@! TO.C,C16*
X52201248Y-103765000D02*
X52723752Y-103765000D01*
X52201248Y-105235000D02*
X52723752Y-105235000D01*
G04 #@! TO.C,U9*
X51600000Y-65600000D02*
X51600000Y-66125000D01*
X51600000Y-65600000D02*
X52125000Y-65600000D01*
X51600000Y-69900000D02*
X51600000Y-69375000D01*
X51600000Y-69900000D02*
X52125000Y-69900000D01*
X55435000Y-65600000D02*
X55660000Y-65600000D01*
X55900000Y-66125000D02*
X55900000Y-65900000D01*
X55900000Y-69900000D02*
X55375000Y-69900000D01*
X55900000Y-69900000D02*
X55900000Y-69375000D01*
X56230000Y-65840000D02*
X55900000Y-65600000D01*
X56230000Y-65360000D01*
X56230000Y-65840000D01*
G36*
X56230000Y-65840000D02*
G01*
X55900000Y-65600000D01*
X56230000Y-65360000D01*
X56230000Y-65840000D01*
G37*
G04 #@! TO.C,C17*
X49765000Y-62298752D02*
X49765000Y-61776248D01*
X51235000Y-62298752D02*
X51235000Y-61776248D01*
G04 #@! TO.C,SPK+1*
X53800000Y-112712500D02*
X58200000Y-112712500D01*
X53800000Y-117112500D02*
X53800000Y-112712500D01*
X58200000Y-112712500D02*
X58200000Y-117112500D01*
X58200000Y-117112500D02*
X53800000Y-117112500D01*
G04 #@! TO.C,BM1*
X55300000Y-178300000D02*
X59700000Y-178300000D01*
X55300000Y-182700000D02*
X55300000Y-178300000D01*
X59700000Y-178300000D02*
X59700000Y-182700000D01*
X59700000Y-182700000D02*
X55300000Y-182700000D01*
G04 #@! TO.C,B+1*
X55300000Y-173300000D02*
X59700000Y-173300000D01*
X55300000Y-177700000D02*
X55300000Y-173300000D01*
X59700000Y-173300000D02*
X59700000Y-177700000D01*
X59700000Y-177700000D02*
X55300000Y-177700000D01*
G04 #@! TO.C,D1*
X44937500Y-145260000D02*
X47622500Y-145260000D01*
X47622500Y-143340000D02*
X44937500Y-143340000D01*
X47622500Y-145260000D02*
X47622500Y-143340000D01*
G04 #@! TO.C,C5*
X40265000Y-151723752D02*
X40265000Y-151201248D01*
X41735000Y-151723752D02*
X41735000Y-151201248D01*
G04 #@! TO.C,L2*
X52100000Y-148300000D02*
X59500000Y-148300000D01*
X52100000Y-150600000D02*
X52100000Y-148300000D01*
X52100000Y-155700000D02*
X52100000Y-153400000D01*
X59500000Y-148300000D02*
X59500000Y-150600000D01*
X59500000Y-153400000D02*
X59500000Y-155700000D01*
X59500000Y-155700000D02*
X52100000Y-155700000D01*
G04 #@! TO.C,C1*
X52665000Y-142236252D02*
X52665000Y-140813748D01*
X55385000Y-142236252D02*
X55385000Y-140813748D01*
G04 #@! TO.C,C9*
X50690000Y-160776248D02*
X50690000Y-161298752D01*
X52160000Y-160776248D02*
X52160000Y-161298752D01*
G04 #@! TO.C,C10*
X49140000Y-125786252D02*
X49140000Y-124363748D01*
X51860000Y-125786252D02*
X51860000Y-124363748D01*
G04 #@! TO.C,D6*
X52490000Y-144350000D02*
X52490000Y-147650000D01*
X52490000Y-144350000D02*
X58000000Y-144350000D01*
X52490000Y-147650000D02*
X58000000Y-147650000D01*
G04 #@! TO.C,C14*
X40765000Y-71923752D02*
X40765000Y-71401248D01*
X42235000Y-71923752D02*
X42235000Y-71401248D01*
G04 #@! TO.C,SW1*
X51425000Y-70540000D02*
X51425000Y-71740000D01*
X51425000Y-73340000D02*
X51425000Y-74540000D01*
X51425000Y-74540000D02*
X57825000Y-74540000D01*
X57825000Y-70540000D02*
X51425000Y-70540000D01*
X57825000Y-71740000D02*
X57825000Y-70540000D01*
X57825000Y-74540000D02*
X57825000Y-73340000D01*
G04 #@! TO.C,C12*
X45665000Y-71438748D02*
X45665000Y-71961252D01*
X47135000Y-71438748D02*
X47135000Y-71961252D01*
G04 #@! TO.C,C8*
X48701248Y-132765000D02*
X49223752Y-132765000D01*
X48701248Y-134235000D02*
X49223752Y-134235000D01*
G04 #@! TO.C,R3*
X42265000Y-161227064D02*
X42265000Y-160772936D01*
X43735000Y-161227064D02*
X43735000Y-160772936D01*
G04 #@! TD*
M02*
